<?xml version="1.0" encoding="utf-8"?>
<!-- Generator: Adobe Illustrator 18.1.0, SVG Export Plug-In . SVG Version: 6.00 Build 0)  -->
<!DOCTYPE svg PUBLIC "-//W3C//DTD SVG 1.1//EN" "http://www.w3.org/Graphics/SVG/1.1/DTD/svg11.dtd">
<svg version="1.1" id="Layer_1" xmlns="http://www.w3.org/2000/svg" xmlns:xlink="http://www.w3.org/1999/xlink" x="0px" y="0px"
	 viewBox="0 0 850 850" style="enable-background:new 0 0 850 850;" xml:space="preserve">
<style type="text/css">
	.st0{fill:#071F28;}
	.st1{fill:#2E80BC;}
	.st2{fill:#0E415B;}
	.st3{fill:#134968;}
	.st4{fill:#0B3C4F;}
	.st5{fill:#0E5477;}
	.st6{opacity:0.1;fill:#FFFFFF;}
	.st7{fill:#0C374C;}
</style>
<rect class="st0" width="850" height="850"/>
<g>
	<g>
		<g>
			<path class="st1" d="M331.8,447c-4.5,0-9,0-13.4,0c-1.1,1.1-2.1,2.2-3.3,3.3c0,13.6,0,27.3,0,41c1.1,1.1,2.2,2.2,3.3,3.3
				c4.3,0,8.8,0,13.3,0c1.1-1.1,2.2-2.2,3.2-3.3c0-4,0-8,0-12.1c-1,0-2,0-3,0c-1,0-2,0-3,0c-1,0-2,0-2.9,0c-0.2-0.7-0.3-7.4-0.1-8.2
				c0.7-0.2,17.6-0.2,18.4,0c0,7.5,0,15.1,0,22.8c-3,3-6.1,6.1-9.3,9.3c-6.7,0-13.4,0-19.9,0c-3.2-3.2-6.4-6.3-9.5-9.4
				c0-0.4,0-0.7,0-1.1c0-14.5,0-29,0-43.4c0-0.8,0.2-1.4,0.8-2c2.6-2.5,5.1-5.1,7.6-7.6c0.3-0.3,0.5-0.6,0.9-0.9
				c6.7,0,13.4,0,20.1,0c3.1,3.1,6.2,6.1,9.2,9.2c-0.1,0.1-0.1,0.3-0.2,0.4c-1.8,1.8-3.7,3.7-5.6,5.6
				C336.3,451.5,334,449.3,331.8,447z"/>
		</g>
		<path class="st1" d="M444.2,447.5c-3.1-3.1-5.8-5.5-8.9-9.5c-6.6,0-13.4,0-20.1,0c-0.3,1-0.6,0.9-0.9,1.2
			c-2.5,2.5-5.1,5.3-7.6,7.8c-0.6,0.6-0.8,1.2-0.8,2.1c0,14.5,0.1,29,0.1,43.5c0,0.4,0,0.7,0,1.1c2,3.1,6.2,6.3,9.4,9.3
			c6.5,0,13.3,0,19.9,0c3.2-3,6.6-6.2,8.6-9.2c0-7.7,0-30.9,0-38.5L444.2,447.5z M435,491.3c-1,1.1-1.9,2.7-3,3.7c-4.5,0-9,0-13.3,0
			c-1.2-1-2.7-2.6-3.7-3.7c0-13.6,0-27.4,0-41c1-1.1,2.6-2.3,3.6-3.3c4.4,0,8.9,0,13.4,0l3,3.1C435,454.2,435,487.3,435,491.3z"/>
		<g>
			<path class="st1" d="M356,438.8c3.1,0,6.1,0,9.2,0c0,0.3,0.1,0.6,0.1,0.9c0,2.4,0,4.9,0,7.3c0,6.2,0,12.4,0,18.6c0,0.3,0,0.7,0,1
				c0.7,0.2,18.7,0.3,20.1,0.1c0-3.1,0-6.1,0-9.2c0-3.1,0-6.2,0-9.3c0-3.1,0-6.2,0-9.2c0.7-0.2,8.3-0.2,9.1-0.1c0,0,0,0,0,0.1
				c0,0,0,0,0,0.1c0,0.2,0.1,0.4,0.1,0.7c0,21,0,42.1,0,63.1c0,0,0,0.1-0.1,0.2c-1.4,0.2-3,0-4.5,0.1c-1.5,0-3,0-4.6,0
				c-0.1-1,0-1.9,0-2.8c0-0.9,0-1.9,0-2.8s0-1.9,0-2.8c0-0.9,0-1.9,0-2.8c0-0.9,0-1.9,0-2.8c0-0.9,0-1.9,0-2.8s0-1.9,0-2.8
				c0-0.9,0-1.9,0-2.8s0-1.9,0-2.8c0-0.9,0-1.8,0-2.7c-0.7-0.2-19.3-0.2-20.1,0c0,3.1,0,6.2,0,9.2c0,3.1,0,6.2,0,9.3
				c0,3.1,0,6.2,0,9.3c-3.1,0-6.1,0-9.1,0c-0.1-0.1-0.1-0.1-0.1-0.1c0,0,0,0,0-0.1c0-21.1,0-42.3-0.1-63.4
				C355.9,439.2,356,439,356,438.8z"/>
		</g>
		<g>
			<path class="st1" d="M532,582.2c1.1-1.1,2.2-2.2,3.3-3.4c0-1.7,0-3.5,0-5.4c-9.2-9.4-18.3-18.9-27.4-28.3c0-3.3,0-6.6,0-9.8
				c3-3,6-6,9.1-9.1c6.1,0,12.2,0,18.3,0c3,3,6,6,9,9.1c0,0.1-0.1,0.3-0.2,0.4c-1.8,1.8-3.6,3.6-5.4,5.4c-2.2-2.2-4.4-4.5-6.6-6.7
				c-4.1,0-7.9,0-11.8,0c-1.1,1.1-2.2,2.3-3.4,3.4c0,1,0,2,0,3.1c9.1,9.4,18.3,18.9,27.5,28.4c0,3.9,0,7.8,0,11.8
				c-3,3.1-6.1,6.1-9.2,9.2c-6.7,0-13.5,0-20.2,0c-3-3-6.1-6-9.1-9.2c2-2,3.8-3.8,5.8-5.8c2.3,2.3,4.5,4.5,6.7,6.7
				C523,582.2,527.5,582.2,532,582.2z"/>
		</g>
		<g>
			<path class="st1" d="M482,495c1.1-1.1,2.2-2.2,3.3-3.4c0-1.7,0-3.5,0-5.4c-9.2-9.4-18.3-18.9-27.4-28.3c0-3.3,0-6.6,0-9.8
				c3-3,6-6,9.1-9.1c6.1,0,12.2,0,18.3,0c3,3,6,6,9,9.1c0,0.1-0.1,0.3-0.2,0.4c-1.8,1.8-3.6,3.6-5.4,5.4c-2.2-2.2-4.4-4.5-6.6-6.7
				c-4.1,0-7.9,0-11.8,0c-1.1,1.1-2.2,2.3-3.4,3.4c0,1,0,2,0,3.1c9.1,9.4,18.3,18.9,27.5,28.4c0,3.9,0,7.8,0,11.8
				c-3,3.1-6.1,6.1-9.2,9.2c-6.7,0-13.5,0-20.2,0c-3-3-6.1-6-9.1-9.2c2-2,3.8-3.8,5.8-5.8c2.3,2.3,4.5,4.5,6.7,6.7
				C473,495,477.5,495,482,495z"/>
		</g>
		<g>
			<path class="st1" d="M529.8,503c-0.7,0.2-7.9,0.3-9,0.1c0,0,0,0-0.1-0.1c0,0,0-0.1,0-0.1c0-16.8,0-33.6,0-50.4c3,0,6,0,9.1,0
				C529.8,469.4,529.8,486.2,529.8,503z"/>
			<path class="st1" d="M506.2,447.3c-0.2-0.6-0.3-7-0.1-8c0.6-0.2,37.4-0.2,38.2,0c0.2,0.6,0.2,6.2,0.1,8c-0.3,0-0.6,0.1-0.9,0.1
				C539.2,447.3,508.6,447.3,506.2,447.3z"/>
		</g>
		<g>
			<path class="st1" d="M429.8,590.3c-0.7,0.2-7.9,0.3-9,0.1c0,0,0,0-0.1-0.1c0,0,0-0.1,0-0.1c0-16.8,0-33.6,0-50.4c3,0,6,0,9.1,0
				C429.8,556.6,429.8,573.4,429.8,590.3z"/>
			<path class="st1" d="M406.2,534.5c-0.2-0.6-0.3-7-0.1-8c0.6-0.2,37.4-0.2,38.2,0c0.2,0.6,0.2,6.2,0.1,8c-0.3,0-0.6,0.1-0.9,0.1
				C439.2,534.5,408.6,534.5,406.2,534.5z"/>
		</g>
		<g>
			<path class="st1" d="M305.5,590.5c0-21.4,0-42.8,0-64.2c0.4,0,0.7-0.1,1.1-0.1c7.7,0,15.3,0,23,0c1.4,0,2.9,0,4.3,0
				c0.3,0,0.6,0,0.8,0c3.2,3.2,6.3,6.3,9.4,9.4c0,4.5,0,9,0,13.6c-1.6,1.6-3.3,3.3-5,4.9c1.8,1.7,3.4,3.4,5,5c0,7.5,0,14.7,0,22.2
				c-3,3-6.1,6.1-9.2,9.2C325.1,590.5,315.3,590.5,305.5,590.5z M314.8,558.6c-0.2,1.7-0.1,23,0.1,23.7c5.5,0,11.1,0,16.8,0
				c0.8-0.8,1.7-1.7,2.6-2.6c0.4-0.4,0.6-0.8,0.6-1.4c0-5.2,0-10.3,0-15.5c0-0.3,0-0.6,0-0.8c-1.2-1.2-2.2-2.3-3.3-3.3
				C325.9,558.6,320.4,558.6,314.8,558.6z M334.8,546.7c0-2.7,0-5.5,0-8.2c0-0.3-0.1-0.7-0.3-0.9c-1-1.1-2.1-2.1-3-3
				c-5.6,0-11.2,0-16.7,0c-0.2,0.9-0.1,14.8,0,15.4c5.5,0,11.1,0,16.6,0C332.5,549,333.6,547.9,334.8,546.7z"/>
		</g>
		<path class="st1" d="M381.2,561.2c0.4,0,0.6-0.1,0.9-0.1c1.1-1.1,2.1-2.1,3.3-3.3c0-10.5,0-21.1,0-31.7c3.1,0,6.1,0,9.2,0
			c0,11.5,0,22.8,0,34.1c-3.1,3.1-6.2,6.2-9.3,9.3l-5.4,0c-0.1,1.2,0,2.4,0,3.6c0,1.2,0,2.3,0,3.5c0,1.2,0,2.4,0,3.6
			c0,1.2,0,2.3,0,3.5c0,1.2,0,2.4,0,3.6c0,1.2,0,2.3,0,3.4c-0.7,0.2-8.2,0.2-9.2,0c0-0.3,0-0.5,0-0.8c0-6.4,0-12.9,0-19.3
			c0-0.3,0-0.7,0-1.1c-1.9,0-3.7,0-5.4,0c-3.2-3.2-6.2-6.2-9.3-9.3c0-11.3,0-22.6,0-34.1c3.1,0,6.1,0,9.2,0c0,10.7,0,21.2,0,31.7
			c1.2,1.2,2.2,2.2,3.3,3.3c0.3,0,0.5,0.1,0.9,0.1H381.2z"/>
		<g>
			<path class="st1" d="M456,526.5c0.7-0.2,37.6-0.3,38.5,0c0,2.6,0,5.2,0,8c-1.9,0.1-3.9,0-5.8,0c-1.9,0-3.9,0-5.8,0
				c-2,0-3.9,0-5.9,0c-1.9,0-3.9,0-5.8,0c-1.9,0-13.2,0-15.2,0V526.5z"/>
			<path class="st1" d="M456,539.8h9.3c0,0-0.1,10.2-0.1,14.5c7.7,0,15.2,0,22.9,0c0,2.8,0,5.4,0,8.2c-1.9,0-3.8,0-5.7,0
				c-1.9,0-3.8,0-5.7,0c-1.9,0-3.8,0-5.7,0c-1.9,0-3.8,0-5.8,0c-0.1,5.5,0,11,0,16.4c1.1,1.1,2.3,2.2,3.5,3.4c8.4,0,17,0,25.7,0
				c0.2,0.7,0.2,7.1,0.1,8.1c0,0,0,0-0.1,0.1c0,0,0,0-0.1,0c-0.2,0-0.4,0.1-0.6,0.1c-9.5,0-19.1,0-28.4,0c-3.2-3.2-6.3-6.3-9.4-9.3
				V539.8z"/>
		</g>
		<g>
			<path class="st1" d="M356,613.8c0.7-0.2,37.6-0.3,38.5,0c0,2.6,0,5.2,0,8c-1.9,0.1-3.9,0-5.8,0c-1.9,0-3.9,0-5.8,0
				c-2,0-3.9,0-5.9,0c-1.9,0-3.9,0-5.8,0c-1.9,0-13.2,0-15.2,0V613.8z"/>
			<path class="st1" d="M356,627.1h9.3c0,0-0.1,10.2-0.1,14.5c7.7,0,15.2,0,22.9,0c0,2.8,0,5.4,0,8.2c-1.9,0-3.8,0-5.7,0
				c-1.9,0-3.8,0-5.7,0c-1.9,0-3.8,0-5.7,0c-1.9,0-3.8,0-5.8,0c-0.1,5.5,0,11,0,16.4c1.1,1.1,2.3,2.2,3.5,3.4c8.4,0,17,0,25.7,0
				c0.2,0.7,0.2,7.1,0.1,8.1c0,0,0,0-0.1,0.1c0,0,0,0-0.1,0c-0.2,0-0.4,0.1-0.6,0.1c-9.5,0-19.1,0-28.4,0c-3.2-3.2-6.3-6.3-9.4-9.3
				V627.1z"/>
		</g>
		<g>
			<path class="st1" d="M306,613.7c3.1,0,6.1,0,9.2,0c3.3,7.2,6.6,14.5,10,21.9c0.2-0.4,0.4-0.6,0.5-0.9c1.7-3.8,3.4-7.5,5.1-11.3
				c1.5-3.3,3-6.5,4.5-9.8c3.1,0,6.1,0,9.1,0c0.1,0.1,0.1,0.1,0.1,0.1c0,0,0,0,0,0.1c0,0.2,0.1,0.3,0.1,0.5c0,21.1,0,42.1,0,63.2
				c0,0,0,0.1-0.1,0.1c-0.6,0.2-7.8,0.3-9.1,0.1c0-0.2-0.1-0.5-0.1-0.8c0-3.1,0-6.1,0-9.2c0-10.9,0-21.8,0-32.6c0-0.2,0-0.5,0-0.9
				c-0.2,0.2-0.4,0.3-0.4,0.5c-1.6,3.5-3.2,6.9-4.7,10.4c-0.1,0.2-0.2,0.4-0.4,0.6c-3,0-5.9,0-9,0c-0.2-0.4-0.5-0.8-0.7-1.2
				c-1.2-2.7-2.4-5.3-3.7-8c-0.3-0.7-0.6-1.4-0.9-2.2c-0.3,0.1-0.3,0.4-0.3,0.6c0,13.9,0,27.8,0,41.7c0,0.4,0,0.8,0,1.1
				c-0.6,0.2-7.9,0.3-9,0.1c0,0,0,0-0.1-0.1c0,0,0,0,0-0.1c0-21.1,0-42.2,0-63.2C305.9,614.2,306,614,306,613.7z"/>
		</g>
		<g>
			<path class="st1" d="M406.1,613.7c12.9,0,25.6,0,38.5,0c0,17.1,0,34,0,51.2c-4.2,4.2-8.5,8.5-12.8,12.8c-8.5,0-17,0-25.5,0
				c-0.1-0.1-0.1-0.1-0.1-0.1c0,0,0,0,0-0.1c0-21.1,0-42.3,0-63.4C406,614.1,406,613.9,406.1,613.7z M435.4,622
				c-0.2-0.1-0.2-0.1-0.3-0.1c-0.1,0-0.2,0-0.2,0c-6.4,0-12.8,0-19.1,0c-0.1,0-0.2,0-0.3,0c0,0,0,0-0.1,0c0,0,0,0-0.1,0.1
				c0,15.4,0,30.8,0,46.2c0,0.4,0,0.7,0,1.1c0,0,0,0,0,0.1c0,0,0,0,0.1,0.1c4.3,0,8.6,0,13,0c0.1-0.1,0.3-0.3,0.5-0.5c2-2,4-4,6-5.9
				c0.4-0.4,0.5-0.8,0.5-1.3c0-10.3,0-20.6,0-30.8c0-2.7,0-5.5,0-8.2C435.4,622.5,435.4,622.2,435.4,622z"/>
		</g>
		<g>
			<path class="st1" d="M479.9,669.6c4.9,0,9.8,0,14.6,0c0.2,0.7,0.2,7.3,0,8.1c-0.6,0.2-37.1,0.3-38.4,0.1c-0.1-0.6,0-1.3-0.1-2
				c0-0.7,0-1.4,0-2.1c0-0.7,0-1.3,0-2c0-0.7,0-1.3,0-2.1c4.9,0,9.7,0,14.5,0c0.2-0.7,0.3-46.2,0.1-47.7c-0.2,0-0.5,0-0.7,0
				c-4.3,0-8.5,0-12.8,0c-0.3,0-0.7,0-1,0c0-2.7,0-5.3,0-7.9c0,0,0.1-0.1,0.1-0.1c0,0,0,0,0.1,0c0.2,0,0.4-0.1,0.6-0.1
				c12.5,0,25,0,37.4,0c0.1,0,0.2,0.1,0.2,0.1c0.2,0.7,0.2,7.3,0,8.1c-4.8,0-9.7,0-14.6,0C479.9,637.8,479.9,653.6,479.9,669.6z"/>
		</g>
		<g>
			<path class="st1" d="M526.6,622.4c0-0.2-0.2-0.4-0.2-0.6c-0.8,0-1.6-0.1-2.3,0c-0.1,0.2-0.1,0.2-0.1,0.3l-8.8,55.5
				c-0.7,0.2-8.2,0.2-9.1,0c0-0.6,0.1-1.3,0.2-1.9c0.2-1.2,0.4-2.5,0.6-3.7c0.1-0.8,0.3-1.7,0.4-2.5c0.3-2.2,0.7-4.3,1-6.5
				c0.3-1.7,0.6-3.4,0.8-5.1c0.2-1.1,0.3-2.1,0.5-3.2c0.1-0.8,0.2-1.6,0.4-2.3c0.4-2.5,0.8-5,1.2-7.6c0.3-1.8,0.5-3.6,0.8-5.3
				c0.3-1.7,0.6-3.3,0.8-5c0.2-1.1,0.3-2.2,0.5-3.3c0.1-0.8,0.2-1.6,0.4-2.3c0.3-1.7,0.6-3.4,0.9-5.1c0.2-1.1,0.3-2.1,0.5-3.2
				c0.2-1,0.3-2,0.5-3.1c0.2-1.1,0.3-2.2,0.5-3.2c0-0.2,0.1-0.4,0.1-0.7c6.1,0,12.2,0,18.4,0c0.1,0.4,0.2,0.9,0.2,1.3
				c0.2,1.2,0.4,2.4,0.6,3.6c0.1,0.8,0.3,1.7,0.4,2.5c0.3,2.1,0.7,4.3,1,6.4c0.2,1.5,0.4,3,0.7,4.5c0.3,1.7,0.6,3.3,0.9,5
				c0.2,1,0.3,2.1,0.5,3.1c0.2,1.1,0.4,2.1,0.5,3.1c0.1,0.9,0.3,1.7,0.4,2.6c0.4,2.5,0.7,5,1.1,7.6c0.3,1.7,0.6,3.5,0.9,5.2
				c0.3,1.7,0.5,3.4,0.8,5.2c0.2,1.1,0.4,2.1,0.5,3.1c0.1,0.8,0.2,1.6,0.4,2.4c0.4,2.8,0.8,5.6,1.3,8.5c-3.1,0-6.1,0-9.2,0
				L526.6,622.4z"/>
		</g>
	</g>
	<path class="st2" d="M496.1,339.6c0,10.2,8.2,18.7,18.4,18.7c7.7,0,14.4-4.3,17.1-11.3h0c5.8-15,8.9-31,8.9-47.8
		c0-50.9-29.2-95.2-71.7-116.7L496.1,339.6z"/>
	<path class="st3" d="M354.8,339.7c0,10.2-8.2,19.1-18.4,19.1c-7.7,0-14.4-4.8-17.1-10.8h0c-5.8-16-8.9-31.5-8.9-48.3
		c0-51,29.2-95.5,71.7-117L354.8,339.7z"/>
	<path class="st4" d="M453.9,332.4c61.8,0,45.8-149.5,64-93.7c4.5,13.7,6.9,28.3,6.9,43.5c0,45.6-21.7,86-55.5,111.5l-0.2,0.2
		c-0.3,0.2-0.7,0.5-1,0.7c-5.4,3.7-12,5.8-19.1,5.8c-18.9,0-34.2-15.3-34.2-34.2S430.1,332,449,332L453.9,332.4z"/>
	<path class="st2" d="M397,332.4c-61.8,0-45.8-149.5-64-93.7c-4.5,13.7-6.9,28.3-6.9,43.5c0,45.6,21.7,86,55.5,111.5l0.2,0.2
		c0.3,0.2,0.7,0.5,1,0.7c5.4,3.7,12,5.8,19.1,5.8c18.9,0,34.2-15.3,34.2-34.2S420.8,332,401.9,332L397,332.4z"/>
	<circle class="st3" cx="425.5" cy="269.7" r="97.6"/>
	<circle class="st5" cx="425.5" cy="250.7" r="78.5"/>
	<circle class="st6" cx="419.4" cy="249.4" r="72.5"/>
	<circle class="st7" cx="387.8" cy="250.7" r="29"/>
	<circle class="st7" cx="463.1" cy="250.7" r="29"/>
</g>
</svg>
