<?xml version="1.0" encoding="utf-8"?>
<!-- Generator: Adobe Illustrator 18.1.0, SVG Export Plug-In . SVG Version: 6.00 Build 0)  -->
<!DOCTYPE svg PUBLIC "-//W3C//DTD SVG 1.1//EN" "http://www.w3.org/Graphics/SVG/1.1/DTD/svg11.dtd">
<svg version="1.1" id="Layer_1" xmlns="http://www.w3.org/2000/svg" xmlns:xlink="http://www.w3.org/1999/xlink" x="0px" y="0px"
	 viewBox="0 0 850 850" style="enable-background:new 0 0 850 850;" xml:space="preserve">
<style type="text/css">
	.st0{fill:#63141E;}
	.st1{fill:url(#SVGID_1_);}
	.st2{fill:url(#SVGID_2_);}
	.st3{fill:#BD2632;}
	.st4{fill:none;stroke:#BD2632;stroke-miterlimit:10;}
</style>
<rect class="st0" width="850" height="850"/>
<g>
	<g>
		<rect x="481" y="167" width="191" height="101"/>
		<path class="st0" d="M527,185c-27.4,5.4-36,38.1-27.7,53.2c11.2,20.3,38.5,17.5,48.6,7.8c10.1-9.7-2,6.2-2,6.2s-21.2,19-48.5,9.9
			c-12-4-38.1-49.7-19.9-68.7c10.5-11,40.9-47.7,67.1-6.8C550.4,195.6,541.4,182,527,185z"/>
		<path class="st0" d="M626.2,185c27.4,5.4,36,38.1,27.7,53.2c-11.2,20.3-38.5,17.5-48.6,7.8c-10.1-9.7,2,6.2,2,6.2
			s21.2,19,48.5,9.9c12-4,38.1-49.7,19.9-68.7c-10.5-11-40.9-47.7-67.1-6.8C602.7,195.6,611.7,182,626.2,185z"/>
		<radialGradient id="SVGID_1_" cx="575.5983" cy="232.7778" r="119.0823" gradientUnits="userSpaceOnUse">
			<stop  offset="0" style="stop-color:#EC615C"/>
			<stop  offset="1" style="stop-color:#C1272D"/>
		</radialGradient>
		<path class="st1" d="M576.1,112h-1c-53.6,0-116.9,45.5-116.9,117.8c0,45,1.7,97.9,19.5,109.1c13.2,8.3,35.7,3.5,39-2
			c0,0,3.9,8.6,17.5,9.6c13.6,1,19-17.7,33-9.1c14,8.6,10.4,15.7,26.6,16.2s15.2-8.6,28.8-9.1c7.7-0.3,11.6,9.7,22.3,0
			c10.6-9.6,26.9,3.2,35.5-9.5c11.7-17.3,12.6-60.1,12.6-105.1C693,157.5,629.7,112,576.1,112z M525.6,257.7
			c-16.4,3.8-46,2.8-45.8-27.7c0.3-52.5,48.8-71.1,72.6-30.4C567.8,225.6,553.5,251.3,525.6,257.7z M627.5,257.7
			c-27.8-6.4-42.1-32.1-26.9-58.1c23.9-40.7,72.3-22,72.6,30.4C673.4,260.6,643.9,261.5,627.5,257.7z"/>
		<radialGradient id="SVGID_2_" cx="574.9188" cy="175.8491" r="149.4574" gradientUnits="userSpaceOnUse">
			<stop  offset="0" style="stop-color:#EC615C"/>
			<stop  offset="1" style="stop-color:#C1272D"/>
		</radialGradient>
		<path class="st2" d="M576.1,112h-1c-53.6,0-116.9,45.5-116.9,117.8c0,45,1.7,97.9,19.5,109.1c13.2,8.3,35.7,3.5,39-2
			c0,0,3.9,8.6,17.5,9.6c13.6,1,19-17.7,33-9.1c14,8.6,10.4,15.7,26.6,16.2s15.2-8.6,28.8-9.1c7.7-0.3,11.6,9.7,22.3,0
			c10.6-9.6,26.9,3.2,35.5-9.5c11.7-17.3,12.6-60.1,12.6-105.1C692.9,157.5,629.7,112,576.1,112z M525.6,257.7
			c-16.4,3.8-46,2.8-45.8-27.7c0.3-52.5,48.8-71.1,72.6-30.4C567.7,225.6,553.4,251.3,525.6,257.7z M627.5,257.7
			c-27.8-6.4-42.1-32.1-26.9-58.1c23.9-40.7,72.3-22,72.6,30.4C673.4,260.6,643.9,261.5,627.5,257.7z"/>
	</g>
	<g>
		<path class="st3" d="M283,345c-7.2,0-14.7-2.3-22.9-4.7c-5.5-1.7-11.2-3.4-17.6-4.7c-9-1.8-17.2,0.6-24.4,2.7
			c-4.1,1.2-8.1,2.4-11.7,2.6c-4.8,0.2-8.5-1.2-11.5-4.3c-2.7-2.9-6.7-10.1-10.3-39.1c-1.9-15.4-2.7-29.8-2.7-30
			c-0.1-2.4,1.7-4.5,4.1-4.6c2.4-0.1,4.5,1.7,4.6,4.1c0,0.1,0.8,14.3,2.7,29.5c3.4,27.3,7,33,8,34.1c2.3,2.5,6,1.8,14.3-0.7
			c7.8-2.3,17.4-5.1,28.6-2.8c6.7,1.4,12.9,3.2,18.3,4.9c12.2,3.7,21,6.3,29.1,2.4c15.4-7.5,24.7-6.7,30.8-6.2
			c2.2,0.2,4,0.3,4.8-0.1c0.7-0.3,1.8-1.6,3.3-5.5c2-5,2.9-12.7,3.8-20.1c0.2-1.4,0.3-2.8,0.5-4.1c0.3-2.4,2.5-4.1,4.9-3.8
			c2.4,0.3,4.1,2.5,3.8,4.9c-0.2,1.3-0.3,2.7-0.5,4.1c-1,8-2,16.2-4.4,22.3c-2.2,5.4-4.4,8.4-7.4,10c-3.1,1.6-6.2,1.3-9.6,1.1
			c-5.5-0.4-13-1.1-26.2,5.4C291.5,344.2,287.3,345,283,345z"/>
		
			<ellipse transform="matrix(0.9524 0.3049 -0.3049 0.9524 71.8338 -56.3049)" class="st3" cx="216.2" cy="201.8" rx="21.4" ry="27.3"/>
		
			<ellipse transform="matrix(0.9831 -0.1829 0.1829 0.9831 -32.869 52.2153)" class="st3" cx="266.6" cy="204.3" rx="16.8" ry="20.7"/>
		<path class="st3" d="M189.9,311.8c-10.1,0-18.1-4.7-22-13c-9.1-19.7-11.4-70.2-10.8-88c0-0.4,0.1-0.8,0.2-1.1
			c0.7-11.7,3.3-23.1,7.9-33.9c5.2-12.2,12.5-23.1,21.9-32.5c9.4-9.4,20.3-16.8,32.5-21.9c12.6-5.3,26-8,39.8-8
			c11.8,0,23.3,2,34.3,5.9c10.6,3.8,20.5,9.3,29.3,16.3c8.8,7,16.3,15.3,22.4,24.7c6.2,9.6,10.7,20,13.4,31c0,0.1,0,0.1,0,0.2
			l1.5,7.3c3.9,19.5,4.8,60.6,0.1,84.3c-2.4,12.3-8.6,18.2-20.7,19.7c-6.1,0.8-11.8-0.7-16.4-4.4c-4.3-3.4-7.5-8.5-9.2-14.7
			c-3-10.5-7.2-29.7-7.4-30.5c-0.5-2.4,1-4.7,3.3-5.2c2.4-0.5,4.7,1,5.2,3.3c0,0.2,4.4,19.8,7.3,30c2.5,9,8.5,13.7,16.1,12.7
			c8.3-1.1,11.5-4.2,13.2-12.7c4.4-22.4,3.6-62.5-0.1-80.8l-1.5-7.2c-2.5-10-6.6-19.6-12.2-28.3c-5.6-8.6-12.4-16.2-20.5-22.6
			c-8.1-6.4-17.1-11.4-26.8-14.9c-10-3.6-20.6-5.4-31.3-5.4c-12.6,0-24.9,2.5-36.4,7.3c-11.1,4.7-21.1,11.5-29.7,20
			c-8.6,8.6-15.3,18.6-20,29.7c-4.9,11.5-7.3,23.8-7.3,36.4c0,0.3,0,0.7-0.1,1c0,9.5,0.5,23.4,1.9,37.5c1.9,19.1,4.8,33.7,8.2,41.1
			c1.8,3.8,5.8,8.3,14.9,7.9c2.4-0.1,4.5,1.8,4.5,4.2c0.1,2.4-1.8,4.5-4.2,4.5C190.7,311.8,190.3,311.8,189.9,311.8z"/>
	</g>
</g>
<g>
	<circle class="st4" cx="460.4" cy="567.9" r="116"/>
	<circle class="st4" cx="437.2" cy="612" r="165.8"/>
	<circle class="st4" cx="570" cy="663.7" r="23.4"/>
	<circle class="st4" cx="412.8" cy="582.6" r="165.8"/>
	<circle class="st4" cx="488.4" cy="682.6" r="40.6"/>
	<circle class="st4" cx="460.4" cy="545.3" r="93.4"/>
	<circle class="st4" cx="460.4" cy="567.9" r="116"/>
	<circle class="st4" cx="460.4" cy="545.3" r="93.4"/>
	<circle class="st4" cx="450" cy="540.5" r="82.9"/>
	<circle class="st4" cx="413.3" cy="545.3" r="34.5"/>
	<circle class="st4" cx="507.5" cy="545.3" r="34.5"/>
</g>
</svg>
