<?xml version="1.0" encoding="utf-8"?>
<!-- Generator: Adobe Illustrator 18.1.0, SVG Export Plug-In . SVG Version: 6.00 Build 0)  -->
<!DOCTYPE svg PUBLIC "-//W3C//DTD SVG 1.1//EN" "http://www.w3.org/Graphics/SVG/1.1/DTD/svg11.dtd">
<svg version="1.1" id="Layer_1" xmlns="http://www.w3.org/2000/svg" xmlns:xlink="http://www.w3.org/1999/xlink" x="0px" y="0px"
	 viewBox="0 0 850 850" enable-background="new 0 0 850 850" xml:space="preserve">
<rect fill="#071F28" width="850" height="850"/>
<g>
	<path fill="#0E415B" d="M553.1,501.8c0,18.4,14.9,33.3,33.4,33.3c14,0,26.1-8.1,31-21.1h0.1c10.4-27,16.2-55.6,16.2-86
		c0-92.4-52.9-172.3-130-211.4L553.1,501.8z"/>
	<path fill="#134968" d="M296.9,501.9c0,18.4-15,33.2-33.4,33.2c-14,0-26.1-8.1-31-21.1h-0.1c-10.4-27-16.2-55.6-16.2-86
		c0-92.4,52.9-172.3,130-211.4L296.9,501.9z"/>
	<path fill="#0B3C4F" d="M476.6,488.6c112.1,0,83-271,116.1-169.9c8.1,24.8,12.5,51.3,12.5,78.8c0,82.6-39.4,156-100.7,202.2
		l-0.4,0.4c-0.6,0.4-1.2,0.9-1.8,1.3c-9.9,6.6-21.8,10.5-34.6,10.5c-34.2,0-61.9-27.7-61.9-61.9s27.7-61.9,61.9-61.9L476.6,488.6z"
		/>
	<path fill="#0E415B" d="M373.4,488.6c-112.1,0-83-271-116.1-169.9c-8.1,24.8-12.5,51.3-12.5,78.8c0,82.6,39.4,156,100.7,202.2
		l0.4,0.4c0.6,0.4,1.2,0.9,1.8,1.3c9.9,6.6,21.8,10.5,34.6,10.5c34.2,0,61.9-27.7,61.9-61.9s-27.6-62-61.8-62L373.4,488.6z"/>
	<circle fill="#134968" cx="425.1" cy="375" r="176.9"/>
	<circle fill="#0E5477" cx="425.1" cy="340.6" r="142.4"/>
	<circle opacity="0.1" fill="#FFFFFF" enable-background="new    " cx="414.1" cy="338.3" r="131.5"/>
	<circle fill="#0C374C" cx="356.8" cy="340.6" r="52.6"/>
	<circle fill="#0C374C" cx="493.3" cy="340.6" r="52.6"/>
</g>
</svg>
