<?xml version="1.0" encoding="utf-8"?>
<!-- Generator: Adobe Illustrator 18.1.0, SVG Export Plug-In . SVG Version: 6.00 Build 0)  -->
<!DOCTYPE svg PUBLIC "-//W3C//DTD SVG 1.1//EN" "http://www.w3.org/Graphics/SVG/1.1/DTD/svg11.dtd">
<svg version="1.1" id="Layer_1" xmlns="http://www.w3.org/2000/svg" xmlns:xlink="http://www.w3.org/1999/xlink" x="0px" y="0px"
	 viewBox="0 0 850 850" style="enable-background:new 0 0 850 850;" xml:space="preserve">
<style type="text/css">
	.st0{fill:#00417F;}
	.st1{fill:#0E415B;}
	.st2{fill:#134968;}
	.st3{fill:#0B3C4F;}
	.st4{fill:#0E5477;}
	.st5{opacity:0.1;fill:#FFFFFF;}
	.st6{fill:#0C374C;}
	.st7{fill:url(#SVGID_1_);}
</style>
<rect class="st0" width="850" height="850"/>
<g>
	<path class="st1" d="M553.1,501.8c0,18.4,14.9,33.3,33.4,33.3c14,0,26.1-8.1,31-21.1h0.1c10.4-27,16.2-55.6,16.2-86
		c0-92.4-52.9-172.3-130-211.4L553.1,501.8z"/>
	<path class="st2" d="M296.9,501.9c0,18.4-15,33.2-33.4,33.2c-14,0-26.1-8.1-31-21.1h-0.1c-10.4-27-16.2-55.6-16.2-86
		c0-92.4,52.9-172.3,130-211.4L296.9,501.9z"/>
	<path class="st3" d="M476.6,488.6c112.1,0,83-271,116.1-169.9c8.1,24.8,12.5,51.3,12.5,78.8c0,82.6-39.4,156-100.7,202.2l-0.4,0.4
		c-0.6,0.4-1.2,0.9-1.8,1.3c-9.9,6.6-21.8,10.5-34.6,10.5c-34.2,0-61.9-27.7-61.9-61.9s27.7-61.9,61.9-61.9L476.6,488.6z"/>
	<path class="st1" d="M373.4,488.6c-112.1,0-83-271-116.1-169.9c-8.1,24.8-12.5,51.3-12.5,78.8c0,82.6,39.4,156,100.7,202.2l0.4,0.4
		c0.6,0.4,1.2,0.9,1.8,1.3c9.9,6.6,21.8,10.5,34.6,10.5c34.2,0,61.9-27.7,61.9-61.9S416.6,488,382.4,488L373.4,488.6z"/>
	<circle class="st2" cx="425.1" cy="375" r="176.9"/>
	<circle class="st4" cx="425.1" cy="340.6" r="142.4"/>
	<circle class="st5" cx="414.1" cy="338.3" r="131.5"/>
	<circle class="st6" cx="356.8" cy="340.6" r="52.6"/>
	<circle class="st6" cx="493.3" cy="340.6" r="52.6"/>
	<radialGradient id="SVGID_1_" cx="425" cy="404.9993" r="207.8041" gradientUnits="userSpaceOnUse">
		<stop  offset="0" style="stop-color:#FFFFFF"/>
		<stop  offset="1" style="stop-color:#E3D0FF"/>
	</radialGradient>
	<path class="st7" d="M517.8,224.4c-27-16.6-58.7-26.2-92.7-26.2c-33.1,0-64.1,9.1-90.6,24.9c-70.7,41-118.2,117.3-118.2,204.9
		c0,30.4,5.7,59,16.2,86h0.1c4.9,13,17,21.1,31,21.1c6.8,0,13.2-2,18.5-5.5c16.6,27.1,38.2,50.9,63.5,70l0.4,0.4
		c0.6,0.4,1.2,0.9,1.8,1.3c9.9,6.6,21.8,10.5,34.6,10.5c16.5,0,31.5-6.5,42.7-17c11.1,10.6,26.1,17,42.7,17
		c12.8,0,24.7-3.9,34.6-10.5c0.6-0.4,1.2-0.8,1.8-1.3l0.4-0.4c25.4-19.1,47-42.8,63.6-70c5.3,3.5,11.6,5.4,18.4,5.4
		c14,0,26.1-8.1,31-21.1h0.1c10.4-27,16.2-55.6,16.2-86C633.8,341.3,587.2,265.7,517.8,224.4z"/>
</g>
</svg>
