<?xml version="1.0" encoding="utf-8"?>
<!-- Generator: Adobe Illustrator 18.1.0, SVG Export Plug-In . SVG Version: 6.00 Build 0)  -->
<!DOCTYPE svg PUBLIC "-//W3C//DTD SVG 1.1//EN" "http://www.w3.org/Graphics/SVG/1.1/DTD/svg11.dtd">
<svg version="1.1" id="Layer_1" xmlns="http://www.w3.org/2000/svg" xmlns:xlink="http://www.w3.org/1999/xlink" x="0px" y="0px"
	 viewBox="0 0 850 850" style="enable-background:new 0 0 850 850;" xml:space="preserve">
<style type="text/css">
	.st0{fill:#AA2624;}
	.st1{fill:#EE7A79;}
</style>
<g>
	<rect class="st0" width="850" height="850"/>
	<g>
		<g>
			<path class="st1" d="M290.8,265.5c-0.3,0.4-0.4,0.6-0.6,0.7c-0.1,0.1-0.3,0.1-0.5,0.1c-0.4,0-0.9-0.3-1.5-1
				c-0.6-0.7-1.6-1.4-2.8-2.2c-1.2-0.8-2.9-1.6-4.9-2.3c-2-0.7-4.5-1-7.6-1c-2.8,0-5.6,0.5-8.2,1.5c-2.6,1-4.9,2.4-6.9,4.1
				c-2,1.7-3.6,3.7-4.8,6c-1.2,2.2-1.8,4.6-1.8,7c0,2.3,0.5,4.2,1.5,5.8c1,1.6,2.3,2.9,3.9,4c1.6,1.1,3.5,2,5.5,2.8
				c2.1,0.8,4.2,1.6,6.4,2.4c2.2,0.8,4.3,1.6,6.4,2.5c2.1,0.9,4,1.9,5.6,3.2c1.6,1.2,2.9,2.8,3.9,4.6c1,1.8,1.5,4,1.5,6.6
				c0,2.9-0.6,5.8-1.7,8.7c-1.1,2.8-2.8,5.4-4.9,7.6c-2.1,2.2-4.8,4-7.8,5.4c-3.1,1.3-6.5,2-10.4,2c-2.4,0-4.5-0.2-6.4-0.6
				c-1.9-0.4-3.6-1-5.1-1.8s-2.9-1.7-4.2-2.8c-1.3-1.1-2.5-2.3-3.7-3.7l0.4-0.4c0.3-0.3,0.5-0.4,0.7-0.4c0.2,0,0.7,0.4,1.4,1.3
				c0.7,0.9,1.7,1.8,3.1,2.9c1.4,1,3.2,2,5.4,2.9c2.2,0.9,5,1.3,8.4,1.3c3.4,0,6.5-0.6,9.4-1.9c2.8-1.2,5.3-2.9,7.3-5
				c2-2.1,3.6-4.4,4.7-7.1c1.1-2.7,1.7-5.5,1.7-8.4c0-2.4-0.5-4.5-1.5-6.2c-1-1.7-2.3-3.1-3.9-4.3c-1.6-1.2-3.5-2.2-5.6-3
				c-2.1-0.8-4.2-1.6-6.4-2.3c-2.2-0.7-4.3-1.5-6.4-2.4c-2.1-0.8-3.9-1.9-5.5-3c-1.6-1.2-2.9-2.6-3.9-4.3c-1-1.7-1.5-3.8-1.5-6.3
				c0-2.6,0.6-5.2,1.8-7.6c1.2-2.4,2.9-4.6,5-6.4c2.1-1.8,4.6-3.3,7.4-4.4c2.8-1.1,5.9-1.6,9.1-1.6c3.8,0,7.1,0.6,9.9,1.7
				C285.9,261.1,288.5,262.9,290.8,265.5z"/>
			<path class="st1" d="M309.6,321.8c0-0.2,0-0.6,0-1.1c0-0.5,0.1-1.1,0.1-2c0.1-0.9,0.2-2,0.4-3.4c0.2-1.4,0.4-3.1,0.6-5.2
				l5.6-46.2h-11.2c-0.6,0-0.9-0.2-0.9-0.7l0.1-0.4l12.1-0.3l3.2-21.4c0-0.2,0.1-0.5,0.3-0.7c0.1-0.2,0.3-0.3,0.6-0.3h0.4l-2.8,22.4
				h22.9L341,264h-23l-5.6,46.3c-0.3,2-0.4,3.7-0.6,5.1c-0.1,1.3-0.3,2.5-0.4,3.4c-0.1,0.9-0.2,1.6-0.2,2.1c0,0.5,0,0.8,0,1
				c0,1.9,0.2,3.5,0.7,4.9c0.5,1.3,1.1,2.4,2,3.3c0.8,0.9,1.8,1.5,3,1.9c1.1,0.4,2.4,0.6,3.7,0.6c1.9,0,3.7-0.3,5.2-1
				c1.5-0.6,2.8-1.3,4-2.1c1.1-0.7,2-1.4,2.7-2.1c0.7-0.6,1.2-1,1.4-1c0.2,0,0.4,0.1,0.6,0.3l0.1,0.3c-1.6,2-3.8,3.7-6.4,5.1
				c-2.6,1.3-5.2,2-7.9,2c-3.4,0-6.1-0.9-8.1-2.8C310.5,329.2,309.6,326.1,309.6,321.8z"/>
			<path class="st1" d="M397.1,332.8h-0.4c-0.4,0-0.6-0.1-0.7-0.3c-0.1-0.2-0.2-0.4-0.2-0.6l3.6-31.3c-1.9,4.8-4.1,9.3-6.5,13.4
				c-2.4,4.1-5.1,7.6-7.9,10.5c-2.8,2.9-5.8,5.2-9,6.8c-3.1,1.6-6.4,2.4-9.7,2.4c-3.2,0-6-0.6-8.3-1.9c-2.3-1.2-4.1-3-5.5-5.2
				c-1.4-2.2-2.5-4.9-3.1-8c-0.7-3.1-1-6.5-1-10.2c0-4.2,0.5-8.3,1.6-12.4c1.1-4.1,2.6-8,4.6-11.7c1.9-3.7,4.3-7.1,7-10.3
				c2.7-3.1,5.7-5.9,8.9-8.2c3.2-2.3,6.6-4.1,10.3-5.4c3.6-1.3,7.3-1.9,11.1-1.9c2.7,0,5.2,0.3,7.4,0.8c2.2,0.5,4.4,1.5,6.5,2.8
				L397.1,332.8z M366.2,332.2c3.2,0,6.4-0.8,9.5-2.5c3.1-1.6,6.1-4,9-7.1c2.8-3.1,5.5-6.8,8.1-11.2c2.5-4.4,4.9-9.3,7-14.8
				l4.2-33.8c-1.8-1-3.8-1.7-5.8-2.2c-2-0.4-4.1-0.7-6.4-0.7c-3.6,0-7.1,0.6-10.6,1.9c-3.4,1.2-6.7,3-9.8,5.2
				c-3.1,2.2-5.9,4.8-8.5,7.9c-2.6,3-4.8,6.4-6.7,10c-1.9,3.6-3.4,7.4-4.4,11.4c-1,4-1.6,8-1.6,12.1c0,3.6,0.3,6.9,0.9,9.9
				c0.6,2.9,1.6,5.4,2.9,7.5c1.3,2.1,3,3.7,5,4.8C360.9,331.6,363.4,332.2,366.2,332.2z"/>
			<path class="st1" d="M423,332.8l8.8-73.7h0.3c0.6,0,0.9,0.3,0.9,1l-3.1,27.1c3.5-9.3,7.6-16.4,12.2-21.4
				c4.6-4.9,9.7-7.4,15.1-7.4c2.2,0,4.3,0.4,6.4,1.3l-0.3,1.4c-2.1-0.7-4.1-1.1-6.1-1.1c-2.8,0-5.6,0.7-8.2,2.2
				c-2.6,1.5-5.1,3.6-7.4,6.3c-2.3,2.7-4.5,6.1-6.6,10c-2,3.9-3.9,8.4-5.7,13.3l-4.9,41H423z"/>
			<path class="st1" d="M477,321.8c0-0.2,0-0.6,0-1.1c0-0.5,0.1-1.1,0.1-2c0.1-0.9,0.2-2,0.4-3.4c0.2-1.4,0.4-3.1,0.6-5.2l5.6-46.2
				h-11.2c-0.6,0-0.9-0.2-0.9-0.7l0.2-0.4l12.1-0.3l3.2-21.4c0-0.2,0.2-0.5,0.3-0.7c0.1-0.2,0.3-0.3,0.6-0.3h0.4l-2.8,22.4h22.9
				l-0.1,1.5h-23l-5.6,46.3c-0.3,2-0.4,3.7-0.6,5.1c-0.1,1.3-0.3,2.5-0.4,3.4c-0.1,0.9-0.2,1.6-0.2,2.1c0,0.5,0,0.8,0,1
				c0,1.9,0.2,3.5,0.7,4.9c0.5,1.3,1.1,2.4,2,3.3c0.8,0.9,1.8,1.5,3,1.9c1.1,0.4,2.4,0.6,3.7,0.6c1.9,0,3.7-0.3,5.2-1
				c1.5-0.6,2.8-1.3,4-2.1c1.1-0.7,2-1.4,2.7-2.1c0.7-0.6,1.2-1,1.4-1c0.2,0,0.4,0.1,0.6,0.3l0.1,0.3c-1.6,2-3.8,3.7-6.4,5.1
				c-2.6,1.3-5.2,2-7.9,2c-3.4,0-6.1-0.9-8.1-2.8C477.9,329.2,477,326.1,477,321.8z"/>
		</g>
	</g>
	<g>
		<g>
			<path class="st1" d="M243.8,394.7h0.7c0.6,0,1,0.3,1.2,1l12.6,67.3c0.1,0.6,0.2,1.1,0.2,1.5c0,0.5,0.1,1,0.1,1.5
				c0.3-0.9,0.8-2,1.3-3.1l29.8-68c0.1-0.5,0.4-0.7,0.9-0.7h0.3c0.2,0,0.4,0.1,0.4,0.2c0,0.1,0.1,0.3,0.1,0.6l13.2,68
				c0.1,0.6,0.2,1.1,0.3,1.6c0.1,0.5,0.2,1,0.2,1.5c0.2-0.4,0.4-0.9,0.6-1.5c0.2-0.5,0.4-1.1,0.7-1.6l28.9-67.3c0.3-0.7,0.8-1,1.3-1
				h0.9l-32.1,73.4h-0.7c-0.4,0-0.6-0.2-0.7-0.7l-13.3-68.3c-0.1-0.4-0.2-0.8-0.2-1.1c0-0.3-0.1-0.7-0.1-1.1
				c-0.3,0.7-0.6,1.5-0.9,2.2l-30.3,68.3c-0.3,0.5-0.5,0.7-0.8,0.7h-0.7L243.8,394.7z"/>
			<path class="st1" d="M356.8,394.7l-9,73.4h-1.6l9-73.4H356.8z M361.4,379.6c0,1-0.4,2-1.2,2.8c-0.8,0.8-1.7,1.2-2.7,1.2
				c-1,0-2-0.4-2.7-1.2c-0.8-0.8-1.2-1.8-1.2-2.8c0-1.1,0.4-2.1,1.2-3c0.8-0.8,1.7-1.2,2.7-1.2c1,0,1.9,0.4,2.7,1.2
				C361,377.5,361.4,378.4,361.4,379.6z"/>
			<path class="st1" d="M381.5,457.2c0-0.2,0-0.6,0-1.1c0-0.5,0.1-1.1,0.1-2c0.1-0.9,0.2-2,0.4-3.4c0.2-1.4,0.4-3.1,0.6-5.2
				l5.6-46.2h-11.2c-0.6,0-0.9-0.2-0.9-0.7l0.2-0.4l12.1-0.3l3-21.3c0-0.2,0.2-0.5,0.3-0.7c0.1-0.2,0.3-0.3,0.6-0.3h0.4l-2.6,22.4
				h22.9l-0.1,1.5h-23l-5.6,46.3c-0.3,2-0.4,3.7-0.6,5.1c-0.1,1.3-0.3,2.5-0.4,3.4c-0.1,0.9-0.2,1.6-0.2,2.1c0,0.5,0,0.8,0,1
				c0,1.9,0.2,3.5,0.7,4.9c0.5,1.3,1.1,2.4,2,3.3c0.8,0.8,1.8,1.5,3,1.9c1.1,0.4,2.4,0.6,3.7,0.6c1.9,0,3.7-0.3,5.2-1
				c1.5-0.6,2.8-1.3,4-2.1c1.1-0.7,2-1.4,2.7-2.1c0.7-0.6,1.2-1,1.4-1c0.2,0,0.4,0.1,0.6,0.3l0.1,0.3c-1.6,2-3.8,3.7-6.4,5.1
				c-2.6,1.3-5.2,2-7.9,2c-3.4,0-6.1-0.9-8.1-2.8C382.5,464.6,381.5,461.5,381.5,457.2z"/>
			<path class="st1" d="M424.1,468.2l11.3-92.7h1.6l-5.9,47.8c2-4.5,4.3-8.6,6.9-12.2c2.6-3.6,5.3-6.8,8.2-9.3c2.9-2.6,6-4.6,9.1-6
				c3.2-1.4,6.3-2.1,9.5-2.1c5.4,0,9.4,1.7,11.9,5.1c2.5,3.4,3.7,8.3,3.7,14.6c0,1.2-0.1,2.4-0.1,3.7c-0.1,1.3-0.2,2.6-0.4,4
				l-5.5,47.1h-1.6l5.5-47.1c0.3-2.6,0.4-5.1,0.4-7.4c0-5.9-1.1-10.5-3.3-13.7c-2.2-3.2-5.8-4.8-10.8-4.8c-3,0-6.1,0.7-9.3,2.2
				c-3.1,1.5-6.2,3.6-9.1,6.4c-2.9,2.8-5.8,6.1-8.4,10.1c-2.7,3.9-5.1,8.4-7.2,13.3l-4.9,41.1H424.1z"/>
			<path class="st1" d="M573.2,468.2h-0.4c-0.4,0-0.6-0.1-0.7-0.3c-0.1-0.2-0.2-0.4-0.2-0.6l3.6-31.3c-1.9,4.8-4.1,9.3-6.5,13.4
				c-2.4,4.1-5.1,7.6-7.9,10.5c-2.8,2.9-5.8,5.2-9,6.8s-6.4,2.4-9.7,2.4c-3.2,0-6-0.6-8.3-1.9c-2.3-1.2-4.1-3-5.5-5.2
				c-1.4-2.2-2.5-4.9-3.1-8c-0.7-3.1-1-6.5-1-10.2c0-4.2,0.5-8.3,1.6-12.4c1.1-4.1,2.6-8,4.6-11.7c1.9-3.7,4.3-7.1,7-10.3
				c2.7-3.1,5.7-5.9,8.9-8.2c3.2-2.3,6.6-4.1,10.3-5.4c3.6-1.3,7.3-1.9,11.1-1.9c2.7,0,5.2,0.3,7.4,0.8c2.2,0.5,4.4,1.5,6.5,2.8
				L573.2,468.2z M542.3,467.6c3.2,0,6.4-0.8,9.5-2.5c3.1-1.6,6.1-4,9-7.1c2.8-3.1,5.5-6.8,8.1-11.2c2.5-4.4,4.9-9.3,7-14.8
				l4.2-33.8c-1.8-1-3.8-1.7-5.8-2.2c-2-0.4-4.1-0.7-6.4-0.7c-3.6,0-7.1,0.6-10.6,1.9c-3.4,1.2-6.7,3-9.8,5.2
				c-3.1,2.2-5.9,4.8-8.5,7.9c-2.6,3-4.8,6.4-6.7,10c-1.9,3.6-3.4,7.4-4.4,11.4c-1,4-1.6,8-1.6,12.1c0,3.6,0.3,6.9,0.9,9.9
				c0.6,2.9,1.6,5.4,2.9,7.5c1.3,2.1,3,3.7,5,4.8S539.5,467.6,542.3,467.6z"/>
		</g>
	</g>
	<g>
		<g>
			<path class="st1" d="M290.8,531.2c-0.3,0.4-0.4,0.6-0.6,0.7c-0.1,0.1-0.3,0.2-0.5,0.2c-0.4,0-0.9-0.3-1.5-1
				c-0.6-0.7-1.6-1.4-2.8-2.2c-1.2-0.8-2.9-1.6-4.9-2.3c-2-0.7-4.5-1-7.6-1c-2.8,0-5.6,0.5-8.2,1.5c-2.6,1-4.9,2.4-6.9,4.1
				c-2,1.7-3.6,3.7-4.8,6c-1.2,2.2-1.8,4.6-1.8,7c0,2.3,0.5,4.2,1.5,5.8c1,1.6,2.3,2.9,3.9,4c1.6,1.1,3.5,2,5.5,2.8
				c2.1,0.8,4.2,1.6,6.4,2.4c2.2,0.8,4.3,1.6,6.4,2.5c2.1,0.9,4,1.9,5.6,3.2c1.6,1.2,2.9,2.8,3.9,4.6c1,1.8,1.5,4,1.5,6.6
				c0,2.9-0.6,5.8-1.7,8.7c-1.1,2.8-2.8,5.4-4.9,7.6c-2.1,2.2-4.8,4-7.8,5.4c-3.1,1.3-6.5,2-10.4,2c-2.4,0-4.5-0.2-6.4-0.6
				c-1.9-0.4-3.6-1-5.1-1.8c-1.5-0.7-2.9-1.7-4.2-2.8c-1.3-1.1-2.5-2.3-3.7-3.7l0.4-0.4c0.3-0.3,0.5-0.4,0.7-0.4
				c0.2,0,0.7,0.4,1.4,1.3c0.7,0.9,1.7,1.8,3.1,2.9c1.4,1,3.2,2,5.4,2.9c2.2,0.9,5,1.3,8.4,1.3c3.4,0,6.5-0.6,9.4-1.9
				c2.8-1.2,5.3-2.9,7.3-5c2-2.1,3.6-4.4,4.7-7.1c1.1-2.7,1.7-5.5,1.7-8.4c0-2.4-0.5-4.5-1.5-6.2c-1-1.7-2.3-3.1-3.9-4.3
				c-1.6-1.2-3.5-2.2-5.6-3c-2.1-0.8-4.2-1.6-6.4-2.3c-2.2-0.7-4.3-1.5-6.4-2.4c-2.1-0.8-3.9-1.9-5.5-3c-1.6-1.2-2.9-2.6-3.9-4.3
				c-1-1.7-1.5-3.8-1.5-6.3c0-2.6,0.6-5.2,1.8-7.6c1.2-2.4,2.9-4.6,5-6.4c2.1-1.8,4.6-3.3,7.4-4.4c2.8-1.1,5.9-1.6,9.1-1.6
				c3.8,0,7.1,0.6,9.9,1.7C285.9,526.8,288.5,528.7,290.8,531.2z"/>
			<path class="st1" d="M347.2,618.3h-0.3c-0.5,0-0.9-0.1-1.1-0.3c-0.2-0.2-0.3-0.6-0.3-1.2c0-0.1,0-0.4,0-0.7c0-0.3,0.1-0.6,0.1-1
				l6-48.2c-1.9,4.8-4.1,9.2-6.6,13.2c-2.4,4-5,7.4-7.8,10.2c-2.8,2.8-5.8,5.1-8.9,6.7c-3.1,1.6-6.3,2.4-9.6,2.4
				c-3.2,0-6-0.6-8.3-1.9c-2.3-1.2-4.1-3-5.5-5.2c-1.4-2.2-2.5-4.9-3.1-8c-0.7-3.1-1-6.5-1-10.2c0-4.2,0.5-8.3,1.6-12.4
				c1.1-4.1,2.6-8,4.6-11.7c1.9-3.7,4.3-7.1,7-10.3c2.7-3.1,5.7-5.9,8.9-8.2c3.2-2.3,6.6-4.1,10.3-5.4c3.6-1.3,7.3-1.9,11.1-1.9
				c2.7,0,5.2,0.3,7.4,0.8s4.4,1.5,6.5,2.8L347.2,618.3z M318.7,597.9c3.2,0,6.3-0.8,9.4-2.5c3.1-1.6,6.1-4,8.9-7.1
				s5.5-6.8,8.1-11.2c2.5-4.4,4.9-9.3,7-14.7l4.3-33.9c-1.8-1-3.8-1.7-5.8-2.2c-2-0.4-4.1-0.7-6.4-0.7c-3.6,0-7.1,0.6-10.6,1.9
				c-3.4,1.2-6.7,3-9.8,5.2c-3.1,2.2-5.9,4.8-8.5,7.9c-2.6,3-4.8,6.4-6.7,10c-1.9,3.6-3.4,7.4-4.4,11.4c-1,4-1.6,8-1.6,12.1
				c0,3.6,0.3,6.9,0.9,9.9c0.6,2.9,1.6,5.4,2.9,7.5c1.3,2.1,3,3.7,5,4.8C313.4,597.3,315.9,597.9,318.7,597.9z"/>
			<path class="st1" d="M384.3,525.1l-5.5,46.8c-0.3,2.6-0.4,5.1-0.4,7.4c0,5.9,1.1,10.5,3.3,13.8c2.2,3.2,5.8,4.9,10.8,4.9
				c3.1,0,6.2-0.8,9.4-2.3c3.2-1.5,6.2-3.7,9.2-6.6c3-2.8,5.8-6.3,8.5-10.3c2.7-4,5.1-8.5,7.2-13.5l4.8-40.2h1.6l-8.8,73.4h-0.4
				c-0.4,0-0.7-0.1-0.8-0.3c-0.1-0.2-0.1-0.5-0.1-0.7l3.4-28.5v-0.4c-2,4.6-4.3,8.9-6.9,12.7c-2.6,3.8-5.4,7-8.4,9.7
				c-3,2.7-6.1,4.8-9.3,6.2c-3.2,1.4-6.4,2.2-9.6,2.2c-5.4,0-9.4-1.7-11.9-5.2c-2.5-3.5-3.8-8.4-3.8-14.8c0-1.1,0-2.4,0.1-3.6
				c0.1-1.3,0.2-2.6,0.4-3.9l5.5-46.8H384.3z"/>
			<path class="st1" d="M495.7,598.5h-0.4c-0.4,0-0.6-0.1-0.7-0.3c-0.1-0.2-0.2-0.4-0.2-0.6l3.6-31.3c-1.9,4.8-4.1,9.3-6.5,13.4
				c-2.4,4.1-5.1,7.6-7.9,10.5c-2.8,2.9-5.8,5.2-9,6.8c-3.1,1.6-6.4,2.4-9.7,2.4c-3.2,0-6-0.6-8.3-1.9c-2.3-1.2-4.1-3-5.5-5.2
				c-1.4-2.2-2.5-4.9-3.1-8c-0.7-3.1-1-6.5-1-10.2c0-4.2,0.5-8.3,1.6-12.4c1.1-4.1,2.6-8,4.6-11.7c1.9-3.7,4.3-7.1,7-10.3
				c2.7-3.1,5.7-5.9,8.9-8.2c3.2-2.3,6.6-4.1,10.3-5.4c3.6-1.3,7.3-1.9,11.1-1.9c2.7,0,5.2,0.3,7.4,0.8c2.2,0.5,4.4,1.5,6.5,2.8
				L495.7,598.5z M464.8,597.9c3.2,0,6.4-0.8,9.5-2.5c3.1-1.6,6.1-4,9-7.1c2.8-3.1,5.5-6.8,8.1-11.2c2.5-4.4,4.9-9.3,7-14.8
				l4.2-33.8c-1.8-1-3.8-1.7-5.8-2.2c-2-0.4-4.1-0.7-6.4-0.7c-3.6,0-7.1,0.6-10.6,1.9c-3.4,1.2-6.7,3-9.8,5.2
				c-3.1,2.2-5.9,4.8-8.5,7.9c-2.6,3-4.8,6.4-6.7,10c-1.9,3.6-3.4,7.4-4.4,11.4c-1,4-1.6,8-1.6,12.1c0,3.6,0.3,6.9,0.9,9.9
				c0.6,2.9,1.6,5.4,2.9,7.5c1.3,2.1,3,3.7,5,4.8C459.5,597.3,462,597.9,464.8,597.9z"/>
			<path class="st1" d="M521.6,598.5l8.8-73.7h0.3c0.6,0,0.9,0.4,0.9,1l-3.1,27.1c3.5-9.3,7.6-16.4,12.2-21.4
				c4.6-4.9,9.7-7.4,15.1-7.4c2.2,0,4.3,0.4,6.4,1.3l-0.3,1.4c-2.1-0.7-4.1-1.1-6.1-1.1c-2.8,0-5.6,0.7-8.2,2.2
				c-2.6,1.5-5.1,3.6-7.4,6.3c-2.3,2.7-4.5,6.1-6.6,10c-2,3.9-3.9,8.4-5.7,13.3l-4.9,41H521.6z"/>
			<path class="st1" d="M618.4,537.5c0,1.9-0.3,3.8-0.8,5.6c-0.5,1.8-1.5,3.5-2.8,5.1c-1.4,1.6-3.3,3.1-5.7,4.5
				c-2.4,1.4-5.6,2.7-9.4,3.9c-3.8,1.2-8.4,2.3-13.8,3.4c-5.4,1-11.7,1.9-19,2.7c-0.4,2.9-0.7,5.8-0.7,8.7c0,4.1,0.5,7.8,1.4,11.1
				c0.9,3.3,2.4,6.1,4.2,8.4c1.9,2.3,4.2,4.1,7,5.3c2.8,1.2,6.1,1.8,9.9,1.8c2.8,0,5.4-0.3,7.8-1c2.3-0.7,4.4-1.5,6.3-2.5
				c1.8-1,3.5-2.1,4.9-3.2c1.4-1.1,2.6-2.2,3.7-3.2c1-1,1.9-1.8,2.6-2.5c0.7-0.7,1.2-1,1.6-1c0.1,0,0.3,0,0.4,0
				c0.1,0,0.3,0.2,0.5,0.4c-2.3,2.5-4.6,4.7-6.9,6.6c-2.2,1.8-4.5,3.3-6.7,4.5c-2.2,1.2-4.5,2.1-6.9,2.6c-2.3,0.5-4.8,0.8-7.4,0.8
				c-4,0-7.5-0.6-10.5-1.9c-3-1.3-5.5-3.1-7.6-5.5c-2-2.4-3.5-5.3-4.5-8.8c-1-3.5-1.5-7.4-1.5-11.7c0-3.6,0.3-7.3,1-11.1
				c0.7-3.8,1.7-7.4,3.1-10.9c1.4-3.5,3.1-6.8,5.2-9.9c2-3.1,4.4-5.8,7.1-8.1c2.7-2.3,5.6-4.1,8.9-5.4c3.3-1.3,6.9-2,10.8-2
				c3.5,0,6.4,0.5,8.7,1.4c2.3,0.9,4.1,2.1,5.5,3.5c1.3,1.4,2.3,2.9,2.8,4.4C618.2,534.9,618.4,536.3,618.4,537.5z M600.6,525.5
				c-4.7,0-9,1-12.8,3.1c-3.8,2-7.1,4.7-9.9,8.1c-2.8,3.3-5.1,7.2-7,11.4c-1.8,4.3-3.1,8.6-3.9,13.1c7.4-0.8,13.8-1.7,19.1-2.7
				c5.3-1,9.9-2.1,13.6-3.3c3.7-1.2,6.7-2.5,9-3.9c2.3-1.4,4-2.8,5.3-4.3c1.2-1.5,2.1-3,2.5-4.6c0.4-1.6,0.6-3.2,0.6-4.8
				c0-1.2-0.3-2.5-0.9-3.9c-0.6-1.4-1.5-2.7-2.8-3.9c-1.3-1.2-3-2.2-5.1-3C606.2,525.9,603.7,525.5,600.6,525.5z"/>
		</g>
	</g>
</g>
</svg>
