<?xml version="1.0" encoding="utf-8"?>
<!-- Generator: Adobe Illustrator 18.1.0, SVG Export Plug-In . SVG Version: 6.00 Build 0)  -->
<!DOCTYPE svg PUBLIC "-//W3C//DTD SVG 1.1//EN" "http://www.w3.org/Graphics/SVG/1.1/DTD/svg11.dtd">
<svg version="1.1" id="Layer_1" xmlns="http://www.w3.org/2000/svg" xmlns:xlink="http://www.w3.org/1999/xlink" x="0px" y="0px"
	 viewBox="0 0 850 850" style="enable-background:new 0 0 850 850;" xml:space="preserve">
<style type="text/css">
	.st0{fill:#E64C3B;}
	.st1{fill:#AA2624;}
	.st2{fill:#EE7E7B;}
</style>
<rect class="st0" width="850" height="850"/>
<g>
	<polygon class="st1" points="384.6,237.9 384.6,424.1 585.7,540.7 585.7,354.6 	"/>
	<polygon class="st0" points="384.5,286.2 384.3,472.3 424.8,449 425,262.9 	"/>
	<polygon class="st1" points="223.9,331.6 223.9,517.8 424.9,634.4 424.9,448.3 	"/>
	<polygon class="st1" points="304.1,285.5 304.1,471.7 505.2,588.3 505.2,402.2 	"/>
	<polygon class="st0" points="424.9,448.3 424.7,634.4 545.7,564.6 545.8,378.5 	"/>
	<polygon class="st0" points="585.8,355.2 585.6,541.4 626.1,518 626.3,331.9 	"/>
	<polygon class="st2" points="424.8,215.6 626.3,332 585.7,355 424.8,262.4 384.6,285.5 545.8,378.5 424.9,448.3 223.7,331.9 
		264.2,309.6 424.2,401.3 464.7,379.2 304.1,285.5 	"/>
</g>
</svg>
