<?xml version="1.0" encoding="utf-8"?>
<!-- Generator: Adobe Illustrator 18.1.0, SVG Export Plug-In . SVG Version: 6.00 Build 0)  -->
<!DOCTYPE svg PUBLIC "-//W3C//DTD SVG 1.1//EN" "http://www.w3.org/Graphics/SVG/1.1/DTD/svg11.dtd">
<svg version="1.1" id="Layer_1" xmlns="http://www.w3.org/2000/svg" xmlns:xlink="http://www.w3.org/1999/xlink" x="0px" y="0px"
	 viewBox="0 0 850 850" enable-background="new 0 0 850 850" xml:space="preserve">
<g>
	<g>
		<circle fill="#333333" cx="408.6" cy="188.9" r="58.5"/>
		<g>
			<rect x="380.5" y="160.9" fill="#FFFFFF" width="56.1" height="10.2"/>
			<rect x="380.5" y="176.2" fill="#FFFFFF" width="40.8" height="10.2"/>
			<rect x="395.9" y="191.5" fill="#FFFFFF" width="40.8" height="10.2"/>
			<rect x="426.5" y="160.9" fill="#FFFFFF" width="10.2" height="56.1"/>
			<rect x="380.5" y="176.2" fill="#FFFFFF" width="10.2" height="40.8"/>
			<rect x="380.5" y="206.8" fill="#FFFFFF" width="40.8" height="10.2"/>
		</g>
	</g>
	<g>
		<rect x="180.8" y="144.8" fill="#333333" width="88.2" height="16"/>
		<rect x="180.8" y="168.9" fill="#333333" width="64.2" height="16"/>
		<rect x="204.9" y="193" fill="#333333" width="64.2" height="16"/>
		<rect x="253" y="144.8" fill="#333333" width="16" height="88.2"/>
		<rect x="180.8" y="168.9" fill="#333333" width="16" height="64.2"/>
		<rect x="180.8" y="217" fill="#333333" width="64.2" height="16"/>
	</g>
	<g>
		<circle fill="#333333" cx="604" cy="188.9" r="55.8"/>
		<g>
			<rect x="593" y="155.3" fill="#FFFFFF" width="16.7" height="11.2"/>
			<rect x="593" y="172.1" fill="#FFFFFF" width="16.8" height="11.2"/>
			<rect x="593.4" y="188.9" fill="#FFFFFF" width="33.3" height="11.2"/>
			<rect x="621.1" y="177.7" fill="#FFFFFF" width="11.2" height="33.8"/>
			<rect x="593" y="205.8" fill="#FFFFFF" width="16.5" height="11.2"/>
			<path fill="#FFFFFF" d="M593,172.1c-12.4,0-22.4,10-22.4,22.4s10,22.4,22.4,22.4v-11.2c-6.2,0-11.2-5-11.2-11.2s5-11.2,11.2-11.2
				V172.1z"/>
			<circle fill="#FFFFFF" cx="609.8" cy="211.5" r="5.7"/>
			<circle fill="#FFFFFF" cx="626.7" cy="211.5" r="5.7"/>
			<circle fill="#FFFFFF" cx="593" cy="194.5" r="5.7"/>
			<circle fill="#FFFFFF" cx="593" cy="161" r="5.7"/>
			<circle fill="#FFFFFF" cx="609.9" cy="177.7" r="5.7"/>
			<path fill="#FFFFFF" d="M609.9,166.5c6.2,0,11.2,5,11.2,11.2h11.2c0-12.4-10-22.4-22.4-22.4V166.5z"/>
		</g>
	</g>
</g>
<g>
	<g>
		<polygon fill="#231F20" points="101.2,402.7 101.2,452.1 86.9,444 86.9,394.5 		"/>
		<polygon fill="#333333" points="86.9,394.5 129.7,369.8 144,378 101.2,402.7 		"/>
		<polygon fill="#676767" points="144,378 144,394.5 115.5,411 115.5,427.4 143.7,411.1 143.7,427.4 101.2,452.1 101.2,402.7 		"/>
		<polygon fill="#333333" points="143.7,411.1 129.8,402.7 115.5,411 115.5,427.4 		"/>
		<g>
			<polygon fill="#231F20" points="158,419.1 158.1,452 143.7,443.9 143.7,427.4 			"/>
			<circle fill="#989898" cx="140.8" cy="434" r="10.2"/>
			<polygon fill="#333333" points="115.1,411 129.4,419.1 172.3,394.4 157.9,386.3 			"/>
			<polygon fill="#231F20" points="115.1,411 115.1,427.4 129.6,435.6 129.4,419.1 			"/>
			<polygon fill="#676767" points="129.6,435.6 158,419.1 158.1,452 172.3,443.8 172.3,394.4 129.4,419.1 			"/>
		</g>
	</g>
	<g>
		<g>
			<polygon fill="#989898" points="233.6,386.2 276.4,361.5 290.7,369.8 247.9,394.5 			"/>
			<polygon fill="#989898" points="233.6,435.7 276.4,411 290.7,419.2 247.9,443.9 			"/>
			<polygon fill="#676767" points="233.6,386.2 233.6,452.1 247.8,460.4 247.9,394.5 			"/>
			<polygon fill="#CCCBCB" points="290.7,369.8 290.5,386.3 262.1,402.7 262.1,435.6 290.7,419.2 290.7,435.6 247.8,460.4 
				247.9,394.5 			"/>
		</g>
		<polygon fill="#CCCBCB" points="323.9,448 323.9,415 309.9,407 309.9,456.3 		"/>
		<circle fill="#989898" cx="331.1" cy="429.6" r="14.2"/>
		<polygon fill="#989898" points="295.7,382.2 310,373.9 352.2,398.7 337.9,406.9 		"/>
		<polygon fill="#676767" points="295.7,382.1 295.7,447.9 309.9,456.3 309.9,431.6 309.9,414.8 309.9,406.8 337.9,423.3 
			337.9,406.8 		"/>
		<polygon fill="#CCCBCB" points="337.9,406.8 337.9,423.3 352.8,414.9 352.2,398.7 		"/>
	</g>
	<g>
		<g>
			<polyline fill="#676767" points="660.7,382.2 660.7,382.7 660.9,398.5 632.1,415 632.1,398.8 			"/>
			<polygon fill="#CCCBCB" points="661,365.7 603.8,398.7 646.6,423.4 660.7,415.3 632.1,398.8 660.7,382.4 689.3,398.7 
				703.6,390.5 			"/>
			<polygon fill="#333333" points="603.8,398.7 604,415.1 646.8,439.8 646.6,423.4 			"/>
			<polygon fill="#333333" points="660.7,382.2 660.9,398.5 689.6,415 689.3,398.7 			"/>
			<polygon fill="#676767" points="646.8,439.8 646.6,423.4 660.7,415.3 660.7,431.8 			"/>
			<polygon fill="#676767" points="703.6,390.5 689.3,398.7 689.6,415 703.6,407 			"/>
		</g>
		<g>
			<polygon fill="#676767" points="668.2,452.1 710.8,427.3 710.8,411.2 668.1,435.8 			"/>
			<polygon fill="#333333" points="710.8,411.2 710.8,427.3 739.5,443.9 739.4,427.5 			"/>
			<polygon fill="#CCCBCB" points="711.1,394.6 653.9,427.6 668.1,435.8 689.6,423.4 718,439.9 732.3,431.6 704.1,415.1 
				710.8,411.2 739.4,427.5 753.7,419.4 			"/>
			<polygon fill="#333333" points="653.9,427.6 653.6,443.7 668.2,452.1 668.1,435.8 			"/>
			<polygon fill="#333333" points="689.6,423.4 689.4,439.9 718.1,456.3 718,439.9 			"/>
			<polygon fill="#676767" points="739.4,427.5 739.5,443.9 753.7,435.7 753.7,419.4 			"/>
			<polygon fill="#676767" points="718.1,456.3 732.4,448 732.3,431.6 718,439.9 			"/>
		</g>
	</g>
	<g>
		<polygon fill="#989898" points="456.9,444 414.2,419.4 428.7,411.3 471.3,435.8 		"/>
		<polygon fill="#989898" points="506.8,406.4 528.1,394 542.4,402.3 521,414.6 		"/>
		<polygon fill="#989898" points="521,431.2 506.7,423.1 506.7,406.4 521.1,414.7 		"/>
		<polygon fill="#CCCBCB" points="506.7,422.9 506.7,439.5 542.4,418.8 542.4,402.3 		"/>
		<polygon fill="#989898" points="485.4,385.8 528.2,361.1 542.4,369.3 499.6,394 		"/>
		<polygon fill="#CCCBCB" points="542.4,369.3 542.3,385.9 513.9,402.3 514.1,451.6 499.5,460 499.6,394 		"/>
		<polygon fill="#676767" points="456.9,394 414.2,369.5 414.4,435.3 456.8,460 457.1,443.6 428.3,427 428.2,394 457.1,410.7 		"/>
		<polygon fill="#676767" points="485.4,385.8 485.4,451.8 499.5,460 499.6,394 		"/>
		<polygon fill="#CCCBCB" points="456.9,394 471.3,385.8 471.3,402.3 457.1,410.7 		"/>
		<polygon fill="#CCCBCB" points="456.9,444.1 471.3,435.9 471.3,452.4 457.1,460.8 		"/>
		<polygon fill="#989898" points="456.9,394 414.2,369.5 428.7,361.3 471.3,385.8 		"/>
	</g>
</g>
<g>
	<g>
		<polygon fill="#CCCBCB" points="667.9,598.6 611,631.5 653.7,656.2 668,647.9 639.5,631.5 667.9,615.1 696.4,631.5 710.7,623.3 		
			"/>
		<polygon fill="#333333" points="611,631.5 611,664.4 653.7,689.1 653.7,656.2 		"/>
		<polygon fill="#676767" points="667.9,656.2 660.8,660.3 660.8,685 653.7,689.1 653.7,656.2 668,647.9 		"/>
		<polygon fill="#676767" points="696.4,631.5 696.4,639.7 710.7,631.5 710.7,623.3 		"/>
		<polygon fill="#333333" points="667.9,623.3 667.9,615.1 696.4,631.5 696.4,639.7 		"/>
		<polygon fill="#676767" points="667.9,615.1 639.5,631.5 653.7,639.7 653.7,631.5 667.9,623.3 		"/>
		<polygon fill="#CCCBCB" points="653.7,631.5 682.2,647.9 660.8,660.3 675.1,668.5 753.4,623.3 689.3,586.3 675.1,594.6 
			724.9,623.3 696.4,639.7 667.9,623.3 		"/>
		<polygon fill="#333333" points="675.1,594.6 675.1,602.7 710.7,623.3 710.7,631.5 724.9,623.3 		"/>
		<polygon fill="#333333" points="653.7,631.5 653.7,639.7 668,647.9 667.9,656.2 682.2,647.9 		"/>
		<polygon fill="#333333" points="660.8,660.3 660.8,693.2 675.1,701.3 675.1,668.5 		"/>
		<polyline fill="#676767" points="753.4,623.3 753.4,656.2 675.1,701.3 675.1,668.5 		"/>
	</g>
	<g>
		<polygon fill="#676767" points="137.2,600.4 137.2,674.5 151.3,682.9 151.4,608.7 		"/>
		<polygon fill="#989898" points="87.3,637.5 130.1,612.8 144.3,621.1 101.5,645.8 		"/>
		<polygon fill="#989898" points="94.4,658.1 137.2,633.4 151.4,641.7 108.6,666.4 		"/>
		<polygon fill="#989898" points="87.3,687 130.1,662.3 144.3,670.5 101.5,695.2 		"/>
		<polygon fill="#989898" points="87.3,612.9 151.4,575.9 165.7,584.1 101.5,621.2 		"/>
		<polygon fill="#676767" points="87.3,637.5 87.3,703.4 101.4,711.7 101.5,645.8 		"/>
		<polygon fill="#676767" points="87.3,612.8 87.3,629.3 101.4,637.6 101.5,621.1 		"/>
		<polygon fill="#676767" points="108.7,649.9 108.6,666.4 122.8,674.7 122.9,658.1 		"/>
		<polygon fill="#CCCBCB" points="101.4,637.6 151.4,608.7 151.4,641.6 122.9,658.1 122.9,674.6 151.4,658.3 151.4,682.8 
			165.7,674.6 165.7,584.1 101.5,621.1 		"/>
		<polygon fill="#CCCBCB" points="144.3,621.1 144.2,637.6 115.8,654 115.8,686.9 144.3,670.5 144.3,686.9 101.4,711.7 101.5,645.8 
					"/>
	</g>
	<g>
		<polygon fill="#676767" points="307.1,613.8 307,677.2 319.2,684.3 319.2,620.9 		"/>
		<polygon fill="#989898" points="239.9,631.3 276.5,610.2 313.2,631.5 276.5,652.6 		"/>
		<polygon fill="#989898" points="270.4,663.2 307,642.1 319.2,649.1 282.6,670.2 		"/>
		<polygon fill="#989898" points="264.3,687.9 301,666.8 313.2,673.8 276.5,694.9 		"/>
		<polygon fill="#989898" points="239.9,610.3 294.8,578.6 331.5,599.9 276.5,631.6 		"/>
		<polygon fill="#676767" points="239.9,631.3 239.9,687.7 276.4,709 276.5,652.6 		"/>
		<polygon fill="#676767" points="239.9,610.2 239.9,624.3 276.4,645.6 276.5,631.5 		"/>
		<polygon fill="#676767" points="282.7,656.1 282.6,670.2 294.7,677.4 294.8,663.2 		"/>
		<polygon fill="#CCCBCB" points="276.4,645.6 319.2,620.9 319.2,649.1 294.8,663.1 294.8,677.3 319.2,663.4 319.2,684.3 
			331.5,677.3 331.5,599.9 276.5,631.5 		"/>
		<polygon fill="#CCCBCB" points="313.2,631.5 313,645.6 288.8,659.6 288.8,687.8 313.2,673.8 313.2,687.8 276.4,709 276.5,652.6 		
			"/>
	</g>
	<g>
		<g>
			<polyline fill="#676767" points="458,609.8 458,610.3 458.2,624.8 431.7,639.9 431.7,625.1 			"/>
			<polygon fill="#CCCBCB" points="458.3,594.6 405.6,625 445,647.7 457.9,640.2 431.7,625.1 457.9,609.9 484.3,624.9 497.5,617.4 
							"/>
			<polygon fill="#333333" points="405.6,625 405.8,670.1 445.2,692.8 445,647.7 			"/>
			<polygon fill="#333333" points="458,609.8 458.2,624.8 484.5,639.9 484.3,624.9 			"/>
			<polygon fill="#676767" points="445.2,692.8 445,647.7 457.9,640.2 457.9,685.5 			"/>
			<polygon fill="#676767" points="497.5,617.4 484.3,624.9 484.5,639.9 497.4,632.6 			"/>
		</g>
		<polygon fill="#CCCBCB" points="458.2,617.3 445,625 471.4,640.2 451.6,651.5 464.6,659.1 536.8,617.4 477.8,583.3 464.6,590.9 
			510.7,617.3 484.5,632.7 		"/>
		<polygon fill="#333333" points="445,625 444.9,632.7 457.9,640.2 458.2,647.7 471.4,640.2 		"/>
		<polygon fill="#333333" points="464.6,590.9 464.8,598.4 497.5,617.4 497.2,624.8 510.5,617.5 		"/>
		<polygon fill="#333333" points="451.6,651.5 451.6,696.7 464.6,704.3 464.6,659.1 		"/>
		<polygon fill="#676767" points="536.8,617.4 536.7,662.7 464.6,704.3 464.6,659.1 		"/>
	</g>
</g>
</svg>
