<?xml version="1.0" encoding="utf-8"?>
<!-- Generator: Adobe Illustrator 18.1.0, SVG Export Plug-In . SVG Version: 6.00 Build 0)  -->
<!DOCTYPE svg PUBLIC "-//W3C//DTD SVG 1.1//EN" "http://www.w3.org/Graphics/SVG/1.1/DTD/svg11.dtd">
<svg version="1.1" id="Layer_1" xmlns="http://www.w3.org/2000/svg" xmlns:xlink="http://www.w3.org/1999/xlink" x="0px" y="0px"
	 viewBox="0 0 850 850" enable-background="new 0 0 850 850" xml:space="preserve">
<rect fill="#1F174C" width="850" height="850"/>
<g>
	<g>
		<g>
			<path fill="#7F6C8C" d="M212.7,129.9c0,8.5,5.7,12.1,12.1,12.1s10.4-3,10.4-3l4.5,11c0,0-5.5,3.8-14.8,3.8s-16.5-4-19.9-8.5
				c-3.4-4.7-4.9-11-4.9-15.7v-2.5c0-4.7,1.5-11,4.9-15.7c3.4-4.5,10.6-8.5,19.9-8.5s14.8,3.8,14.8,3.8l-4.5,11c0,0-3.8-3-10.4-3
				s-12.1,3.6-12.1,12.1V129.9z"/>
			<path fill="#7F6C8C" d="M308.5,141.5l4.5,11c0,0-4.7,1.5-8.1,1.5c-3.4,0-13.8-1.7-13.8-17s0-51.7,0-51.7h12.5V136
				C303.6,137.7,304,142.8,308.5,141.5z"/>
			<path fill="#7F6C8C" d="M278.6,109.1c-3.6-3.6-10.6-5.7-15.5-5.7s-11.7,1.9-15.5,5.7c-3.6,3.6-6.6,9.3-6.6,18.4v2.3
				c0,9.1,2.8,14.6,6.6,18.4c3.6,3.6,10.6,5.7,15.5,5.7s11.7-1.9,15.5-5.7c3.6-3.6,6.6-9.3,6.6-18.4v-2.3
				C285.2,118.2,282.4,112.7,278.6,109.1z M273.9,129.2c0,4.9-1.5,7.6-3.2,9.8c-1.7,1.9-5.1,3-7.4,3c-2.3,0-5.7-1.1-7.4-3
				c-1.7-1.9-3.2-4.9-3.2-9.8V128c0-4.9,1.5-7.6,3.2-9.8s5.1-3,7.4-3c2.3,0,5.7,1.1,7.4,3c1.7,1.9,3.2,4.9,3.2,9.8V129.2z"/>
			<path fill="#7F6C8C" d="M351.3,109.1c-3.6-3.6-10.6-5.7-15.5-5.7s-11.7,1.9-15.5,5.7c-3.6,3.6-6.6,9.3-6.6,18.4v2.3
				c0,9.1,2.8,14.6,6.6,18.4c3.6,3.6,10.6,5.7,15.5,5.7s11.7-1.9,15.5-5.7c3.6-3.6,6.6-9.3,6.6-18.4v-2.3
				C357.9,118.2,355.1,112.7,351.3,109.1z M346.7,129.2c0,4.9-1.5,7.6-3.2,9.8c-1.7,1.9-5.1,3-7.4,3c-2.3,0-5.7-1.1-7.4-3
				c-1.7-1.9-3.2-4.9-3.2-9.8V128c0-4.9,1.5-7.6,3.2-9.8c1.7-1.9,5.1-3,7.4-3c2.3,0,5.7,1.1,7.4,3c1.7,1.9,3.2,4.9,3.2,9.8V129.2z"
				/>
			<path fill="#7F6C8C" d="M405.6,149.6v-45.2h-11.2v36c-2.1,1.5-6.8,1.5-9.1,1.5c-2.3,0-5.7-1.1-7.4-3c-1.7-1.9-3.2-4.9-3.2-9.8
				v-24.8h-11.4v25.4c0,9.1,2.8,14.6,6.6,18.4c3.6,3.6,10.6,5.7,15.5,5.7C393.9,153.8,401.8,152.8,405.6,149.6z"/>
			<path fill="#7F6C8C" d="M432.7,102.7c-6.4-0.4-17,1.1-20.4,3.8v45.4h11.4v-36c2.1-1.5,6.6-1.7,9.3-1.3c2.3,0.4,5.1,0.8,5.1,0.8
				l4-10.2C442.3,105.1,438.3,103.1,432.7,102.7z"/>
		</g>
		<g>
			<path fill="#7F6C8C" d="M499.1,141.5l4.5,11c0,0-4.7,1.5-8.1,1.5c-3.4,0-13.8-1.7-13.8-17s0-51.7,0-51.7h12.5V136
				C494.2,137.7,494.4,142.8,499.1,141.5z"/>
			<g>
				<path fill="#7F6C8C" d="M472.8,98.9l4.5-11c0,0-5.5-2.5-15.9-2.5c-3.4,0-13.8,1.7-13.8,17s0,51.7,0,51.7h12.5v-50.7
					C459.9,95.7,468.1,97.4,472.8,98.9z"/>
				<polyline fill="#7F6C8C" points="451,116.9 474.1,116.9 474.1,105.7 451.8,105.7 				"/>
			</g>
			<g>
				<path fill="#7F6C8C" d="M645.4,149.6V85.1h-11.2v55.3c-2.1,1.5-6.8,1.5-9.1,1.5s-5.7-1.1-7.4-3c-1.7-1.9-3.2-4.9-3.2-9.8v-1.5
					h-11.2v1.9c0,9.1,2.8,14.6,6.6,18.4c3.6,3.6,10.6,5.7,15.5,5.7C633.9,153.8,641.8,152.8,645.4,149.6z"/>
				<path fill="#7F6C8C" d="M645.4,107.6c-3.6-3-11.4-4.2-20.4-4.2c-4.9,0-11.7,1.9-15.5,5.7c-3.6,3.6-6.6,9.3-6.6,18.4v1.9h11.2
					V128c0-4.9,1.5-7.6,3.2-9.8s5.1-3,7.4-3s7,0,9.1,1.5"/>
			</g>
			<path fill="#7F6C8C" d="M541.5,109.1c-3.6-3.6-10.6-5.7-15.5-5.7c-4.9,0-11.7,1.9-15.5,5.7c-3.6,3.6-6.6,9.3-6.6,18.4v2.3
				c0,9.1,2.8,14.6,6.6,18.4c3.6,3.6,10.6,5.7,15.5,5.7c4.9,0,11.7-1.9,15.5-5.7c3.6-3.6,6.6-9.3,6.6-18.4v-2.3
				C547.9,118.2,545.1,112.7,541.5,109.1z M536.6,129.2c0,4.9-1.5,7.6-3.2,9.8c-1.7,1.9-5.1,3-7.4,3c-2.3,0-5.7-1.1-7.4-3
				c-1.7-1.9-3.2-4.9-3.2-9.8V128c0-4.9,1.5-7.6,3.2-9.8c1.7-1.9,5.1-3,7.4-3c2.3,0,5.7,1.1,7.4,3s3.2,4.9,3.2,9.8V129.2z"/>
			<path fill="#7F6C8C" d="M590.9,109.1c-3.6-3.6-10.6-5.7-15.5-5.7c-4.9,0-11.7,1.9-15.5,5.7c-3.6,3.6-6.6,9.3-6.6,18.4v2.3
				c0,9.1,2.8,14.6,6.6,18.4c3.6,3.6,10.6,5.7,15.5,5.7c4.9,0,11.7-1.9,15.5-5.7c3.6-3.6,6.6-9.3,6.6-18.4v-2.3
				C597.7,118.2,594.7,112.7,590.9,109.1z M586.2,129.2c0,4.9-1.5,7.6-3.2,9.8c-1.7,1.9-5.1,3-7.4,3s-5.7-1.1-7.4-3
				c-1.7-1.9-3.2-4.9-3.2-9.8V128c0-4.9,1.5-7.6,3.2-9.8c1.7-2.1,5.1-3,7.4-3s5.7,1.1,7.4,3s3.2,4.9,3.2,9.8V129.2z"/>
		</g>
	</g>
	<g>
		<g>
			<path fill="#7F6C8C" d="M213.3,243.1c0,9.1,6.1,12.9,12.9,12.9s11-3.2,11-3.2l4.9,11.9c0,0-5.7,4.2-15.7,4.2
				c-10,0-17.8-4.2-21.2-9.1c-3.6-4.9-5.1-11.9-5.1-16.7v-2.5c0-5.1,1.5-11.9,5.1-16.7c3.4-4.9,11.4-9.1,21.2-9.1
				c10,0,15.7,4.2,15.7,4.2l-4.9,11.9c0,0-4.2-3.2-11-3.2s-12.9,3.8-12.9,12.9V243.1z"/>
			<path fill="#7F6C8C" d="M414.9,267.7v-27.4c0-5.1,1.5-11.9,5.1-16.7c3.4-4.9,11.4-9.1,21.2-9.1c3,0,4.7,1.1,4.7,1.1l-4.7,11.9
				l0,0c-6.8,0-12.9,3.8-12.9,12.9v27.4L414.9,267.7L414.9,267.7z"/>
			<rect x="452.2" y="218.7" fill="#7F6C8C" width="23.7" height="12.1"/>
			<path fill="#7F6C8C" d="M449.7,267.9v-45.2c0-5.1,1.5-11.9,5.1-16.7c3.4-4.9,11.4-9.1,21.2-9.1c3,0,4.7,1.1,4.7,1.1l-4.7,11.9
				l0,0c-6.8,0-12.9,3.8-12.9,12.9v45.2H449.7L449.7,267.9z"/>
			<path fill="#7F6C8C" d="M282,220.6c-4-4-11.4-6.1-16.7-6.1c-5.1,0-12.5,2.1-16.7,6.1c-4,4-7,10.2-7,19.7v2.5c0,9.8,3,15.7,7,19.7
				s11.4,6.1,16.7,6.1c5.1,0,12.5-2.1,16.7-6.1c4-4,7-10.2,7-19.7v-2.5C289,230.6,286,224.6,282,220.6z M276.9,242.4
				c0,5.1-1.5,8.3-3.4,10.4s-5.5,3.4-8.1,3.4c-2.5,0-6.1-1.1-8.1-3.4c-1.9-2.1-3.4-5.3-3.4-10.4V241c0-5.1,1.5-8.3,3.4-10.4
				c1.9-2.1,5.5-3.4,8.1-3.4c2.5,0,6.1,1.1,8.1,3.4c1.9,2.1,3.4,5.3,3.4,10.4V242.4z"/>
			<path fill="#7F6C8C" d="M351.5,220.6c-4-4-11.4-6.1-16.7-6.1c-5.1,0-12.5,2.1-16.7,6.1c-4,4-7,10.2-7,19.7v2.5
				c0,9.8,3,15.7,7,19.7c4,4,11.4,6.1,16.7,6.1c5.1,0,12.5-2.1,16.7-6.1c4-4,7-10.2,7-19.7v-2.5
				C358.5,230.6,355.6,224.6,351.5,220.6z M346.4,242.4c0,5.1-1.5,8.3-3.4,10.4c-1.9,2.1-5.5,3.4-8.1,3.4c-2.5,0-6.1-1.1-8.1-3.4
				c-1.9-2.1-3.4-5.3-3.4-10.4V241c0-5.1,1.5-8.3,3.4-10.4c1.9-2.1,5.5-3.4,8.1-3.4c2.5,0,6.1,1.1,8.1,3.4c1.9,2.1,3.4,5.3,3.4,10.4
				V242.4z"/>
			<path fill="#7F6C8C" d="M398,216.8v25.7c0,5.1-1.5,8.3-3.4,10.4s-5.5,3.4-8.1,3.4c-2.5,0-6.1-1.1-8.1-3.4
				c-1.9-2.1-3.4-5.3-3.4-10.4v-25.7h-12.3v26.3c0,9.8,3,15.7,7,19.7c4,4,11.4,6.1,16.7,6.1c5.1,0,12.5-2.1,16.7-6.1
				c4-4,7-10.2,7-19.7v-26.3H398z"/>
			<g>
				<path fill="#7F6C8C" d="M645.4,263.4v-66.6h-11.7v57c-2.3,1.7-7,1.5-9.5,1.5c-2.3,0-5.9-1.1-7.8-3.2c-1.9-1.9-3.4-5.1-3.4-10
					v-1.5h-11.7v2.1c0,9.3,3,15.1,6.8,18.9c3.8,3.8,11,5.9,15.9,5.9C633.5,267.7,641.8,266.6,645.4,263.4z"/>
				<path fill="#7F6C8C" d="M645.4,220c-3.8-3.2-11.9-4.5-21.2-4.5c-4.9,0-12.1,2.1-15.9,5.9c-3.8,3.8-6.8,9.5-6.8,18.9v2.1h11.7
					V241c0-4.9,1.5-8.1,3.4-10c1.9-1.9,5.3-3.2,7.8-3.2c2.3,0,7.2,0,9.5,1.5"/>
			</g>
			<path fill="#7F6C8C" d="M541.5,221.5c-3.8-3.8-11-5.9-15.9-5.9c-4.9,0-12.1,2.1-15.9,5.9c-3.8,3.8-6.8,9.5-6.8,18.9v2.5
				c0,9.3,3,15.1,6.8,18.9c3.8,3.8,11,5.9,15.9,5.9c4.9,0,12.1-2.1,15.9-5.9c3.8-3.8,6.8-9.5,6.8-18.9v-2.5
				C548.3,231,545.3,225.3,541.5,221.5z M536.6,242.2c0,4.9-1.5,8.1-3.4,10c-1.9,1.9-5.3,3.2-7.8,3.2c-2.3,0-5.9-1.1-7.8-3.2
				c-1.9-1.9-3.4-5.1-3.4-10V241c0-4.9,1.5-8.1,3.4-10c1.9-1.9,5.3-3.2,7.8-3.2c2.3,0,5.9,1.1,7.8,3.2c1.9,1.9,3.4,5.1,3.4,10V242.2
				z"/>
			<path fill="#7F6C8C" d="M590.9,221.5c-3.8-3.8-11-5.9-15.9-5.9c-4.9,0-12.1,2.1-15.9,5.9c-3.8,3.8-6.8,9.5-6.8,18.9v2.5
				c0,9.3,3,15.1,6.8,18.9c3.8,3.8,11,5.9,15.9,5.9c4.9,0,12.1-2.1,15.9-5.9c3.8-3.8,6.8-9.5,6.8-18.9v-2.5
				C597.7,231,594.7,225.3,590.9,221.5z M586,242.2c0,4.9-1.5,8.1-3.4,10c-1.9,1.9-5.3,3.2-7.8,3.2c-2.3,0-5.9-1.1-7.8-3.2
				c-1.9-1.9-3.4-5.1-3.4-10V241c0-4.9,1.5-8.1,3.4-10c1.9-1.9,5.3-3.2,7.8-3.2c2.3,0,5.9,1.1,7.8,3.2c1.9,1.9,3.4,5.1,3.4,10V242.2
				z"/>
			<rect x="293.4" y="196.7" fill="#7F6C8C" width="13.1" height="71"/>
			<rect x="485.3" y="196.7" fill="#7F6C8C" width="13.1" height="71"/>
		</g>
	</g>
	<g>
		<path fill="#7F6C8C" d="M253.8,466.1c-1.7,0-2.5,0.4-3.2,1.3c-3.8,8.5-8.7,12.7-14.6,12.7c-1.1,0-1.9,0-3-0.4
			c-4.9-1.3-7-5.3-7-12.1c0-1.3,0-2.5,0.2-3.8c6.6,0.2,12.7-0.6,18.7-3c5.7-2.1,10.4-5.3,13.8-9.5c4-4.9,6.1-9.8,6.1-14.8
			c0-7.6-5.1-11.7-15.1-11.9c-6.8-0.2-14.6,3.6-23.3,11.4c-3.6-1.9-7-3-10.2-3c-3.2-0.2-6.6,0.8-9.8,3c-3.4,2.1-5.5,4.7-5.9,7.2
			c-0.2,1.3-0.4,2.5-0.4,3.6c0,6.1,3.6,10.8,10.8,13.8c-1.1,4-1.7,7.8-1.7,11.4c0,9.5,3.6,15.7,10.8,18.7c3.2,1.3,6.4,1.9,9.3,1.9
			c5.7,0,11-2.3,15.7-6.8c3-3,5.3-6.1,7.2-9.8c1.7-3.4,2.5-5.9,2.5-7.4C254.9,467,254.6,466.1,253.8,466.1z M231.1,449.8
			c1.1-1.7,2.1-3.2,3.4-4.9c2.1,1.7,3.6,3,4.2,3.8c0.4,0.6,0.8,0.8,1.5,0.8c0.4,0,0.8,0,1.3-0.2c1.1-0.6,1.1-1.7,0.4-2.5
			c-1.7-1.7-3.4-3.2-5.1-4.7c6.4-8.1,11.4-11.9,15.1-11.9c2.1,0,3.8,1.1,5.1,3.4c0.2,0.2,0.2,0.8,0.2,1.3c0,2.1-1.3,5.1-3.8,8.9
			c-3,4-6.4,7.6-10.6,10.4c-5.1,3.4-10.2,5.3-15.5,5.5C227.9,455.5,229.4,452.4,231.1,449.8z M212,456.4c-5.1-2.5-7.6-5.9-7.6-9.8
			c0-1.9,0.6-3.6,1.7-5.1c2.3-3,5.3-4.2,9.1-4.2c2.5,0,5.1,0.6,8.1,1.7C218.2,444.1,214.4,450,212,456.4z"/>
		<path fill="#7F6C8C" d="M488.3,460.4c-1.3,0-3,0-4.5,0.4c0.6-3.2,1.3-5.5,2.1-7.4c0.2-0.4,0.8-1.3,1.7-3c0.4-0.6,1.1-1.3,1.7-1.7
			c0.4-0.6,0.8-1.3,0.8-1.7c0-1.1-0.6-1.7-1.9-1.7c-0.6,0-2.3,0.2-5.1,1.5c-3,1.3-6.8,7.2-11.9,17.2h-2.5c-1.5-1.1-2.3-1.7-3-2.5
			c1.1-1.3,2.1-3,3-5.1c0.2-0.6,0.2-1.3,0.2-1.9c0-2.3-1.1-3.8-3-4.5c-0.2,0-0.4,0-0.6,0c-2.1,0-3.8,1.3-4.9,3.6
			c-0.6,1.7-1.1,4-1.1,6.4c-1.1,0.6-2.3,1.1-3.6,1.1c-1.9,0-3.6-0.8-5.1-2.3c-1.1-1.3-1.5-3.2-1.5-5.9c0-4,1.7-7.6,5.5-10.6
			c3.6-3.2,8.1-4.7,13.1-4.7c3.8,0,8.9,1.3,15.3,3.8c6.4,2.5,11.4,3.8,15.3,3.8c3.4,0,6.4-1.5,8.7-4c2.3-2.8,3.6-6.1,4-10.2
			c0.2-2.1-0.4-3.2-1.7-3.2c-0.8,0-1.7,0.4-2.1,1.3c-1.5,2.1-3.8,3.4-7,3.4c-3.8,0-9.8-1.3-17.6-3.4c-2.3-0.6-5.1-1.1-8.5-1.1
			c-8.3,0-15.3,2.3-21,7.2c-5.7,4.9-8.7,10.6-8.7,17.4c0,3.4,1.1,6.6,3.2,9.1c2.1,2.5,4.7,3.8,7.4,3.8c1.7,0,3.8-0.4,5.7-1.1
			c2.3,3.4,5.1,5.1,7.8,5.1c-0.6,1.5-1.5,3.2-2.3,5.5c-2.8,7-6.4,12.1-10.6,15.5c-3,2.3-5.7,3.6-8.3,3.6c-2.1,0-3.4-1.3-3.8-3.8
			c-0.2-1.3,0.8-3.2,3-5.5c1.7-1.7,2.3-3.4,2.3-5.1c0-3.6-2.5-5.5-7.6-5.5c-1.3,0-2.3,0.4-3.4,1.1l0,0c0,0,0,0,0-0.2
			s-0.2-0.6-0.6-1.3c-0.2-0.2-0.6-0.4-1.3-0.4c-1.1,0-1.7,0.4-2.3,1.3c-1.9,1.9-3.6,3.6-5.1,4.9c-0.6,1.1-1.7,1.5-2.5,1.5
			c-0.6-0.4-0.6-1.5,0-3.4c2.3-5.1,4.5-9.8,6.1-13.6c0.6-1.1,1.1-2.1,1.7-3.4c0.6-1.1,0.8-2.1,0.8-3.2c0-0.4,0-0.8-0.2-1.3
			c-0.2-1.3-1.3-1.9-2.8-1.9c-1.1,0-2.8,0.4-5.1,1.3c-3,1.1-5.1,1.1-6.6,0.2c0.6-1.5,1.1-2.8,1.1-3.8c0-1.3-0.4-1.9-1.1-2.5
			s-1.7-0.8-2.5-0.8c-2.8,0-4.7,1.3-6.1,4c-0.8,1.7-1.3,3.2-1.3,4.5c0,1.7,0.6,3,1.9,3.8c-1.7,2.8-3.6,5.5-5.9,8.5
			c-1.1,1.3-2.3,2.8-3.8,4.7c-0.2,0.2-0.4,0.4-0.8,0.6c-1.3,1.5-2.8,2.8-3.8,4c-1.1,1.1-1.9,1.5-2.8,1.5c-1.5,0-1.7-1.3-1.1-3.6
			c2.8-5.5,5.1-10.2,7.2-14.4c1.3-2.8,1.9-4.7,1.9-5.7c0-1.3-0.8-1.9-2.8-1.9c-1.3,0-3.2,0.4-5.7,1.7c-2.3,1.1-4,2.1-4.7,3.2
			c-4.9,6.4-8.7,11-11.9,14.4c-1.5,1.7-2.8,2.5-3.6,3c-0.8,0.2-1.3,0-1.3-0.8c0-0.6,0.2-1.3,0.6-1.9c2.1-4.5,3.6-7.6,4.7-10.2
			c0.4-0.8,0.6-1.7,0.6-2.1c0-0.8-0.4-2.1-1.5-3.6c-1.7-3-3.2-4.5-4.5-4.5c-0.6,0-1.3,0.4-1.9,1.1c-6.4,7.4-11.9,13.8-16.5,19.3
			c-0.2,0.2-0.4,0.4-0.6,0.8l0,0c0,0,0,0.2-0.2,0.2c0,0.2-0.2,0.4-0.4,0.4c-1.1,1.5-2.3,2.3-4,2.8c0-1.3-0.2-1.9-1.1-2.3
			c2.8-5.5,4.2-10.2,4.2-13.8c0-1.1,0-2.1-0.4-3c-1.3-3.8-3.8-5.7-7.6-5.7c-1.9,0-4,0.4-6.1,1.5c-3.8,1.7-8.3,5.1-13.1,10.4
			c-3.2,3.4-6.1,6.8-8.9,10.2c-0.2,0.4-0.4,0.8-0.6,1.3c-0.2,0.2-0.4,0.4-0.6,0.6c-2.1,2.1-3.4,3.2-4.5,3.4c-1.1,0.2-1.7,0-1.7-1.1
			c0-0.6,0.2-1.7,0.8-3.4c5.5-11.7,10.8-22.3,15.9-32.2c0.6-1.5,1.1-2.5,1.1-3.4c0-0.6-0.2-1.5-0.8-3c-0.4-1.1-1.1-2.1-2.3-3.4
			c-1.1-1.1-2.1-1.7-3-2.1s-3.8,4-8.7,13.6c-1.3,2.3-3.6,6.1-7.2,11.7c-3.6,5.5-6.4,9.1-7.8,11c-1.9,2.1-3.4,3.8-4.7,5.1
			c-0.4,0-0.8,0.4-1.5,0.8c-1.1,1.9-2.5,3.2-4.5,3.6c0-1.3-0.2-1.9-1.1-2.3c2.8-5.5,4.2-10.2,4.2-13.8c0-1.1,0-2.1-0.4-3
			c-1.3-3.8-3.8-5.7-7.6-5.7c-1.9,0-4,0.4-6.1,1.5c-3.8,1.7-8.3,5.1-13.1,10.4c-3.2,3.4-6.1,6.8-8.9,10.2c-0.4,0.4-0.6,1.1-0.6,1.7
			c0,1.1,0.6,1.7,1.7,1.7c0.2,0,0.6,0,0.8-0.2c-0.2,1.5-0.4,3-0.4,4.2c0,3.2,0.8,5.5,2.5,7.4c1.7,1.7,3.8,2.8,6.8,2.8
			c5.9,0,11.4-3.2,16.5-9.8c0.8,0.4,1.9,0.6,3.2,0.4c3.4-0.2,6.8-2.1,9.3-5.5c1.9-1.7,5.1-5.7,9.1-11.7c-5.9,10.2-9.1,17-9.1,20.8
			c0,0.6,0,1.3,0.2,1.7c1.3,2.3,3.2,3.6,5.7,3.6c2.5,0,5.5-1.1,9.1-3.4c1.7-1.1,4-3.2,7.4-6.8c0.6-0.8,1.5-1.7,2.1-2.3
			c0,0.8-0.2,1.7-0.2,2.8c0,3.2,0.8,5.5,2.5,7.4c1.7,1.7,3.8,2.8,6.8,2.8c5.9,0,11.4-3.2,16.5-9.8c0.8,0.4,1.9,0.6,3.2,0.4
			c3.8-0.2,7-2.3,10-6.1l0.2-0.2c1.7-1.7,4.7-4.9,8.5-9.5c-2.5,4.2-4.9,7.8-6.6,11.2c-1.7,3.6-2.8,6.8-2.8,9.3c0,3,1.3,4.5,4,4.5
			c4,0,11.7-6.4,23.1-19.1c-2.1,4.5-3.6,7.8-4.9,10.2c-0.2,0.6-0.4,1.5-0.4,2.3c0,1.7,0.4,3.2,1.5,4.5c1.1,1.5,2.5,2.1,4.2,2.1
			c1.3,0,2.3-0.2,3.8-1.1c5.5-2.8,11-7.2,16.7-13.8c0.4-0.6,0.8-1.3,1.3-1.7c2.5-3,6.4-7.4,11.2-13.8c2.3,0,3.6,0.6,3.6,2.1
			s-1.1,3.4-3.2,5.9c-5.3,6.8-8.3,11.9-8.5,15.3c-0.2,1.7,0.4,3.2,1.7,4.7c1.3,1.5,3,2.3,5.1,2.3c1.5,0,3-0.4,4.5-1.3
			c4.5-2.1,8.9-5.5,13.4-10.2c-0.6,1.7-0.8,3.4-0.8,5.1c0,4.2,1.9,7.8,5.7,10.8c3.8,3,8.3,4.5,13.6,4.5c4.9,0,9.5-1.5,14-4.2
			s8.1-6.8,11-11.9c3-4.9,4.9-11,5.7-18.7c0.4,0,1.1,0,1.7,0s0.8,0,0.8,0c0.4,0,0.8,0.2,1.5,0.8c0.4,0.6,0.6,1.3,0.6,1.9
			c0,0.2,0,0.4,0,0.6c0,0.4,0.2,0.8,1.1,0.8s1.5-0.2,2.3-1.1c0.6-0.6,1.5-1.5,2.3-2.1c0.8-1.1,1.3-2.3,1.3-4
			C494.2,461.7,492.3,460.4,488.3,460.4z M281.6,471.4c-3-0.4-4.7,0.2-5.5,1.9c-0.2,0.6-0.4,1.5-0.4,2.1c0,1.3,0.4,2.8,1.1,3.8
			c-1.5,3.2-3,4.9-4.9,4.9c-0.4,0-0.8,0-1.3-0.2c-1.1-0.4-1.7-1.5-1.7-3c0-2.1,1.5-5.7,4.5-11c3.8-7,6.8-10.4,9.1-10.4
			c1.5,0,2.3,0.8,2.3,2.3C285,464.2,283.9,467.4,281.6,471.4z M344.7,471.4c-3-0.4-4.7,0.2-5.5,1.9c-0.2,0.6-0.4,1.5-0.4,2.1
			c0,1.3,0.4,2.8,1.1,3.8c-1.5,3.2-3,4.9-4.9,4.9c-0.4,0-0.8,0-1.3-0.2c-1.1-0.4-1.7-1.5-1.7-3c0-2.1,1.5-5.7,4.5-11
			c3.8-7,6.8-10.4,9.1-10.4c1.5,0,2.3,0.8,2.3,2.3C347.9,464.2,346.9,467.4,344.7,471.4z"/>
		<path fill="#7F6C8C" d="M640.1,475.7c-0.6-0.4-1.1-0.6-1.5-0.6c-0.2,0-0.6,0.2-1.5,0.6c-1.7,1.5-3,2.5-3.8,3.6
			c-0.4,0.4-1.1,0.6-1.7,0.6c-1.3,0-1.7-0.4-1.7-1.5c0-0.6,0.2-1.3,0.8-1.9c3.4-6.6,6.1-12.5,8.5-17.6c5.3-11,8.1-17.4,8.1-18.7
			c0-1.3-0.6-2.8-1.9-4.9c-1.1-1.7-2.5-2.8-4-3c-0.8-0.2-1.5,0-1.9,0.4c-0.4,0.6-0.8,1.5-1.3,2.1c-4.2,7.6-8.3,14.6-11.9,21.2
			c-1.7-1.5-3.8-2.1-6.1-2.1c-3.6,0-7.4,1.7-11.7,5.3c-3,2.3-5.9,5.7-9.1,9.8c-1.5,1.7-2.5,3.2-3.4,4.2c-0.4,0-0.8,0.4-1.5,0.8
			c-0.2,0.4-0.4,0.8-0.8,1.3l0,0c-0.8,0.4-1.3,1.1-1.5,1.5c-0.6,0.4-1.3,0.6-2.1,0.8c0-1.3-0.2-1.9-1.1-2.3
			c2.8-5.5,4.2-10.2,4.2-13.8c0-1.1,0-2.1-0.4-3c-1.3-3.8-3.8-5.7-7.6-5.7c-1.9,0-4,0.4-6.1,1.5c-3.8,1.7-8.3,5.1-13.1,10.4
			c-3.2,3.4-6.1,6.8-8.9,10.2c-0.4,0.4-0.6,0.8-0.6,1.3c-0.8,0.6-1.7,1.1-2.8,1.5c0-1.3-0.2-1.9-1.1-2.3c2.8-5.5,4.2-10.2,4.2-13.8
			c0-1.1,0-2.1-0.4-3c-1.3-3.8-3.8-5.7-7.6-5.7c-1.9,0-4,0.4-6.1,1.5c-3.8,1.7-8.3,5.1-13.1,10.4c-3.2,3.4-6.1,6.8-8.9,10.2
			c-0.2,0.4-0.4,0.8-0.6,1.3c-0.2,0.2-0.4,0.4-0.6,0.6c-2.1,2.1-3.4,3.2-4.5,3.4s-1.7,0-1.7-1.1c0-0.6,0.2-1.7,0.8-3.4
			c5.5-11.7,10.8-22.3,15.9-32.2c0.6-1.5,1.1-2.5,1.1-3.4c0-0.6-0.2-1.5-0.8-3c-0.4-1.1-1.1-2.1-2.3-3.4c-1.1-1.1-2.1-1.7-3-2.1
			c-0.8-0.4-3.8,4-8.7,13.6c-1.3,2.3-3.6,6.1-7.2,11.7c-3.6,5.5-6.4,9.1-7.8,11c-3.4,3.8-5.7,6.4-7.2,7.8c0,0.2-0.2,0.4-0.2,0.8
			s0.2,0.8,0.4,1.5c0.2,0.4,0.6,0.6,0.8,0.6c1.5,0,5.1-4.2,11.2-12.7c-5.9,10.2-9.1,17-9.1,20.8c0,0.6,0,1.3,0.2,1.7
			c1.3,2.3,3.2,3.6,5.7,3.6c2.5,0,5.5-1.1,9.1-3.4c1.7-1.1,4-3.2,7.4-6.8c0.6-0.8,1.5-1.7,2.1-2.3c0,0.8-0.2,1.7-0.2,2.8
			c0,3.2,0.8,5.5,2.5,7.4c1.7,1.7,3.8,2.8,6.8,2.8c5.9,0,11.4-3.2,16.5-9.8c0.8,0.4,1.9,0.6,3.2,0.4c3-0.2,5.3-1.5,7.8-3.6
			c0,0.8-0.2,1.7-0.2,2.8c0,3.2,0.8,5.5,2.5,7.4c1.7,1.7,3.8,2.8,6.8,2.8c5.9,0,11.4-3.2,16.5-9.8c0.8,0.4,1.9,0.6,3.2,0.4
			c3-0.2,5.5-1.5,7.8-3.8c0.4-0.2,0.8-0.6,1.5-1.1c-0.4,0.6-0.8,1.3-1.3,1.9c-0.2,0.4-0.4,1.3-0.6,2.8c-0.2,0.8-0.2,1.7-0.2,2.3
			c0,3.2,1.3,5.3,3.4,6.8c1.1,0.6,2.1,0.8,3.4,0.8c3.2,0,7.2-2.5,12.1-7.6c1.1,4.9,3,7,5.9,7c5.1,0,10.4-2.8,15.5-8.5
			c3.8-4,5.7-6.8,5.7-7.6C640.5,476.1,640.3,475.9,640.1,475.7z M547.7,471.4c-3-0.4-4.7,0.2-5.5,1.9c-0.2,0.6-0.4,1.5-0.4,2.1
			c0,1.3,0.4,2.8,1.1,3.8c-1.5,3.2-3,4.9-4.9,4.9c-0.4,0-0.8,0-1.3-0.2c-1.1-0.4-1.7-1.5-1.7-3c0-2.1,1.5-5.7,4.5-11
			c3.8-7,6.8-10.4,9.1-10.4c1.5,0,2.3,0.8,2.3,2.3C551,464.2,550,467.4,547.7,471.4z M584.1,471.4c-3-0.4-4.7,0.2-5.5,1.9
			c-0.2,0.6-0.4,1.5-0.4,2.1c0,1.3,0.4,2.8,1.1,3.8c-1.5,3.2-3,4.9-4.9,4.9c-0.4,0-0.8,0-1.3-0.2c-1.1-0.4-1.7-1.5-1.7-3
			c0-2.1,1.5-5.7,4.5-11c3.8-7,6.8-10.4,9.1-10.4c1.5,0,2.3,0.8,2.3,2.3C587.3,464.2,586.2,467.4,584.1,471.4z M619.1,472.9
			c-3.4,5.3-6.1,8.1-8.1,8.1c-1.3,0-1.7-0.8-1.7-2.3c0-2.1,1.3-4.9,3.6-8.3c4-5.7,6.8-8.7,8.5-8.7c1.1,0,1.7,0.6,1.7,1.9
			C623.1,465.7,621.9,468.9,619.1,472.9z"/>
	</g>
	<g>
		<path fill="#7F6C8C" d="M214.1,356.7c-2.3,8.7,2.5,12.5,9.1,12.5c6.8,0,11.7-3,11.7-3l1.5,11.7c0,0-6.8,4-16.3,4
			c-9.8,0-16.1-4.2-18.2-8.9c-2.1-4.9-1.9-11.4-0.6-16.3l0.6-2.5c1.3-4.9,4.7-11.4,9.3-16.3c4.7-4.7,13.4-8.9,23.1-8.9
			s14.2,4,14.2,4l-7.6,11.7c0,0-3.4-3-10-3c-6.8,0-13.6,3.8-15.9,12.5L214.1,356.7z"/>
		<path fill="#7F6C8C" d="M403.3,380.7l7-26.7c1.3-4.9,4.7-11.4,9.3-16.3c4.7-4.7,13.4-8.9,23.1-8.9c3,0,4.2,1.1,4.2,1.1l-7.6,11.4
			l0,0c-6.8,0-13.6,3.8-15.9,12.5l-7,26.7L403.3,380.7L403.3,380.7z"/>
		<polygon fill="#7F6C8C" points="452.2,333.2 475.4,333.2 472.2,344.9 449.1,344.9 		"/>
		<path fill="#7F6C8C" d="M437,380.7l11.9-43.9c1.3-4.9,4.7-11.4,9.3-16.3c4.7-4.7,13.4-8.9,23.1-8.9c3,0,4.2,1.1,4.2,1.1l-7.6,11.4
			l0,0c-6.8,0-13.6,3.8-15.9,12.5l-11.9,43.9L437,380.7L437,380.7z"/>
		<path fill="#7F6C8C" d="M286.4,334.9c-3-3.8-9.5-5.9-14.6-5.9c-5.1,0-12.7,2.1-17.8,5.9c-5.1,3.8-9.5,9.8-11.9,19.3l-0.6,2.5
			c-2.5,9.5-1.3,15.3,1.7,19.3c3,3.8,9.5,5.9,14.6,5.9c5.1,0,12.7-2.1,17.8-5.9c5.1-3.8,9.5-9.8,11.9-19.3l0.6-2.5
			C290.7,344.6,289.2,338.7,286.4,334.9z M275.8,356.1c-1.3,5.1-3.6,8.1-6.1,10.2c-2.5,2.1-6.4,3.2-8.7,3.2s-5.7-1.1-7-3.2
			c-1.3-2.1-1.9-5.1-0.6-10.2l0.4-1.3c1.3-5.1,3.6-8.1,6.1-10.2c2.5-2.1,6.4-3.2,8.7-3.2s5.7,1.1,7,3.2c1.5,2.1,1.9,5.1,0.6,10.2
			L275.8,356.1z"/>
		<path fill="#7F6C8C" d="M354.1,334.9c-3-3.8-9.5-5.9-14.6-5.9c-5.1,0-12.7,2.1-17.8,5.9c-5.1,3.8-9.5,9.8-11.9,19.3l-0.6,2.5
			c-2.5,9.5-1.3,15.3,1.7,19.3c3,3.8,9.5,5.9,14.6,5.9c5.1,0,12.7-2.1,17.8-5.9c5.1-3.8,9.5-9.8,11.9-19.3l0.6-2.5
			C358.3,344.6,356.8,338.7,354.1,334.9z M343.3,356.1c-1.3,5.1-3.6,8.1-6.1,10.2c-2.5,2.1-6.4,3.2-8.7,3.2s-5.7-1.1-7-3.2
			c-1.3-2.1-1.9-5.1-0.6-10.2l0.4-1.3c1.3-5.1,3.6-8.1,6.1-10.2c2.5-2.1,6.4-3.2,8.7-3.2s5.7,1.1,7,3.2c1.5,2.1,1.9,5.1,0.6,10.2
			L343.3,356.1z"/>
		<path fill="#7F6C8C" d="M400.1,331.1l-6.8,25c-1.3,5.1-3.6,8.1-6.1,10.2c-2.5,2.1-6.4,3.2-8.7,3.2c-2.3,0-5.7-1.1-7-3.2
			c-1.3-2.1-1.9-5.1-0.6-10.2l6.8-25h-11.9l-6.8,25.4c-2.5,9.5-1.3,15.3,1.7,19.3c3,3.8,9.5,5.9,14.6,5.9s12.7-2.1,17.8-5.9
			c5.1-3.8,9.5-9.8,11.9-19.3l6.8-25.4H400.1z"/>
		<g>
			<path fill="#7F6C8C" d="M628.2,376.4l17.2-64.5h-11.2l-14.8,55.3c-2.5,1.5-7.2,1.5-9.5,1.5s-5.3-1.1-6.8-3
				c-1.3-1.9-1.9-4.9-0.6-9.8l0.4-1.5h-11.2l-0.4,1.9c-2.3,9.1-1.1,14.6,1.7,18.4c2.8,3.6,9.1,5.7,13.8,5.7
				C615.5,380.7,623.8,379.4,628.2,376.4z"/>
			<path fill="#7F6C8C" d="M639.5,334.3c-2.8-3-10.4-4.2-19.3-4.2c-4.9,0-12.3,1.9-17,5.7c-4.7,3.6-9.1,9.3-11.4,18.4l-0.4,1.9h11.2
				l0.4-1.5c1.3-4.9,3.4-7.8,5.7-9.8c2.3-1.9,5.9-3,8.3-3c2.3,0,7,0,8.7,1.5"/>
		</g>
		<path fill="#7F6C8C" d="M538.1,335.7c-2.8-3.6-9.1-5.7-13.8-5.7c-4.7,0-12.3,1.9-17,5.7c-4.7,3.6-9.1,9.3-11.4,18.4l-0.6,2.3
			c-2.3,9.1-1.1,14.6,1.7,18.4c2.8,3.6,9.1,5.7,13.8,5.7s12.3-1.9,17-5.7c4.7-3.6,9.1-9.3,11.4-18.4l0.6-2.3
			C542.1,345.1,540.9,339.6,538.1,335.7z M527.9,355.9c-1.3,4.9-3.4,7.8-5.7,9.8c-2.3,1.9-5.9,3-8.3,3c-2.3,0-5.3-1.1-6.8-3
			c-1.3-1.9-1.9-4.9-0.6-9.8l0.2-1.3c1.3-4.9,3.4-7.8,5.7-9.8c2.3-1.9,5.9-3,8.3-3s5.3,1.1,6.8,3c1.3,1.9,1.9,4.9,0.6,9.8
			L527.9,355.9z"/>
		<path fill="#7F6C8C" d="M586,335.7c-2.8-3.6-9.1-5.7-13.8-5.7c-4.9,0-12.3,1.9-17,5.7c-4.7,3.6-9.1,9.3-11.4,18.4l-0.6,2.3
			c-2.3,9.1-1.1,14.6,1.7,18.4c2.8,3.6,9.1,5.7,13.8,5.7c4.9,0,12.3-1.9,17-5.7c4.7-3.6,9.1-9.3,11.4-18.4l0.6-2.3
			C590.3,345.1,589,339.6,586,335.7z M576.1,355.9c-1.3,4.9-3.4,7.8-5.7,9.8c-2.3,1.9-5.9,3-8.3,3s-5.3-1.1-6.8-3
			c-1.3-1.9-1.9-4.9-0.6-9.8l0.2-1.3c1.3-4.9,3.4-7.8,5.7-9.8c2.3-1.9,5.9-3,8.3-3s5.3,1.1,6.8,3c1.3,1.9,1.9,4.9,0.6,9.8
			L576.1,355.9z"/>
		<polygon fill="#7F6C8C" points="298.1,380.7 285.4,380.7 303.8,311.8 316.6,311.8 		"/>
		<polygon fill="#7F6C8C" points="484.3,380.7 471.5,380.7 490.2,311.8 502.7,311.8 		"/>
	</g>
	<g>
		<path fill="#7F6C8C" d="M268,682c-8.9,0-15.7,3.4-22.3,15.1l-5.7,10l-5.1,8.5c-3.2,5.3-4.2,10-4,13.6c-4,2.3-8.1,3.8-11.4,3.8
			c-7.2,0-11.4-4.5-6.1-14l11.9-20.8c3.8-6.8,9.5-8.9,12.1-7.2l5.9-7.8c-1.7-0.8-4-1.5-6.4-1.5c-9.5,0-17,5.1-22.1,13.6l-12.1,21
			c-7.2,12.5-1.1,24,12.7,24c5.7,0,11.4-1.9,16.7-5.1c5.3,8.3,20.8,7.8,31-5.1c0,0,1.7-2.5,3.6-5.7l10.8-18.7
			C285.2,693.4,278.8,682,268,682z M269.5,701.3l-8.5,14.4c0,0-4.2,7.6-6.1,10.8v0.2c-5.3,9.3-18.7,7.4-11.9-4.5l8.7-15.3l5.5-9.3
			C265.2,683.9,276.5,689.2,269.5,701.3z"/>
		<path fill="#7F6C8C" d="M571.8,682c-8.9,0-15.7,3.4-22.3,15.1l-5.7,10l-5.1,8.5c-14.4,25,13.4,34.1,28.8,14.4c0,0,1.7-2.5,3.6-5.7
			l10.8-18.7C589.2,693.4,582.6,682,571.8,682z M573.3,701.3l-8.5,14.4c0,0-4.2,7.6-6.1,10.8v0.2c-5.3,9.3-18.7,7.4-11.9-4.5
			l8.7-15.3l5.5-9.3C569.1,683.9,580.3,689.2,573.3,701.3z"/>
		<path fill="#7F6C8C" d="M527.9,682c-8.9,0-15.7,3.4-22.3,15.1l-5.7,10l-5.1,8.5c-2.8,4.9-4,9.1-4,12.7c-3.6,3-6.8,4.9-9.3,4.9
			c-2.5,0-4-1.7-1.3-6.4l32.4-56.2h-11.4l-31,53.2c-4.9,8.5-1.5,16.3,7.8,16.3c4.5,0,9.3-2.3,14.2-5.9c4.9,9.1,21,8.9,31.4-4.2
			c0,0,1.7-2.5,3.6-5.7l10.8-18.7C545.1,693.4,538.8,682,527.9,682z M529.4,701.3l-8.5,14.4c0,0-4.2,7.6-6.1,10.8v0.2
			c-5.3,9.3-18.7,7.4-11.9-4.5l8.7-15.3l5.5-9.3C525.2,683.9,536.4,689.2,529.4,701.3z"/>
		<path fill="#7F6C8C" d="M332.9,682c-8.9,0-15.7,3.4-22.3,15.1l-5.7,10l-5.1,8.5c-2.8,4.7-4,8.9-4,12.3c-3.6,3.2-7,5.1-9.5,5.1
			c-2.5,0-4-1.7-1.3-6.4l32.4-56.2h-11.4l-31,53.2c-4.9,8.5-1.5,16.3,7.8,16.3c4.7,0,9.5-2.3,14.4-5.9c4.7,9.3,21,9.3,31.6-4
			c0,0,1.7-2.5,3.6-5.7l10.8-18.7C350.1,693.4,343.7,682,332.9,682z M334.1,701.3l-8.5,14.4c0,0-4.2,7.6-6.1,10.8v0.2
			c-5.3,9.3-18.7,7.4-11.9-4.5l8.7-15.3l5.5-9.3C330.1,683.9,341.1,689.2,334.1,701.3z"/>
		<path fill="#7F6C8C" d="M482.4,689.6c13.4-23.1-11.7-30.5-26.7-4.2L428.3,732c-1.5,0.6-2.5,1.1-3.6,1.1c-2.5,0-4-1.7-1.3-6.4
			l11.4-20.1c4-7,2.1-11-1.7-15.5l-6.4-7.8c-1.7-2.1-1.7-4.5,0.6-6.8l-5.9-6.6c-6.6,5.9-7,12.3-3,17.6l1.1,1.3
			c-5.1,7.2-11.9,17-19.5,25.7l0,0l-0.8,1.1c-8.3,9.8-16.3,17.2-21.4,17.2c-2.5,0-4-1.7-1.3-6.4l24.6-43h-11.4l-20.4,35.8
			c-8.7,8.1-15.5,12.5-17.6,11.4c-3-1.3,0-5.5,1.5-8.1l22.5-39.2h-11.4l-22.5,39c-5.9,10.2-3.2,17.4,4.5,17.4
			c6.4,0,13.4-5.7,18.9-11c-1.1,6.1,2.8,11,10.2,11c9.5,0,20.4-10.2,30.3-21.2l0,0c5.1-6.4,9.5-12.1,18.7-24.6l1.5,1.9
			c1.5,1.9,1.9,4.2,0.6,6.6l-12.1,21.2c-4.9,8.5-1.5,16.3,7.8,16.3c0.8,0,1.7,0,2.5-0.2l-4.2,7.4c-8.9,15.3,8.9,27.6,21.2,6.1
			l1.9-3.6c2.3-4,2.3-8.5,1.3-11.7c-0.8-3-3-2.8-5.5-2.8c2.3-0.2,4.9-0.8,7-2.3c7.8-4,17.4-10.6,23.3-20.6L482.4,689.6z
			 M435.7,746.4l-3,5.7c-4,6.8-8.7,4.7-4-3.4l6.4-11.2h1.1C438,739.2,438,742,435.7,746.4z M439.7,730.1l26.5-44.1
			c6.1-10.8,14.2-10.2,8.5,0l-13.1,21.8C456.5,716.5,448.9,726.1,439.7,730.1z"/>
		<path fill="#7F6C8C" d="M616.1,732.9c-2.5,0-4-1.7-1.3-6.4l32.4-56.2h-11.4l-10.6,18.2c-1.9-3.2-5.7-5.9-10.4-5.9
			c-6.1,0-14.8,4.9-19.7,13.4L579,723.7c-4.9,8.5-1.5,16.3,7.8,16.3c4.7,0,10.4-3,15.9-7.4c0.6,4.5,4,7.4,10,7.4
			c4.5,0,9.3-2.3,14.2-5.9c-0.8-0.8-2.1-2.1-4-4C620.2,732,618,732.9,616.1,732.9z M609.1,715.7c-7,11.4-14,17-18.9,17
			c-2.5,0-4-1.7-1.3-6.1l16.1-28.4c6.1-10.8,18.4-7.8,12.9,2.1l0,0L609.1,715.7z"/>
	</g>
	<g>
		<path fill="#7F6C8C" d="M633.9,582.7l-0.6,0.8c-7.2,8.5-14.2,15.1-18.7,15.1c-2.1,0-3.4-1.5-1.3-5.3l33.7-58.3h-10l-14.6,25.2
			c-1.7-2.8-5.1-5.1-9.1-5.1c-5.3,0-12.9,4.2-17,11.4l-9.5,16.5l0,0l-0.6,0.8c-4.5,4.9-10.2,7.2-15.1,7.4l9.3-16.1
			c6.1-10.4,0.4-20.4-8.9-20.4c-7.6,0-13.6,3.2-19.3,13.1l-4.9,8.5l-4,7l-0.4,0.6c-4.5,4.9-10.2,7.2-15.1,7.4l9.3-16.1
			c6.1-10.4,0.4-20.4-8.9-20.4c-7.6,0-13.6,3.2-19.3,13.1l-4.9,8.5l-4,7l-0.4,0.6c-7.2,8.5-14.2,15.1-18.7,15.1
			c-2.1,0-3.4-1.5-1.3-5.3l33.5-58.3h-10.2L475.4,584l0,0l-0.6,0.8c-10,11.4-20.6,14.4-28.6,15.1c6.8-3.6,15.1-9.1,20.1-18
			l15.9-27.8c11.4-19.9-10.2-26.3-23.1-3.6l-19.3,33.7l-0.6,0.8c-7.2,8.5-14.2,15.1-18.7,15.1c-2.1,0-3.4-1.5-1.3-5.5l10-17.4
			c3.4-6.1,1.7-9.5-1.5-13.6l-5.5-6.8c-1.5-1.7-1.5-3.8,0.6-5.7l-5.1-5.7c-5.7,5.1-6.1,10.8-2.5,15.3l0.8,1.3
			c-4.5,6.1-10.4,14.6-17,22.3l0,0l-0.6,0.8c-7.2,8.5-14.2,15.1-18.7,15.1c-2.1,0-3.4-1.7-1.3-5.5l21.2-37.3h-10l-17.8,31
			c-7.6,6.8-13.4,10.8-15.3,10c-2.5-1.1,0-4.9,1.3-6.8l19.5-33.9h-10l-15.7,27.1l0,0l-0.6,0.8c-4.5,4.9-10.2,7.2-15.1,7.4l9.3-16.1
			c6.1-10.4,0.4-20.4-8.9-20.4c-7.6,0-13.6,3.2-19.3,13.1l-4.9,8.5l-4,7l-0.4,0.6c-7.2,8.5-14.2,15.1-18.7,15.1
			c-2.1,0-3.4-1.5-1.3-5.3l33.5-58.3h-10l-27.8,48.1l0,0l-0.6,0.8c-4.5,4.9-10.2,7.2-15.1,7.4l9.3-16.1c6.1-10.4,0.4-20.4-8.9-20.4
			c-7.6,0-13.6,3.2-19.3,13.1l-4.9,8.5l-4,7l-0.4,0.6c-7.2,8.5-16.3,15.1-23.3,15.1c-6.1,0-9.8-3.8-5.1-11.9l10.2-17.8
			c5.7-10,15.9-8.1,10,2.3l-1.5,2.5h8.3l1.5-2.5c5.3-9.1,0.2-16.1-8.1-16.1c-8.1,0-14.4,4.2-18.7,11.4l-10.4,17.8
			c-6.1,10.6-0.8,20.4,10.8,20.4c8.1,0,16.1-4.7,23.1-10.8c-0.4,13.1,17.6,15.7,28.4,1.7h2.1c3.2,0,7.2-0.8,11-2.8
			c-2.1,6.4,0.8,11.7,8.1,11.7c5.7,0,12.1-4.5,18.4-10.4c0,12.7,17.6,15.3,28.4,1.5h2.1c3.2,0,7.2-0.8,11-2.8
			c-2.8,6.8-0.2,11.7,5.5,11.7c5.5,0,11.7-5.1,16.3-9.5c-1.1,5.3,2.1,9.5,8.5,9.5c8.3,0,17.8-8.7,25.9-18.4l0,0
			c5.1-5.5,8.5-10.6,16.5-21.4l1.5,1.7c1.3,1.7,1.7,3.6,0.6,5.7l-10.2,17.8c-4.2,7.4-1.3,14.2,6.8,14.2c4,0,8.5-2.1,12.7-5.5
			L418.1,623c-7.6,13.4,7.6,24,18.2,5.3l7.4-13.1c1.9-3.6,2.1-7.2,1.3-10.2c7-0.4,15.9-1.9,24.4-7.8c-1.1,5.3,2.1,9.5,8.5,9.5
			c5.7,0,12.1-4.5,18.4-10.4c0,12.7,17.6,15.3,28.4,1.5h2.1c3.6,0,8.5-1.5,12.9-3.8c-2.1,14.6,17,17.8,28.2,3.8h2.1
			c3.2,0,7.2-0.8,11-2.8c-2.1,6.4,0.8,11.7,8.1,11.7c4,0,8.9-2.5,13.8-6.6c0.4,3.8,3.6,6.6,8.5,6.6c8.3,0,17.8-8.7,25.9-18.4
			C636.9,584.9,635.2,583.4,633.9,582.7z M262.9,583.6h-0.4c-3.4,0-5.9,2.5-5.9,5.9c0,1.3,0.4,2.3,1.1,3.4v0.2
			c-4.7,8.1-16.1,6.6-10.2-3.8l7.6-13.1l4.9-8.3c7-11.9,16.5-7,10.6,3.4L262.9,583.6z M331,583.6h-0.4c-3.4,0-5.9,2.5-5.9,5.9
			c0,1.3,0.4,2.3,1.1,3.4v0.2c-4.7,8.1-16.1,6.6-10.2-3.8l7.6-13.1l4.9-8.3c7-11.9,16.5-7,10.6,3.4L331,583.6z M437.8,610.3
			l-8.5,14.8c-3.4,5.9-7.6,4-3.4-3l11.2-19.5h0.8C439.9,603.5,439.9,606.5,437.8,610.3z M441.4,596.1l27.1-46.4
			c5.3-9.3,12.3-8.9,7.4,0l-15.5,26.9C455.9,584.2,449.3,592.5,441.4,596.1z M522.2,583.6h-0.4c-3.4,0-5.9,2.5-5.9,5.9
			c0,1.3,0.4,2.3,1.1,3.4v0.2c-4.7,8.1-16.1,6.6-10.2-3.8l7.6-13.1l4.9-8.3c7-11.9,16.5-7,10.6,3.4L522.2,583.6z M565.5,583.6H565
			c-3.4,0-5.9,2.5-5.9,5.9c0,1.3,0.4,2.3,1.1,3.4v0.2c-4.7,8.1-16.1,6.6-10.2-3.8l7.6-13.1l4.9-8.3c7-11.9,16.5-7,10.6,3.4
			L565.5,583.6z M608.7,583.8c-6.1,10-12.1,14.6-16.3,14.6c-2.1,0-3.4-1.5-1.3-5.3l13.8-24.4c5.3-9.3,15.9-7,11,1.9l0,0L608.7,583.8
			z"/>
	</g>
</g>
</svg>
