<?xml version="1.0" encoding="utf-8"?>
<!-- Generator: Adobe Illustrator 18.1.0, SVG Export Plug-In . SVG Version: 6.00 Build 0)  -->
<!DOCTYPE svg PUBLIC "-//W3C//DTD SVG 1.1//EN" "http://www.w3.org/Graphics/SVG/1.1/DTD/svg11.dtd">
<svg version="1.1" id="Layer_1" xmlns="http://www.w3.org/2000/svg" xmlns:xlink="http://www.w3.org/1999/xlink" x="0px" y="0px"
	 viewBox="0 0 850 850" enable-background="new 0 0 850 850" xml:space="preserve">
<linearGradient id="SVGID_1_" gradientUnits="userSpaceOnUse" x1="0" y1="425" x2="850" y2="425">
	<stop  offset="0" style="stop-color:#E31866"/>
	<stop  offset="0.4861" style="stop-color:#DF1966"/>
	<stop  offset="1" style="stop-color:#D21C66"/>
</linearGradient>
<rect fill="url(#SVGID_1_)" width="850" height="850"/>
<g>
	<g>
		<rect x="88" y="181.3" fill="#FFFFFF" width="312.8" height="483.3"/>
		<g>
			
				<linearGradient id="SVGID_2_" gradientUnits="userSpaceOnUse" x1="479.79" y1="1118.4888" x2="479.79" y2="1023.2416" gradientTransform="matrix(1 0 0 -1 -242.8266 1475.8439)">
				<stop  offset="0" style="stop-color:#E62262"/>
				<stop  offset="0.132" style="stop-color:#E22262"/>
				<stop  offset="0.2674" style="stop-color:#D62160"/>
				<stop  offset="0.4046" style="stop-color:#C1215E"/>
				<stop  offset="0.5428" style="stop-color:#A4205A"/>
				<stop  offset="0.6821" style="stop-color:#7F1F56"/>
				<stop  offset="0.822" style="stop-color:#521D51"/>
				<stop  offset="0.9601" style="stop-color:#1D1C4B"/>
				<stop  offset="1" style="stop-color:#0C1B49"/>
			</linearGradient>
			<path fill="url(#SVGID_2_)" d="M275.8,440.8c0.5,0.8-0.5,1.4-0.6,1.5c-8,6.5-18.4,10.3-29.5,10.3c-26.4,0-47.6-21.4-47.6-47.6
				c0-26.4,22.5-47.6,48.8-47.6c3.2,0,9.2,0.4,10.4,0.9l0,0c2.4,0.6,4.3,3.3,4.3,6.5c0,3.3-3,5.8-6.1,6.4c-1.2,0.2-5.7-0.4-6.5-0.4
				c-21.9,0-39.1,17.3-39.1,39.1s16.7,37.5,38.5,37.5c9.7,0,18.8-1.8,25.8-6.6C274.1,440.7,275.2,439.7,275.8,440.8z"/>
			
				<linearGradient id="SVGID_3_" gradientUnits="userSpaceOnUse" x1="478.6035" y1="1093.8723" x2="478.6035" y2="1049.4325" gradientTransform="matrix(1 0 0 -1 -242.8266 1475.8439)">
				<stop  offset="0" style="stop-color:#E62262"/>
				<stop  offset="0.132" style="stop-color:#E22262"/>
				<stop  offset="0.2674" style="stop-color:#D62160"/>
				<stop  offset="0.4046" style="stop-color:#C1215E"/>
				<stop  offset="0.5428" style="stop-color:#A4205A"/>
				<stop  offset="0.6821" style="stop-color:#7F1F56"/>
				<stop  offset="0.822" style="stop-color:#521D51"/>
				<stop  offset="0.9601" style="stop-color:#1D1C4B"/>
				<stop  offset="1" style="stop-color:#0C1B49"/>
			</linearGradient>
			<path fill="url(#SVGID_3_)" d="M225.4,424.7c0.4,1.1-0.1,1.7-0.7,1.7s-1.1-0.2-2.1-2.5c-1.5-3.2-3.3-8-3.3-13.6
				c0-15.5,12.1-27.5,27.3-28.5c3.1-0.2,5.8,1.9,5.7,4.7c-0.2,4.1-2.6,5-6.7,5c-12.5,0-22.2,10-22.2,22.6
				C223.3,418.1,225,423.8,225.4,424.7z"/>
			
				<linearGradient id="SVGID_4_" gradientUnits="userSpaceOnUse" x1="486.5783" y1="1148.3866" x2="486.5783" y2="959.0738" gradientTransform="matrix(1 0 0 -1 -242.8266 1475.8439)">
				<stop  offset="0" style="stop-color:#E62262"/>
				<stop  offset="0.132" style="stop-color:#E22262"/>
				<stop  offset="0.2674" style="stop-color:#D62160"/>
				<stop  offset="0.4046" style="stop-color:#C1215E"/>
				<stop  offset="0.5428" style="stop-color:#A4205A"/>
				<stop  offset="0.6821" style="stop-color:#7F1F56"/>
				<stop  offset="0.822" style="stop-color:#521D51"/>
				<stop  offset="0.9601" style="stop-color:#1D1C4B"/>
				<stop  offset="1" style="stop-color:#0C1B49"/>
			</linearGradient>
			<path fill="url(#SVGID_4_)" d="M336.6,444.7c-10.2,41.4-47.5,72.1-91.9,72.1c-52.4,0-94.7-42.4-94.7-94.7
				c0-52.4,42.4-94.7,94.7-94.7c5.8,0,11.5,0.5,16.9,1.5c0.1,0,0.2,0,0.4,0.1c4.5,0.9,7.9,4.8,7.9,9.7c0,5.4-4.4,9.8-9.8,9.8
				c-0.6,0-1.2,0-1.7-0.1c-0.2-0.1-0.6-0.1-0.8-0.1c-3.9-0.8-7.8-1.2-11.9-1.2c-32.1,0-58.1,26-58.1,58.1s26,58.1,58.1,58.1
				c23,0,42.7-13,52.5-33c3.8-7.7,10.4-11.7,18.7-11.7c11.5,0,20.7,9.2,20.7,20.7C337.3,440.5,336.8,444.2,336.6,444.7z"/>
		</g>
	</g>
	<g>
		<rect x="449.2" y="181.3" fill="#FFFFFF" width="312.8" height="483.3"/>
		<g>
			
				<linearGradient id="SVGID_5_" gradientUnits="userSpaceOnUse" x1="-11.2445" y1="941.3187" x2="251.4537" y2="941.3187" gradientTransform="matrix(1 0 0 -1 485.3756 1230.7366)">
				<stop  offset="0" style="stop-color:#E62262"/>
				<stop  offset="0.125" style="stop-color:#E22261"/>
				<stop  offset="0.2601" style="stop-color:#D52160"/>
				<stop  offset="0.4" style="stop-color:#BF215E"/>
				<stop  offset="0.5432" style="stop-color:#A1205A"/>
				<stop  offset="0.689" style="stop-color:#7A1F56"/>
				<stop  offset="0.8369" style="stop-color:#4A1D50"/>
				<stop  offset="0.9838" style="stop-color:#131B4A"/>
				<stop  offset="1" style="stop-color:#0C1B49"/>
			</linearGradient>
			<path fill="url(#SVGID_5_)" d="M514.3,228.5c-5.2,0-9.2,2-13,8.7l-3.3,5.8l-3,5c-1.8,3.1-2.5,5.8-2.4,7.9
				c-2.4,1.4-4.6,2.2-6.7,2.2c-4.3,0-6.7-2.6-3.5-8.2l7-12.2c2.2-3.9,5.6-5.2,7.1-4.3l3.5-4.5c-1.1-0.5-2.4-0.8-3.7-0.8
				c-5.6,0-9.9,2.8-12.8,7.9l-7.1,12.3c-4.3,7.3-0.6,13.9,7.4,13.9c3.3,0,6.6-1.1,9.8-3c3.1,4.8,12.2,4.6,18.1-3
				c0,0,1.1-1.4,2.1-3.3l6.4-10.9C524.4,235.2,520.7,228.5,514.3,228.5z M515.1,239.7l-5,8.4c0,0-2.5,4.5-3.7,6.3l-0.1,0.1
				c-3.2,5.4-10.9,4.4-6.9-2.6l5.1-8.9l3.2-5.4C512.8,229.6,519.3,232.7,515.1,239.7z M691.7,228.5c-5.2,0-9.2,2-13,8.7l-3.3,5.8
				l-3,5c-8.5,14.5,7.8,19.9,16.8,8.5c0,0,1.1-1.4,2.1-3.3l6.4-10.9C701.7,235.2,698.1,228.5,691.7,228.5z M692.5,239.7l-5,8.4
				c0,0-2.5,4.5-3.7,6.3l-0.1,0.1c-3.2,5.4-10.9,4.4-6.9-2.6l5.1-8.9l3.2-5.4C690.2,229.6,696.7,232.7,692.5,239.7z M666,228.5
				c-5.2,0-9.2,2-13,8.7l-3.3,5.8l-3,5c-1.7,2.8-2.4,5.3-2.4,7.4c-2.1,1.8-4,2.8-5.4,2.8c-1.5,0-2.4-0.7-0.8-3.4l19-32.6h-6.7
				l-18.1,30.8c-2.8,5-0.8,9.5,4.6,9.5c2.6,0,5.4-1.4,8.3-3.4c2.8,5.3,12.2,5.2,18.3-2.5c0,0,1.1-1.5,2.1-3.4l6.4-10.9
				C676.1,235.2,672.4,228.5,666,228.5z M666.9,239.7l-5,8.4c0,0-2.5,4.5-3.7,6.3l-0.1,0.1c-3.2,5.4-10.9,4.4-6.9-2.6l5.1-8.9
				l3.2-5.4C664.5,229.6,671,232.7,666.9,239.7z M552.1,228.5c-5.2,0-9.2,2-13,8.7l-3.3,5.8l-3,5c-1.7,2.7-2.4,5.2-2.4,7.2
				c-2.1,1.9-4.1,3-5.6,3c-1.5,0-2.4-0.7-0.8-3.4l19-32.6h-6.7L518.3,253c-2.8,5-0.8,9.5,4.6,9.5c2.6,0,5.6-1.4,8.4-3.5
				c2.7,5.4,12.3,5.3,18.4-2.5c0,0,1.1-1.5,2.1-3.4l6.4-10.9C562.3,235.2,558.5,228.5,552.1,228.5z M553,239.7l-5,8.4
				c0,0-2.5,4.5-3.7,6.3l-0.1,0.1c-3.2,5.4-10.9,4.4-6.9-2.6l5.1-8.9l3.2-5.4C550.6,229.6,557.1,232.7,553,239.7z M623.9,230.4
				l-16,27.2c-0.8,0.4-1.5,0.6-2.1,0.6c-1.5,0-2.4-1.1-0.8-3.7l6.7-11.8c2.4-4,1.2-6.5-0.9-9.1l-3.8-4.5c-0.9-1.2-0.9-2.6,0.4-3.9
				l-3.5-3.8c-3.8,3.4-4.1,7.2-1.8,10.3l0.6,0.8c-3,4.3-7,9.9-11.3,15l-0.5,0.5c-4.8,5.7-9.6,10-12.5,10c-1.5,0-2.4-0.6-0.8-3.2
				l14.3-24.7H585L573,250.6c-5.1,4.6-9.1,7-10.3,6.4c-1.7-0.7,0-3,0.8-4.4l13.1-22.6H570l-13.2,22.3c-3.4,5.9-1.9,9.9,2.6,9.9
				c3.7,0,7.8-3.4,11-6.6c-0.6,3.7,1.5,6.4,5.8,6.4c5.6,0,11.9-6,17.5-12.4c3.2-3.8,5.8-7.1,11.1-14.4l0.9,1.1
				c0.8,1.1,1.2,2.5,0.4,3.8l-7.1,12.3c-2.8,5-0.8,9.6,4.6,9.6c0.5,0,0.9,0,1.4-0.1l-2.5,4.3c-5.2,9,5.2,16.2,12.3,3.5l1.2-2.1
				c1.3-2.4,1.4-5,0.8-6.7c-0.6-1.7-1.8-1.5-3.2-1.7c1.3-0.1,2.8-0.5,4-1.3c4.6-2.4,10.2-6.1,13.6-12.1l8-13.2
				C647.3,219.6,632.7,215.2,623.9,230.4z M612.3,267l-1.8,3c-2.4,4-5.1,3.3-2.4-1.4l3.8-5.9h0.6C613.6,262.5,613.6,264.4,612.3,267
				z M635.1,230.8l-7.7,12.6c-3,5.1-7.4,10.8-12.8,13l15.5-25.8C633.7,224.5,638.4,224.8,635.1,230.8z M717.6,258.2
				c-1.5,0-2.4-0.7-0.8-3.4l19-32.6H729l-6.1,10.3c-1.2-1.9-3.3-3.7-6.1-3.7c-3.7,0-8.6,2.7-11.5,7.7l-9.5,16.2
				c-2.8,5-0.8,9.6,4.6,9.6c2.7,0,6-1.8,9.3-4.4c0.4,2.6,2.4,4.4,5.8,4.4c2.6,0,5.4-1.3,8.4-3.4c-0.5-0.5-1.2-1.2-2.4-2.4
				C719.9,257.6,718.6,258.2,717.6,258.2z M713.4,248.8c-4,6.6-8.2,9.7-11,9.7c-1.5,0-2.4-1.1-0.8-3.8l9.3-16.1
				c3.7-6.3,10.8-4.3,7.4,1.8h0.1L713.4,248.8z M482.8,303.6v21.5H480v-21.5h-5.9v-2.5h14.4v2.5H482.8z M496.8,313.2
				c0-7.2,5.6-12.4,12.5-12.4c7,0,12.5,5.3,12.5,12.4c0,7.2-5.6,12.4-12.5,12.4C502.4,325.6,496.8,320.2,496.8,313.2z M499.7,313.2
				c0,5.6,4.4,9.9,9.8,9.9c5.4,0,9.8-4.4,9.8-9.9s-4.4-9.9-9.8-9.9C504,303.2,499.7,307.6,499.7,313.2z M533.2,325.2l4-25.4
				l9.2,20.3l9.5-20.3l3.8,25.4H557l-2.2-16.8l-8.2,17.7l-8-17.7l-2.4,16.8H533.2z M590.8,310.9h12.4v-9.8h2.7v24.1h-2.7v-11.8
				h-12.4v11.8H588v-24.1h2.7V310.9z M631.7,303.6h-9.8v7.2h9.6v2.5h-9.6v9.3h9.8v2.5h-12.5V301h12.5V303.6z M643.9,301.1l6.4,18.1
				l7.6-19.3l7.2,19.3l7.1-18.1h3L665,326.5l-7.1-19.3l-7.6,19.3l-9.2-25.4H643.9z M688.4,301.1v24.1h-2.7v-24.1H688.4z
				 M707.6,303.6v21.5h-2.7v-21.5H699v-2.5h14.4v2.5H707.6z M731,303.6v21.5h-2.7v-21.5h-5.9v-2.5h14.4v2.5H731z M477.2,344.9h1.8
				c1.2,0,2.7,0.1,3.9,1.3c0.6,0.6,1.2,1.7,1.2,3.3c0,1.2-0.2,2.8-1.4,4c-1.2,1.3-2.8,1.5-4.7,1.5H476L477.2,344.9z M477.3,353.9
				h0.7c1.7,0,3-0.2,3.8-1.2c1.1-1.1,1.2-2.5,1.2-3.2c0-0.8-0.1-1.8-0.9-2.5c-0.9-0.9-2.1-1.1-2.8-1.1h-0.9L477.3,353.9z M492.7,346
				h-4.1l-0.4,3h4l-0.1,1.1h-4l-0.5,3.9h4.1l-0.1,1.1h-5.2l1.2-10h5.2L492.7,346z M499.9,347c-0.1-0.4-0.4-0.6-0.6-0.8
				c-0.4-0.2-0.8-0.4-1.2-0.4c-0.4,0-0.8,0.1-1.3,0.5c-0.4,0.2-0.5,0.7-0.5,1.2c0,0.4,0.1,0.6,0.5,0.9c0.2,0.2,0.6,0.5,0.8,0.5
				l0.9,0.5c0.5,0.2,0.9,0.5,1.3,0.8c0.6,0.6,0.7,1.1,0.7,1.8c0,0.6-0.1,1.5-0.8,2.2c-0.8,0.8-1.9,0.9-2.6,0.9
				c-0.8,0-1.4-0.1-2.1-0.7c-0.5-0.5-0.7-1.1-0.8-1.9l1.1-0.4c0,0.5,0.2,0.9,0.6,1.3c0.5,0.5,0.9,0.5,1.4,0.5c0.5,0,1.1-0.1,1.5-0.6
				c0.4-0.4,0.6-0.9,0.6-1.4c0-0.6-0.2-1.1-0.6-1.3c-0.2-0.2-0.7-0.5-0.9-0.6l-0.8-0.4c-0.2-0.1-0.8-0.5-1.2-0.7
				c-0.2-0.2-0.6-0.7-0.6-1.5c0-0.7,0.2-1.3,0.8-1.9c0.6-0.6,1.4-0.8,2.2-0.8c0.5,0,1.1,0.1,1.7,0.5c0.4,0.2,0.7,0.7,0.9,1.2
				L499.9,347z M505.3,344.9l-1.2,10h-1.1l1.2-10H505.3z M513.4,350h4.1v0.2c-0.1,0.9-0.4,2.4-1.4,3.5c-1.1,1.1-2.2,1.5-3.7,1.5
				c-1.3,0-2.5-0.4-3.4-1.3c-0.7-0.7-1.3-1.8-1.3-3.3c0-1.8,0.7-3.2,1.7-4.1c1.2-1.2,2.6-1.7,4.1-1.7c0.9,0,1.8,0.1,2.6,0.7
				c0.7,0.5,1.2,0.9,1.4,1.5l-0.9,0.7c-0.2-0.6-0.6-0.9-1.2-1.3c-0.6-0.4-1.2-0.6-1.9-0.6c-1.7,0-2.7,0.7-3.3,1.3
				c-0.9,0.9-1.3,2.2-1.3,3.4c0,1.1,0.4,2,1.1,2.6c0.8,0.8,1.8,1.1,2.7,1.1c0.8,0,1.9-0.1,2.7-1.1c0.6-0.6,0.9-1.4,1.1-2.1h-3
				L513.4,350z M519.7,355l1.3-10.5l6.9,8.3l0.9-7.8h1.1l-1.3,10.5l-6.9-8.3l-0.9,7.8H519.7z M538.4,346h-4.1l-0.4,3h4l-0.1,1.1h-4
				l-0.5,3.9h4.1l-0.1,1.1h-5.2l1.2-10h5.2L538.4,346z M543,344.9c0.8,0,1.8,0,2.5,0.7c0.6,0.6,0.7,1.2,0.7,1.8
				c0,0.8-0.2,1.5-0.8,2.1c-0.6,0.5-1.4,0.8-2.1,0.9l2.6,4.5h-1.3l-2.5-4.4h-0.2l-0.6,4.4h-1.1l1.2-10L543,344.9L543,344.9z
				 M542,349.7h0.7c0.5,0,1.3,0,1.9-0.5c0.4-0.2,0.6-0.7,0.6-1.4s-0.4-1.2-0.7-1.3c-0.4-0.2-0.9-0.2-1.4-0.2h-0.6L542,349.7z
				 M560.8,343.6l0.9,0.5l-9.5,13.9l-0.9-0.5L560.8,343.6z M568.3,344.9h1.8c1.2,0,2.7,0.1,3.9,1.3c0.6,0.6,1.2,1.7,1.2,3.3
				c0,1.2-0.2,2.8-1.4,4c-1.2,1.3-2.8,1.5-4.7,1.5h-1.9L568.3,344.9z M568.3,353.9h0.7c1.7,0,3-0.2,3.8-1.2c1.1-1.1,1.2-2.5,1.2-3.2
				c0-0.8-0.1-1.8-0.9-2.5c-0.9-0.9-2.1-1.1-2.8-1.1h-0.9L568.3,353.9z M583.7,346h-4.1l-0.4,3h4l-0.1,1.1h-4l-0.5,3.9h4.1l-0.1,1.1
				h-5.2l1.2-10h5.2L583.7,346z M586.7,344.9l1.9,7.7l3.8-7.7h1.3l-5.4,10.6l-2.7-10.6H586.7z M600.9,346h-4.1l-0.4,3h4l-0.1,1.1h-4
				l-0.5,3.9h4.1l-0.1,1.1h-5.2l1.2-10h5.2L600.9,346z M605.1,344.9l-1.1,9h2.7l-0.1,1.1h-3.9l1.2-10H605.1z M609.7,353.9
				c-0.6-0.6-1.3-1.8-1.3-3.3c0-2,0.9-3.4,1.8-4.1c1.1-1.1,2.5-1.5,4.1-1.5c1.1,0,2.4,0.2,3.4,1.3c0.6,0.6,1.3,1.7,1.3,3.3
				c0,1.5-0.6,3.2-1.7,4.3c-0.8,0.8-2.4,1.5-4.3,1.5C611.9,355.2,610.7,354.9,609.7,353.9z M611,347.1c-0.7,0.7-1.4,1.8-1.4,3.3
				c0,1.2,0.5,2.1,1.1,2.7c0.5,0.6,1.3,1.1,2.6,1.1c1.3,0,2.5-0.5,3.3-1.2c0.9-0.8,1.4-2.1,1.4-3.4c0-1.2-0.5-2-1.1-2.7
				c-0.5-0.5-1.3-1.1-2.6-1.1C612.9,345.9,611.7,346.4,611,347.1z M624.2,344.9c1.1,0,1.9,0.2,2.5,0.7c0.4,0.4,0.7,1.1,0.7,1.9
				c0,0.9-0.4,1.8-0.8,2.1c-0.5,0.4-1.2,0.8-2.8,0.8h-0.8l-0.6,4.4h-1.1l1.2-10h1.8V344.9z M622.9,349.6h0.9c0.6,0,1.3-0.1,1.8-0.6
				c0.4-0.2,0.6-0.7,0.6-1.4s-0.2-1.1-0.6-1.3c-0.4-0.4-1.1-0.4-1.4-0.4h-0.8L622.9,349.6z M635.2,346h-4.1l-0.4,3h4l-0.1,1.1h-4
				l-0.5,3.9h4.1l-0.1,1.1h-5.2l1.2-10h5.2L635.2,346z M639.7,344.9c0.8,0,1.8,0,2.5,0.7c0.6,0.6,0.7,1.2,0.7,1.8
				c0,0.8-0.2,1.5-0.8,2.1c-0.6,0.5-1.4,0.8-2.1,0.9l2.6,4.5h-1.2l-2.5-4.4h-0.2L638,355H637l1.2-10L639.7,344.9L639.7,344.9z
				 M638.6,349.7h0.7c0.5,0,1.3,0,1.9-0.5c0.4-0.2,0.6-0.7,0.6-1.4s-0.4-1.2-0.7-1.3c-0.4-0.2-0.9-0.2-1.4-0.2h-0.6L638.6,349.7z
				 M657.5,343.6l0.9,0.5l-9.5,13.9l-0.9-0.5L657.5,343.6z M665,344.9h1.8c1.2,0,2.7,0.1,3.9,1.3c0.6,0.6,1.2,1.7,1.2,3.3
				c0,1.2-0.2,2.8-1.4,4c-1.2,1.3-2.8,1.5-4.7,1.5h-1.9L665,344.9z M665.1,353.9h0.7c1.7,0,3-0.2,3.8-1.2c1.1-1.1,1.2-2.5,1.2-3.2
				c0-0.8-0.1-1.8-0.9-2.5c-0.9-0.9-2.1-1.1-2.8-1.1H666L665.1,353.9z M676.6,344.9l-1.2,10h-1.1l1.2-10H676.6z M681.5,344.9
				c0.8,0,1.8,0,2.5,0.7c0.6,0.6,0.7,1.2,0.7,1.8c0,0.8-0.2,1.5-0.8,2.1c-0.6,0.5-1.4,0.8-2.1,0.9l2.6,4.5h-1.3l-2.5-4.4h-0.2
				l-0.6,4.4h-1.1l1.2-10L681.5,344.9L681.5,344.9z M680.5,349.7h0.7c0.5,0,1.3,0,1.9-0.5c0.4-0.2,0.6-0.7,0.6-1.4s-0.4-1.2-0.7-1.3
				c-0.4-0.2-0.9-0.2-1.4-0.2h-0.6L680.5,349.7z M693.3,346h-4.1l-0.4,3h4l-0.1,1.1h-4l-0.5,3.9h4.1l-0.1,1.1h-5.2l1.2-10h5.2
				L693.3,346z M703.9,347.2c-0.2-0.4-0.6-0.6-1.2-0.9c-0.6-0.4-1.1-0.4-1.7-0.4c-1.3,0-2.5,0.5-3.3,1.3c-0.8,0.8-1.3,2-1.3,3.2
				c0,1.2,0.5,2.1,1.1,2.7c0.7,0.7,1.5,1.1,2.5,1.1c0.7,0,1.4-0.1,1.9-0.5c0.4-0.2,0.9-0.6,1.3-0.9l-0.1,1.4
				c-0.4,0.2-0.9,0.6-1.3,0.7c-0.5,0.1-1.2,0.2-1.8,0.2c-1.4,0-2.6-0.5-3.4-1.3c-0.9-0.9-1.3-2.1-1.3-3.3c0-2.2,1.1-3.5,1.7-4.1
				c1.2-1.2,2.6-1.5,4-1.5c0.6,0,1.3,0.1,2,0.4c0.4,0.1,0.7,0.4,1.1,0.6L703.9,347.2z M709.3,346l-1.1,9h-1.1l1.1-9h-2.5l0.1-1.1h6
				l-0.1,1.1H709.3z M713.8,353.9c-0.6-0.6-1.3-1.8-1.3-3.3c0-2,0.9-3.4,1.8-4.1c1.1-1.1,2.5-1.5,4.1-1.5c1.1,0,2.4,0.2,3.4,1.3
				c0.6,0.6,1.3,1.7,1.3,3.3c0,1.5-0.6,3.2-1.7,4.3c-0.8,0.8-2.4,1.5-4.3,1.5C716,355.2,714.7,354.9,713.8,353.9z M715,347.1
				c-0.7,0.7-1.4,1.8-1.4,3.3c0,1.2,0.5,2.1,1.1,2.7c0.5,0.6,1.3,1.1,2.6,1.1c1.3,0,2.5-0.5,3.3-1.2c0.9-0.8,1.4-2.1,1.4-3.4
				c0-1.2-0.5-2-1.1-2.7c-0.5-0.5-1.3-1.1-2.6-1.1C716.9,345.9,715.8,346.4,715,347.1z M728.1,344.9c0.8,0,1.8,0,2.5,0.7
				c0.6,0.6,0.7,1.2,0.7,1.8c0,0.8-0.2,1.5-0.8,2.1c-0.6,0.5-1.4,0.8-2.1,0.9l2.6,4.5h-1.3l-2.5-4.4h-0.2l-0.6,4.4h-1.1l1.2-10
				L728.1,344.9L728.1,344.9z M727,349.7h0.7c0.5,0,1.3,0,1.9-0.5c0.4-0.2,0.6-0.7,0.6-1.4s-0.4-1.2-0.7-1.3
				c-0.4-0.2-0.9-0.2-1.4-0.2h-0.6L727,349.7z"/>
			<g>
				
					<linearGradient id="SVGID_6_" gradientUnits="userSpaceOnUse" x1="17.2344" y1="582.78" x2="114.996" y2="752.1083" gradientTransform="matrix(1 0 0 -1 485.3756 1230.7366)">
					<stop  offset="0" style="stop-color:#E31866"/>
					<stop  offset="0.4861" style="stop-color:#DF1966"/>
					<stop  offset="1" style="stop-color:#D21C66"/>
				</linearGradient>
				<path fill="url(#SVGID_6_)" d="M550.2,452.6L550.2,452.6c-10.4,0-18.8,8.4-18.8,18.8v193.2H569V471.4
					C569,461,560.6,452.6,550.2,452.6z"/>
				
					<linearGradient id="SVGID_7_" gradientUnits="userSpaceOnUse" x1="56.9643" y1="730.2759" x2="143.9802" y2="579.5599" gradientTransform="matrix(1 0 0 -1 485.3756 1230.7366)">
					<stop  offset="0" style="stop-color:#BC2068"/>
					<stop  offset="1" style="stop-color:#A42C66"/>
				</linearGradient>
				<path fill="url(#SVGID_7_)" d="M587.1,477.5L587.1,477.5c-10.4,0-18.8,8.4-18.8,18.8v168.4h37.6V496.3
					C605.9,485.9,597.5,477.5,587.1,477.5z"/>
				
					<linearGradient id="SVGID_8_" gradientUnits="userSpaceOnUse" x1="95.3693" y1="724.1899" x2="179.315" y2="578.7917" gradientTransform="matrix(1 0 0 -1 485.3756 1230.7366)">
					<stop  offset="0" style="stop-color:#882D64"/>
					<stop  offset="1" style="stop-color:#672A5F"/>
				</linearGradient>
				<path fill="url(#SVGID_8_)" d="M624,484.5L624,484.5c-10.4,0-18.8,8.4-18.8,18.8v161.3h37.6V503.3
					C642.8,492.9,634.4,484.5,624,484.5z"/>
				
					<linearGradient id="SVGID_9_" gradientUnits="userSpaceOnUse" x1="113.997" y1="797.7968" x2="234.4272" y2="589.2057" gradientTransform="matrix(1 0 0 -1 485.3756 1230.7366)">
					<stop  offset="0.4235" style="stop-color:#5A275D"/>
					<stop  offset="1" style="stop-color:#222247"/>
				</linearGradient>
				<path fill="url(#SVGID_9_)" d="M660.8,400.4L660.8,400.4c-10.4,0-18.8,8.4-18.8,18.8v245.6h37.6V419.2
					C679.6,408.8,671.2,400.4,660.8,400.4z"/>
				<g>
					<path fill="#FFFFFF" d="M664.7,428.8l-10.8-1.3v-1.3l10.8,1.3v-3l1.3,0.1v7.2l-1.3-0.1V428.8z"/>
					<path fill="#FFFFFF" d="M655.3,434.2c0.7-0.7,2-1.5,4-1.5c2.5,0,4.1,1.1,5,2c1.3,1.3,1.9,3,1.9,5c0,1.3-0.2,2.8-1.5,4
						c-0.7,0.8-2,1.5-3.9,1.5c-1.9,0-3.8-0.7-5.1-2c-1.1-1.1-1.9-2.7-1.9-5.1C653.8,436.9,654.1,435.5,655.3,434.2z M663.4,435.7
						c-0.8-0.8-2.1-1.7-3.9-1.7c-1.5,0-2.6,0.6-3.3,1.3c-0.7,0.6-1.2,1.7-1.2,3.1c0,1.7,0.6,3.1,1.4,3.9c1.1,1.1,2.6,1.7,4,1.7
						c1.3,0,2.5-0.5,3.2-1.3c0.6-0.6,1.2-1.5,1.2-3.1C664.9,438.1,664.4,436.6,663.4,435.7z"/>
					<path fill="#FFFFFF" d="M654,447.5l12.8,3.5l-10.2,3.4l10.2,6l-12.8,0.4v-1.3l8.4-0.1l-8.9-5.2l8.9-3l-8.4-2.2V447.5z"/>
					<path fill="#FFFFFF" d="M662.9,472.9v0.9l-3.8-1.2c-0.2-0.1-0.7-0.2-0.9-0.2c-0.2,0-0.4,0-0.5,0.2c-0.1,0.1-0.1,0.2-0.1,0.5
						c0,0.5,0.2,0.8,0.5,1.2c0.7,0.8,2.1,1.3,3.3,1.3c1.4,0,2.4-0.6,3.1-1.3c0.6-0.7,1.1-1.7,1.1-3.1c0-2.1-0.9-3.4-1.8-4.3
						c-1.3-1.2-2.8-1.8-4.4-1.8c-1.2,0-2.4,0.4-3.3,1.2c-0.8,0.8-1.4,2.2-1.4,3.9c0,0.7,0.1,2.2,0.8,3.7l-0.8,0.1
						c-0.2-0.5-0.8-1.9-0.8-4.1c0-1.8,0.5-3.1,1.7-4.3c0.9-0.9,2.1-1.4,3.7-1.4c2,0,3.8,0.8,5,2c0.9,0.9,2.1,2.6,2.1,5.1
						c0,1.9-0.7,3.1-1.4,3.9c-0.7,0.7-1.8,1.3-3.3,1.3c-1.1,0-3-0.4-4-1.4c-0.5-0.5-0.8-1.2-0.8-1.9c0-0.4,0.1-0.7,0.4-0.9
						c0.2-0.2,0.5-0.4,0.8-0.4c-0.4-0.2-0.7-0.6-0.8-0.8c-0.2-0.5-0.4-0.9-0.4-1.4c0-0.6,0.1-1.2,0.6-1.7c0.4-0.4,0.9-0.7,1.9-0.7
						c1.1,0,2.2,0.5,3.1,1.3c0.7,0.7,0.9,1.5,0.9,2.2c0,0.6-0.2,1.1-0.5,1.4c-0.2,0.2-0.6,0.5-0.9,0.5L662.9,472.9z M658,471
						c0.6,0.6,1.7,0.9,2.5,0.9c0.6,0,0.9-0.2,1.2-0.5c0.2-0.2,0.4-0.6,0.4-0.9c0-0.6-0.2-1.2-0.7-1.7c-0.6-0.6-1.5-0.8-2.2-0.8
						s-1.2,0.4-1.3,0.5c-0.2,0.2-0.4,0.6-0.4,0.9C657.4,470.1,657.7,470.6,658,471z"/>
					<path fill="#FFFFFF" d="M663.3,489c0.4-0.4,0.8-0.8,1.1-1.4c0.4-0.7,0.5-1.3,0.5-2c0-1.5-0.6-3-1.5-3.9s-2.4-1.5-3.9-1.5
						c-1.4,0-2.6,0.6-3.3,1.3c-0.9,0.8-1.3,1.9-1.3,3.1c0,0.9,0.2,1.7,0.5,2.2c0.2,0.5,0.7,1.1,1.1,1.5l-1.7-0.2
						c-0.4-0.5-0.7-1.1-0.8-1.5c-0.2-0.6-0.4-1.4-0.4-2.1c0-1.8,0.6-3.1,1.5-4.1c1.1-1.1,2.5-1.5,4-1.5c2.6,0,4.3,1.2,5,2
						c1.4,1.4,1.8,3.1,1.8,4.8c0,0.7-0.1,1.5-0.5,2.4c-0.1,0.4-0.5,0.8-0.8,1.3L663.3,489z"/>
					<path fill="#FFFFFF" d="M655.3,492.5c0.7-0.7,2-1.5,4-1.5c2.5,0,4.1,1.1,5,2c1.3,1.3,1.9,3,1.9,5c0,1.3-0.2,2.8-1.5,4
						c-0.7,0.8-2,1.5-3.9,1.5c-1.9,0-3.8-0.7-5.1-2c-1.1-1.1-1.9-2.7-1.9-5.1C653.8,495.3,654.1,493.7,655.3,492.5z M663.4,494
						c-0.8-0.8-2.1-1.7-3.9-1.7c-1.5,0-2.6,0.6-3.3,1.3c-0.7,0.6-1.2,1.7-1.2,3.1c0,1.7,0.6,3.1,1.4,3.9c1.1,1.1,2.6,1.7,4,1.7
						c1.3,0,2.5-0.5,3.2-1.3c0.6-0.6,1.2-1.5,1.2-3.1C664.9,496.3,664.4,494.9,663.4,494z"/>
					<path fill="#FFFFFF" d="M666,509.1l-10.8-1.3v3.3L654,511v-4.6l12.1,1.5L666,509.1L666,509.1z"/>
					<path fill="#FFFFFF" d="M655.3,514.6c0.7-0.7,2-1.5,4-1.5c2.5,0,4.1,1.1,5,2c1.3,1.3,1.9,3,1.9,5c0,1.3-0.2,2.8-1.5,4
						c-0.7,0.8-2,1.5-3.9,1.5c-1.9,0-3.8-0.7-5.1-2c-1.1-1.1-1.9-2.7-1.9-5.1C653.8,517.4,654.1,515.8,655.3,514.6z M663.4,516.2
						c-0.8-0.8-2.1-1.7-3.9-1.7c-1.5,0-2.6,0.6-3.3,1.3c-0.7,0.6-1.2,1.7-1.2,3.1c0,1.7,0.6,3.1,1.4,3.9c1.1,1.1,2.6,1.7,4,1.7
						c1.3,0,2.5-0.5,3.2-1.3c0.6-0.6,1.2-1.5,1.2-3.1C664.9,518.5,664.4,517,663.4,516.2z"/>
					<path fill="#FFFFFF" d="M659,530.2c-0.6-0.1-0.9-0.1-1.4-0.1c-0.7,0-1.3,0.2-1.8,0.8c-0.6,0.6-0.7,1.3-0.7,2
						c0,0.6,0,1.5,0.8,2.2c0.8,0.7,2,0.8,2.7,0.9l7.4,0.9v1.3l-7.8-0.9c-1.3-0.1-2.5-0.4-3.4-1.4c-0.9-1.1-1.1-2.2-1.1-3.2
						c0-1.1,0.2-2.1,1.1-3c0.6-0.6,1.3-1.1,2.5-1.1c0.4,0,1.5,0.1,1.8,0.1l7,0.8v1.3L659,530.2z"/>
					<path fill="#FFFFFF" d="M666,544.3c0,0.9,0,2.1-0.8,3.1c-0.6,0.7-1.4,0.8-2.1,0.8c-0.9,0-1.9-0.2-2.6-0.9
						c-0.6-0.7-0.9-1.7-1.1-2.5L654,548v-1.7l5.3-3.1v-0.4l-5.3-0.7v-1.3l12.1,1.5V544.3z M660.4,543v0.8c0,0.6,0,1.5,0.6,2.2
						c0.4,0.4,0.9,0.7,1.8,0.7c0.9,0,1.4-0.5,1.7-0.8c0.2-0.4,0.4-1.2,0.4-1.7v-0.7L660.4,543z"/>
					<path fill="#FFFFFF" d="M664.7,557.8v-4.1l-3.5-0.5v4l-1.3-0.1v-4l-5.9-0.7V551l12.1,1.5v5.4L664.7,557.8z"/>
					<path fill="#FFFFFF" d="M666,562.5l-10.8-1.3v3.3l-1.3-0.1v-4.6l12.1,1.5L666,562.5L666,562.5z"/>
					<path fill="#FFFFFF" d="M655.3,568.1c0.7-0.7,2-1.5,4-1.5c2.5,0,4.1,1.1,5,2c1.3,1.3,1.9,3,1.9,5c0,1.3-0.2,2.8-1.5,4
						c-0.7,0.8-2,1.5-3.9,1.5c-1.9,0-3.8-0.7-5.1-2c-1.1-1.1-1.9-2.7-1.9-5.1C653.8,570.8,654.1,569.2,655.3,568.1z M663.4,569.6
						c-0.8-0.8-2.1-1.7-3.9-1.7c-1.5,0-2.6,0.6-3.3,1.3c-0.7,0.6-1.2,1.7-1.2,3.1c0,1.7,0.6,3.1,1.4,3.9c1.1,1.1,2.6,1.7,4,1.7
						c1.3,0,2.5-0.5,3.2-1.3c0.6-0.6,1.2-1.5,1.2-3.1S664.4,570.5,663.4,569.6z"/>
					<path fill="#FFFFFF" d="M655.3,583.4c0.7-0.7,2-1.5,4-1.5c2.5,0,4.1,1.1,5,2c1.3,1.3,1.9,3,1.9,5c0,1.3-0.2,2.8-1.5,4
						c-0.7,0.8-2,1.5-3.9,1.5c-1.9,0-3.8-0.7-5.1-2c-1.1-1.1-1.9-2.7-1.9-5.1C653.8,586.1,654.1,584.6,655.3,583.4z M663.4,584.8
						c-0.8-0.8-2.1-1.7-3.9-1.7c-1.5,0-2.6,0.6-3.3,1.3c-0.7,0.6-1.2,1.7-1.2,3.1c0,1.7,0.6,3.1,1.4,3.9c1.1,1.1,2.6,1.7,4,1.7
						c1.3,0,2.5-0.5,3.2-1.3c0.6-0.6,1.2-1.5,1.2-3.1S664.4,585.8,663.4,584.8z"/>
					<path fill="#FFFFFF" d="M666,598.5v2.1c0,1.3-0.2,3.3-1.5,4.6c-0.7,0.7-1.9,1.4-3.9,1.4c-1.4,0-3.3-0.4-4.8-1.8
						c-1.5-1.5-1.9-3.4-1.9-5.7v-2.4L666,598.5z M655.2,598.5v0.8c0,2,0.4,3.5,1.4,4.6c1.2,1.2,3,1.4,3.9,1.4s2.1-0.2,3-1.1
						c1.2-1.1,1.3-2.6,1.3-3.4v-1.2L655.2,598.5z"/>
					<path fill="#FFFFFF" d="M655.3,609.4c0.2,0.2,0.2,0.5,0.2,0.7c0,0.2-0.1,0.5-0.2,0.6c-0.1,0.1-0.4,0.2-0.6,0.2
						c-0.2,0-0.5,0-0.7-0.4c-0.1-0.2-0.2-0.5-0.2-0.7c0-0.4,0.1-0.5,0.2-0.6c0.1-0.1,0.4-0.2,0.6-0.2
						C654.9,609.2,655.2,609.4,655.3,609.4z"/>
					<path fill="#FFFFFF" d="M659,616.5c-0.6-0.1-0.9-0.1-1.4-0.1c-0.7,0-1.3,0.2-1.8,0.8c-0.6,0.6-0.7,1.3-0.7,2
						c0,0.6,0,1.5,0.8,2.2s2,0.8,2.7,0.9l7.4,0.9v1.3l-7.8-0.9c-1.3-0.1-2.5-0.4-3.4-1.4c-0.9-1.1-1.1-2.2-1.1-3.2
						c0-1.1,0.2-2.1,1.1-3c0.6-0.6,1.3-1.1,2.5-1.1c0.4,0,1.5,0.1,1.8,0.1l7,0.8v1.3L659,616.5z"/>
					<path fill="#FFFFFF" d="M660.8,629.3l5.2,5.8v1.8l-5.7-6.4l-6.4,5v-1.8l5.6-4.3l-0.4-0.4l-5.2-0.6v-1.3l12.1,1.5v1.3
						L660.8,629.3z"/>
					<path fill="#FFFFFF" d="M618.5,511.8c1.3-1.3,3.1-1.4,4-1.4c2.5,0,4.8,0.8,6.3,2.2c0.8,0.8,1.2,1.8,1.2,2.8
						c0,0.8-0.2,1.7-0.8,2.4c-0.7,0.7-1.9,1.4-4,1.4c-2.4,0-5-0.6-6.5-2.2c-0.8-0.9-1.1-1.8-1.1-2.8
						C617.6,513.2,617.8,512.5,618.5,511.8z M628,513.5c-1.1-1.1-3.3-1.8-5.2-1.8c-0.4,0-2.4,0-3.3,1.1c-0.5,0.5-0.6,0.9-0.6,1.5
						c0,0.7,0.2,1.3,0.7,1.8c1.2,1.3,3.7,1.9,5.4,1.9c1.1,0,2.6-0.2,3.3-1.1c0.5-0.5,0.6-0.8,0.6-1.4
						C628.8,514.6,628.6,513.9,628,513.5z"/>
					<path fill="#FFFFFF" d="M628.7,528v-6.5l1.2,0.1v8.9l-12.3-9.6l0.7-1.1L628.7,528z"/>
					<path fill="#FFFFFF" d="M618.3,532.8l3.8,3.2c-0.2-1.2,0.2-2.7,1.1-3.5c0.7-0.7,1.5-0.9,2.4-0.9c1.5,0,2.6,0.6,3.3,1.3
						c0.9,0.9,1.3,2,1.3,3.2c0,1.4-0.6,2.4-1.1,3c-0.7,0.7-1.5,0.9-2.5,0.9c-0.8,0-1.4-0.1-2.1-0.5c-0.8-0.4-1.3-0.8-2-1.4l-4.8-4.3
						L618.3,532.8z M628,533.8c-0.5-0.5-1.3-0.9-2.5-0.9c-0.5,0-1.1,0.1-1.7,0.6c-0.5,0.5-0.8,1.1-0.8,2c0,1.1,0.5,1.8,0.9,2.1
						c0.6,0.5,1.4,0.8,2.2,0.8c0.9,0,1.5-0.4,1.9-0.8c0.4-0.4,0.7-0.9,0.7-1.9C628.8,535.2,628.7,534.5,628,533.8z"/>
					<path fill="#FFFFFF" d="M621.4,548.7v1.5l-1.2-0.1v-1.5l-2.2-0.2V547l2.2,0.2v-6.1l10.4,8.7L621.4,548.7z M621.4,547.3l5.2,0.6
						l-5.2-4.4V547.3z"/>
					<path fill="#FFFFFF" d="M628.7,559.9v-6.5l1.2,0.1v8.9l-12.3-9.6l0.7-1.1L628.7,559.9z"/>
					<path fill="#FFFFFF" d="M621.4,575.4v1.5l-1.2-0.1v-1.5l-2.2-0.2v-1.3l2.2,0.2v-6.1l10.4,8.7L621.4,575.4z M621.4,574.1
						l5.2,0.6l-5.2-4.4V574.1z"/>
					<path fill="#FFFFFF" d="M618.5,581.1c1.3-1.3,3.1-1.4,4-1.4c2.5,0,4.8,0.8,6.3,2.2c0.8,0.8,1.2,1.8,1.2,2.8
						c0,0.8-0.2,1.7-0.8,2.4c-0.7,0.7-1.9,1.4-4,1.4c-2.4,0-5-0.6-6.5-2.2c-0.8-0.9-1.1-1.8-1.1-2.8
						C617.6,582.6,617.8,581.9,618.5,581.1z M628,582.8c-1.1-1.1-3.3-1.8-5.2-1.8c-0.4,0-2.4,0-3.3,1.1c-0.5,0.5-0.6,0.9-0.6,1.5
						c0,0.7,0.2,1.3,0.7,1.8c1.2,1.3,3.7,1.9,5.4,1.9c1.1,0,2.6-0.2,3.3-1.1c0.5-0.5,0.6-0.8,0.6-1.4
						C628.8,583.9,628.6,583.3,628,582.8z"/>
					<path fill="#FFFFFF" d="M628.6,593.3v-2l1.3,0.8v2.6l-12.1-1.5v-1.3L628.6,593.3z"/>
					<path fill="#FFFFFF" d="M626.9,606.2c0.8,0.1,1.8,0.6,2.2,1.1c0.7,0.7,0.9,1.5,0.9,2.5c0,1.2-0.5,1.9-0.8,2.4
						c-0.5,0.5-1.2,0.8-2.2,0.8c-0.6,0-1.2-0.1-1.8-0.5c-0.4-0.2-0.8-0.7-1.1-1.4c-0.1,0.4-0.4,0.7-0.8,0.9
						c-0.5,0.4-1.1,0.5-1.7,0.5c-1.1,0-2.1-0.4-3-1.2c-0.9-0.9-1.1-1.9-1.1-2.7s0.1-1.8,0.9-2.5c0.6-0.6,1.5-0.9,2.5-1.1v1.3
						c-0.6,0-1.2,0.2-1.5,0.6c-0.5,0.5-0.5,1.2-0.5,1.5c0,0.5,0.1,1.2,0.6,1.8c0.6,0.6,1.4,0.7,2.1,0.7c0.7,0,1.2-0.4,1.4-0.6
						c0.2-0.2,0.6-0.8,0.6-1.5v-0.1l1.2,0.1v0.2c0,0.7,0.2,1.4,0.5,1.8c0.5,0.6,1.2,0.7,1.8,0.7c0.4,0,0.9-0.1,1.3-0.5
						c0.4-0.4,0.5-0.9,0.5-1.4c0-0.6-0.2-1.2-0.6-1.4c-0.4-0.4-0.9-0.6-1.4-0.6v-1.4H626.9z"/>
					<path fill="#FFFFFF" d="M618.5,617.5c1.3-1.3,3.1-1.4,4-1.4c2.5,0,4.8,0.8,6.3,2.2c0.8,0.8,1.2,1.8,1.2,2.8
						c0,0.8-0.2,1.7-0.8,2.4c-0.7,0.7-1.9,1.4-4,1.4c-2.4,0-5-0.6-6.5-2.2c-0.8-0.9-1.1-1.8-1.1-2.8
						C617.6,618.9,617.8,618.2,618.5,617.5z M628,619.1c-1.1-1.1-3.3-1.8-5.2-1.8c-0.4,0-2.4,0-3.3,1.1c-0.5,0.5-0.6,0.9-0.6,1.5
						c0,0.7,0.2,1.3,0.7,1.8c1.2,1.3,3.7,1.9,5.4,1.9c1.1,0,2.6-0.2,3.3-1.1c0.5-0.5,0.6-0.8,0.6-1.4
						C628.8,620.3,628.6,619.7,628,619.1z"/>
					<path fill="#FFFFFF" d="M621.4,633.8v1.5l-1.2-0.1v-1.5l-2.2-0.2v-1.3l2.2,0.2v-6.1l10.4,8.7L621.4,633.8z M621.4,632.5
						l5.2,0.6l-5.2-4.4V632.5z"/>
					<path fill="#FFFFFF" d="M590.5,516.3v0.9l-3.8-1.2c-0.2-0.1-0.7-0.2-0.9-0.2c-0.2,0-0.4,0-0.5,0.2c-0.1,0.1-0.1,0.2-0.1,0.5
						c0,0.5,0.2,0.8,0.5,1.2c0.7,0.8,2.1,1.3,3.3,1.3c1.4,0,2.4-0.6,3.1-1.3c0.6-0.7,1.1-1.7,1.1-3.1c0-2.1-0.9-3.4-1.8-4.3
						c-1.3-1.2-2.8-1.8-4.4-1.8c-1.2,0-2.4,0.4-3.3,1.2c-0.8,0.8-1.4,2.2-1.4,3.9c0,0.7,0.1,2.2,0.8,3.7l-0.8,0.1
						c-0.2-0.5-0.8-1.9-0.8-4.1c0-1.8,0.5-3.1,1.7-4.3c0.9-0.9,2.1-1.4,3.7-1.4c2,0,3.8,0.8,5,2c0.9,0.9,2.1,2.6,2.1,5.1
						c0,1.9-0.7,3.1-1.4,3.9c-0.7,0.7-1.8,1.3-3.3,1.3c-1.1,0-3-0.4-4-1.4c-0.5-0.5-0.8-1.2-0.8-1.9c0-0.4,0.1-0.7,0.4-0.9
						c0.2-0.2,0.5-0.4,0.8-0.4c-0.4-0.2-0.7-0.6-0.8-0.8c-0.2-0.5-0.4-0.9-0.4-1.4c0-0.6,0.1-1.2,0.6-1.7c0.4-0.4,0.9-0.7,1.9-0.7
						c1.1,0,2.2,0.5,3.1,1.3c0.7,0.7,0.9,1.5,0.9,2.2c0,0.6-0.2,1.1-0.5,1.4c-0.2,0.2-0.6,0.5-0.9,0.5L590.5,516.3z M585.8,514.5
						c0.6,0.6,1.7,0.9,2.5,0.9c0.6,0,0.9-0.2,1.2-0.5c0.2-0.2,0.4-0.6,0.4-0.9c0-0.6-0.2-1.2-0.7-1.7c-0.6-0.6-1.5-0.8-2.2-0.8
						s-1.2,0.4-1.3,0.5c-0.2,0.2-0.4,0.6-0.4,0.9C585.2,513.6,585.4,514.1,585.8,514.5z"/>
					<path fill="#FFFFFF" d="M592.5,526.3l-10.8-1.3v-1.3l10.8,1.3v-3l1.3,0.1v7.2l-1.3-0.1V526.3z"/>
					<path fill="#FFFFFF" d="M583.1,531.7c0.7-0.7,2-1.5,4-1.5c2.5,0,4.1,1.1,5,2c1.3,1.3,1.9,3,1.9,5c0,1.3-0.2,2.8-1.5,4
						c-0.7,0.8-2,1.5-3.9,1.5c-1.9,0-3.8-0.7-5.1-2c-1.1-1.1-1.9-2.7-1.9-5.1C581.6,534.4,581.8,532.8,583.1,531.7z M591.2,533.2
						c-0.8-0.8-2.1-1.7-3.9-1.7c-1.5,0-2.6,0.6-3.3,1.3c-0.7,0.6-1.2,1.7-1.2,3.1c0,1.7,0.6,3.1,1.4,3.9c1.1,1.1,2.6,1.7,4,1.7
						c1.3,0,2.5-0.5,3.2-1.3c0.6-0.6,1.2-1.5,1.2-3.1C592.7,535.6,592.2,534.1,591.2,533.2z"/>
					<path fill="#FFFFFF" d="M581.7,545l12.8,3.5l-10.2,3.4l10.2,6l-12.8,0.4v-1.3l8.4-0.1l-8.9-5.2l8.9-3l-8.4-2.2V545z"/>
					<path fill="#FFFFFF" d="M591.1,572.3c0.4-0.4,0.8-0.8,1.1-1.4c0.4-0.7,0.5-1.3,0.5-2c0-1.5-0.6-3-1.5-3.9
						c-0.9-0.9-2.4-1.5-3.9-1.5c-1.4,0-2.6,0.6-3.3,1.3c-0.9,0.8-1.3,1.9-1.3,3.1c0,0.9,0.2,1.7,0.5,2.2c0.2,0.5,0.7,1.1,1.1,1.5
						l-1.7-0.2c-0.4-0.5-0.7-1.1-0.8-1.5c-0.2-0.6-0.4-1.4-0.4-2.1c0-1.8,0.6-3.1,1.5-4.1c1.1-1.1,2.5-1.5,4-1.5c2.6,0,4.3,1.2,5,2
						c1.4,1.4,1.8,3.1,1.8,4.8c0,0.7-0.1,1.5-0.5,2.4c-0.1,0.4-0.5,0.8-0.8,1.3L591.1,572.3z"/>
					<path fill="#FFFFFF" d="M588.9,576.7v6.1l4.8,0.6v1.3l-12.1-1.5V582l5.9,0.7v-6.1l-5.9-0.7v-1.3l12.1,1.5v1.3L588.9,576.7z"/>
					<path fill="#FFFFFF" d="M592.5,594.9v-5l-3.5-0.5v4.7l-1.3-0.1v-4.7l-4.7-0.6v5l-1.3-0.1v-6.3l12.1,1.5v6.3L592.5,594.9z"/>
					<path fill="#FFFFFF" d="M593.7,598.5l-9,2.1l9.7,5l-9.7,2.4l9,4.6v1.5l-12.6-6.6l9.7-2.4l-9.7-5l12.6-3.1V598.5z"/>
					<path fill="#FFFFFF" d="M593.7,618l-12.1-1.5v-1.3l12.1,1.5V618z"/>
					<path fill="#FFFFFF" d="M592.5,624.8l-10.8-1.3v-1.3l10.8,1.3v-3l1.3,0.1v7.2l-1.3-0.1V624.8z"/>
					<path fill="#FFFFFF" d="M592.5,633.9l-10.8-1.3v-1.3l10.8,1.3v-3l1.3,0.1v7.2l-1.3-0.1V633.9z"/>
					<path fill="#FFFFFF" d="M555,489c0.4-0.4,0.8-0.8,1.1-1.4c0.4-0.7,0.5-1.3,0.5-2c0-1.5-0.6-3-1.5-3.9c-0.9-0.9-2.4-1.5-3.9-1.5
						c-1.4,0-2.6,0.6-3.3,1.3c-0.9,0.8-1.3,1.9-1.3,3.1c0,0.9,0.2,1.7,0.5,2.2c0.2,0.5,0.7,1.1,1.1,1.5l-1.7-0.2
						c-0.4-0.5-0.7-1.1-0.8-1.5c-0.2-0.6-0.4-1.4-0.4-2.1c0-1.8,0.6-3.1,1.5-4.1c1.1-1.1,2.5-1.5,4-1.5c2.6,0,4.3,1.2,5,2
						c1.4,1.4,1.8,3.1,1.8,4.8c0,0.7-0.1,1.5-0.5,2.4c-0.1,0.4-0.5,0.8-0.8,1.3L555,489z"/>
					<path fill="#FFFFFF" d="M546.9,492.5c0.7-0.7,2-1.5,4-1.5c2.5,0,4.1,1.1,5,2c1.3,1.3,1.9,3,1.9,5c0,1.3-0.2,2.8-1.5,4
						c-0.7,0.8-2,1.5-3.9,1.5s-3.8-0.7-5.1-2c-1.1-1.1-1.9-2.7-1.9-5.1C545.4,495.3,545.7,493.7,546.9,492.5z M555.2,494
						c-0.8-0.8-2.1-1.7-3.9-1.7c-1.5,0-2.6,0.6-3.3,1.3c-0.7,0.6-1.2,1.7-1.2,3.1c0,1.7,0.6,3.1,1.4,3.9c1.1,1.1,2.6,1.7,4,1.7
						c1.3,0,2.5-0.5,3.2-1.3c0.6-0.6,1.2-1.5,1.2-3.1C556.6,496.3,556,494.9,555.2,494z"/>
					<path fill="#FFFFFF" d="M557.7,509.1l-10.8-1.3v3.3l-1.3-0.1v-4.6l12.1,1.5L557.7,509.1L557.7,509.1z"/>
					<path fill="#FFFFFF" d="M546.9,514.6c0.7-0.7,2-1.5,4-1.5c2.5,0,4.1,1.1,5,2c1.3,1.3,1.9,3,1.9,5c0,1.3-0.2,2.8-1.5,4
						c-0.7,0.8-2,1.5-3.9,1.5s-3.8-0.7-5.1-2c-1.1-1.1-1.9-2.7-1.9-5.1C545.4,517.4,545.7,515.8,546.9,514.6z M555.2,516.2
						c-0.8-0.8-2.1-1.7-3.9-1.7c-1.5,0-2.6,0.6-3.3,1.3c-0.7,0.6-1.2,1.7-1.2,3.1c0,1.7,0.6,3.1,1.4,3.9c1.1,1.1,2.6,1.7,4,1.7
						c1.3,0,2.5-0.5,3.2-1.3c0.6-0.6,1.2-1.5,1.2-3.1C556.6,518.5,556,517,555.2,516.2z"/>
					<path fill="#FFFFFF" d="M550.6,530.2c-0.6-0.1-0.9-0.1-1.4-0.1c-0.7,0-1.3,0.2-1.8,0.8c-0.6,0.6-0.7,1.3-0.7,2
						c0,0.6,0,1.5,0.8,2.2c0.8,0.7,2,0.8,2.7,0.9l7.4,0.9v1.3l-7.8-0.9c-1.3-0.1-2.5-0.4-3.4-1.4c-0.9-1.1-1.1-2.2-1.1-3.2
						c0-1.1,0.2-2.1,1.1-3c0.6-0.6,1.3-1.1,2.5-1.1c0.4,0,1.5,0.1,1.8,0.1l7,0.8v1.3L550.6,530.2z"/>
					<path fill="#FFFFFF" d="M557.7,544.3c0,0.9,0,2.1-0.8,3.1c-0.6,0.7-1.4,0.8-2.1,0.8c-0.9,0-1.9-0.2-2.6-0.9
						c-0.6-0.7-0.9-1.7-1.1-2.5l-5.4,3.2v-1.7l5.3-3.1v-0.4l-5.3-0.7v-1.3l12.1,1.5V544.3z M552.1,543v0.8c0,0.6,0,1.5,0.6,2.2
						c0.4,0.4,0.9,0.7,1.8,0.7c0.9,0,1.4-0.5,1.7-0.8c0.2-0.4,0.4-1.2,0.4-1.7v-0.7L552.1,543z"/>
					<path fill="#FFFFFF" d="M556.4,557.8v-4.1l-3.5-0.5v4l-1.3-0.1v-4l-5.9-0.7V551l12.1,1.5v5.4L556.4,557.8z"/>
					<path fill="#FFFFFF" d="M557.7,562.5l-10.8-1.3v3.3l-1.3-0.2v-4.6l12.1,1.5V562.5z"/>
					<path fill="#FFFFFF" d="M546.9,568.1c0.7-0.7,2-1.5,4-1.5c2.5,0,4.1,1.1,5,2c1.3,1.3,1.9,3,1.9,5c0,1.3-0.2,2.8-1.5,4
						c-0.7,0.8-2,1.5-3.9,1.5s-3.8-0.7-5.1-2c-1.1-1.1-1.9-2.7-1.9-5.1C545.4,570.8,545.7,569.2,546.9,568.1z M555.2,569.6
						c-0.8-0.8-2.1-1.7-3.9-1.7c-1.5,0-2.6,0.6-3.3,1.3c-0.7,0.6-1.2,1.7-1.2,3.1c0,1.7,0.6,3.1,1.4,3.9c1.1,1.1,2.6,1.7,4,1.7
						c1.3,0,2.5-0.5,3.2-1.3c0.6-0.6,1.2-1.5,1.2-3.1S556,570.5,555.2,569.6z"/>
					<path fill="#FFFFFF" d="M546.9,583.4c0.7-0.7,2-1.5,4-1.5c2.5,0,4.1,1.1,5,2c1.3,1.3,1.9,3,1.9,5c0,1.3-0.2,2.8-1.5,4
						c-0.7,0.8-2,1.5-3.9,1.5s-3.8-0.7-5.1-2c-1.1-1.1-1.9-2.7-1.9-5.1C545.4,586.1,545.7,584.6,546.9,583.4z M555.2,584.8
						c-0.8-0.8-2.1-1.7-3.9-1.7c-1.5,0-2.6,0.6-3.3,1.3c-0.7,0.6-1.2,1.7-1.2,3.1c0,1.7,0.6,3.1,1.4,3.9c1.1,1.1,2.6,1.7,4,1.7
						c1.3,0,2.5-0.5,3.2-1.3c0.6-0.6,1.2-1.5,1.2-3.1S556,585.8,555.2,584.8z"/>
					<path fill="#FFFFFF" d="M557.7,598.5v2.1c0,1.3-0.2,3.3-1.5,4.6c-0.7,0.7-1.9,1.4-3.9,1.4c-1.4,0-3.3-0.4-4.8-1.8
						c-1.5-1.5-1.9-3.4-1.9-5.7v-2.4L557.7,598.5z M546.9,598.5v0.8c0,2,0.4,3.5,1.4,4.6c1.2,1.2,3,1.4,3.9,1.4s2.1-0.2,3-1.1
						c1.2-1.1,1.3-2.6,1.3-3.4v-1.2L546.9,598.5z"/>
					<path fill="#FFFFFF" d="M546.9,609.4c0.2,0.2,0.2,0.5,0.2,0.7c0,0.2-0.1,0.5-0.2,0.6c-0.1,0.1-0.4,0.2-0.6,0.2
						c-0.2,0-0.5,0-0.7-0.4c-0.1-0.2-0.2-0.5-0.2-0.7c0-0.4,0.1-0.5,0.2-0.6c0.1-0.1,0.4-0.2,0.6-0.2
						C546.6,609.2,546.8,609.4,546.9,609.4z"/>
					<path fill="#FFFFFF" d="M550.6,616.5c-0.6-0.1-0.9-0.1-1.4-0.1c-0.7,0-1.3,0.2-1.8,0.8c-0.6,0.6-0.7,1.3-0.7,2
						c0,0.6,0,1.5,0.8,2.2c0.8,0.7,2,0.8,2.7,0.9l7.4,0.9v1.3l-7.8-0.9c-1.3-0.1-2.5-0.4-3.4-1.4c-0.9-1.1-1.1-2.2-1.1-3.2
						c0-1.1,0.2-2.1,1.1-3c0.6-0.6,1.3-1.1,2.5-1.1c0.4,0,1.5,0.1,1.8,0.1l7,0.8v1.3L550.6,616.5z"/>
					<path fill="#FFFFFF" d="M552.5,629.3l5.2,5.8v1.8l-5.7-6.4l-6.4,5v-1.8l5.6-4.3l-0.4-0.4l-5.2-0.6v-1.3l12.1,1.5v1.3
						L552.5,629.3z"/>
				</g>
			</g>
		</g>
	</g>
</g>
</svg>
