<?xml version="1.0" encoding="utf-8"?>
<!-- Generator: Adobe Illustrator 18.1.0, SVG Export Plug-In . SVG Version: 6.00 Build 0)  -->
<!DOCTYPE svg PUBLIC "-//W3C//DTD SVG 1.1//EN" "http://www.w3.org/Graphics/SVG/1.1/DTD/svg11.dtd">
<svg version="1.1" id="Layer_1" xmlns="http://www.w3.org/2000/svg" xmlns:xlink="http://www.w3.org/1999/xlink" x="0px" y="0px"
	 viewBox="0 0 850 400" style="enable-background:new 0 0 850 400;" xml:space="preserve">
<style type="text/css">
	.st0{fill:#FFFFFF;}
	.st1{fill:url(#SVGID_1_);}
</style>
<rect class="st0" width="850" height="400"/>
<linearGradient id="SVGID_1_" gradientUnits="userSpaceOnUse" x1="404.8904" y1="326.8579" x2="449.772" y2="115.7067" gradientTransform="matrix(1 0 0 -1 0 402)">
	<stop  offset="0" style="stop-color:#E62262"/>
	<stop  offset="0.132" style="stop-color:#E22262"/>
	<stop  offset="0.2674" style="stop-color:#D62160"/>
	<stop  offset="0.4046" style="stop-color:#C1215E"/>
	<stop  offset="0.5428" style="stop-color:#A4205A"/>
	<stop  offset="0.6821" style="stop-color:#7F1F56"/>
	<stop  offset="0.822" style="stop-color:#521D51"/>
	<stop  offset="0.9601" style="stop-color:#1D1C4B"/>
	<stop  offset="1" style="stop-color:#0C1B49"/>
</linearGradient>
<path class="st1" d="M203.7,197.5c0,0.9-0.1,1.6-0.2,2.4c-0.1,0.3-0.1,0.5-0.2,0.9c-6,24.6-28.2,42.9-54.7,42.9
	c-31.1,0-56.4-25.2-56.4-56.4c0-31.1,25.2-56.4,56.4-56.4c3.4,0,6.8,0.3,10.1,0.9c0.1,0,0.1,0,0.2,0c2.7,0.5,4.7,3,4.7,5.7
	c0,3.3-2.6,5.8-5.8,5.8c-0.3,0-0.7,0-1-0.1c-0.1,0-0.3-0.1-0.4-0.1c-2.3-0.4-4.7-0.8-7.1-0.8c-19.1,0-34.6,15.4-34.6,34.6
	s15.4,34.6,34.6,34.6c13.7,0,25.6-8,31.2-19.6l0,0c2-4.2,6.2-7,11.1-7C198.1,185.2,203.7,190.7,203.7,197.5z M127.2,180.4
	c0-13,10.5-23.5,23.5-23.5c0.5,0,1,0,1.5,0c0.8,0,1.5,0.2,2.2,0.1c1.9-0.3,3.8-1.9,3.8-3.8c0-1.9-1.5-3.5-2.6-3.8l0,0
	c-2.2-0.3-4.2-0.5-6-0.5c-15.7,0-28.6,12.7-28.6,28.4s12.6,28.4,28.2,28.4c6.7,0,12.7-2.3,17.5-6.1c0.1-0.1,0.1-0.1,0.2-0.2
	c0.1-0.1,0.1-0.2,0.1-0.3c0-0.3-0.3-0.7-0.7-0.7c-0.1,0-0.2,0-0.3,0.1c-0.1,0-0.1,0.1-0.2,0.1c-4.1,3.4-9.4,5.5-15.1,5.5
	C137.8,204,127.2,193.4,127.2,180.4z M149,169.2c0.1,0,0.2,0.1,0.3,0.1l0,0c0.1,0,0.2-0.1,0.2-0.1l0.1-0.1c0.1,0,0.2,0,0.4,0
	c1.6,0,3-1.4,3-3.1s-1.3-3.1-3.1-3.1l0,0c-0.1,0-0.2,0-0.3,0c-9.1,0.5-16.2,8.1-16.2,17.3c0,3.3,0.9,6.4,2.5,9.1
	c0,0.1,0.1,0.1,0.1,0.2c0.1,0.1,0.3,0.2,0.4,0.2c0.3,0,0.7-0.5,0.7-0.9c0-0.1,0-0.5-0.1-0.5l0,0c-1-2.2-1.5-3.7-1.5-6
	C135.5,175,141.5,169.2,149,169.2z M330.6,188.8L318,210.5c-2.2,3.7-4.3,6.7-4.3,6.7c-11.8,14.9-29.7,15.4-35.9,5.9
	c-6.2,3.6-12.8,5.8-19.5,5.8c-16,0-23.3-13.2-14.9-27.7l14.2-24.3c5.7-9.9,14.5-15.7,25.4-15.7c2.7,0,5.3,0.5,7.3,1.6l-7,9
	c-3.2-2-9.6,0.7-14.1,8.3l-13.9,24.2c-6.2,10.9-1.3,16.1,7,16.1c4.1,0,8.6-1.6,13.4-4.4c-0.2-4.4,1.1-9.6,4.7-15.8l5.8-9.9l6.6-11.4
	c7.7-13.4,15.7-17.4,25.9-17.4C331.3,161.7,338.7,174.9,330.6,188.8z M306.2,179.6l-6.5,10.9l-10.2,17.6c-8,13.9,7.3,15.9,13.6,5.1
	l0.1-0.2c2.2-3.5,7.2-12.5,7.2-12.5l9.7-16.6C328.4,170,315.6,163.8,306.2,179.6z M682.7,188.8l-12.6,21.7c-2.2,3.7-4.3,6.7-4.3,6.7
	c-18,22.7-50.1,12-33.4-16.8l5.8-9.9l6.6-11.4c7.7-13.4,15.7-17.4,25.9-17.4C683.4,161.7,690.8,174.9,682.7,188.8z M658.3,179.6
	l-6.5,10.9l-10.2,17.6c-8,13.9,7.3,15.9,13.6,5.1l0.1-0.2c2.2-3.5,7.2-12.5,7.2-12.5l9.7-16.6C680.5,170,667.7,163.8,658.3,179.6z
	 M631.8,188.8l-12.6,21.7c-2.2,3.7-4.3,6.7-4.3,6.7c-12.2,15.4-30.9,15.4-36.5,4.9c-5.6,4.2-11.2,6.8-16.4,6.8
	c-10.7,0-14.8-9.2-9.1-19.1l35.9-61.9h13.5l-37.8,65.4c-3.1,5.3-1.4,7.3,1.5,7.3c2.8,0,6.6-2.1,10.7-5.6c0-4.2,1.4-9.1,4.7-14.7
	l5.8-9.9l6.6-11.4c7.7-13.4,15.7-17.4,25.9-17.4C632.5,161.7,639.9,174.9,631.8,188.8z M607.4,179.6l-6.5,10.9l-10.2,17.6
	c-8,13.9,7.3,15.9,13.6,5.1l0.1-0.2c2.2-3.5,7.2-12.5,7.2-12.5l9.7-16.6C629.6,170,616.8,163.8,607.4,179.6z M405.7,188.8
	l-12.6,21.7c-2.2,3.7-4.3,6.7-4.3,6.7c-12.3,15.4-31.1,15.4-36.6,4.7c-5.7,4.3-11.4,6.9-16.6,6.9c-10.7,0-14.8-9.2-9.1-19.1l36-61.8
	h13.4l-37.8,65.4c-3.1,5.3-1.4,7.3,1.5,7.3c3,0,6.8-2.2,11.2-5.8c0.1-4.1,1.5-8.9,4.7-14.3l5.8-9.9l6.6-11.4
	c7.7-13.4,15.7-17.4,25.9-17.4C406.4,161.7,413.8,174.9,405.7,188.8z M364.8,208.1c-8,13.9,7.3,15.9,13.6,5.1l0.1-0.2
	c2.2-3.5,7.2-12.5,7.2-12.5l9.7-16.6c8.1-13.9-4.7-20.1-14.1-4.3l-6.5,10.9 M551.1,196.7c-6.8,11.7-17.8,19.3-26.9,24
	c-2.4,1.5-5.4,2.4-8,2.6c3,0.1,5.3-0.1,6.4,3.2c1.3,3.7,1.2,8.8-1.5,13.5l-2.3,4.3c-14.2,25-34.8,10.7-24.5-7l5-8.5
	c-1,0.2-2,0.2-3,0.2c-10.7,0-14.8-9.1-9.1-18.9l14.1-24.5c1.5-2.7,0.9-5.4-0.8-7.6l-1.8-2.2c-10.6,14.5-15.5,21.1-22.1,28.6l0,0
	c-10.9,12.8-23.6,24.6-34.7,24.6c-8.4,0-12.6-5.6-11.3-12.8c-6.5,6.1-14.7,12.8-22,12.8c-8.9,0-11.9-7.9-5.1-19.7l26.2-44.8H443
	l-26.1,45c-1.6,2.8-5,7.6-1.6,9c2.5,1.2,10.4-3.6,20.5-12.9l23.8-41.1h13.4l-28.5,49.4c-3.1,5.3-1.4,7,1.5,7c5.9,0,15-9,24.5-20.1
	l0.5-1.1l0,0c9.9-10.3,17-21.6,22.9-29.9l-1-1.5c-4.7-6.1-4.1-13.7,3.5-20.5l7,7.6c-2.7,2.5-2.6,5.3-0.8,7.7l7.4,9
	c4.4,5.3,6.6,10,2,18.1l-13.4,23.3c-3.1,5.3-1.4,7.3,1.5,7.3c1.3,0,2.7-0.4,4.3-1.2l31.6-54.1c17.4-30.3,46.3-21.7,30.9,5
	L551.1,196.7z M513.6,227.9h-1.2l-7.4,12c-5.5,9.4,0,11.3,4.6,3.4l3.5-5.9C515.6,232.4,515.6,227.9,513.6,227.9z M543,191.5
	l15.3-25.2c6.6-12-2.7-12.6-9.9-0.1l-30.8,51.2C528.2,212.7,537.1,201.5,543,191.5z M729.9,217.3c2.2,2.2,3.8,3.8,4.7,4.7
	c-5.7,4.2-11.3,6.9-16.5,6.9c-6.8,0-10.9-3.6-11.5-8.8c-6.5,5.3-13.1,8.8-18.5,8.8c-10.7,0-14.8-9.1-9.1-18.9l18.7-32.3
	c5.7-9.7,15.7-15.3,22.9-15.3c5.5,0,9.9,3.1,12.2,6.8l12.2-21h13.4l-37.7,65.4c-3.1,5.3-1.4,7.3,1.5,7.3
	C724.2,220.6,726.9,219.5,729.9,217.3z M724.1,183H724c6.6-10.9-7.7-14.9-14.9-2.4l-18.6,32.6c-3.1,5.3-1.4,7.4,1.5,7.4
	c5.7,0,13.9-6.6,21.9-19.8L724.1,183z"/>
</svg>
