<?xml version="1.0" encoding="utf-8"?>
<!-- Generator: Adobe Illustrator 18.1.0, SVG Export Plug-In . SVG Version: 6.00 Build 0)  -->
<!DOCTYPE svg PUBLIC "-//W3C//DTD SVG 1.1//EN" "http://www.w3.org/Graphics/SVG/1.1/DTD/svg11.dtd">
<svg version="1.1" id="Layer_1" xmlns="http://www.w3.org/2000/svg" xmlns:xlink="http://www.w3.org/1999/xlink" x="0px" y="0px"
	 viewBox="0 0 850 850" style="enable-background:new 0 0 850 850;" xml:space="preserve">
<style type="text/css">
	.st0{fill:#444444;}
	.st1{fill:#ADADAD;}
</style>
<rect class="st0" width="850" height="850"/>
<g>
	<g>
		<g>
			<path class="st1" d="M212.4,129.2c0,8.5,5.7,12.1,12.1,12.1s10.4-2.9,10.4-2.9l4.5,11.1c0,0-5.5,3.9-14.8,3.9
				c-9.3,0-16.6-4.1-19.9-8.6c-3.3-4.6-4.8-11-4.8-15.7v-2.5c0-4.7,1.4-11.1,4.8-15.7c3.3-4.5,10.6-8.6,19.9-8.6
				c9.3,0,14.8,3.9,14.8,3.9l-4.5,11.1c0,0-3.9-2.9-10.4-2.9s-12.1,3.6-12.1,12.1V129.2z"/>
			<path class="st1" d="M308.6,140.8l4.5,11.1c0,0-4.7,1.4-8.1,1.4c-3.4,0-13.9-1.7-13.9-17c0-15.4,0-51.9,0-51.9h12.5v50.7
				C303.6,137,304.1,142.2,308.6,140.8z"/>
			<path class="st1" d="M278.6,108.3c-3.7-3.7-10.7-5.8-15.5-5.8c-4.8,0-11.7,2-15.5,5.8c-3.7,3.7-6.6,9.3-6.6,18.4v2.4
				c0,9.1,2.8,14.7,6.6,18.4c3.7,3.7,10.7,5.8,15.5,5.8c4.8,0,11.7-2,15.5-5.8c3.7-3.7,6.6-9.3,6.6-18.4v-2.4
				C285.2,117.6,282.4,112,278.6,108.3z M273.9,128.6c0,4.8-1.4,7.7-3.2,9.7c-1.8,2-5.2,3-7.5,3c-2.3,0-5.7-1.1-7.5-3
				c-1.8-2-3.2-4.9-3.2-9.7v-1.3c0-4.8,1.4-7.7,3.2-9.7c1.8-2,5.2-3,7.5-3c2.3,0,5.7,1.1,7.5,3c1.8,2,3.2,4.9,3.2,9.7V128.6z"/>
			<path class="st1" d="M351.5,108.3c-3.7-3.7-10.7-5.8-15.5-5.8c-4.8,0-11.7,2-15.5,5.8c-3.7,3.7-6.6,9.3-6.6,18.4v2.4
				c0,9.1,2.8,14.7,6.6,18.4c3.7,3.7,10.7,5.8,15.5,5.8c4.8,0,11.7-2,15.5-5.8c3.7-3.7,6.6-9.3,6.6-18.4v-2.4
				C358.1,117.6,355.3,112,351.5,108.3z M346.8,128.6c0,4.8-1.4,7.7-3.2,9.7c-1.8,2-5.2,3-7.5,3c-2.3,0-5.7-1.1-7.5-3
				c-1.8-2-3.2-4.9-3.2-9.7v-1.3c0-4.8,1.4-7.7,3.2-9.7c1.8-2,5.2-3,7.5-3c2.3,0,5.7,1.1,7.5,3c1.8,2,3.2,4.9,3.2,9.7V128.6z"/>
			<path class="st1" d="M405.8,149v-45.4h-11.3v36.2c-2.2,1.5-6.9,1.5-9.2,1.5c-2.3,0-5.7-1.1-7.5-3c-1.8-2-3.2-4.9-3.2-9.7v-24.9
				h-11.3v25.5c0,9.1,2.8,14.7,6.6,18.4c3.7,3.7,10.7,5.8,15.5,5.8C394.2,153.3,402.1,152.1,405.8,149z"/>
			<path class="st1" d="M433.1,102c-6.4-0.5-16.9,1.1-20.5,3.9v45.4H424v-36.2c2.2-1.5,6.6-1.7,9.4-1.3c2.4,0.4,5.2,0.9,5.2,0.9
				l4.1-10.3C442.6,104.4,438.6,102.4,433.1,102z"/>
		</g>
		<g>
			<path class="st1" d="M499.6,140.8l4.5,11.1c0,0-4.7,1.4-8.1,1.4c-3.4,0-13.9-1.7-13.9-17c0-15.4,0-51.9,0-51.9h12.5v50.7
				C494.6,137,495,142.2,499.6,140.8z"/>
			<g>
				<path class="st1" d="M473.2,98.1l4.5-11.1c0,0-5.6-2.5-16-2.5c-3.4,0-13.9,1.7-13.9,17c0,15.4,0,51.9,0,51.9h12.5v-50.7
					C460.3,94.9,468.6,96.6,473.2,98.1z"/>
				<polyline class="st1" points="451.4,116.3 474.5,116.3 474.5,104.9 452.1,104.9 				"/>
			</g>
			<g>
				<path class="st1" d="M646.3,149V84.4H635v55.4c-2.2,1.5-6.9,1.5-9.2,1.5c-2.3,0-5.7-1.1-7.5-3c-1.8-2-3.2-4.9-3.2-9.7v-1.5
					h-11.3v2c0,9.1,2.8,14.7,6.6,18.4c3.7,3.7,10.7,5.8,15.5,5.8C634.8,153.3,642.7,152.1,646.3,149z"/>
				<path class="st1" d="M646.3,106.8c-3.6-3-11.5-4.3-20.5-4.3c-4.8,0-11.7,2-15.5,5.8c-3.7,3.7-6.6,9.3-6.6,18.4v2H615v-1.5
					c0-4.8,1.4-7.7,3.2-9.7c1.8-2,5.2-3,7.5-3c2.3,0,7,0,9.2,1.5"/>
			</g>
			<path class="st1" d="M542,108.3c-3.7-3.7-10.7-5.8-15.5-5.8c-4.8,0-11.7,2-15.5,5.8c-3.7,3.7-6.6,9.3-6.6,18.4v2.4
				c0,9.1,2.8,14.7,6.6,18.4c3.7,3.7,10.7,5.8,15.5,5.8c4.8,0,11.7-2,15.5-5.8c3.7-3.7,6.6-9.3,6.6-18.4v-2.4
				C548.5,117.6,545.7,112,542,108.3z M537.2,128.6c0,4.8-1.4,7.7-3.2,9.7c-1.8,2-5.2,3-7.5,3c-2.3,0-5.7-1.1-7.5-3
				c-1.8-2-3.2-4.9-3.2-9.7v-1.3c0-4.8,1.4-7.7,3.2-9.7c1.8-2,5.2-3,7.5-3c2.3,0,5.7,1.1,7.5,3c1.8,2,3.2,4.9,3.2,9.7V128.6z"/>
			<path class="st1" d="M591.7,108.3c-3.7-3.7-10.7-5.8-15.5-5.8c-4.8,0-11.7,2-15.5,5.8c-3.7,3.7-6.6,9.3-6.6,18.4v2.4
				c0,9.1,2.8,14.7,6.6,18.4c3.7,3.7,10.7,5.8,15.5,5.8c4.8,0,11.7-2,15.5-5.8c3.7-3.7,6.6-9.3,6.6-18.4v-2.4
				C598.3,117.6,595.5,112,591.7,108.3z M587,128.6c0,4.8-1.4,7.7-3.2,9.7c-1.8,2-5.2,3-7.5,3c-2.3,0-5.7-1.1-7.5-3
				c-1.8-2-3.2-4.9-3.2-9.7v-1.3c0-4.8,1.4-7.7,3.2-9.7c1.8-2,5.2-3,7.5-3c2.3,0,5.7,1.1,7.5,3c1.8,2,3.2,4.9,3.2,9.7V128.6z"/>
		</g>
	</g>
	<g>
		<g>
			<path class="st1" d="M213.2,242.6c0,9.1,6.1,13,13,13c6.9,0,11.1-3.1,11.1-3.1l4.8,11.9c0,0-5.8,4.2-15.8,4.2
				c-10,0-17.8-4.3-21.3-9.2c-3.6-4.9-5.1-11.8-5.1-16.8V240c0-5,1.5-11.9,5.1-16.8c3.5-4.9,11.4-9.2,21.3-9.2
				c10,0,15.8,4.2,15.8,4.2l-4.8,11.9c0,0-4.2-3.1-11.1-3.1c-6.9,0-13,3.9-13,13V242.6z"/>
			<path class="st1" d="M415.2,267.4V240c0-5,1.5-11.9,5.1-16.8c3.5-4.9,11.4-9.2,21.3-9.2c3,0,4.7,1.1,4.7,1.1l-4.7,11.9l0,0
				c-6.9,0-13,3.9-13,13v27.5H415.2z"/>
			<rect x="452.6" y="218.3" class="st1" width="23.8" height="12.1"/>
			<path class="st1" d="M450.1,267.5v-45.3c0-5,1.5-11.9,5.1-16.8c3.5-4.9,11.4-9.2,21.3-9.2c3,0,4.7,1.1,4.7,1.1l-4.7,11.9l0,0
				c-6.9,0-13,3.9-13,13v45.3H450.1z"/>
			<path class="st1" d="M282,220.2c-4-4-11.5-6.2-16.7-6.2c-5.1,0-12.6,2.2-16.7,6.2c-4,4-7.1,10.1-7.1,19.8v2.6
				c0,9.8,3,15.8,7.1,19.8c4,4,11.5,6.2,16.7,6.2c5.1,0,12.6-2.2,16.7-6.2c4-4,7.1-10.1,7.1-19.8V240
				C289.1,230.2,286,224.2,282,220.2z M276.9,242c0,5.2-1.5,8.3-3.4,10.5c-2,2.1-5.6,3.3-8.1,3.3c-2.5,0-6.1-1.1-8.1-3.3
				c-2-2.1-3.4-5.3-3.4-10.5v-1.4c0-5.2,1.5-8.3,3.4-10.5c2-2.1,5.6-3.3,8.1-3.3c2.5,0,6.1,1.1,8.1,3.3c2,2.1,3.4,5.3,3.4,10.5V242z
				"/>
			<path class="st1" d="M351.7,220.2c-4-4-11.5-6.2-16.7-6.2c-5.1,0-12.6,2.2-16.7,6.2c-4,4-7.1,10.1-7.1,19.8v2.6
				c0,9.8,3,15.8,7.1,19.8c4,4,11.5,6.2,16.7,6.2c5.1,0,12.6-2.2,16.7-6.2c4-4,7.1-10.1,7.1-19.8V240
				C358.8,230.2,355.8,224.2,351.7,220.2z M346.6,242c0,5.2-1.5,8.3-3.4,10.5c-2,2.1-5.6,3.3-8.1,3.3c-2.5,0-6.1-1.1-8.1-3.3
				c-2-2.1-3.4-5.3-3.4-10.5v-1.4c0-5.2,1.5-8.3,3.4-10.5c2-2.1,5.6-3.3,8.1-3.3c2.5,0,6.1,1.1,8.1,3.3c2,2.1,3.4,5.3,3.4,10.5V242z
				"/>
			<path class="st1" d="M398.3,216.3V242c0,5.2-1.5,8.3-3.4,10.5c-2,2.1-5.6,3.3-8.1,3.3c-2.5,0-6.1-1.1-8.1-3.3
				c-2-2.1-3.4-5.3-3.4-10.5v-25.7H363v26.4c0,9.8,3,15.8,7.1,19.8c4,4,11.5,6.2,16.7,6.2c5.1,0,12.6-2.2,16.7-6.2
				c4-4,7.1-10.1,7.1-19.8v-26.4H398.3z"/>
			<g>
				<path class="st1" d="M646.3,263v-66.6h-11.7v57.1c-2.3,1.6-7.1,1.5-9.5,1.5c-2.4,0-5.9-1.1-7.8-3.1c-1.9-2-3.3-5.1-3.3-10v-1.5
					h-11.7v2.1c0,9.4,2.9,15.1,6.8,19c3.9,3.9,11.1,5.9,16,5.9C634.4,267.4,642.5,266.2,646.3,263z"/>
				<path class="st1" d="M646.3,219.5c-3.8-3.1-11.9-4.4-21.2-4.4c-4.9,0-12.1,2.1-16,5.9c-3.9,3.9-6.8,9.6-6.8,19v2.1h11.7v-1.5
					c0-4.9,1.4-8,3.3-10c1.9-2,5.4-3.1,7.8-3.1c2.4,0,7.2,0,9.5,1.5"/>
			</g>
			<path class="st1" d="M542.1,221c-3.9-3.9-11.1-5.9-16-5.9s-12.1,2.1-16,5.9c-3.9,3.9-6.8,9.6-6.8,19v2.5c0,9.4,2.9,15.1,6.8,19
				c3.9,3.9,11.1,5.9,16,5.9s12.1-2.1,16-5.9c3.9-3.9,6.8-9.6,6.8-19V240C548.9,230.6,546,224.9,542.1,221z M537.2,241.9
				c0,4.9-1.4,8-3.3,10c-1.9,2-5.4,3.1-7.8,3.1c-2.4,0-5.9-1.1-7.8-3.1c-1.9-2-3.3-5.1-3.3-10v-1.3c0-4.9,1.4-8,3.3-10
				c1.9-2,5.4-3.1,7.8-3.1c2.4,0,5.9,1.1,7.8,3.1c1.9,2,3.3,5.1,3.3,10V241.9z"/>
			<path class="st1" d="M591.7,221c-3.9-3.9-11.1-5.9-16-5.9c-4.9,0-12.1,2.1-16,5.9c-3.9,3.9-6.8,9.6-6.8,19v2.5
				c0,9.4,2.9,15.1,6.8,19c3.9,3.9,11.1,5.9,16,5.9c4.9,0,12.1-2.1,16-5.9c3.9-3.9,6.8-9.6,6.8-19V240
				C598.4,230.6,595.5,224.9,591.7,221z M586.8,241.9c0,4.9-1.4,8-3.3,10c-1.9,2-5.4,3.1-7.8,3.1c-2.4,0-5.9-1.1-7.8-3.1
				c-1.9-2-3.3-5.1-3.3-10v-1.3c0-4.9,1.4-8,3.3-10c1.9-2,5.4-3.1,7.8-3.1c2.4,0,5.9,1.1,7.8,3.1c1.9,2,3.3,5.1,3.3,10V241.9z"/>
			<rect x="293.5" y="196.2" class="st1" width="13.2" height="71.2"/>
			<rect x="485.8" y="196.2" class="st1" width="13.2" height="71.2"/>
		</g>
	</g>
	<g>
		<path class="st1" d="M253.8,466.3c-1.6,0-2.6,0.4-3.2,1.3c-3.8,8.5-8.7,12.7-14.7,12.7c-1,0-1.9-0.1-2.9-0.4
			c-4.8-1.2-7.1-5.3-7.1-12.1c0-1.2,0.1-2.5,0.3-3.8c6.6,0.3,12.8-0.7,18.6-2.9c5.8-2.2,10.4-5.4,13.9-9.5c4.1-4.8,6.2-9.8,6.2-14.9
			c0-7.7-5-11.7-15-12c-6.9-0.2-14.7,3.6-23.4,11.4c-3.6-1.9-7-2.9-10.2-3c-3.2-0.2-6.5,0.8-9.8,2.9c-3.5,2.1-5.5,4.6-6,7.3
			c-0.3,1.3-0.4,2.5-0.4,3.7c0,6.2,3.6,10.8,10.8,13.8c-1.1,4-1.6,7.8-1.6,11.4c0,9.6,3.6,15.8,10.8,18.7c3.2,1.3,6.3,1.9,9.4,1.9
			c5.8,0,11-2.3,15.8-6.8c3-2.9,5.4-6.1,7.2-9.7c1.7-3.4,2.5-5.9,2.5-7.5C254.8,467.1,254.5,466.3,253.8,466.3z M231,449.9
			c1-1.6,2.1-3.1,3.3-4.8c2.2,1.7,3.6,3,4.2,3.9c0.4,0.6,0.9,0.8,1.5,0.8c0.4,0,0.8-0.1,1.2-0.3c1-0.7,1.1-1.6,0.4-2.5
			c-1.6-1.6-3.4-3.2-5.2-4.7c6.3-8,11.4-12,15.1-12c2.1,0,3.8,1.1,5,3.4c0.2,0.3,0.3,0.8,0.3,1.3c0,2.2-1.3,5.1-3.9,8.9
			c-2.9,4.1-6.4,7.6-10.6,10.4c-5,3.4-10.1,5.3-15.5,5.6C227.9,455.7,229.3,452.4,231,449.9z M211.9,456.4c-5.2-2.6-7.7-5.9-7.7-9.7
			c0-2,0.6-3.7,1.8-5.2c2.3-2.9,5.3-4.3,9.2-4.3c2.5,0,5.1,0.6,8,1.8C218,444.2,214.3,450,211.9,456.4z"/>
		<path class="st1" d="M488.8,460.5c-1.3,0-2.9,0.1-4.5,0.4c0.6-3.1,1.3-5.6,2.2-7.5c0.2-0.4,0.8-1.3,1.8-2.9c0.5-0.6,1-1.2,1.6-1.8
			c0.5-0.6,0.8-1.2,0.8-1.7c0-1.1-0.6-1.7-1.9-1.7c-0.6,0-2.3,0.3-5,1.4c-3,1.2-6.9,7.3-11.8,17.3h-2.5c-1.5-1-2.4-1.8-2.9-2.5
			c1.1-1.2,2.1-2.9,2.9-5.1c0.2-0.7,0.3-1.3,0.3-1.9c0-2.4-1-3.8-3-4.4c-0.2-0.1-0.4-0.1-0.7-0.1c-2.2,0-3.8,1.2-4.8,3.7
			c-0.7,1.8-1.1,4-1.1,6.4c-1.1,0.7-2.4,1-3.7,1c-2,0-3.7-0.8-5-2.3c-1-1.2-1.5-3.2-1.5-6c0-4,1.8-7.6,5.5-10.7
			c3.7-3.1,8-4.7,13.1-4.7c3.8,0,8.9,1.3,15.3,3.9c6.4,2.6,11.5,3.9,15.3,3.9c3.5,0,6.4-1.4,8.8-4.1c2.4-2.8,3.7-6.1,4.1-10.2
			c0.2-2.1-0.4-3.2-1.7-3.2c-0.9,0-1.6,0.4-2.1,1.2c-1.5,2.2-3.9,3.3-7.1,3.3c-3.8,0-9.7-1.2-17.6-3.5c-2.3-0.7-5.1-1-8.4-1
			c-8.2,0-15.3,2.4-21.1,7.3c-5.8,4.8-8.7,10.7-8.7,17.5c0,3.5,1,6.6,3.1,9.1c2.1,2.5,4.6,3.8,7.5,3.8c1.8,0,3.8-0.4,5.7-1.1
			c2.4,3.5,5,5.2,7.9,5.2c-0.6,1.4-1.4,3.2-2.3,5.5c-2.8,7-6.3,12.2-10.6,15.6c-3,2.4-5.8,3.6-8.2,3.6c-2.1,0-3.4-1.3-3.9-3.9
			c-0.2-1.3,0.8-3.1,2.9-5.5c1.6-1.7,2.4-3.5,2.4-5.2c0-3.6-2.5-5.5-7.6-5.5c-1.3,0-2.4,0.4-3.4,1.1c0,0-0.1,0.1-0.1,0.1
			c0-0.1,0-0.1,0-0.2c0-0.3-0.2-0.7-0.7-1.2c-0.2-0.3-0.6-0.5-1.2-0.5c-1,0-1.7,0.4-2.3,1.2c-2,2-3.7,3.6-5,4.9
			c-0.7,1-1.6,1.4-2.5,1.4c-0.7-0.4-0.7-1.5,0-3.4c2.3-5.2,4.4-9.7,6.2-13.6c0.6-1.1,1.1-2.2,1.7-3.3c0.6-1.1,0.8-2.2,0.8-3.1
			c0-0.4-0.1-0.9-0.2-1.3c-0.3-1.3-1.2-1.9-2.7-1.9c-1,0-2.7,0.4-5.2,1.3c-2.9,1-5.1,1-6.6,0.2c0.7-1.4,1-2.7,1-3.9
			c0-1.2-0.4-2-1-2.6c-0.7-0.6-1.6-0.8-2.6-0.8c-2.7,0-4.7,1.3-6.1,4c-0.8,1.7-1.3,3.2-1.3,4.5c0,1.6,0.6,2.9,1.9,3.9
			c-1.6,2.7-3.6,5.6-5.9,8.5c-1,1.3-2.3,2.8-3.9,4.7c-0.3,0.2-0.5,0.4-0.8,0.6c-1.3,1.5-2.7,2.8-3.9,4c-1.1,1-2,1.5-2.7,1.5
			c-1.5,0-1.8-1.2-1-3.6c2.7-5.5,5.1-10.3,7.3-14.5c1.3-2.7,1.9-4.6,1.9-5.7c0-1.2-0.9-1.9-2.8-2c-1.3-0.1-3.2,0.4-5.7,1.6
			c-2.4,1.1-4,2.2-4.7,3.2c-4.8,6.3-8.7,11.1-11.8,14.4c-1.5,1.6-2.7,2.5-3.7,2.9c-0.8,0.2-1.2-0.1-1.2-0.8c0-0.6,0.2-1.2,0.7-2
			c2.1-4.4,3.7-7.7,4.7-10.1c0.4-0.8,0.6-1.6,0.6-2.2c0-0.8-0.5-2.1-1.5-3.7c-1.8-3-3.2-4.5-4.4-4.5c-0.6,0-1.3,0.4-1.9,1.1
			c-6.4,7.4-11.9,13.8-16.5,19.3c-0.3,0.3-0.5,0.5-0.7,0.8c0,0-0.1,0.1-0.1,0.1c-0.1,0.1-0.1,0.2-0.2,0.3c-0.1,0.2-0.3,0.4-0.4,0.5
			c-1.1,1.5-2.4,2.4-4,2.8c0-1.2-0.3-2-1-2.3c2.8-5.5,4.2-10.2,4.2-13.9c0-1.1-0.1-2.1-0.4-2.9c-1.3-3.9-3.8-5.8-7.6-5.8
			c-2,0-4.1,0.5-6.2,1.5c-3.8,1.7-8.2,5.2-13.1,10.5c-3.2,3.3-6.2,6.8-8.9,10.2c-0.3,0.4-0.5,0.8-0.6,1.2c-0.2,0.2-0.4,0.4-0.6,0.6
			c-2.1,2.1-3.5,3.2-4.4,3.4c-1.1,0.2-1.6-0.1-1.6-1c0-0.6,0.3-1.7,0.9-3.3c5.6-11.6,10.9-22.4,15.9-32.4c0.7-1.4,1-2.5,1-3.4
			c0-0.6-0.3-1.5-0.8-2.9c-0.4-1.1-1.1-2.2-2.3-3.3c-1.1-1.1-2.1-1.8-2.9-2.2c-0.9-0.4-3.8,4.1-8.8,13.6c-1.2,2.3-3.7,6.2-7.3,11.6
			c-3.7,5.5-6.3,9.1-7.9,11c-1.9,2.1-3.4,3.8-4.7,5.2c-0.5,0.1-0.9,0.4-1.4,0.9c-1.1,2-2.6,3.2-4.5,3.6c0-1.2-0.3-2-1-2.3
			c2.8-5.5,4.2-10.2,4.2-13.9c0-1.1-0.1-2.1-0.4-2.9c-1.3-3.9-3.8-5.8-7.6-5.8c-2,0-4.1,0.5-6.2,1.5c-3.8,1.7-8.2,5.2-13.1,10.5
			c-3.2,3.3-6.2,6.8-8.9,10.2c-0.4,0.5-0.7,1-0.7,1.6c0,1.1,0.6,1.7,1.7,1.7c0.3,0,0.6-0.1,0.8-0.3c-0.3,1.5-0.5,2.9-0.5,4.2
			c0,3.1,0.8,5.6,2.5,7.5c1.7,1.8,3.9,2.8,6.8,2.8c6,0,11.5-3.2,16.5-9.7c0.8,0.4,1.9,0.6,3.1,0.5c3.5-0.3,6.7-2.1,9.4-5.5
			c2-1.8,5-5.7,9.1-11.6c-6,10.2-9.1,17.1-9.1,20.8c0,0.7,0.1,1.2,0.3,1.6c1.2,2.4,3.2,3.6,5.8,3.6c2.6,0,5.6-1.1,9.2-3.4
			c1.6-1,4.1-3.2,7.5-6.7c0.7-0.8,1.5-1.6,2.2-2.4c-0.1,0.9-0.2,1.8-0.2,2.7c0,3.1,0.8,5.6,2.5,7.5c1.7,1.8,3.9,2.8,6.8,2.8
			c6,0,11.5-3.2,16.5-9.7c0.8,0.4,1.9,0.6,3.1,0.5c3.8-0.3,7.1-2.3,9.9-6.1c0.1-0.1,0.2-0.2,0.3-0.3c1.8-1.8,4.6-4.9,8.4-9.5
			c-2.6,4.2-4.8,7.9-6.5,11.2c-1.8,3.6-2.8,6.7-2.8,9.4c0,2.9,1.3,4.4,4,4.5c4,0.1,11.7-6.3,23.1-19.1c-2.1,4.4-3.7,7.8-4.8,10.2
			c-0.3,0.7-0.4,1.5-0.4,2.4c0,1.7,0.5,3.1,1.4,4.4c1.1,1.4,2.5,2.1,4.3,2.1c1.2,0,2.4-0.3,3.8-1c5.5-2.7,11.1-7.3,16.7-13.9
			c0.5-0.6,0.9-1.2,1.2-1.6c2.6-2.9,6.3-7.5,11.2-13.8c2.4,0,3.6,0.7,3.6,2.1c0,1.5-1,3.5-3.1,6c-5.3,6.7-8.2,11.8-8.6,15.3
			c-0.2,1.6,0.4,3.2,1.6,4.7c1.3,1.5,3,2.3,5.1,2.3c1.5,0,3-0.4,4.5-1.2c4.5-2.2,8.9-5.6,13.3-10.2c-0.6,1.6-0.9,3.3-0.9,5.1
			c0,4.3,1.9,7.9,5.7,10.9c3.8,3,8.3,4.5,13.6,4.5c4.9,0,9.6-1.4,14-4.2c4.4-2.8,8.1-6.8,11.1-11.8c2.9-4.9,4.8-11.1,5.8-18.7
			c0.5,0,1,0,1.6-0.1c0.6-0.1,0.9-0.1,0.9-0.1c0.4,0,0.9,0.3,1.4,0.8c0.5,0.6,0.7,1.2,0.7,1.9c0,0.2,0,0.4-0.1,0.7
			c0,0.5,0.3,0.8,1,0.8c0.8,0,1.5-0.3,2.3-1c0.7-0.7,1.5-1.4,2.3-2.1c0.8-1.1,1.3-2.4,1.3-4C494.8,461.7,492.8,460.5,488.8,460.5z
			 M281.6,471.6c-2.9-0.5-4.7,0.2-5.5,2c-0.3,0.7-0.4,1.4-0.4,2.2c0,1.3,0.4,2.7,1.1,3.9c-1.4,3.2-3,4.8-4.8,4.8
			c-0.4,0-0.8-0.1-1.2-0.3c-1.1-0.5-1.7-1.5-1.7-2.9c0-2.1,1.5-5.7,4.4-11c3.8-7,6.8-10.5,9.1-10.5c1.5,0,2.3,0.8,2.3,2.4
			C284.9,464.3,283.8,467.4,281.6,471.6z M344.8,471.6c-2.9-0.5-4.7,0.2-5.5,2c-0.3,0.7-0.4,1.4-0.4,2.2c0,1.3,0.4,2.7,1.1,3.9
			c-1.4,3.2-3,4.8-4.8,4.8c-0.4,0-0.8-0.1-1.2-0.3c-1.1-0.5-1.7-1.5-1.7-2.9c0-2.1,1.5-5.7,4.4-11c3.8-7,6.8-10.5,9.1-10.5
			c1.5,0,2.3,0.8,2.3,2.4C348.1,464.3,347,467.4,344.8,471.6z"/>
		<path class="st1" d="M640.8,475.8c-0.6-0.4-1.1-0.7-1.5-0.7c-0.2,0-0.6,0.2-1.4,0.7c-1.6,1.4-2.9,2.6-3.9,3.7
			c-0.4,0.4-1,0.7-1.7,0.7c-1.2,0-1.8-0.5-1.8-1.5c0-0.6,0.3-1.3,0.8-2c3.4-6.6,6.2-12.5,8.6-17.6c5.4-11.1,8.1-17.4,8.1-18.8
			c0-1.2-0.6-2.8-1.9-4.8c-1.1-1.7-2.5-2.7-4-2.9c-0.9-0.2-1.5,0-1.9,0.5c-0.4,0.7-0.9,1.4-1.3,2.1c-4.3,7.6-8.2,14.7-11.8,21.2
			c-1.8-1.4-3.8-2.1-6.1-2.1c-3.6,0-7.5,1.8-11.7,5.3c-2.9,2.4-5.9,5.7-9.2,9.8c-1.4,1.8-2.6,3.2-3.5,4.2c-0.5,0.1-0.9,0.4-1.4,0.9
			c-0.2,0.4-0.5,0.8-0.8,1.2c0,0-0.1,0.1-0.1,0.1c-0.8,0.5-1.3,1-1.5,1.4c-0.6,0.4-1.3,0.7-2.1,0.9c0-1.2-0.3-2-1-2.3
			c2.8-5.5,4.2-10.2,4.2-13.9c0-1.1-0.1-2.1-0.4-2.9c-1.3-3.9-3.8-5.8-7.6-5.8c-2,0-4.1,0.5-6.2,1.5c-3.8,1.7-8.2,5.2-13.1,10.5
			c-3.2,3.3-6.2,6.8-8.9,10.2c-0.4,0.4-0.6,0.8-0.6,1.3c-0.8,0.7-1.7,1.1-2.7,1.4c0-1.2-0.3-2-1-2.3c2.8-5.5,4.2-10.2,4.2-13.9
			c0-1.1-0.1-2.1-0.4-2.9c-1.3-3.9-3.8-5.8-7.6-5.8c-2,0-4.1,0.5-6.2,1.5c-3.8,1.7-8.2,5.2-13.1,10.5c-3.2,3.3-6.2,6.8-8.9,10.2
			c-0.3,0.4-0.5,0.8-0.6,1.2c-0.2,0.2-0.4,0.4-0.6,0.6c-2.1,2.1-3.5,3.2-4.4,3.4c-1.1,0.2-1.6-0.1-1.6-1c0-0.6,0.3-1.7,0.9-3.3
			c5.6-11.6,10.9-22.4,15.9-32.4c0.7-1.4,1-2.5,1-3.4c0-0.6-0.3-1.5-0.8-2.9c-0.4-1.1-1.1-2.2-2.3-3.3c-1.1-1.1-2.1-1.8-2.9-2.2
			c-0.9-0.4-3.8,4.1-8.8,13.6c-1.2,2.3-3.7,6.2-7.3,11.6c-3.7,5.5-6.3,9.1-7.9,11c-3.4,3.8-5.8,6.4-7.2,7.9
			c-0.1,0.2-0.2,0.5-0.2,0.8c0,0.4,0.2,0.9,0.5,1.4c0.3,0.5,0.6,0.7,0.9,0.7c1.5,0,5.2-4.3,11.2-12.8c-6,10.2-9.1,17.1-9.1,20.8
			c0,0.7,0.1,1.2,0.3,1.6c1.2,2.4,3.2,3.6,5.8,3.6c2.6,0,5.6-1.1,9.2-3.4c1.6-1,4.1-3.2,7.5-6.7c0.7-0.8,1.5-1.6,2.2-2.4
			c-0.1,0.9-0.2,1.8-0.2,2.7c0,3.1,0.8,5.6,2.5,7.5c1.7,1.8,3.9,2.8,6.8,2.8c6,0,11.5-3.2,16.5-9.7c0.8,0.4,1.9,0.6,3.1,0.5
			c2.9-0.2,5.4-1.4,7.8-3.7c-0.1,0.9-0.2,1.8-0.2,2.7c0,3.1,0.8,5.6,2.5,7.5c1.7,1.8,3.9,2.8,6.8,2.8c6,0,11.5-3.2,16.5-9.7
			c0.8,0.4,1.9,0.6,3.1,0.5c2.9-0.2,5.6-1.5,7.9-3.9c0.4-0.3,0.9-0.6,1.4-1.1c-0.5,0.6-0.9,1.2-1.2,1.9c-0.2,0.4-0.4,1.3-0.6,2.8
			c-0.2,0.8-0.3,1.7-0.3,2.4c0,3.2,1.2,5.4,3.5,6.7c1,0.6,2.1,0.8,3.3,0.8c3.2,0,7.3-2.5,12.2-7.6c1,4.8,2.9,7.1,6,7.1
			c5.2,0,10.4-2.8,15.5-8.4c3.8-4.1,5.7-6.7,5.7-7.6C641.3,476.3,641.1,476.1,640.8,475.8z M548.3,471.6c-2.9-0.5-4.7,0.2-5.5,2
			c-0.3,0.7-0.4,1.4-0.4,2.2c0,1.3,0.4,2.7,1.1,3.9c-1.4,3.2-3,4.8-4.8,4.8c-0.4,0-0.8-0.1-1.2-0.3c-1.1-0.5-1.7-1.5-1.7-2.9
			c0-2.1,1.5-5.7,4.4-11c3.8-7,6.8-10.5,9.1-10.5c1.5,0,2.3,0.8,2.3,2.4C551.6,464.3,550.5,467.4,548.3,471.6z M584.7,471.6
			c-2.9-0.5-4.7,0.2-5.5,2c-0.3,0.7-0.4,1.4-0.4,2.2c0,1.3,0.4,2.7,1.1,3.9c-1.4,3.2-3,4.8-4.8,4.8c-0.4,0-0.8-0.1-1.2-0.3
			c-1.1-0.5-1.7-1.5-1.7-2.9c0-2.1,1.5-5.7,4.4-11c3.8-7,6.8-10.5,9.1-10.5c1.5,0,2.3,0.8,2.3,2.4
			C588,464.3,586.9,467.4,584.7,471.6z M619.9,473.1c-3.5,5.3-6.2,8-8,8c-1.2,0-1.8-0.8-1.8-2.3c0-2.1,1.2-4.8,3.7-8.3
			c4.1-5.8,6.9-8.7,8.5-8.7c1.1,0,1.7,0.6,1.7,1.9C624,465.9,622.6,469,619.9,473.1z"/>
	</g>
	<g>
		<path class="st1" d="M213.9,356.5c-2.4,8.8,2.5,12.6,9.2,12.6c6.7,0,11.6-3,11.6-3l1.5,11.6c0,0-6.8,4.1-16.4,4.1
			c-9.7,0-16.1-4.2-18.3-8.9c-2.2-4.8-1.9-11.5-0.6-16.3l0.7-2.6c1.3-4.8,4.6-11.5,9.3-16.3c4.7-4.7,13.4-8.9,23.1-8.9
			c9.7,0,14.2,4.1,14.2,4.1l-7.7,11.6c0,0-3.3-3-10-3c-6.7,0-13.6,3.8-16,12.6L213.9,356.5z"/>
		<path class="st1" d="M403.5,380.6l7.1-26.7c1.3-4.8,4.6-11.5,9.3-16.3c4.7-4.7,13.4-8.9,23.1-8.9c2.9,0,4.2,1.1,4.2,1.1l-7.7,11.5
			l0,0c-6.7,0-13.6,3.8-16,12.6l-7.1,26.7H403.5z"/>
		<polygon class="st1" points="452.6,332.9 475.7,332.9 472.5,344.7 449.4,344.7 		"/>
		<path class="st1" d="M437.4,380.6l11.8-43.9c1.3-4.8,4.6-11.5,9.3-16.3c4.7-4.7,13.4-8.9,23.1-8.9c2.9,0,4.2,1.1,4.2,1.1
			l-7.7,11.5l0,0c-6.7,0-13.6,3.8-16,12.6l-11.8,43.9H437.4z"/>
		<path class="st1" d="M286.4,334.7c-2.9-3.9-9.6-6-14.6-6c-5,0-12.8,2.1-17.8,6c-5,3.9-9.5,9.8-12,19.3l-0.7,2.5
			c-2.5,9.5-1.2,15.4,1.7,19.3c2.9,3.9,9.6,6,14.6,6c5,0,12.8-2.1,17.8-6c5-3.9,9.5-9.8,12-19.3l0.7-2.5
			C290.7,344.5,289.3,338.6,286.4,334.7z M275.8,355.9c-1.3,5-3.6,8.1-6.1,10.2c-2.5,2.1-6.3,3.2-8.7,3.2c-2.4,0-5.7-1.1-7-3.2
			c-1.3-2.1-2-5.2-0.6-10.2l0.4-1.3c1.3-5,3.6-8.1,6.1-10.2c2.5-2.1,6.3-3.2,8.7-3.2c2.4,0,5.7,1.1,7,3.2c1.4,2.1,2,5.2,0.6,10.2
			L275.8,355.9z"/>
		<path class="st1" d="M354.2,334.7c-2.9-3.9-9.6-6-14.6-6c-5,0-12.8,2.1-17.8,6c-5,3.9-9.5,9.8-12,19.3l-0.7,2.5
			c-2.5,9.5-1.2,15.4,1.7,19.3c2.9,3.9,9.6,6,14.6,6c5,0,12.8-2.1,17.8-6c5-3.9,9.5-9.8,12-19.3l0.7-2.5
			C358.4,344.5,357,338.6,354.2,334.7z M343.5,355.9c-1.3,5-3.6,8.1-6.1,10.2c-2.5,2.1-6.3,3.2-8.7,3.2c-2.4,0-5.7-1.1-7-3.2
			c-1.3-2.1-2-5.2-0.6-10.2l0.4-1.3c1.3-5,3.6-8.1,6.1-10.2c2.5-2.1,6.3-3.2,8.7-3.2c2.4,0,5.7,1.1,7,3.2c1.4,2.1,2,5.2,0.6,10.2
			L343.5,355.9z"/>
		<path class="st1" d="M400.4,330.9l-6.7,25c-1.3,5-3.6,8.1-6.1,10.2c-2.5,2.1-6.3,3.2-8.7,3.2c-2.4,0-5.7-1.1-7-3.2
			c-1.3-2.1-2-5.2-0.6-10.2l6.7-25h-11.8l-6.9,25.6c-2.5,9.5-1.2,15.4,1.7,19.3c2.9,3.9,9.6,6,14.6,6c5,0,12.8-2.1,17.8-6
			c5-3.9,9.5-9.8,12-19.3l6.9-25.6H400.4z"/>
		<g>
			<path class="st1" d="M629,376.3l17.3-64.7H635l-14.9,55.5c-2.6,1.5-7.3,1.5-9.6,1.5c-2.3,0-5.4-1.1-6.7-3c-1.3-2-1.9-4.9-0.6-9.7
				l0.4-1.5h-11.3l-0.5,2c-2.4,9.1-1.1,14.7,1.6,18.4c2.7,3.7,9.2,5.8,13.9,5.8C616.3,380.6,624.5,379.4,629,376.3z"/>
			<path class="st1" d="M640.3,334.1c-2.8-3-10.4-4.3-19.4-4.3c-4.8,0-12.3,2-17,5.8c-4.7,3.7-9.1,9.3-11.5,18.4l-0.5,2h11.3
				l0.4-1.5c1.3-4.8,3.5-7.8,5.8-9.7c2.4-2,6-3,8.3-3c2.3,0,7,0,8.8,1.5"/>
		</g>
		<path class="st1" d="M538.7,335.5c-2.7-3.7-9.2-5.8-13.9-5.8s-12.3,2-17,5.8c-4.7,3.7-9.1,9.3-11.5,18.4l-0.7,2.4
			c-2.4,9.1-1.1,14.7,1.6,18.4c2.7,3.7,9.2,5.8,13.9,5.8s12.3-2,17-5.8c4.7-3.7,9.1-9.3,11.5-18.4l0.7-2.4
			C542.8,344.9,541.5,339.3,538.7,335.5z M528.5,355.8c-1.3,4.8-3.5,7.8-5.8,9.7c-2.4,2-6,3-8.3,3c-2.3,0-5.4-1.1-6.7-3
			c-1.3-2-1.9-4.9-0.6-9.7l0.3-1.3c1.3-4.8,3.5-7.8,5.8-9.7c2.4-2,6-3,8.3-3c2.3,0,5.4,1.1,6.7,3c1.3,2,1.9,4.9,0.6,9.7L528.5,355.8
			z"/>
		<path class="st1" d="M586.8,335.5c-2.7-3.7-9.2-5.8-13.9-5.8c-4.8,0-12.3,2-17,5.8c-4.7,3.7-9.1,9.3-11.5,18.4l-0.7,2.4
			c-2.4,9.1-1.1,14.7,1.6,18.4c2.7,3.7,9.2,5.8,13.9,5.8c4.8,0,12.3-2,17-5.8c4.7-3.7,9.1-9.3,11.5-18.4l0.7-2.4
			C590.9,344.9,589.6,339.3,586.8,335.5z M576.7,355.8c-1.3,4.8-3.5,7.8-5.8,9.7c-2.4,2-6,3-8.3,3c-2.3,0-5.4-1.1-6.7-3
			c-1.3-2-1.9-4.9-0.6-9.7l0.3-1.3c1.3-4.8,3.5-7.8,5.8-9.7c2.4-2,6-3,8.3-3c2.3,0,5.4,1.1,6.7,3c1.3,2,1.9,4.9,0.6,9.7L576.7,355.8
			z"/>
		<polygon class="st1" points="298.1,380.6 285.3,380.6 303.8,311.5 316.6,311.5 		"/>
		<polygon class="st1" points="484.8,380.6 472,380.6 490.6,311.5 503.3,311.5 		"/>
	</g>
	<g>
		<path class="st1" d="M267.9,682.6c-8.9,0-15.8,3.5-22.4,15.1l-5.7,9.9l-5,8.5c-3.1,5.3-4.3,9.9-4,13.6c-4.1,2.4-8,3.8-11.5,3.8
			c-7.2,0-11.5-4.5-6.1-14l12-20.9c3.9-6.7,9.5-8.9,12.2-7.2l6-7.8c-1.8-0.9-4-1.4-6.3-1.4c-9.5,0-17,5-22,13.5L203,716.7
			c-7.3,12.5-1,24,12.8,24c5.7,0,11.4-1.9,16.8-5c5.3,8.3,20.8,7.8,31-5.1c0,0,1.7-2.5,3.7-5.8l10.9-18.7
			C285.2,694,278.8,682.6,267.9,682.6z M269.4,701.8l-8.4,14.4c0,0-4.3,7.7-6.2,10.8l-0.1,0.2c-5.4,9.3-18.6,7.5-11.8-4.4l8.8-15.2
			l5.5-9.4C265.3,684.4,276.4,689.8,269.4,701.8z"/>
		<path class="st1" d="M572.5,682.6c-8.9,0-15.8,3.5-22.4,15.1l-5.7,9.9l-5,8.5c-14.5,25,13.3,34.2,28.8,14.5c0,0,1.7-2.5,3.7-5.8
			l10.9-18.7C589.8,694,583.3,682.6,572.5,682.6z M573.9,701.8l-8.4,14.4c0,0-4.3,7.7-6.2,10.8l-0.1,0.2c-5.4,9.3-18.6,7.5-11.8-4.4
			l8.8-15.2l5.5-9.4C569.8,684.4,580.9,689.8,573.9,701.8z"/>
		<path class="st1" d="M528.4,682.6c-8.9,0-15.8,3.5-22.4,15.1l-5.7,9.9l-5,8.5c-2.8,4.9-4,9.1-4.1,12.7c-3.6,3-6.8,4.8-9.3,4.8
			c-2.6,0-4-1.7-1.3-6.3l32.6-56.4h-11.5l-31.1,53.4c-4.9,8.5-1.4,16.4,7.9,16.4c4.5,0,9.3-2.3,14.2-5.9c4.8,9.1,21,9,31.5-4.3
			c0,0,1.7-2.5,3.7-5.8l10.9-18.7C545.7,694,539.3,682.6,528.4,682.6z M529.9,701.8l-8.4,14.4c0,0-4.3,7.7-6.2,10.8l-0.1,0.2
			c-5.4,9.3-18.6,7.5-11.8-4.4l8.8-15.2l5.5-9.4C525.8,684.4,536.9,689.8,529.9,701.8z"/>
		<path class="st1" d="M332.9,682.6c-8.9,0-15.8,3.5-22.4,15.1l-5.7,9.9l-5,8.5c-2.8,4.7-4,8.9-4.1,12.4c-3.7,3.1-7,5.1-9.6,5.1
			c-2.6,0-4-1.7-1.3-6.3l32.6-56.4h-11.5l-31.1,53.4c-4.9,8.5-1.4,16.4,7.9,16.4c4.6,0,9.5-2.4,14.4-6c4.7,9.3,21,9.3,31.6-4.1
			c0,0,1.7-2.5,3.7-5.8l10.9-18.7C350.2,694,343.8,682.6,332.9,682.6z M334.3,701.8l-8.4,14.4c0,0-4.3,7.7-6.2,10.8l-0.1,0.2
			c-5.4,9.3-18.6,7.5-11.8-4.4l8.8-15.2l5.5-9.4C330.2,684.4,341.3,689.8,334.3,701.8z"/>
		<path class="st1" d="M482.8,690.2c13.3-23.1-11.6-30.5-26.7-4.3l-27.4,46.7c-1.4,0.7-2.6,1-3.7,1c-2.6,0-4-1.8-1.3-6.3l11.5-20.2
			c4-7,2.1-11.1-1.7-15.6l-6.4-7.8c-1.7-2.1-1.7-4.4,0.7-6.7l-6-6.5c-6.5,5.9-7.1,12.4-3,17.7l1,1.3c-5.1,7.2-12,17-19.5,25.8
			c0,0,0,0,0,0l-0.8,0.9c-8.3,9.7-16.4,17.3-21.5,17.3c-2.6,0-4-1.8-1.3-6.4l24.6-43.2h-11.5l-20.5,35.9c-8.8,8-15.5,12.5-17.7,11.5
			c-2.9-1.2,0-5.6,1.4-8l22.5-39.3h-11.5l-22.6,39.2c-5.9,10.2-3.2,17.5,4.4,17.5c6.3,0,13.4-5.8,19-11.1
			c-1.1,6.2,2.8,11.1,10.1,11.1c9.5,0,20.3-10.2,30.3-21.3v0c5-6.4,9.6-12.2,18.8-24.7l1.4,1.9c1.4,1.9,1.9,4.2,0.6,6.5l-12.2,21.2
			c-4.9,8.5-1.5,16.4,7.9,16.4c0.8,0,1.7-0.1,2.5-0.2l-4.3,7.4c-8.9,15.4,8.9,27.7,21.2,6.1l2-3.7c2.3-4.1,2.4-8.4,1.3-11.6
			c-0.9-2.9-3-2.7-5.5-2.7c2.3-0.2,4.9-0.9,7-2.3c7.9-4.1,17.4-10.6,23.3-20.7L482.8,690.2z M436,747.1l-3,5.7c-4,6.9-8.8,4.6-4-3.5
			l6.4-11.2h1C438.3,740,438.3,742.7,436,747.1z M440.1,730.7l26.6-44.3c6.2-10.8,14.2-10.3,8.5,0.1L462,708.3
			C456.9,717.1,449.2,726.7,440.1,730.7z"/>
		<path class="st1" d="M616.8,733.6c-2.6,0-4-1.7-1.3-6.3l32.6-56.4h-11.5L626,689.1c-2-3.2-5.8-6-10.5-6c-6.2,0-14.9,4.9-19.7,13.3
			l-16.2,27.9c-4.9,8.5-1.4,16.4,7.9,16.4c4.7,0,10.4-3,16-7.5c0.6,4.4,4.1,7.5,10,7.5c4.5,0,9.4-2.3,14.3-5.9
			c-0.8-0.8-2.1-2.1-4.1-4.1C621,732.6,618.7,733.6,616.8,733.6z M609.8,716.4c-7,11.4-14.1,17-19,17c-2.6,0-4-1.7-1.3-6.2
			l16.1-28.4c6.2-10.8,18.5-7.9,12.9,2.1h0.1L609.8,716.4z"/>
	</g>
	<g>
		<path class="st1" d="M634.7,583.1l-0.7,0.8c-7.2,8.4-14.2,15-18.6,15c-2.2,0-3.5-1.5-1.2-5.4l33.8-58.4h-10l-14.7,25.3
			c-1.7-2.8-5-5.2-9.1-5.2c-5.4,0-12.9,4.2-17.1,11.5l-9.6,16.5c0,0,0,0,0,0l-0.7,0.8c-4.5,4.9-10.1,7.3-15.1,7.4l9.4-16.2
			c6.1-10.5,0.5-20.4-8.9-20.4c-7.7,0-13.6,3.1-19.4,13.1l-4.9,8.5l-4.1,7l-0.5,0.6c-4.5,4.9-10.1,7.3-15.1,7.4l9.4-16.2
			c6.1-10.5,0.5-20.4-8.9-20.4c-7.7,0-13.6,3.1-19.4,13.1l-4.9,8.5l-4.1,7l-0.5,0.6c-7.2,8.4-14.2,15-18.6,15
			c-2.2,0-3.5-1.5-1.2-5.4l33.6-58.4h-10l-27.8,48.2c0,0,0,0,0,0l-0.7,0.8c-9.9,11.4-20.7,14.4-28.7,15c6.8-3.6,15.1-9.2,20.2-18
			l16-27.8c11.5-20-10.1-26.4-23.1-3.7l-19.4,33.7l-0.7,0.8c-7.2,8.4-14.2,15-18.6,15c-2.2,0-3.5-1.5-1.2-5.5l10-17.5
			c3.5-6.1,1.8-9.6-1.4-13.5l-5.6-6.7c-1.4-1.8-1.4-3.8,0.6-5.8l-5.2-5.7c-5.7,5.1-6.1,10.8-2.6,15.4l0.9,1.2
			c-4.4,6.2-10.4,14.7-16.9,22.4c0,0,0,0,0,0l-0.7,0.8c-7.2,8.4-14.2,15-18.6,15c-2.2,0-3.5-1.6-1.2-5.5l21.3-37.4h-10l-17.8,31
			c-7.6,6.9-13.4,10.8-15.4,9.9c-2.5-1.1,0-4.8,1.2-6.9l19.5-34h-10l-15.7,27.1c0,0,0,0,0,0l-0.7,0.8c-4.5,4.9-10.1,7.3-15.1,7.4
			l9.4-16.2c6.1-10.5,0.5-20.4-8.9-20.4c-7.7,0-13.6,3.1-19.4,13.1l-4.9,8.5l-4.1,7l-0.5,0.6c-7.2,8.4-14.2,15-18.6,15
			c-2.2,0-3.5-1.5-1.2-5.4l33.6-58.4h-10l-27.8,48.2c0,0,0,0,0,0l-0.7,0.8c-4.5,4.9-10.1,7.3-15.1,7.4l9.4-16.2
			c6.1-10.5,0.5-20.4-8.9-20.4c-7.7,0-13.6,3.1-19.4,13.1l-4.9,8.5l-4.1,7l-0.5,0.6c-7.2,8.4-16.4,15-23.4,15
			c-6.1,0-9.8-3.8-5.2-11.9l10.3-17.9c5.8-9.9,15.9-8.1,10,2.3l-1.4,2.6h8.2l1.4-2.6c5.4-9.2,0.2-16.2-8-16.2
			c-8.1,0-14.5,4.2-18.7,11.5l-10.5,17.9c-6.2,10.7-0.9,20.4,10.9,20.4c8.1,0,16.2-4.7,23.2-10.8c-0.4,13.1,17.6,15.8,28.5,1.8h2.2
			c3.1,0,7.2-0.9,11.1-2.7c-2.2,6.3,0.9,11.6,8,11.6c5.8,0,12.2-4.5,18.4-10.4c0,12.7,17.7,15.4,28.5,1.4h2.2
			c3.1,0,7.2-0.9,11.1-2.7c-2.7,6.9-0.2,11.6,5.5,11.6c5.5,0,11.6-5,16.4-9.6c-1,5.4,2.1,9.6,8.5,9.6c8.3,0,17.9-8.8,25.9-18.4
			c0,0,0,0,0,0c5-5.6,8.6-10.6,16.6-21.4l1.4,1.6c1.2,1.6,1.8,3.6,0.6,5.7L411,590.8c-4.2,7.4-1.2,14.2,6.8,14.2
			c4.1,0,8.4-2.1,12.8-5.5l-12.4,21.6c-7.7,13.3,7.7,24,18.3,5.3l7.5-13.2c2-3.6,2.1-7.3,1.2-10.1c7-0.4,15.9-2,24.5-7.8
			c-1,5.4,2.2,9.6,8.6,9.6c5.8,0,12.2-4.5,18.4-10.4c0,12.7,17.7,15.4,28.5,1.4h2.2c3.6,0,8.5-1.4,13-3.8
			c-2.2,14.7,16.9,17.8,28.3,3.8h2.2c3.1,0,7.2-0.9,11.1-2.7c-2.2,6.3,0.9,11.6,8,11.6c4,0,9-2.6,13.8-6.5c0.5,3.8,3.6,6.5,8.6,6.5
			c8.3,0,17.8-8.8,26-18.4C637.8,585.2,636.1,583.7,634.7,583.1z M262.8,584h-0.5c-3.3,0-5.9,2.6-5.9,5.9c0,1.2,0.4,2.3,1,3.3
			l-0.1,0.2c-4.7,8.1-16.1,6.5-10.2-3.9l7.6-13.2l4.8-8.2c7-11.9,16.6-7.1,10.6,3.3L262.8,584z M331,584h-0.5
			c-3.3,0-5.9,2.6-5.9,5.9c0,1.2,0.4,2.3,1,3.3l-0.1,0.2c-4.7,8.1-16.1,6.5-10.2-3.9l7.6-13.2l4.8-8.2c7-11.9,16.6-7.1,10.6,3.3
			L331,584z M438.1,610.7l-8.4,14.8c-3.5,6-7.6,4.1-3.5-2.9l11.3-19.5h0.9C440.2,604,440.2,606.9,438.1,610.7z M441.7,596.4
			l27.1-46.5c5.4-9.3,12.3-8.9,7.4,0.1l-15.6,27C456.2,584.6,449.6,592.9,441.7,596.4z M522.7,584h-0.5c-3.3,0-5.9,2.6-5.9,5.9
			c0,1.2,0.4,2.3,1,3.3l-0.1,0.2c-4.7,8.1-16.1,6.5-10.2-3.9l7.6-13.2l4.8-8.2c7-11.9,16.6-7.1,10.6,3.3L522.7,584z M566.2,584h-0.5
			c-3.3,0-5.9,2.6-5.9,5.9c0,1.2,0.4,2.3,1,3.3l-0.1,0.2c-4.7,8.1-16.1,6.5-10.2-3.9l7.6-13.2l4.8-8.2c7-11.9,16.6-7.1,10.6,3.3
			L566.2,584z M609.4,584.2c-6.1,9.9-12.2,14.7-16.4,14.7c-2.2,0-3.5-1.5-1.2-5.4l13.9-24.4c5.4-9.3,16-7,11.1,2h0.1L609.4,584.2z"
			/>
	</g>
</g>
</svg>
