<?xml version="1.0" encoding="utf-8"?>
<!-- Generator: Adobe Illustrator 18.1.0, SVG Export Plug-In . SVG Version: 6.00 Build 0)  -->
<!DOCTYPE svg PUBLIC "-//W3C//DTD SVG 1.1//EN" "http://www.w3.org/Graphics/SVG/1.1/DTD/svg11.dtd">
<svg version="1.1" id="Layer_1" xmlns="http://www.w3.org/2000/svg" xmlns:xlink="http://www.w3.org/1999/xlink" x="0px" y="0px"
	 viewBox="0 0 850 850" style="enable-background:new 0 0 850 850;" xml:space="preserve">
<style type="text/css">
	.st0{fill:#CCCCCC;}
	.st1{fill:url(#SVGID_1_);}
	.st2{fill:#FFFFFF;}
	.st3{fill:url(#SVGID_2_);}
	.st4{fill:url(#SVGID_3_);}
	.st5{fill:url(#SVGID_4_);}
	.st6{fill:url(#SVGID_5_);}
	.st7{fill:url(#SVGID_6_);}
	.st8{fill:url(#SVGID_7_);}
	.st9{fill:url(#SVGID_8_);}
	.st10{fill:url(#SVGID_9_);}
</style>
<rect class="st0" width="850" height="850"/>
<linearGradient id="SVGID_1_" gradientUnits="userSpaceOnUse" x1="407.6702" y1="61.5255" x2="448.6489" y2="254.3152">
	<stop  offset="0" style="stop-color:#E62262"/>
	<stop  offset="0.132" style="stop-color:#E22262"/>
	<stop  offset="0.2674" style="stop-color:#D62160"/>
	<stop  offset="0.4046" style="stop-color:#C1215E"/>
	<stop  offset="0.5428" style="stop-color:#A4205A"/>
	<stop  offset="0.6821" style="stop-color:#7F1F56"/>
	<stop  offset="0.822" style="stop-color:#521D51"/>
	<stop  offset="0.9601" style="stop-color:#1D1C4B"/>
	<stop  offset="1" style="stop-color:#0C1B49"/>
</linearGradient>
<path class="st1" d="M223.9,173.2c0,0.8-0.1,1.5-0.2,2.2c-0.1,0.3-0.1,0.5-0.2,0.8c-5.5,22.5-25.8,39.2-50,39.2
	c-28.4,0-51.5-23-51.5-51.5c0-28.4,23-51.5,51.5-51.5c3.1,0,6.2,0.3,9.2,0.8c0.1,0,0.1,0,0.2,0c2.5,0.5,4.3,2.7,4.3,5.2
	c0,3-2.4,5.3-5.3,5.3c-0.3,0-0.6,0-0.9-0.1c-0.1,0-0.3-0.1-0.4-0.1c-2.1-0.4-4.3-0.7-6.5-0.7c-17.4,0-31.6,14.1-31.6,31.6
	s14.1,31.6,31.6,31.6c12.5,0,23.4-7.3,28.5-17.9l0,0c1.8-3.8,5.7-6.4,10.1-6.4C218.8,162,223.9,167,223.9,173.2z M154,157.6
	c0-11.9,9.6-21.5,21.5-21.5c0.5,0,0.9,0,1.4,0c0.7,0,1.4,0.2,2,0.1c1.7-0.3,3.5-1.7,3.5-3.5c0-1.7-1.4-3.2-2.4-3.5v0
	c-2-0.3-3.8-0.5-5.5-0.5c-14.3,0-26.1,11.6-26.1,25.9c0,14.3,11.5,25.9,25.8,25.9c6.1,0,11.6-2.1,16-5.6c0.1-0.1,0.1-0.1,0.2-0.2
	c0.1-0.1,0.1-0.2,0.1-0.3c0-0.3-0.3-0.6-0.6-0.6c-0.1,0-0.2,0-0.3,0.1c-0.1,0-0.1,0.1-0.2,0.1c-3.7,3.1-8.6,5-13.8,5
	C163.7,179.2,154,169.5,154,157.6z M173.9,147.4c0.1,0,0.2,0.1,0.3,0.1c0,0,0,0,0,0c0.1,0,0.2-0.1,0.2-0.1c0,0,0.1-0.1,0.1-0.1
	c0.1,0,0.2,0,0.4,0c1.5,0,2.7-1.3,2.7-2.8c0-1.5-1.2-2.8-2.8-2.8c0,0,0,0,0,0c-0.1,0-0.2,0-0.3,0c-8.3,0.5-14.8,7.4-14.8,15.8
	c0,3,0.8,5.8,2.3,8.3c0,0.1,0.1,0.1,0.1,0.2c0.1,0.1,0.3,0.2,0.4,0.2c0.3,0,0.6-0.5,0.6-0.8c0-0.1,0-0.5-0.1-0.5h0
	c-0.9-2-1.4-3.4-1.4-5.5C161.6,152.7,167.1,147.4,173.9,147.4z M339.8,165.3l-11.5,19.8c-2,3.4-3.9,6.1-3.9,6.1
	c-10.8,13.6-27.1,14.1-32.8,5.4c-5.7,3.3-11.7,5.3-17.8,5.3c-14.6,0-21.3-12.1-13.6-25.3l13-22.2c5.2-9,13.2-14.3,23.2-14.3
	c2.5,0,4.8,0.5,6.7,1.5l-6.4,8.2c-2.9-1.8-8.8,0.6-12.9,7.6l-12.7,22.1c-5.7,10-1.2,14.7,6.4,14.7c3.7,0,7.9-1.5,12.2-4
	c-0.2-4,1-8.8,4.3-14.4l5.3-9l6-10.4c7-12.2,14.3-15.9,23.7-15.9C340.4,140.5,347.2,152.6,339.8,165.3z M317.5,156.9l-5.9,10
	l-9.3,16.1c-7.3,12.7,6.7,14.5,12.4,4.7l0.1-0.2c2-3.2,6.6-11.4,6.6-11.4l8.9-15.2C337.8,148.1,326.1,142.4,317.5,156.9z
	 M661.4,165.3l-11.5,19.8c-2,3.4-3.9,6.1-3.9,6.1c-16.4,20.7-45.8,11-30.5-15.3l5.3-9l6-10.4c7-12.2,14.3-15.9,23.7-15.9
	C662,140.5,668.8,152.6,661.4,165.3z M639.1,156.9l-5.9,10l-9.3,16.1c-7.3,12.7,6.7,14.5,12.4,4.7l0.1-0.2c2-3.2,6.6-11.4,6.6-11.4
	l8.9-15.2C659.4,148.1,647.7,142.4,639.1,156.9z M614.9,165.3l-11.5,19.8c-2,3.4-3.9,6.1-3.9,6.1c-11.1,14.1-28.2,14.1-33.3,4.5
	c-5.1,3.8-10.2,6.2-15,6.2c-9.8,0-13.5-8.4-8.3-17.4l32.8-56.5H588l-34.5,59.7c-2.8,4.8-1.3,6.7,1.4,6.7c2.6,0,6-1.9,9.8-5.1
	c0-3.8,1.3-8.3,4.3-13.4l5.3-9l6-10.4c7-12.2,14.3-15.9,23.7-15.9C615.5,140.5,622.3,152.6,614.9,165.3z M592.6,156.9l-5.9,10
	l-9.3,16.1c-7.3,12.7,6.7,14.5,12.4,4.7l0.1-0.2c2-3.2,6.6-11.4,6.6-11.4l8.9-15.2C612.9,148.1,601.2,142.4,592.6,156.9z
	 M408.4,165.3l-11.5,19.8c-2,3.4-3.9,6.1-3.9,6.1c-11.2,14.1-28.4,14.1-33.4,4.3c-5.2,3.9-10.4,6.3-15.2,6.3
	c-9.8,0-13.5-8.4-8.3-17.4L369,128h12.2l-34.5,59.7c-2.8,4.8-1.3,6.7,1.4,6.7c2.7,0,6.2-2,10.2-5.3c0.1-3.7,1.4-8.1,4.3-13.1l5.3-9
	l6-10.4c7-12.2,14.3-15.9,23.7-15.9C409,140.5,415.8,152.6,408.4,165.3z M371,182.9c-7.3,12.7,6.7,14.5,12.4,4.7l0.1-0.2
	c2-3.2,6.6-11.4,6.6-11.4l8.9-15.2c7.4-12.7-4.3-18.4-12.9-3.9l-5.9,10 M541.2,172.5c-6.2,10.7-16.3,17.6-24.6,21.9
	c-2.2,1.4-4.9,2.2-7.3,2.4c2.7,0.1,4.8-0.1,5.8,2.9c1.2,3.4,1.1,8-1.4,12.3l-2.1,3.9c-13,22.8-31.8,9.8-22.4-6.4l4.6-7.8
	c-0.9,0.2-1.8,0.2-2.7,0.2c-9.8,0-13.5-8.3-8.3-17.3l12.9-22.4c1.4-2.5,0.8-4.9-0.7-6.9l-1.6-2c-9.7,13.2-14.2,19.3-20.2,26.1
	c0,0,0,0,0,0c-10,11.7-21.6,22.5-31.7,22.5c-7.7,0-11.5-5.1-10.3-11.7c-5.9,5.6-13.4,11.7-20.1,11.7c-8.1,0-10.9-7.2-4.7-18
	l23.9-40.9h12.2l-23.8,41.1c-1.5,2.6-4.6,6.9-1.5,8.2c2.3,1.1,9.5-3.3,18.7-11.8l21.7-37.5h12.2l-26,45.1c-2.8,4.8-1.3,6.4,1.4,6.4
	c5.4,0,13.7-8.2,22.4-18.4l0.5-1c0,0,0,0,0,0c9-9.4,15.5-19.7,20.9-27.3l-0.9-1.4c-4.3-5.6-3.7-12.5,3.2-18.7l6.4,6.9
	c-2.5,2.3-2.4,4.8-0.7,7l6.8,8.2c4,4.8,6,9.1,1.8,16.5l-12.2,21.3c-2.8,4.8-1.3,6.7,1.4,6.7c1.2,0,2.5-0.4,3.9-1.1l28.9-49.4
	c15.9-27.7,42.3-19.8,28.2,4.6L541.2,172.5z M506.9,201h-1.1l-6.8,11c-5,8.6,0,10.3,4.2,3.1l3.2-5.4
	C508.8,205.1,508.8,201,506.9,201z M533.8,167.7l14-23c6-11-2.5-11.5-9-0.1l-28.1,46.8C520.3,187.1,528.4,176.9,533.8,167.7z
	 M704.5,191.3c2,2,3.5,3.5,4.3,4.3c-5.2,3.8-10.3,6.3-15.1,6.3c-6.2,0-10-3.3-10.5-8c-5.9,4.8-12,8-16.9,8c-9.8,0-13.5-8.3-8.3-17.3
	l17.1-29.5c5.2-8.9,14.3-14,20.9-14c5,0,9,2.8,11.1,6.2l11.1-19.2h12.2l-34.4,59.7c-2.8,4.8-1.3,6.7,1.4,6.7
	C699.3,194.3,701.8,193.3,704.5,191.3z M699.2,160h-0.1c6-10-7-13.6-13.6-2.2l-17,29.8c-2.8,4.8-1.3,6.8,1.4,6.8
	c5.2,0,12.7-6,20-18.1L699.2,160z"/>
<g>
	<g>
		<rect x="122.9" y="298.9" class="st2" width="264.7" height="409"/>
		<g>
			
				<linearGradient id="SVGID_2_" gradientUnits="userSpaceOnUse" x1="491.7581" y1="-177.9731" x2="491.7581" y2="-97.3107" gradientTransform="matrix(1 0 0 1 -242.8266 625.8439)">
				<stop  offset="0" style="stop-color:#E62262"/>
				<stop  offset="0.132" style="stop-color:#E22262"/>
				<stop  offset="0.2674" style="stop-color:#D62160"/>
				<stop  offset="0.4046" style="stop-color:#C1215E"/>
				<stop  offset="0.5428" style="stop-color:#A4205A"/>
				<stop  offset="0.6821" style="stop-color:#7F1F56"/>
				<stop  offset="0.822" style="stop-color:#521D51"/>
				<stop  offset="0.9601" style="stop-color:#1D1C4B"/>
				<stop  offset="1" style="stop-color:#0C1B49"/>
			</linearGradient>
			<path class="st3" d="M281.8,518.5c0.4,0.7-0.4,1.2-0.5,1.3c-6.8,5.5-15.6,8.7-25,8.7c-22.3,0-40.3-18.1-40.3-40.3
				c0-22.3,19-40.3,41.3-40.3c2.7,0,7.8,0.3,8.8,0.8v0c2,0.5,3.6,2.8,3.6,5.5c0,2.8-2.5,4.9-5.2,5.4c-1,0.2-4.8-0.3-5.5-0.3
				c-18.5,0-33.1,14.6-33.1,33.1c0,18.5,14.1,31.7,32.6,31.7c8.2,0,15.9-1.5,21.8-5.6C280.4,518.4,281.3,517.6,281.8,518.5z"/>
			
				<linearGradient id="SVGID_3_" gradientUnits="userSpaceOnUse" x1="490.7263" y1="-157.1129" x2="490.7263" y2="-119.5071" gradientTransform="matrix(1 0 0 1 -242.8266 625.8439)">
				<stop  offset="0" style="stop-color:#E62262"/>
				<stop  offset="0.132" style="stop-color:#E22262"/>
				<stop  offset="0.2674" style="stop-color:#D62160"/>
				<stop  offset="0.4046" style="stop-color:#C1215E"/>
				<stop  offset="0.5428" style="stop-color:#A4205A"/>
				<stop  offset="0.6821" style="stop-color:#7F1F56"/>
				<stop  offset="0.822" style="stop-color:#521D51"/>
				<stop  offset="0.9601" style="stop-color:#1D1C4B"/>
				<stop  offset="1" style="stop-color:#0C1B49"/>
			</linearGradient>
			<path class="st4" d="M239.2,504.9c0.3,0.9-0.1,1.4-0.6,1.4c-0.5,0-0.9-0.2-1.8-2.1c-1.3-2.7-2.8-6.8-2.8-11.5
				c0-13.1,10.2-23.3,23.1-24.1c2.6-0.2,4.9,1.6,4.8,4c-0.2,3.5-2.2,4.2-5.7,4.2c-10.6,0-18.8,8.5-18.8,19.1
				C237.4,499.3,238.8,504.1,239.2,504.9z"/>
			
				<linearGradient id="SVGID_4_" gradientUnits="userSpaceOnUse" x1="497.4541" y1="-203.3834" x2="497.4541" y2="-43.1123" gradientTransform="matrix(1 0 0 1 -242.8266 625.8439)">
				<stop  offset="0" style="stop-color:#E62262"/>
				<stop  offset="0.132" style="stop-color:#E22262"/>
				<stop  offset="0.2674" style="stop-color:#D62160"/>
				<stop  offset="0.4046" style="stop-color:#C1215E"/>
				<stop  offset="0.5428" style="stop-color:#A4205A"/>
				<stop  offset="0.6821" style="stop-color:#7F1F56"/>
				<stop  offset="0.822" style="stop-color:#521D51"/>
				<stop  offset="0.9601" style="stop-color:#1D1C4B"/>
				<stop  offset="1" style="stop-color:#0C1B49"/>
			</linearGradient>
			<path class="st5" d="M333.3,521.8c-8.6,35-40.2,61-77.8,61c-44.3,0-80.1-35.9-80.1-80.1c0-44.3,35.9-80.1,80.1-80.1
				c4.9,0,9.7,0.4,14.3,1.3c0.1,0,0.2,0,0.3,0.1c3.8,0.8,6.7,4.1,6.7,8.2c0,4.6-3.7,8.3-8.3,8.3c-0.5,0-1,0-1.4-0.1
				c-0.2-0.1-0.5-0.1-0.7-0.1c-3.3-0.7-6.6-1-10.1-1c-27.2,0-49.2,22-49.2,49.2c0,27.2,22,49.2,49.2,49.2c19.5,0,36.1-11,44.4-27.9
				c3.2-6.5,8.8-9.9,15.8-9.9c9.7,0,17.5,7.8,17.5,17.5C333.9,518.3,333.4,521.4,333.3,521.8z"/>
		</g>
	</g>
	<g>
		<rect x="462.4" y="298.9" class="st2" width="264.7" height="409"/>
		<g>
			
				<linearGradient id="SVGID_5_" gradientUnits="userSpaceOnUse" x1="-1.7986" y1="9.6611" x2="220.4805" y2="9.6611" gradientTransform="matrix(1 0 0 1 485.3756 380.7365)">
				<stop  offset="0" style="stop-color:#E62262"/>
				<stop  offset="0.125" style="stop-color:#E22261"/>
				<stop  offset="0.2601" style="stop-color:#D52160"/>
				<stop  offset="0.4" style="stop-color:#BF215E"/>
				<stop  offset="0.5432" style="stop-color:#A1205A"/>
				<stop  offset="0.689" style="stop-color:#7A1F56"/>
				<stop  offset="0.8369" style="stop-color:#4A1D50"/>
				<stop  offset="0.9838" style="stop-color:#131B4A"/>
				<stop  offset="1" style="stop-color:#0C1B49"/>
			</linearGradient>
			<path class="st6" d="M517.5,338.9c-4.4,0-7.8,1.7-11,7.4l-2.8,4.9l-2.5,4.2c-1.5,2.6-2.1,4.9-2,6.7c-2,1.2-3.9,1.9-5.7,1.9
				c-3.6,0-5.7-2.2-3-6.9l5.9-10.3c1.9-3.3,4.7-4.4,6-3.6l3-3.8c-0.9-0.4-2-0.7-3.1-0.7c-4.7,0-8.4,2.4-10.8,6.7l-6,10.4
				c-3.6,6.2-0.5,11.8,6.3,11.8c2.8,0,5.6-0.9,8.3-2.5c2.6,4.1,10.3,3.9,15.3-2.5c0,0,0.9-1.2,1.8-2.8l5.4-9.2
				C526,344.5,522.9,338.9,517.5,338.9z M518.2,348.3l-4.2,7.1c0,0-2.1,3.8-3.1,5.3l-0.1,0.1c-2.7,4.6-9.2,3.7-5.8-2.2l4.3-7.5
				l2.7-4.6C516.2,339.8,521.7,342.4,518.2,348.3z M667.6,338.9c-4.4,0-7.8,1.7-11,7.4l-2.8,4.9l-2.5,4.2
				c-7.2,12.3,6.6,16.8,14.2,7.2c0,0,0.9-1.2,1.8-2.8l5.4-9.2C676.1,344.5,673,338.9,667.6,338.9z M668.3,348.3l-4.2,7.1
				c0,0-2.1,3.8-3.1,5.3l-0.1,0.1c-2.7,4.6-9.2,3.7-5.8-2.2l4.3-7.5l2.7-4.6C666.3,339.8,671.8,342.4,668.3,348.3z M645.9,338.9
				c-4.4,0-7.8,1.7-11,7.4l-2.8,4.9l-2.5,4.2c-1.4,2.4-2,4.5-2,6.3c-1.8,1.5-3.4,2.4-4.6,2.4c-1.3,0-2-0.6-0.7-2.9l16.1-27.6h-5.7
				l-15.3,26.1c-2.4,4.2-0.7,8,3.9,8c2.2,0,4.6-1.2,7-2.9c2.4,4.5,10.3,4.4,15.5-2.1c0,0,0.9-1.3,1.8-2.9l5.4-9.2
				C654.4,344.5,651.3,338.9,645.9,338.9z M646.6,348.3l-4.2,7.1c0,0-2.1,3.8-3.1,5.3l-0.1,0.1c-2.7,4.6-9.2,3.7-5.8-2.2l4.3-7.5
				l2.7-4.6C644.6,339.8,650.1,342.4,646.6,348.3z M549.5,338.9c-4.4,0-7.8,1.7-11,7.4l-2.8,4.9l-2.5,4.2c-1.4,2.3-2,4.4-2,6.1
				c-1.8,1.6-3.5,2.5-4.7,2.5c-1.3,0-2-0.6-0.7-2.9l16.1-27.6h-5.7l-15.3,26.1c-2.4,4.2-0.7,8,3.9,8c2.2,0,4.7-1.2,7.1-3
				c2.3,4.6,10.4,4.5,15.6-2.1c0,0,0.9-1.3,1.8-2.9l5.4-9.2C558.1,344.5,554.9,338.9,549.5,338.9z M550.2,348.3l-4.2,7.1
				c0,0-2.1,3.8-3.1,5.3l-0.1,0.1c-2.7,4.6-9.2,3.7-5.8-2.2l4.3-7.5l2.7-4.6C548.2,339.8,553.7,342.4,550.2,348.3z M610.2,340.5
				l-13.5,23c-0.7,0.3-1.3,0.5-1.8,0.5c-1.3,0-2-0.9-0.7-3.1l5.7-10c2-3.4,1-5.5-0.8-7.7l-3.2-3.8c-0.8-1-0.8-2.2,0.3-3.3l-3-3.2
				c-3.2,2.9-3.5,6.1-1.5,8.7l0.5,0.7c-2.5,3.6-5.9,8.4-9.6,12.7l-0.4,0.4c-4.1,4.8-8.1,8.5-10.6,8.5c-1.3,0-2-0.5-0.7-2.7
				l12.1-20.9h-5.7l-10.1,17.3c-4.3,3.9-7.7,5.9-8.7,5.4c-1.4-0.6,0-2.5,0.7-3.7l11.1-19.1h-5.7l-11.2,18.9c-2.9,5-1.6,8.4,2.2,8.4
				c3.1,0,6.6-2.9,9.3-5.6c-0.5,3.1,1.3,5.4,4.9,5.4c4.7,0,10.1-5.1,14.8-10.5c2.7-3.2,4.9-6,9.4-12.2l0.8,0.9
				c0.7,0.9,1,2.1,0.3,3.2l-6,10.4c-2.4,4.2-0.7,8.1,3.9,8.1c0.4,0,0.8,0,1.2-0.1l-2.1,3.6c-4.4,7.6,4.4,13.7,10.4,3l1-1.8
				c1.1-2,1.2-4.2,0.7-5.7c-0.5-1.4-1.5-1.3-2.7-1.4c1.1-0.1,2.4-0.4,3.4-1.1c3.9-2,8.6-5.2,11.5-10.2l6.8-11.2
				C630,331.3,617.7,327.6,610.2,340.5z M600.4,371.4l-1.5,2.5c-2,3.4-4.3,2.8-2-1.2l3.2-5h0.5C601.5,367.6,601.5,369.2,600.4,371.4
				z M619.7,340.8l-6.5,10.7c-2.5,4.3-6.3,9.1-10.8,11l13.1-21.8C618.5,335.5,622.5,335.7,619.7,340.8z M689.5,364
				c-1.3,0-2-0.6-0.7-2.9l16.1-27.6h-5.7l-5.2,8.7c-1-1.6-2.8-3.1-5.2-3.1c-3.1,0-7.3,2.3-9.7,6.5l-8,13.7c-2.4,4.2-0.7,8.1,3.9,8.1
				c2.3,0,5.1-1.5,7.9-3.7c0.3,2.2,2,3.7,4.9,3.7c2.2,0,4.6-1.1,7.1-2.9c-0.4-0.4-1-1-2-2C691.5,363.5,690.4,364,689.5,364z
				 M686,356c-3.4,5.6-6.9,8.2-9.3,8.2c-1.3,0-2-0.9-0.7-3.2l7.9-13.6c3.1-5.3,9.1-3.6,6.3,1.5h0.1L686,356z M490.8,402.4v18.2h-2.3
				v-18.2h-5v-2.1h12.2v2.1H490.8z M502.7,410.5c0-6.1,4.7-10.5,10.6-10.5c5.9,0,10.6,4.5,10.6,10.5c0,6.1-4.7,10.5-10.6,10.5
				C507.4,421,502.7,416.5,502.7,410.5z M505.1,410.5c0,4.7,3.7,8.4,8.3,8.4c4.6,0,8.3-3.7,8.3-8.4s-3.7-8.4-8.3-8.4
				C508.8,402.1,505.1,405.8,505.1,410.5z M533.5,420.7l3.4-21.5l7.8,17.2l8-17.2l3.2,21.5h-2.3l-1.9-14.2l-6.9,15l-6.8-15l-2,14.2
				H533.5z M582.2,408.6h10.5v-8.3h2.3v20.4h-2.3v-10h-10.5v10h-2.3v-20.4h2.3V408.6z M616.8,402.4h-8.3v6.1h8.1v2.1h-8.1v7.9h8.3
				v2.1h-10.6v-20.4h10.6V402.4z M627.2,400.3l5.4,15.3l6.4-16.3l6.1,16.3l6-15.3h2.5l-8.6,21.5l-6-16.3l-6.4,16.3l-7.8-21.5H627.2z
				 M664.8,400.3v20.4h-2.3v-20.4H664.8z M681.1,402.4v18.2h-2.3v-18.2h-5v-2.1h12.2v2.1H681.1z M700.9,402.4v18.2h-2.3v-18.2h-5
				v-2.1h12.2v2.1H700.9z M486.1,437.4h1.5c1,0,2.3,0.1,3.3,1.1c0.5,0.5,1,1.4,1,2.8c0,1-0.2,2.4-1.2,3.4c-1,1.1-2.4,1.3-4,1.3h-1.6
				L486.1,437.4z M486.2,445h0.6c1.4,0,2.5-0.2,3.2-1c0.9-0.9,1-2.1,1-2.7c0-0.7-0.1-1.5-0.8-2.1c-0.8-0.8-1.8-0.9-2.4-0.9H487
				L486.2,445z M499.2,438.3h-3.5l-0.3,2.5h3.4l-0.1,0.9h-3.4l-0.4,3.3h3.5l-0.1,0.9h-4.4l1-8.5h4.4L499.2,438.3z M505.3,439.1
				c-0.1-0.3-0.3-0.5-0.5-0.7c-0.3-0.2-0.7-0.3-1-0.3c-0.3,0-0.7,0.1-1.1,0.4c-0.3,0.2-0.4,0.6-0.4,1c0,0.3,0.1,0.5,0.4,0.8
				c0.2,0.2,0.5,0.4,0.7,0.4l0.8,0.4c0.4,0.2,0.8,0.4,1.1,0.7c0.5,0.5,0.6,0.9,0.6,1.5c0,0.5-0.1,1.3-0.7,1.9
				c-0.7,0.7-1.6,0.8-2.2,0.8c-0.7,0-1.2-0.1-1.8-0.6c-0.4-0.4-0.6-0.9-0.7-1.6l0.9-0.3c0,0.4,0.2,0.8,0.5,1.1
				c0.4,0.4,0.8,0.4,1.2,0.4c0.4,0,0.9-0.1,1.3-0.5c0.3-0.3,0.5-0.8,0.5-1.2c0-0.5-0.2-0.9-0.5-1.1c-0.2-0.2-0.6-0.4-0.8-0.5
				l-0.7-0.3c-0.2-0.1-0.7-0.4-1-0.6c-0.2-0.2-0.5-0.6-0.5-1.3c0-0.6,0.2-1.1,0.7-1.6c0.5-0.5,1.2-0.7,1.9-0.7
				c0.4,0,0.9,0.1,1.4,0.4c0.3,0.2,0.6,0.6,0.8,1L505.3,439.1z M509.9,437.4l-1,8.5H508l1-8.5H509.9z M516.7,441.7h3.5l0,0.2
				c-0.1,0.8-0.3,2-1.2,3c-0.9,0.9-1.9,1.3-3.1,1.3c-1.1,0-2.1-0.3-2.9-1.1c-0.6-0.6-1.1-1.5-1.1-2.8c0-1.5,0.6-2.7,1.4-3.5
				c1-1,2.2-1.4,3.5-1.4c0.8,0,1.5,0.1,2.2,0.6c0.6,0.4,1,0.8,1.2,1.3l-0.8,0.6c-0.2-0.5-0.5-0.8-1-1.1c-0.5-0.3-1-0.5-1.6-0.5
				c-1.4,0-2.3,0.6-2.8,1.1c-0.8,0.8-1.1,1.9-1.1,2.9c0,0.9,0.3,1.7,0.9,2.2c0.7,0.7,1.5,0.9,2.3,0.9c0.7,0,1.6-0.1,2.3-0.9
				c0.5-0.5,0.8-1.2,0.9-1.8h-2.5L516.7,441.7z M522.1,445.9l1.1-8.9l5.8,7l0.8-6.6h0.9l-1.1,8.9l-5.8-7l-0.8,6.6H522.1z
				 M537.9,438.3h-3.5l-0.3,2.5h3.4l-0.1,0.9H534l-0.4,3.3h3.5l-0.1,0.9h-4.4l1-8.5h4.4L537.9,438.3z M541.8,437.4
				c0.7,0,1.5,0,2.1,0.6c0.5,0.5,0.6,1,0.6,1.5c0,0.7-0.2,1.3-0.7,1.8c-0.5,0.4-1.2,0.7-1.8,0.8l2.2,3.8h-1.1l-2.1-3.7h-0.2
				l-0.5,3.7h-0.9l1-8.5H541.8z M540.9,441.4h0.6c0.4,0,1.1,0,1.6-0.4c0.3-0.2,0.5-0.6,0.5-1.2c0-0.6-0.3-1-0.6-1.1
				c-0.3-0.2-0.8-0.2-1.2-0.2h-0.5L540.9,441.4z M556.8,436.3l0.8,0.4l-8,11.8l-0.8-0.4L556.8,436.3z M563.2,437.4h1.5
				c1,0,2.3,0.1,3.3,1.1c0.5,0.5,1,1.4,1,2.8c0,1-0.2,2.4-1.2,3.4c-1,1.1-2.4,1.3-4,1.3h-1.6L563.2,437.4z M563.2,445h0.6
				c1.4,0,2.5-0.2,3.2-1c0.9-0.9,1-2.1,1-2.7c0-0.7-0.1-1.5-0.8-2.1c-0.8-0.8-1.8-0.9-2.4-0.9H564L563.2,445z M576.2,438.3h-3.5
				l-0.3,2.5h3.4l-0.1,0.9h-3.4l-0.4,3.3h3.5l-0.1,0.9h-4.4l1-8.5h4.4L576.2,438.3z M578.8,437.4l1.6,6.5l3.2-6.5h1.1l-4.6,9l-2.3-9
				H578.8z M590.8,438.3h-3.5l-0.3,2.5h3.4l-0.1,0.9h-3.4l-0.4,3.3h3.5l-0.1,0.9h-4.4l1-8.5h4.4L590.8,438.3z M594.3,437.4l-0.9,7.6
				h2.3l-0.1,0.9h-3.3l1-8.5H594.3z M598.2,445c-0.5-0.5-1.1-1.5-1.1-2.8c0-1.7,0.8-2.9,1.5-3.5c0.9-0.9,2.1-1.3,3.5-1.3
				c0.9,0,2,0.2,2.9,1.1c0.5,0.5,1.1,1.4,1.1,2.8c0,1.3-0.5,2.7-1.4,3.6c-0.7,0.7-2,1.3-3.6,1.3C600.1,446.1,599.1,445.8,598.2,445z
				 M599.3,439.2c-0.6,0.6-1.2,1.5-1.2,2.8c0,1,0.4,1.8,0.9,2.3c0.4,0.5,1.1,0.9,2.2,0.9c1.1,0,2.1-0.4,2.8-1
				c0.8-0.7,1.2-1.8,1.2-2.9c0-1-0.4-1.7-0.9-2.3c-0.4-0.4-1.1-0.9-2.2-0.9C600.9,438.2,599.9,438.6,599.3,439.2z M610.5,437.4
				c0.9,0,1.6,0.2,2.1,0.6c0.3,0.3,0.6,0.9,0.6,1.6c0,0.8-0.3,1.5-0.7,1.8c-0.4,0.3-1,0.7-2.4,0.7h-0.7l-0.5,3.7h-0.9l1-8.5H610.5z
				 M609.4,441.3h0.8c0.5,0,1.1-0.1,1.5-0.5c0.3-0.2,0.5-0.6,0.5-1.2c0-0.6-0.2-0.9-0.5-1.1c-0.3-0.3-0.9-0.3-1.2-0.3h-0.7
				L609.4,441.3z M619.8,438.3h-3.5l-0.3,2.5h3.4l-0.1,0.9h-3.4l-0.4,3.3h3.5l-0.1,0.9h-4.4l1-8.5h4.4L619.8,438.3z M623.6,437.4
				c0.7,0,1.5,0,2.1,0.6c0.5,0.5,0.6,1,0.6,1.5c0,0.7-0.2,1.3-0.7,1.8c-0.5,0.4-1.2,0.7-1.8,0.8l2.2,3.8H625l-2.1-3.7h-0.2l-0.5,3.7
				h-0.9l1-8.5H623.6z M622.7,441.4h0.6c0.4,0,1.1,0,1.6-0.4c0.3-0.2,0.5-0.6,0.5-1.2c0-0.6-0.3-1-0.6-1.1c-0.3-0.2-0.8-0.2-1.2-0.2
				h-0.5L622.7,441.4z M638.7,436.3l0.8,0.4l-8,11.8l-0.8-0.4L638.7,436.3z M645,437.4h1.5c1,0,2.3,0.1,3.3,1.1c0.5,0.5,1,1.4,1,2.8
				c0,1-0.2,2.4-1.2,3.4c-1,1.1-2.4,1.3-4,1.3H644L645,437.4z M645.1,445h0.6c1.4,0,2.5-0.2,3.2-1c0.9-0.9,1-2.1,1-2.7
				c0-0.7-0.1-1.5-0.8-2.1c-0.8-0.8-1.8-0.9-2.4-0.9h-0.8L645.1,445z M654.8,437.4l-1,8.5h-0.9l1-8.5H654.8z M659,437.4
				c0.7,0,1.5,0,2.1,0.6c0.5,0.5,0.6,1,0.6,1.5c0,0.7-0.2,1.3-0.7,1.8c-0.5,0.4-1.2,0.7-1.8,0.8l2.2,3.8h-1.1l-2.1-3.7H658l-0.5,3.7
				h-0.9l1-8.5H659z M658.1,441.4h0.6c0.4,0,1.1,0,1.6-0.4c0.3-0.2,0.5-0.6,0.5-1.2c0-0.6-0.3-1-0.6-1.1c-0.3-0.2-0.8-0.2-1.2-0.2
				h-0.5L658.1,441.4z M669,438.3h-3.5l-0.3,2.5h3.4l-0.1,0.9h-3.4l-0.4,3.3h3.5l-0.1,0.9h-4.4l1-8.5h4.4L669,438.3z M677.9,439.3
				c-0.2-0.3-0.5-0.5-1-0.8c-0.5-0.3-0.9-0.3-1.4-0.3c-1.1,0-2.1,0.4-2.8,1.1c-0.7,0.7-1.1,1.7-1.1,2.7c0,1,0.4,1.8,0.9,2.3
				c0.6,0.6,1.3,0.9,2.1,0.9c0.6,0,1.2-0.1,1.6-0.4c0.3-0.2,0.8-0.5,1.1-0.8l-0.1,1.2c-0.3,0.2-0.8,0.5-1.1,0.6
				c-0.4,0.1-1,0.2-1.5,0.2c-1.2,0-2.2-0.4-2.9-1.1c-0.8-0.8-1.1-1.8-1.1-2.8c0-1.9,0.9-3,1.4-3.5c1-1,2.2-1.3,3.4-1.3
				c0.5,0,1.1,0.1,1.7,0.3c0.3,0.1,0.6,0.3,0.9,0.5L677.9,439.3z M682.5,438.3l-0.9,7.6h-0.9l0.9-7.6h-2.1l0.1-0.9h5.1l-0.1,0.9
				H682.5z M686.3,445c-0.5-0.5-1.1-1.5-1.1-2.8c0-1.7,0.8-2.9,1.5-3.5c0.9-0.9,2.1-1.3,3.5-1.3c0.9,0,2,0.2,2.9,1.1
				c0.5,0.5,1.1,1.4,1.1,2.8c0,1.3-0.5,2.7-1.4,3.6c-0.7,0.7-2,1.3-3.6,1.3C688.2,446.1,687.1,445.8,686.3,445z M687.3,439.2
				c-0.6,0.6-1.2,1.5-1.2,2.8c0,1,0.4,1.8,0.9,2.3c0.4,0.5,1.1,0.9,2.2,0.9c1.1,0,2.1-0.4,2.8-1c0.8-0.7,1.2-1.8,1.2-2.9
				c0-1-0.4-1.7-0.9-2.3c-0.4-0.4-1.1-0.9-2.2-0.9C688.9,438.2,688,438.6,687.3,439.2z M698.4,437.4c0.7,0,1.5,0,2.1,0.6
				c0.5,0.5,0.6,1,0.6,1.5c0,0.7-0.2,1.3-0.7,1.8c-0.5,0.4-1.2,0.7-1.8,0.8l2.2,3.8h-1.1l-2.1-3.7h-0.2l-0.5,3.7H696l1-8.5H698.4z
				 M697.5,441.4h0.6c0.4,0,1.1,0,1.6-0.4c0.3-0.2,0.5-0.6,0.5-1.2c0-0.6-0.3-1-0.6-1.1c-0.3-0.2-0.8-0.2-1.2-0.2h-0.5L697.5,441.4z
				"/>
			<g>
				
					<linearGradient id="SVGID_6_" gradientUnits="userSpaceOnUse" x1="22.2106" y1="313.1111" x2="104.9411" y2="169.8176" gradientTransform="matrix(1 0 0 1 485.3756 380.7365)">
					<stop  offset="0" style="stop-color:#E31866"/>
					<stop  offset="0.4861" style="stop-color:#DF1966"/>
					<stop  offset="1" style="stop-color:#D21C66"/>
				</linearGradient>
				<path class="st7" d="M547.9,528.5L547.9,528.5c-8.8,0-15.9,7.1-15.9,15.9v163.5h31.8V544.4C563.8,535.6,556.7,528.5,547.9,528.5
					z"/>
				
					<linearGradient id="SVGID_7_" gradientUnits="userSpaceOnUse" x1="55.8677" y1="188.2659" x2="129.4687" y2="315.7466" gradientTransform="matrix(1 0 0 1 485.3756 380.7365)">
					<stop  offset="0" style="stop-color:#BC2068"/>
					<stop  offset="1" style="stop-color:#A42C66"/>
				</linearGradient>
				<path class="st8" d="M579.1,549.6L579.1,549.6c-8.8,0-15.9,7.1-15.9,15.9v142.5H595V565.5C595,556.7,587.9,549.6,579.1,549.6z"
					/>
				
					<linearGradient id="SVGID_8_" gradientUnits="userSpaceOnUse" x1="88.3698" y1="193.4519" x2="159.4044" y2="316.4874" gradientTransform="matrix(1 0 0 1 485.3756 380.7365)">
					<stop  offset="0" style="stop-color:#882D64"/>
					<stop  offset="1" style="stop-color:#672A5F"/>
				</linearGradient>
				<path class="st9" d="M610.3,555.5L610.3,555.5c-8.8,0-15.9,7.1-15.9,15.9v136.5h31.8V571.4C626.2,562.6,619.1,555.5,610.3,555.5
					z"/>
				
					<linearGradient id="SVGID_9_" gradientUnits="userSpaceOnUse" x1="104.1652" y1="131.1185" x2="206.0469" y2="307.5827" gradientTransform="matrix(1 0 0 1 485.3756 380.7365)">
					<stop  offset="0.4235" style="stop-color:#5A275D"/>
					<stop  offset="1" style="stop-color:#222247"/>
				</linearGradient>
				<path class="st10" d="M641.5,484.3L641.5,484.3c-8.8,0-15.9,7.1-15.9,15.9v207.8h31.8V500.2
					C657.4,491.4,650.3,484.3,641.5,484.3z"/>
				<g>
					<path class="st2" d="M644.8,508.4l-9.1-1.1v-1.1l9.1,1.1v-2.5l1.1,0.1v6.1l-1.1-0.1V508.4z"/>
					<path class="st2" d="M636.8,512.9c0.6-0.6,1.7-1.3,3.4-1.3c2.1,0,3.5,0.9,4.2,1.7c1.1,1.1,1.6,2.5,1.6,4.2
						c0,1.1-0.2,2.4-1.3,3.4c-0.6,0.7-1.7,1.3-3.3,1.3c-1.6,0-3.2-0.6-4.3-1.7c-0.9-0.9-1.6-2.3-1.6-4.3
						C635.5,515.2,635.8,514,636.8,512.9z M643.7,514.2c-0.7-0.7-1.8-1.4-3.3-1.4c-1.3,0-2.2,0.5-2.8,1.1c-0.6,0.5-1,1.4-1,2.6
						c0,1.4,0.5,2.6,1.2,3.3c0.9,0.9,2.2,1.4,3.4,1.4c1.1,0,2.1-0.4,2.7-1.1c0.5-0.5,1-1.3,1-2.6S644.5,515,643.7,514.2z"/>
					<path class="st2" d="M635.7,524.2l10.8,3l-8.6,2.9l8.6,5.1l-10.8,0.3v-1.1l7.1-0.1l-7.5-4.4l7.5-2.5l-7.1-1.9V524.2z"/>
					<path class="st2" d="M643.2,545.7v0.8l-3.2-1c-0.2-0.1-0.6-0.2-0.8-0.2c-0.2,0-0.3,0-0.4,0.2c-0.1,0.1-0.1,0.2-0.1,0.4
						c0,0.4,0.2,0.7,0.4,1c0.6,0.7,1.8,1.1,2.8,1.1c1.2,0,2-0.5,2.6-1.1c0.5-0.6,0.9-1.4,0.9-2.6c0-1.8-0.8-2.9-1.5-3.6
						c-1.1-1-2.4-1.5-3.7-1.5c-1,0-2,0.3-2.8,1c-0.7,0.7-1.2,1.9-1.2,3.3c0,0.6,0.1,1.9,0.7,3.1l-0.7,0.1c-0.2-0.4-0.7-1.6-0.7-3.5
						c0-1.5,0.4-2.6,1.4-3.6c0.8-0.8,1.8-1.2,3.1-1.2c1.7,0,3.2,0.7,4.2,1.7c0.8,0.8,1.8,2.2,1.8,4.3c0,1.6-0.6,2.6-1.2,3.3
						c-0.6,0.6-1.5,1.1-2.8,1.1c-0.9,0-2.5-0.3-3.4-1.2c-0.4-0.4-0.7-1-0.7-1.6c0-0.3,0.1-0.6,0.3-0.8c0.2-0.2,0.4-0.3,0.7-0.3
						c-0.3-0.2-0.6-0.5-0.7-0.7c-0.2-0.4-0.3-0.8-0.3-1.2c0-0.5,0.1-1,0.5-1.4c0.3-0.3,0.8-0.6,1.6-0.6c0.9,0,1.9,0.4,2.6,1.1
						c0.6,0.6,0.8,1.3,0.8,1.9c0,0.5-0.2,0.9-0.4,1.2c-0.2,0.2-0.5,0.4-0.8,0.4L643.2,545.7z M639.1,544.1c0.5,0.5,1.4,0.8,2.1,0.8
						c0.5,0,0.8-0.2,1-0.4c0.2-0.2,0.3-0.5,0.3-0.8c0-0.5-0.2-1-0.6-1.4c-0.5-0.5-1.3-0.7-1.9-0.7c-0.6,0-1,0.3-1.1,0.4
						c-0.2,0.2-0.3,0.5-0.3,0.8C638.6,543.3,638.8,543.7,639.1,544.1z"/>
					<path class="st2" d="M643.6,559.3c0.3-0.3,0.7-0.7,0.9-1.2c0.3-0.6,0.4-1.1,0.4-1.7c0-1.3-0.5-2.5-1.3-3.3
						c-0.8-0.8-2-1.3-3.3-1.3c-1.2,0-2.2,0.5-2.8,1.1c-0.8,0.7-1.1,1.6-1.1,2.6c0,0.8,0.2,1.4,0.4,1.9c0.2,0.4,0.6,0.9,0.9,1.3
						l-1.4-0.2c-0.3-0.4-0.6-0.9-0.7-1.3c-0.2-0.5-0.3-1.2-0.3-1.8c0-1.5,0.5-2.6,1.3-3.5c0.9-0.9,2.1-1.3,3.4-1.3
						c2.2,0,3.6,1,4.2,1.7c1.2,1.2,1.5,2.6,1.5,4.1c0,0.6-0.1,1.3-0.4,2c-0.1,0.3-0.4,0.7-0.7,1.1L643.6,559.3z"/>
					<path class="st2" d="M636.8,562.3c0.6-0.6,1.7-1.3,3.4-1.3c2.1,0,3.5,0.9,4.2,1.7c1.1,1.1,1.6,2.5,1.6,4.2
						c0,1.1-0.2,2.4-1.3,3.4c-0.6,0.7-1.7,1.3-3.3,1.3c-1.6,0-3.2-0.6-4.3-1.7c-0.9-0.9-1.6-2.3-1.6-4.3
						C635.5,564.6,635.8,563.3,636.8,562.3z M643.7,563.5c-0.7-0.7-1.8-1.4-3.3-1.4c-1.3,0-2.2,0.5-2.8,1.1c-0.6,0.5-1,1.4-1,2.6
						c0,1.4,0.5,2.6,1.2,3.3c0.9,0.9,2.2,1.4,3.4,1.4c1.1,0,2.1-0.4,2.7-1.1c0.5-0.5,1-1.3,1-2.6
						C644.9,565.5,644.5,564.3,643.7,563.5z"/>
					<path class="st2" d="M645.9,576.3l-9.1-1.1v2.8l-1.1-0.1v-3.9l10.2,1.3V576.3z"/>
					<path class="st2" d="M636.8,581c0.6-0.6,1.7-1.3,3.4-1.3c2.1,0,3.5,0.9,4.2,1.7c1.1,1.1,1.6,2.5,1.6,4.2c0,1.1-0.2,2.4-1.3,3.4
						c-0.6,0.7-1.7,1.3-3.3,1.3c-1.6,0-3.2-0.6-4.3-1.7c-0.9-0.9-1.6-2.3-1.6-4.3C635.5,583.3,635.8,582,636.8,581z M643.7,582.3
						c-0.7-0.7-1.8-1.4-3.3-1.4c-1.3,0-2.2,0.5-2.8,1.1c-0.6,0.5-1,1.4-1,2.6c0,1.4,0.5,2.6,1.2,3.3c0.9,0.9,2.2,1.4,3.4,1.4
						c1.1,0,2.1-0.4,2.7-1.1c0.5-0.5,1-1.3,1-2.6S644.5,583,643.7,582.3z"/>
					<path class="st2" d="M639.9,594.2c-0.5-0.1-0.8-0.1-1.2-0.1c-0.6,0-1.1,0.2-1.5,0.7c-0.5,0.5-0.6,1.1-0.6,1.7
						c0,0.5,0,1.3,0.7,1.9c0.7,0.6,1.7,0.7,2.3,0.8l6.3,0.8v1.1l-6.6-0.8c-1.1-0.1-2.1-0.3-2.9-1.2c-0.8-0.9-0.9-1.9-0.9-2.7
						c0-0.9,0.2-1.8,0.9-2.5c0.5-0.5,1.1-0.9,2.1-0.9c0.3,0,1.3,0.1,1.5,0.1l5.9,0.7v1.1L639.9,594.2z"/>
					<path class="st2" d="M645.9,606.1c0,0.8,0,1.8-0.7,2.6c-0.5,0.6-1.2,0.7-1.8,0.7c-0.8,0-1.6-0.2-2.2-0.8
						c-0.5-0.6-0.8-1.4-0.9-2.1l-4.6,2.7v-1.4l4.5-2.6v-0.3l-4.5-0.6v-1.1l10.2,1.3V606.1z M641.1,605v0.7c0,0.5,0,1.3,0.5,1.9
						c0.3,0.3,0.8,0.6,1.5,0.6c0.8,0,1.2-0.4,1.4-0.7c0.2-0.3,0.3-1,0.3-1.4v-0.6L641.1,605z"/>
					<path class="st2" d="M644.8,617.5v-3.5l-3-0.4v3.4l-1.1-0.1v-3.4l-5-0.6v-1.1l10.2,1.3v4.6L644.8,617.5z"/>
					<path class="st2" d="M645.9,621.5l-9.1-1.1v2.8l-1.1-0.1v-3.9l10.2,1.3V621.5z"/>
					<path class="st2" d="M636.8,626.2c0.6-0.6,1.7-1.3,3.4-1.3c2.1,0,3.5,0.9,4.2,1.7c1.1,1.1,1.6,2.5,1.6,4.2
						c0,1.1-0.2,2.4-1.3,3.4c-0.6,0.7-1.7,1.3-3.3,1.3c-1.6,0-3.2-0.6-4.3-1.7c-0.9-0.9-1.6-2.3-1.6-4.3
						C635.5,628.5,635.8,627.2,636.8,626.2z M643.7,627.5c-0.7-0.7-1.8-1.4-3.3-1.4c-1.3,0-2.2,0.5-2.8,1.1c-0.6,0.5-1,1.4-1,2.6
						c0,1.4,0.5,2.6,1.2,3.3c0.9,0.9,2.2,1.4,3.4,1.4c1.1,0,2.1-0.4,2.7-1.1c0.5-0.5,1-1.3,1-2.6S644.5,628.3,643.7,627.5z"/>
					<path class="st2" d="M636.8,639.2c0.6-0.6,1.7-1.3,3.4-1.3c2.1,0,3.5,0.9,4.2,1.7c1.1,1.1,1.6,2.5,1.6,4.2
						c0,1.1-0.2,2.4-1.3,3.4c-0.6,0.7-1.7,1.3-3.3,1.3c-1.6,0-3.2-0.6-4.3-1.7c-0.9-0.9-1.6-2.3-1.6-4.3
						C635.5,641.5,635.8,640.2,636.8,639.2z M643.7,640.4c-0.7-0.7-1.8-1.4-3.3-1.4c-1.3,0-2.2,0.5-2.8,1.1c-0.6,0.5-1,1.4-1,2.6
						c0,1.4,0.5,2.6,1.2,3.3c0.9,0.9,2.2,1.4,3.4,1.4c1.1,0,2.1-0.4,2.7-1.1c0.5-0.5,1-1.3,1-2.6S644.5,641.2,643.7,640.4z"/>
					<path class="st2" d="M645.9,652v1.8c0,1.1-0.2,2.8-1.3,3.9c-0.6,0.6-1.6,1.2-3.3,1.2c-1.2,0-2.8-0.3-4.1-1.5
						c-1.3-1.3-1.6-2.9-1.6-4.8v-2L645.9,652z M636.7,652v0.7c0,1.7,0.3,3,1.2,3.9c1,1,2.5,1.2,3.3,1.2c0.8,0,1.8-0.2,2.5-0.9
						c1-0.9,1.1-2.2,1.1-2.9v-1L636.7,652z"/>
					<path class="st2" d="M636.8,661.2c0.2,0.2,0.2,0.4,0.2,0.6s-0.1,0.4-0.2,0.5c-0.1,0.1-0.3,0.2-0.5,0.2c-0.2,0-0.4,0-0.6-0.3
						c-0.1-0.2-0.2-0.4-0.2-0.6c0-0.3,0.1-0.4,0.2-0.5c0.1-0.1,0.3-0.2,0.5-0.2C636.5,661,636.7,661.2,636.8,661.2z"/>
					<path class="st2" d="M639.9,667.2c-0.5-0.1-0.8-0.1-1.2-0.1c-0.6,0-1.1,0.2-1.5,0.7c-0.5,0.5-0.6,1.1-0.6,1.7
						c0,0.5,0,1.3,0.7,1.9c0.7,0.6,1.7,0.7,2.3,0.8l6.3,0.8v1.1l-6.6-0.8c-1.1-0.1-2.1-0.3-2.9-1.2c-0.8-0.9-0.9-1.9-0.9-2.7
						c0-0.9,0.2-1.8,0.9-2.5c0.5-0.5,1.1-0.9,2.1-0.9c0.3,0,1.3,0.1,1.5,0.1l5.9,0.7v1.1L639.9,667.2z"/>
					<path class="st2" d="M641.5,678l4.4,4.9v1.5l-4.8-5.4l-5.4,4.2v-1.5l4.7-3.6l-0.3-0.3l-4.4-0.5v-1.1l10.2,1.3v1.1L641.5,678z"
						/>
					<path class="st2" d="M605.7,578.6c1.1-1.1,2.6-1.2,3.4-1.2c2.1,0,4.1,0.7,5.3,1.9c0.7,0.7,1,1.5,1,2.4c0,0.7-0.2,1.4-0.7,2
						c-0.6,0.6-1.6,1.2-3.4,1.2c-2,0-4.2-0.5-5.5-1.9c-0.7-0.8-0.9-1.5-0.9-2.4C604.9,579.8,605.1,579.2,605.7,578.6z M613.7,580
						c-0.9-0.9-2.8-1.5-4.4-1.5c-0.3,0-2,0-2.8,0.9c-0.4,0.4-0.5,0.8-0.5,1.3c0,0.6,0.2,1.1,0.6,1.5c1,1.1,3.1,1.6,4.6,1.6
						c0.9,0,2.2-0.2,2.8-0.9c0.4-0.4,0.5-0.7,0.5-1.2C614.4,581,614.2,580.4,613.7,580z"/>
					<path class="st2" d="M614.3,592.3v-5.5l1,0.1v7.5l-10.4-8.1l0.6-0.9L614.3,592.3z"/>
					<path class="st2" d="M605.5,596.4l3.2,2.7c-0.2-1,0.2-2.3,0.9-3c0.6-0.6,1.3-0.8,2-0.8c1.3,0,2.2,0.5,2.8,1.1
						c0.8,0.8,1.1,1.7,1.1,2.7c0,1.2-0.5,2-0.9,2.5c-0.6,0.6-1.3,0.8-2.1,0.8c-0.7,0-1.2-0.1-1.8-0.4c-0.7-0.3-1.1-0.7-1.7-1.2
						l-4.1-3.6L605.5,596.4z M613.7,597.2c-0.4-0.4-1.1-0.8-2.1-0.8c-0.4,0-0.9,0.1-1.4,0.5c-0.4,0.4-0.7,0.9-0.7,1.7
						c0,0.9,0.4,1.5,0.8,1.8c0.5,0.4,1.2,0.7,1.9,0.7c0.8,0,1.3-0.3,1.6-0.7c0.3-0.3,0.6-0.8,0.6-1.6
						C614.4,598.4,614.3,597.8,613.7,597.2z"/>
					<path class="st2" d="M608.1,609.8v1.3l-1-0.1v-1.3l-1.9-0.2v-1.1l1.9,0.2v-5.2l8.8,7.4L608.1,609.8z M608.1,608.6l4.4,0.5
						l-4.4-3.7V608.6z"/>
					<path class="st2" d="M614.3,619.3v-5.5l1,0.1v7.5l-10.4-8.1l0.6-0.9L614.3,619.3z"/>
					<path class="st2" d="M608.1,632.4v1.3l-1-0.1v-1.3l-1.9-0.2v-1.1l1.9,0.2v-5.2l8.8,7.4L608.1,632.4z M608.1,631.3l4.4,0.5
						l-4.4-3.7V631.3z"/>
					<path class="st2" d="M605.7,637.2c1.1-1.1,2.6-1.2,3.4-1.2c2.1,0,4.1,0.7,5.3,1.9c0.7,0.7,1,1.5,1,2.4c0,0.7-0.2,1.4-0.7,2
						c-0.6,0.6-1.6,1.2-3.4,1.2c-2,0-4.2-0.5-5.5-1.9c-0.7-0.8-0.9-1.5-0.9-2.4C604.9,638.5,605.1,637.9,605.7,637.2z M613.7,638.7
						c-0.9-0.9-2.8-1.5-4.4-1.5c-0.3,0-2,0-2.8,0.9c-0.4,0.4-0.5,0.8-0.5,1.3c0,0.6,0.2,1.1,0.6,1.5c1,1.1,3.1,1.6,4.6,1.6
						c0.9,0,2.2-0.2,2.8-0.9c0.4-0.4,0.5-0.7,0.5-1.2C614.4,639.6,614.2,639.1,613.7,638.7z"/>
					<path class="st2" d="M614.2,647.6v-1.7l1.1,0.7v2.2l-10.2-1.3v-1.1L614.2,647.6z"/>
					<path class="st2" d="M612.8,658.5c0.7,0.1,1.5,0.5,1.9,0.9c0.6,0.6,0.8,1.3,0.8,2.1c0,1-0.4,1.6-0.7,2c-0.4,0.4-1,0.7-1.9,0.7
						c-0.5,0-1-0.1-1.5-0.4c-0.3-0.2-0.7-0.6-0.9-1.2c-0.1,0.3-0.3,0.6-0.7,0.8c-0.4,0.3-0.9,0.4-1.4,0.4c-0.9,0-1.8-0.3-2.5-1
						c-0.8-0.8-0.9-1.6-0.9-2.3c0-0.7,0.1-1.5,0.8-2.1c0.5-0.5,1.3-0.8,2.1-0.9v1.1c-0.5,0-1,0.2-1.3,0.5c-0.4,0.4-0.4,1-0.4,1.3
						c0,0.4,0.1,1,0.5,1.5c0.5,0.5,1.2,0.6,1.8,0.6c0.6,0,1-0.3,1.2-0.5c0.2-0.2,0.5-0.7,0.5-1.3v-0.1l1,0.1v0.2
						c0,0.6,0.2,1.2,0.4,1.5c0.4,0.5,1,0.6,1.5,0.6c0.3,0,0.8-0.1,1.1-0.4c0.3-0.3,0.4-0.8,0.4-1.2c0-0.5-0.2-1-0.5-1.2
						c-0.3-0.3-0.8-0.5-1.2-0.5V658.5z"/>
					<path class="st2" d="M605.7,668c1.1-1.1,2.6-1.2,3.4-1.2c2.1,0,4.1,0.7,5.3,1.9c0.7,0.7,1,1.5,1,2.4c0,0.7-0.2,1.4-0.7,2
						c-0.6,0.6-1.6,1.2-3.4,1.2c-2,0-4.2-0.5-5.5-1.9c-0.7-0.8-0.9-1.5-0.9-2.4C604.9,669.2,605.1,668.6,605.7,668z M613.7,669.4
						c-0.9-0.9-2.8-1.5-4.4-1.5c-0.3,0-2,0-2.8,0.9c-0.4,0.4-0.5,0.8-0.5,1.3c0,0.6,0.2,1.1,0.6,1.5c1,1.1,3.1,1.6,4.6,1.6
						c0.9,0,2.2-0.2,2.8-0.9c0.4-0.4,0.5-0.7,0.5-1.2C614.4,670.4,614.2,669.9,613.7,669.4z"/>
					<path class="st2" d="M608.1,681.8v1.3l-1-0.1v-1.3l-1.9-0.2v-1.1l1.9,0.2v-5.2l8.8,7.4L608.1,681.8z M608.1,680.7l4.4,0.5
						l-4.4-3.7V680.7z"/>
					<path class="st2" d="M582,582.4v0.8l-3.2-1c-0.2-0.1-0.6-0.2-0.8-0.2c-0.2,0-0.3,0-0.4,0.2c-0.1,0.1-0.1,0.2-0.1,0.4
						c0,0.4,0.2,0.7,0.4,1c0.6,0.7,1.8,1.1,2.8,1.1c1.2,0,2-0.5,2.6-1.1c0.5-0.6,0.9-1.4,0.9-2.6c0-1.8-0.8-2.9-1.5-3.6
						c-1.1-1-2.4-1.5-3.7-1.5c-1,0-2,0.3-2.8,1c-0.7,0.7-1.2,1.9-1.2,3.3c0,0.6,0.1,1.9,0.7,3.1l-0.7,0.1c-0.2-0.4-0.7-1.6-0.7-3.5
						c0-1.5,0.4-2.6,1.4-3.6c0.8-0.8,1.8-1.2,3.1-1.2c1.7,0,3.2,0.7,4.2,1.7c0.8,0.8,1.8,2.2,1.8,4.3c0,1.6-0.6,2.6-1.2,3.3
						c-0.6,0.6-1.5,1.1-2.8,1.1c-0.9,0-2.5-0.3-3.4-1.2c-0.4-0.4-0.7-1-0.7-1.6c0-0.3,0.1-0.6,0.3-0.8c0.2-0.2,0.4-0.3,0.7-0.3
						c-0.3-0.2-0.6-0.5-0.7-0.7c-0.2-0.4-0.3-0.8-0.3-1.2c0-0.5,0.1-1,0.5-1.4c0.3-0.3,0.8-0.6,1.6-0.6c0.9,0,1.9,0.4,2.6,1.1
						c0.6,0.6,0.8,1.3,0.8,1.9c0,0.5-0.2,0.9-0.4,1.2c-0.2,0.2-0.5,0.4-0.8,0.4L582,582.4z M578,580.9c0.5,0.5,1.4,0.8,2.1,0.8
						c0.5,0,0.8-0.2,1-0.4c0.2-0.2,0.3-0.5,0.3-0.8c0-0.5-0.2-1-0.6-1.4c-0.5-0.5-1.3-0.7-1.9-0.7c-0.6,0-1,0.3-1.1,0.4
						c-0.2,0.2-0.3,0.5-0.3,0.8C577.5,580.1,577.7,580.5,578,580.9z"/>
					<path class="st2" d="M583.7,590.9l-9.1-1.1v-1.1l9.1,1.1v-2.5l1.1,0.1v6.1l-1.1-0.1V590.9z"/>
					<path class="st2" d="M575.7,595.4c0.6-0.6,1.7-1.3,3.4-1.3c2.1,0,3.5,0.9,4.2,1.7c1.1,1.1,1.6,2.5,1.6,4.2
						c0,1.1-0.2,2.4-1.3,3.4c-0.6,0.7-1.7,1.3-3.3,1.3c-1.6,0-3.2-0.6-4.3-1.7c-0.9-0.9-1.6-2.3-1.6-4.3
						C574.4,597.7,574.6,596.4,575.7,595.4z M582.6,596.7c-0.7-0.7-1.8-1.4-3.3-1.4c-1.3,0-2.2,0.5-2.8,1.1c-0.6,0.5-1,1.4-1,2.6
						c0,1.4,0.5,2.6,1.2,3.3c0.9,0.9,2.2,1.4,3.4,1.4c1.1,0,2.1-0.4,2.7-1.1c0.5-0.5,1-1.3,1-2.6S583.4,597.5,582.6,596.7z"/>
					<path class="st2" d="M574.5,606.7l10.8,3l-8.6,2.9l8.6,5.1l-10.8,0.3v-1.1l7.1-0.1l-7.5-4.4l7.5-2.5l-7.1-1.9V606.7z"/>
					<path class="st2" d="M582.5,629.8c0.3-0.3,0.7-0.7,0.9-1.2c0.3-0.6,0.4-1.1,0.4-1.7c0-1.3-0.5-2.5-1.3-3.3
						c-0.8-0.8-2-1.3-3.3-1.3c-1.2,0-2.2,0.5-2.8,1.1c-0.8,0.7-1.1,1.6-1.1,2.6c0,0.8,0.2,1.4,0.4,1.9c0.2,0.4,0.6,0.9,0.9,1.3
						l-1.4-0.2c-0.3-0.4-0.6-0.9-0.7-1.3c-0.2-0.5-0.3-1.2-0.3-1.8c0-1.5,0.5-2.6,1.3-3.5c0.9-0.9,2.1-1.3,3.4-1.3
						c2.2,0,3.6,1,4.2,1.7c1.2,1.2,1.5,2.6,1.5,4.1c0,0.6-0.1,1.3-0.4,2c-0.1,0.3-0.4,0.7-0.7,1.1L582.5,629.8z"/>
					<path class="st2" d="M580.6,633.5v5.2l4.1,0.5v1.1l-10.2-1.3V638l5,0.6v-5.2l-5-0.6v-1.1l10.2,1.3v1.1L580.6,633.5z"/>
					<path class="st2" d="M583.7,648.9v-4.2l-3-0.4v4l-1.1-0.1v-4l-4-0.5v4.2l-1.1-0.1v-5.3l10.2,1.3v5.3L583.7,648.9z"/>
					<path class="st2" d="M584.7,652l-7.6,1.8l8.2,4.2l-8.2,2l7.6,3.9v1.3l-10.7-5.6l8.2-2l-8.2-4.2l10.7-2.6V652z"/>
					<path class="st2" d="M584.7,668.5l-10.2-1.3v-1.1l10.2,1.3V668.5z"/>
					<path class="st2" d="M583.7,674.2l-9.1-1.1V672l9.1,1.1v-2.5l1.1,0.1v6.1l-1.1-0.1V674.2z"/>
					<path class="st2" d="M583.7,681.9l-9.1-1.1v-1.1l9.1,1.1v-2.5l1.1,0.1v6.1l-1.1-0.1V681.9z"/>
					<path class="st2" d="M551.9,559.3c0.3-0.3,0.7-0.7,0.9-1.2c0.3-0.6,0.4-1.1,0.4-1.7c0-1.3-0.5-2.5-1.3-3.3
						c-0.8-0.8-2-1.3-3.3-1.3c-1.2,0-2.2,0.5-2.8,1.1c-0.8,0.7-1.1,1.6-1.1,2.6c0,0.8,0.2,1.4,0.4,1.9c0.2,0.4,0.6,0.9,0.9,1.3
						l-1.4-0.2c-0.3-0.4-0.6-0.9-0.7-1.3c-0.2-0.5-0.3-1.2-0.3-1.8c0-1.5,0.5-2.6,1.3-3.5c0.9-0.9,2.1-1.3,3.4-1.3
						c2.2,0,3.6,1,4.2,1.7c1.2,1.2,1.5,2.6,1.5,4.1c0,0.6-0.1,1.3-0.4,2c-0.1,0.3-0.4,0.7-0.7,1.1L551.9,559.3z"/>
					<path class="st2" d="M545.1,562.3c0.6-0.6,1.7-1.3,3.4-1.3c2.1,0,3.5,0.9,4.2,1.7c1.1,1.1,1.6,2.5,1.6,4.2
						c0,1.1-0.2,2.4-1.3,3.4c-0.6,0.7-1.7,1.3-3.3,1.3c-1.6,0-3.2-0.6-4.3-1.7c-0.9-0.9-1.6-2.3-1.6-4.3
						C543.8,564.6,544.1,563.3,545.1,562.3z M552.1,563.5c-0.7-0.7-1.8-1.4-3.3-1.4c-1.3,0-2.2,0.5-2.8,1.1c-0.6,0.5-1,1.4-1,2.6
						c0,1.4,0.5,2.6,1.2,3.3c0.9,0.9,2.2,1.4,3.4,1.4c1.1,0,2.1-0.4,2.7-1.1c0.5-0.5,1-1.3,1-2.6
						C553.3,565.5,552.8,564.3,552.1,563.5z"/>
					<path class="st2" d="M554.2,576.3l-9.1-1.1v2.8l-1.1-0.1v-3.9l10.2,1.3V576.3z"/>
					<path class="st2" d="M545.1,581c0.6-0.6,1.7-1.3,3.4-1.3c2.1,0,3.5,0.9,4.2,1.7c1.1,1.1,1.6,2.5,1.6,4.2c0,1.1-0.2,2.4-1.3,3.4
						c-0.6,0.7-1.7,1.3-3.3,1.3c-1.6,0-3.2-0.6-4.3-1.7c-0.9-0.9-1.6-2.3-1.6-4.3C543.8,583.3,544.1,582,545.1,581z M552.1,582.3
						c-0.7-0.7-1.8-1.4-3.3-1.4c-1.3,0-2.2,0.5-2.8,1.1c-0.6,0.5-1,1.4-1,2.6c0,1.4,0.5,2.6,1.2,3.3c0.9,0.9,2.2,1.4,3.4,1.4
						c1.1,0,2.1-0.4,2.7-1.1c0.5-0.5,1-1.3,1-2.6S552.8,583,552.1,582.3z"/>
					<path class="st2" d="M548.2,594.2c-0.5-0.1-0.8-0.1-1.2-0.1c-0.6,0-1.1,0.2-1.5,0.7c-0.5,0.5-0.6,1.1-0.6,1.7
						c0,0.5,0,1.3,0.7,1.9c0.7,0.6,1.7,0.7,2.3,0.8l6.3,0.8v1.1l-6.6-0.8c-1.1-0.1-2.1-0.3-2.9-1.2s-0.9-1.9-0.9-2.7
						c0-0.9,0.2-1.8,0.9-2.5c0.5-0.5,1.1-0.9,2.1-0.9c0.3,0,1.3,0.1,1.5,0.1l5.9,0.7v1.1L548.2,594.2z"/>
					<path class="st2" d="M554.2,606.1c0,0.8,0,1.8-0.7,2.6c-0.5,0.6-1.2,0.7-1.8,0.7c-0.8,0-1.6-0.2-2.2-0.8
						c-0.5-0.6-0.8-1.4-0.9-2.1l-4.6,2.7v-1.4l4.5-2.6v-0.3l-4.5-0.6v-1.1l10.2,1.3V606.1z M549.5,605v0.7c0,0.5,0,1.3,0.5,1.9
						c0.3,0.3,0.8,0.6,1.5,0.6c0.8,0,1.2-0.4,1.4-0.7c0.2-0.3,0.3-1,0.3-1.4v-0.6L549.5,605z"/>
					<path class="st2" d="M553.1,617.5v-3.5l-3-0.4v3.4l-1.1-0.1v-3.4l-5-0.6v-1.1l10.2,1.3v4.6L553.1,617.5z"/>
					<path class="st2" d="M554.2,621.5l-9.1-1.1v2.8L544,623v-3.9l10.2,1.3V621.5z"/>
					<path class="st2" d="M545.1,626.2c0.6-0.6,1.7-1.3,3.4-1.3c2.1,0,3.5,0.9,4.2,1.7c1.1,1.1,1.6,2.5,1.6,4.2
						c0,1.1-0.2,2.4-1.3,3.4c-0.6,0.7-1.7,1.3-3.3,1.3c-1.6,0-3.2-0.6-4.3-1.7c-0.9-0.9-1.6-2.3-1.6-4.3
						C543.8,628.5,544.1,627.2,545.1,626.2z M552.1,627.5c-0.7-0.7-1.8-1.4-3.3-1.4c-1.3,0-2.2,0.5-2.8,1.1c-0.6,0.5-1,1.4-1,2.6
						c0,1.4,0.5,2.6,1.2,3.3c0.9,0.9,2.2,1.4,3.4,1.4c1.1,0,2.1-0.4,2.7-1.1c0.5-0.5,1-1.3,1-2.6S552.8,628.3,552.1,627.5z"/>
					<path class="st2" d="M545.1,639.2c0.6-0.6,1.7-1.3,3.4-1.3c2.1,0,3.5,0.9,4.2,1.7c1.1,1.1,1.6,2.5,1.6,4.2
						c0,1.1-0.2,2.4-1.3,3.4c-0.6,0.7-1.7,1.3-3.3,1.3c-1.6,0-3.2-0.6-4.3-1.7c-0.9-0.9-1.6-2.3-1.6-4.3
						C543.8,641.5,544.1,640.2,545.1,639.2z M552.1,640.4c-0.7-0.7-1.8-1.4-3.3-1.4c-1.3,0-2.2,0.5-2.8,1.1c-0.6,0.5-1,1.4-1,2.6
						c0,1.4,0.5,2.6,1.2,3.3c0.9,0.9,2.2,1.4,3.4,1.4c1.1,0,2.1-0.4,2.7-1.1c0.5-0.5,1-1.3,1-2.6S552.8,641.2,552.1,640.4z"/>
					<path class="st2" d="M554.2,652v1.8c0,1.1-0.2,2.8-1.3,3.9c-0.6,0.6-1.6,1.2-3.3,1.2c-1.2,0-2.8-0.3-4.1-1.5
						c-1.3-1.3-1.6-2.9-1.6-4.8v-2L554.2,652z M545.1,652v0.7c0,1.7,0.3,3,1.2,3.9c1,1,2.5,1.2,3.3,1.2c0.8,0,1.8-0.2,2.5-0.9
						c1-0.9,1.1-2.2,1.1-2.9v-1L545.1,652z"/>
					<path class="st2" d="M545.1,661.2c0.2,0.2,0.2,0.4,0.2,0.6s-0.1,0.4-0.2,0.5c-0.1,0.1-0.3,0.2-0.5,0.2c-0.2,0-0.4,0-0.6-0.3
						c-0.1-0.2-0.2-0.4-0.2-0.6c0-0.3,0.1-0.4,0.2-0.5c0.1-0.1,0.3-0.2,0.5-0.2C544.8,661,545,661.2,545.1,661.2z"/>
					<path class="st2" d="M548.2,667.2c-0.5-0.1-0.8-0.1-1.2-0.1c-0.6,0-1.1,0.2-1.5,0.7c-0.5,0.5-0.6,1.1-0.6,1.7
						c0,0.5,0,1.3,0.7,1.9c0.7,0.6,1.7,0.7,2.3,0.8l6.3,0.8v1.1l-6.6-0.8c-1.1-0.1-2.1-0.3-2.9-1.2c-0.8-0.9-0.9-1.9-0.9-2.7
						c0-0.9,0.2-1.8,0.9-2.5c0.5-0.5,1.1-0.9,2.1-0.9c0.3,0,1.3,0.1,1.5,0.1l5.9,0.7v1.1L548.2,667.2z"/>
					<path class="st2" d="M549.8,678l4.4,4.9v1.5l-4.8-5.4l-5.4,4.2v-1.5l4.7-3.6l-0.3-0.3l-4.4-0.5v-1.1l10.2,1.3v1.1L549.8,678z"
						/>
				</g>
			</g>
		</g>
	</g>
</g>
</svg>
