<?xml version="1.0" encoding="utf-8"?>
<!-- Generator: Adobe Illustrator 18.1.0, SVG Export Plug-In . SVG Version: 6.00 Build 0)  -->
<!DOCTYPE svg PUBLIC "-//W3C//DTD SVG 1.1//EN" "http://www.w3.org/Graphics/SVG/1.1/DTD/svg11.dtd">
<svg version="1.1" id="Layer_1" xmlns="http://www.w3.org/2000/svg" xmlns:xlink="http://www.w3.org/1999/xlink" x="0px" y="0px"
	 viewBox="0 0 850 850" style="enable-background:new 0 0 850 850;" xml:space="preserve">
<style type="text/css">
	.st0{fill:#DDDDDD;}
	.st1{fill:none;stroke:#000000;stroke-width:0.5;stroke-miterlimit:10;}
	.st2{fill:#111111;}
</style>
<rect class="st0" width="850" height="850"/>
<g>
	<g>
		<circle class="st1" cx="175.5" cy="348.6" r="16.3"/>
		<circle class="st1" cx="174.9" cy="349.3" r="17"/>
		<circle class="st1" cx="173.4" cy="353.9" r="66.1"/>
		<circle class="st1" cx="175.5" cy="343.4" r="42.5"/>
		<circle class="st1" cx="175.5" cy="343.4" r="35.5"/>
		<circle class="st1" cx="175.5" cy="343.4" r="24.6"/>
		<circle class="st1" cx="175.5" cy="343.4" r="18.1"/>
		<circle class="st1" cx="175.5" cy="343.4" r="11"/>
		<circle class="st1" cx="180.7" cy="345.7" r="30.3"/>
		<circle class="st1" cx="180.7" cy="345.7" r="23.8"/>
		<rect x="192" y="353.9" class="st1" width="47.6" height="0"/>
		
			<rect x="159.9" y="312.2" transform="matrix(0.2723 -0.9622 0.9622 0.2723 -166.0566 404.7389)" class="st1" width="49.3" height="0"/>
	</g>
	<g>
		<g id="XMLID_1_">
			<g>
				<path d="M511,385.9c19.8,0,36.5-13.6,41.2-32H575c0,36.5-29.6,66.1-66.1,66.1c-36.5,0-66.1-29.6-66.1-66.1
					c0-36.5,29.6-66.1,66.1-66.1c6,0,11.9,0.8,17.4,2.3l-3.5,12.5c-3.7-1.1-7.7-1.6-11.7-1.6c-23.5,0-42.5,19-42.5,42.5
					S487.5,385.9,511,385.9z"/>
				<path d="M514.2,332.8L514.2,332.8c-0.4-0.1-0.7-0.1-1.1-0.2C513.4,332.7,513.8,332.7,514.2,332.8z"/>
				<path d="M511,332.4c1.1,0,2.2,0.1,3.2,0.3l0,0.1c-0.4-0.1-0.7-0.2-1.1-0.2c-0.6-0.1-1.3-0.2-2-0.2c-0.2,0-0.5,0-0.7,0
					c-0.1,0-0.2,0-0.2,0C510.4,332.4,510.7,332.4,511,332.4z"/>
				<path d="M510.1,332.4c-8.9,0.1-16.1,7.1-16.7,15.8c-0.4-1.5-0.6-3.1-0.6-4.8c0-2.6,0.5-5,1.5-7.2c2.8-6.4,9.2-10.9,16.6-10.9
					c1.8,0,3.5,0.3,5.1,0.7l-1.9,6.7c-1-0.2-2.1-0.3-3.2-0.3C510.7,332.4,510.4,332.4,510.1,332.4
					C510.2,332.4,510.1,332.4,510.1,332.4z"/>
				<path d="M511,318.8c-10.2,0-18.9,6.2-22.7,15l0,0c4.6-10.8,15.4-18.4,27.9-18.4c1,0,1.9,0,2.9,0.1l-1.2,4.3
					C515.7,319.1,513.4,318.8,511,318.8z"/>
				<path d="M492.8,343.4c0,1.7,0.2,3.3,0.6,4.8c0,0.4,0,0.8,0,1.1c0,3.4,1,6.6,2.8,9.3l0,0c-2.4-3.7-3.8-8.2-3.8-13
					c0-3.4,0.7-6.6,2-9.5l0,0C493.4,338.4,492.8,340.8,492.8,343.4z"/>
				<path d="M511,378.9c-19.6,0-35.5-15.9-35.5-35.5c0-19.6,15.9-35.5,35.5-35.5c3.4,0,6.7,0.5,9.8,1.4l-1.8,6.2
					c-0.9-0.1-1.9-0.1-2.9-0.1c-12.5,0-23.3,7.6-27.9,18.4c-1.6,3.6-2.4,7.7-2.4,11.9c0,16.7,13.6,30.3,30.3,30.3
					c7.5,0,14.3-2.7,19.6-7.2C529.3,375.1,520.6,378.9,511,378.9z"/>
			</g>
			<g>
			</g>
		</g>
	</g>
	<g>
		<circle class="st1" cx="342.7" cy="349.3" r="17"/>
		<circle class="st1" cx="341.1" cy="353.9" r="66.1"/>
		<circle class="st1" cx="343.3" cy="343.4" r="42.5"/>
		<circle class="st1" cx="343.3" cy="343.4" r="35.5"/>
		<circle class="st1" cx="343.3" cy="343.4" r="24.6"/>
		<circle class="st1" cx="343.3" cy="343.4" r="18.1"/>
		<circle class="st1" cx="343.3" cy="343.4" r="11"/>
		<circle class="st1" cx="348.5" cy="345.7" r="30.3"/>
		<circle class="st1" cx="348.4" cy="345.7" r="23.8"/>
		<rect x="359.7" y="353.9" class="st1" width="47.6" height="0"/>
		
			<rect x="327.6" y="312.2" transform="matrix(0.2723 -0.9622 0.9622 0.2723 -43.9942 566.1335)" class="st1" width="49.3" height="0"/>
		<circle class="st1" cx="393.2" cy="365.9" r="12.5"/>
		<circle class="st1" cx="343.6" cy="328.8" r="3.6"/>
		<circle class="st1" cx="346.1" cy="313.5" r="5.5"/>
		<circle class="st1" cx="350.4" cy="295" r="6.5"/>
	</g>
	<g>
		<g id="XMLID_2_">
			<g>
				<path d="M717.5,360.8c2-4.3,6.3-7.4,11.4-7.4c6.9,0,12.5,5.6,12.5,12.5c0,0.8-0.1,1.6-0.2,2.4c-0.1,0.3-0.1,0.6-0.2,0.9
					c0,0,0,0,0,0c-1.4,5.3-6.3,9.2-12.1,9.2c-6.9,0-12.5-5.6-12.5-12.5C716.4,364.1,716.8,362.4,717.5,360.8z"/>
				<path d="M686.1,288.5c-3.6,0-6.5,2.9-6.5,6.5c0,3.2,2.3,5.8,5.3,6.4c-2-0.3-4.1-0.4-6.2-0.4c-23.5,0-42.5,19-42.5,42.5
					c0,23.5,19,42.5,42.5,42.5c17.3,0,32.1-10.3,38.8-25.1c-0.7,1.6-1.1,3.3-1.1,5.1c0,6.9,5.6,12.5,12.5,12.5
					c5.8,0,10.6-3.9,12.1-9.2c-6.9,29.1-33.1,50.8-64.3,50.8c-36.5,0-66.1-29.6-66.1-66.1s29.6-66.1,66.1-66.1
					c3.6,0,7.1,0.3,10.5,0.8v0C686.8,288.5,686.4,288.5,686.1,288.5z"/>
				<path d="M679.6,295c0-3.6,2.9-6.5,6.5-6.5c0.3,0,0.7,0,1,0.1c3.1,0.5,5.5,3.2,5.5,6.4c0,3.6-2.9,6.5-6.5,6.5c-0.3,0-0.5,0-0.7,0
					c-0.2,0-0.3-0.1-0.5-0.1C681.9,300.8,679.6,298.2,679.6,295z"/>
				<path d="M683.9,315.4c-2.4,0-4.7,0.3-6.9,0.8c-0.4-0.8-0.7-1.7-0.7-2.7c0-3,2.4-5.5,5.5-5.5c0.1,0,0.1,0,0.2,0
					c0.2,0,0.4,0,0.6,0.1c2.6,0.4,4.6,2.7,4.6,5.4c0,0.7-0.1,1.4-0.4,2C685.9,315.4,684.9,315.4,683.9,315.4z"/>
				<path d="M681.8,308.1c-3,0-5.5,2.4-5.5,5.5c0,1,0.3,1.9,0.7,2.7c-9.4,2.2-17.1,8.7-20.9,17.4c-1.6,3.7-2.5,7.8-2.5,12.1
					c0,16.7,13.6,30.3,30.3,30.3c7.5,0,14.3-2.7,19.6-7.2c-6.4,6.2-15.1,10.1-24.8,10.1c-19.6,0-35.5-15.9-35.5-35.5
					c0-19.6,15.9-35.5,35.5-35.5c1.1,0,2.2,0,3.3,0.1C681.9,308.1,681.8,308.1,681.8,308.1z"/>
				<path d="M675.7,328.8c0-2,1.6-3.6,3.6-3.6c0.1,0,0.1,0,0.2,0c1.9,0.1,3.4,1.7,3.4,3.6c0,1.9-1.5,3.5-3.4,3.6c-0.2,0-0.4,0-0.6,0
					C677.1,332.2,675.7,330.7,675.7,328.8z"/>
				<path d="M681,318.9c-1.7-0.2-3.2-1.3-4-2.7c2.2-0.5,4.5-0.8,6.9-0.8c1,0,2,0,2.9,0.1c-0.8,2-2.8,3.4-5.1,3.4c-0.1,0-0.3,0-0.4,0
					C681.3,318.9,681.2,318.9,681,318.9z"/>
				<path d="M678.1,332.4c-9,0-16.3,7-16.9,15.8c-0.4-1.5-0.6-3.1-0.6-4.8c0-2.5,0.5-4.9,1.4-7.1c2.8-6.5,9.2-11.1,16.7-11.1
					c0.3,0,0.5,0,0.8,0v0c-0.1,0-0.1,0-0.2,0c-2,0-3.6,1.6-3.6,3.6c0,1.8,1.4,3.3,3.1,3.6c0,0,0,0,0,0
					C678.6,332.4,678.4,332.4,678.1,332.4z"/>
				<path d="M681,318.9c-0.8-0.1-1.5-0.1-2.3-0.1c-10.1,0-18.8,6.1-22.6,14.8l0,0c3.8-8.7,11.5-15.2,20.9-17.4
					C677.8,317.6,679.3,318.7,681,318.9z"/>
				<path d="M660.6,343.4c0,1.7,0.2,3.3,0.6,4.8c0,0.4,0,0.8,0,1.1c0,3.2,0.9,6.2,2.5,8.8l0,0c-2.2-3.6-3.5-7.9-3.5-12.5
					c0-3.3,0.7-6.5,1.9-9.4l0,0C661.1,338.5,660.6,340.9,660.6,343.4z"/>
			</g>
			<g>
			</g>
		</g>
	</g>
</g>
<g>
	<g>
		<circle class="st1" cx="422.4" cy="144.3" r="66.1"/>
		<circle class="st1" cx="422.4" cy="144.3" r="18.6"/>
		<circle class="st1" cx="423.7" cy="130.5" r="32.4"/>
		<rect x="441" y="144.3" class="st1" width="47.6" height="0"/>
		
			<rect x="408.9" y="102.6" transform="matrix(0.2723 -0.9622 0.9622 0.2723 216.8105 491.8201)" class="st1" width="49.3" height="0"/>
		<path class="st1" d="M488.5,144.3c0,29.5-23.6,66.1-66.1,66.1c-43.7,0-66.1-36.6-66.1-66.1s22.4-66.1,66.1-66.1
			c10.6,0,13,1.2,13,1.2"/>
	</g>
	<g>
		<g id="XMLID_8_">
			<g>
				<path class="st2" d="M672.2,126.9c0.1,0.2,0.1,0.4,0.2,0.7c4.7,17.2,1.8,39.1-10.2,56.2c0,0,0,0,0,0.1
					c-8.2,11.3-19.9,20-34.2,24.4c-0.1,0-0.3,0.1-0.4,0.1c-0.3,0.1-0.5,0.2-0.8,0.2c-0.1,0-0.3,0.1-0.4,0.1c-0.1,0-0.3,0.1-0.4,0.1
					c-21.6,5.9-43.7,0.3-59.7-13.1c-10.3-8.8-17.5-20.4-21-31.9c-0.1-0.2-0.1-0.4-0.2-0.7c-0.1-0.2-0.1-0.4-0.2-0.7
					c-3.2-11.6-3.1-25.3,1-38.2c6.6-19.8,22.4-36.2,43.9-42.6c0.1,0,0.3-0.1,0.4-0.1c0.1,0,0.3-0.1,0.4-0.1c0.1,0,0.3-0.1,0.4-0.1
					c5.7-1.6,11.3-2.4,17-2.4l0,20.2c-3.5-0.2-7.1,0.2-10.7,1.2c-17.2,4.9-27.2,22.8-22.3,40.1c4.6,16,20.4,25.8,36.5,23.1
					c0,0,0,0,0,0c0.4-0.1,0.7-0.1,1.1-0.2c0,0,0,0,0,0c0.8-0.2,1.6-0.4,2.4-0.6c12.5-3.6,21.1-14,23.1-26L672.2,126.9z"/>
			</g>
			<g>
				<path class="st1" d="M590.9,81.3c5.7-1.6,11.3-2.4,17-2.4c29.1-0.4,56,18.7,64.4,48c0.1,0.2,0.1,0.4,0.2,0.7
					c5.5,20.1,1.1,40.6-10.2,56.2"/>
				<path class="st1" d="M626.3,208.7c-0.1,0-0.3,0.1-0.4,0.1c-21.6,5.9-43.7,0.3-59.7-13.1c-9.7-8.1-17.1-19-21-31.9
					c-0.1-0.2-0.1-0.4-0.2-0.7c-0.1-0.2-0.1-0.4-0.2-0.7c-3.6-13-3-26.2,1-38.2c6.6-19.8,22.4-36.2,43.9-42.6c0.1,0,0.3-0.1,0.4-0.1
					"/>
				<path class="st1" d="M662.1,183.9c-8.2,11.3-19.9,20-34.2,24.4c-0.1,0-0.3,0.1-0.4,0.1"/>
				<path class="st1" d="M611.4,163.4c-9.1,1.4-18-4.2-20.6-13.3c-2.8-9.9,2.9-20.1,12.8-23c1.5-0.4,3-0.7,4.4-0.7
					c8.3-0.3,16.1,5.1,18.5,13.5c2.8,9.9-2.9,20.1-12.8,23c-0.4,0.1-0.8,0.2-1.1,0.3"/>
				<path class="st1" d="M612.5,163.2c-0.4,0.1-0.7,0.1-1.1,0.2"/>
				<path class="st1" d="M607.9,99c13.4,0.7,25.5,9.8,29.4,23.5c1.4,4.7,1.6,9.5,0.8,14.1c-2,12-10.6,22.4-23.1,26
					c-0.8,0.2-1.6,0.4-2.4,0.6c0,0,0,0,0,0c-0.4,0.1-0.7,0.1-1.1,0.2c0,0,0,0,0,0c-16,2.7-31.9-7.1-36.5-23.1
					c-4.9-17.2,5.1-35.1,22.3-40.1C600.8,99.2,604.4,98.9,607.9,99z"/>
				<polyline class="st1" points="626.5,139.9 638.1,136.6 672.2,126.9 				"/>
				<line class="st1" x1="607.9" y1="126.5" x2="607.9" y2="126.5"/>
				<line class="st1" x1="607.9" y1="126.5" x2="607.9" y2="99"/>
				<line class="st1" x1="607.9" y1="99" x2="607.8" y2="78.9"/>
				<line class="st1" x1="607.8" y1="78.9" x2="607.8" y2="77.2"/>
				<path class="st1" d="M672.2,126.9c0.1,0.2,0.1,0.4,0.2,0.7c4.7,17.2,1.8,39.1-10.2,56.2c0,0,0,0,0,0.1
					c-7.6,10.8-18.9,19.7-34.2,24.4c-0.1,0-0.3,0.1-0.4,0.1c-0.3,0.1-0.5,0.2-0.8,0.2c-0.1,0-0.3,0.1-0.4,0.1
					c-0.1,0-0.3,0.1-0.4,0.1c-24.3,6.6-45.1-0.4-59.7-13.1c-10.3-8.8-17.5-20.4-21-31.9c-0.1-0.2-0.1-0.4-0.2-0.7
					c-0.1-0.2-0.1-0.4-0.2-0.7c-3.2-11.6-3.1-25.3,1-38.2c5.8-18.5,19.7-35.5,43.9-42.6c0.1,0,0.3-0.1,0.4-0.1
					c0.1,0,0.3-0.1,0.4-0.1c0.1,0,0.3-0.1,0.4-0.1c9.9-2.8,12.4-2.3,12.4-2.3"/>
			</g>
		</g>
	</g>
	<g>
		<path class="st1" d="M257.9,84.1c0,0-36.6-10.6-61.4,16.5s-13,57.9-10.6,65c2.4,7.1,16.5,34.2,56.7,34.2
			c44.9,0,53.1-48.4,53.1-48.4l-9.9-1.9c0,0-0.7,3.1-1.9,6.7c0,0-7.2,30.6-37.8,33.1c-29.5,2.4-49.6-13-55.5-37.8
			c-7.9-33.2,15.3-62.8,41.3-65c14.2-1.2,21.3,1.2,21.3,1.2c2.3,0.6,2.8,0.7,2.8,0.7L257.9,84.1z"/>
		<path class="st1" d="M283.6,157l-12-2.8c0,0-0.3,3.4-1.9,6.7c-4.8,10.1-14.2,16.5-30.7,16.5s-30.7-9.4-37.8-21.3
			c-7.1-11.8-11.8-37.8,9.4-55.5C223.4,90,236.5,89.1,245,90.1l1.5-3.7"/>
		<path class="st1" d="M291.2,165.5l11.1,3.6c-9.5,21.8-30,41.3-61,41.3c-43.7,0-66.1-36.6-66.1-66.1s22.4-66.1,66.1-66.1
			c10.6,0,13,1.2,13,1.2l-1.3,3.7"/>
	</g>
</g>
<g>
	<g>
		<g id="XMLID_15_">
			<g>
			</g>
			<g>
				<path class="st1" d="M285.5,484.6c64.5,11.9,113.3,68.4,113.3,136.3c0,10.7-1.2,21.1-3.5,31.1c-0.2,0.7-0.3,1.4-0.5,2
					c-14.9,60.6-69.5,105.5-134.6,105.5c-76.6,0-138.6-62.1-138.6-138.6c0-76.6,62.1-138.6,138.6-138.6c8.5,0,16.8,0.8,24.8,2.2
					C285.1,484.5,285.3,484.5,285.5,484.6z"/>
				<path class="st1" d="M280.2,512.9c38,8.5,66.5,42.5,66.5,83.1c0,47-38.1,85.1-85.1,85.1c-47,0-85.1-38.1-85.1-85.1
					c0-47,38.1-85.1,85.1-85.1c6,0,11.8,0.6,17.4,1.8C279.4,512.7,279.8,512.8,280.2,512.9z"/>
				<path class="st1" d="M394.8,654.1c-3.5,12.8-15.3,22.2-29.2,22.2c-16.7,0-30.3-13.6-30.3-30.3c0-16.7,13.6-30.3,30.3-30.3
					c16.7,0,30.3,13.6,30.3,30.3c0,2.1-0.2,4.1-0.6,6C395.1,652.7,395,653.4,394.8,654.1z"/>
				<path class="st1" d="M285.5,484.6c6.6,1.3,11.6,7.1,11.6,14.1c0,8-6.5,14.4-14.4,14.4c-0.8,0-1.7-0.1-2.5-0.2
					c-0.4-0.1-0.8-0.2-1.2-0.3c-6.2-1.6-10.8-7.2-10.8-13.9c0-8,6.5-14.4,14.4-14.4c0.8,0,1.6,0.1,2.3,0.2
					C285.1,484.5,285.3,484.5,285.5,484.6z"/>
				<path class="st1" d="M262,576.2c0.2,0,0.4,0,0.6,0c0.1,0,0.2,0,0.3,0c0.3,0,0.6,0,1,0c2.5,0.1,4.8,0.6,7,1.4
					c9.6,3.4,16.4,12.5,16.4,23.3c0,13.6-11.1,24.7-24.7,24.7c-13.6,0-24.7-11.1-24.7-24.7C238,587.5,248.7,576.6,262,576.2"/>
				<path class="st1" d="M270.9,577.7c13.6,4.1,23.5,16.8,23.5,31.8c0,18.3-14.9,33.2-33.2,33.2c-18.3,0-33.2-14.9-33.2-33.2
					c0-18.3,14.9-33.2,33.2-33.2c0.2,0,0.5,0,0.7,0c0,0,0,0,0,0C265.1,576.3,268.1,576.8,270.9,577.7z"/>
				<path class="st1" d="M304.8,650.7c-11.9,9.4-26.9,15-43.3,15c-38.5,0-69.8-31.2-69.8-69.8c0-38.5,31.2-69.8,69.8-69.8
					c38.5,0,69.8,31.2,69.8,69.8c0,21.9-10.1,41.5-25.9,54.2"/>
				<path class="st1" d="M274.8,546.7c27.7,4.4,48.9,28.3,48.9,57.3c0,17.6-7.8,33.4-20.2,44c-0.2,0.1-0.3,0.3-0.5,0.4
					c-10.1,8.5-23.1,13.6-37.3,13.6c-32,0-58-26-58-58c0-32,26-58,58-58c1.2,0,2.5,0,3.7,0.1C271.2,546.2,273,546.4,274.8,546.7z"/>
				<path class="st1" d="M263.6,561.3c0.7,0,1.4-0.1,2.1-0.1c23.6,0,42.7,19.1,42.7,42.7c0,23.6-19.1,42.7-42.7,42.7
					c-15.3,0-28.7-8-36.2-20.1c-0.1-0.1-0.2-0.3-0.3-0.4c-4-6.5-6.2-14.1-6.2-22.2c0-22.6,17.6-41.2,39.9-42.7
					C263.1,561.3,263.3,561.3,263.6,561.3z"/>
				<path class="st1" d="M303.4,648c0.2-0.1,0.5-0.2,0.7-0.2c0.8,0,1.5,0.7,1.5,1.5c0,0.3-0.1,0.7-0.3,0.9c-0.2,0.2-0.4,0.4-0.6,0.5
					c-0.2,0.1-0.4,0.1-0.6,0.1c-0.8,0-1.5-0.7-1.5-1.5c0-0.4,0.1-0.7,0.3-1C303.1,648.2,303.3,648.1,303.4,648z"/>
				<path class="st1" d="M229.2,626.2c-0.1-0.2-0.1-0.4-0.1-0.6c0-0.8,0.7-1.5,1.5-1.5c0.8,0,1.5,0.7,1.5,1.5s-0.7,1.5-1.5,1.5
					c-0.5,0-0.9-0.2-1.1-0.5C229.3,626.5,229.3,626.4,229.2,626.2z"/>
				<path class="st1" d="M269.4,546.1c-3.5-1.5-6-4.9-6-9c0-5.4,4.4-9.8,9.8-9.8c5.4,0,9.8,4.4,9.8,9.8c0,4.8-3.5,8.8-8.1,9.6"/>
				<path class="st1" d="M263.6,561.3C263.6,561.3,263.6,561.3,263.6,561.3c4.2,0,7.6,3.4,7.6,7.5c0,4.1-3.2,7.4-7.2,7.5
					c-0.1,0-0.2,0-0.3,0c-0.2,0-0.5,0-0.7,0c-3.8-0.4-6.8-3.6-6.8-7.5c0-3.9,2.9-7,6.7-7.5C263.1,561.3,263.3,561.3,263.6,561.3z"/>
			</g>
		</g>
	</g>
	<g>
		<g id="XMLID_14_">
			<path d="M615.2,484.3c0.8,0,1.6,0.1,2.3,0.2c0.2,0,0.3,0.1,0.5,0.1c6.6,1.3,11.6,7.1,11.6,14.1c0,8-6.5,14.4-14.4,14.4
				c-0.8,0-1.7-0.1-2.5-0.2c-0.4-0.1-0.8-0.2-1.2-0.3c-5.6-1.2-11.5-1.8-17.4-1.8c-47,0-85.1,38.1-85.1,85.1
				c0,47,38.1,85.1,85.1,85.1c33.8,0,63-19.7,76.7-48.2l0,0c4.9-10.2,15.3-17.2,27.3-17.2c16.7,0,30.3,13.6,30.3,30.3
				c0,2.1-0.2,4.1-0.6,6c-0.2,0.7-0.3,1.4-0.5,2c-14.9,60.6-69.5,105.5-134.6,105.5c-76.6,0-138.6-62.1-138.6-138.6
				c0-76.6,62.1-138.6,138.6-138.6c8.5,0,16.8,0.8,24.8,2.2C616.8,484.4,616,484.3,615.2,484.3z"/>
			<path d="M635.6,648.4c0.2-0.1,0.3-0.3,0.5-0.4c0.2-0.1,0.5-0.2,0.7-0.2c0.8,0,1.5,0.7,1.5,1.5c0,0.3-0.1,0.7-0.3,0.9
				c-0.2,0.2-0.4,0.3-0.6,0.5c-11.9,9.4-26.9,15-43.3,15c-38.5,0-69.8-31.2-69.8-69.8c0-38.5,31.2-69.8,69.8-69.8
				c4.6,0,9.2,0.5,13.5,1.3l0,0c4.4,0.9,7.8,4.8,7.8,9.6c0,4.8-3.5,8.6-8.1,9.3c-1.7,0.3-3.6-0.2-5.4-0.3c-1.2-0.1-2.5-0.1-3.7-0.1
				c-32,0-58,26-58,58c0,32,26,58,58,58C612.5,662,625.5,656.8,635.6,648.4z"/>
			<path d="M595.4,561.3c0.3,0,0.5,0,0.8,0c0,0,0,0,0.1,0c4.1,0,7.5,3.4,7.5,7.5c0,4.1-3.2,7.4-7.2,7.5c-0.3,0-0.6,0-1,0
				c-0.1,0-0.2,0-0.3,0c-0.2,0-0.4,0-0.6,0c0,0,0,0,0,0c-0.2,0-0.5,0-0.7,0c-18.3,0-33.2,14.9-33.2,33.2c0,5.6,1.4,10.9,3.8,15.5
				l0,0c0.1,0.2,0.2,0.5,0.2,0.7c0,0.8-0.7,1.5-1.5,1.5c-0.5,0-0.9-0.2-1.1-0.5c-0.1-0.1-0.2-0.3-0.3-0.4c-4-6.5-6.2-14.1-6.2-22.2
				C555.6,581.3,573.2,562.8,595.4,561.3z"/>
		</g>
	</g>
</g>
</svg>
