<?xml version="1.0" encoding="utf-8"?>
<!-- Generator: Adobe Illustrator 18.1.0, SVG Export Plug-In . SVG Version: 6.00 Build 0)  -->
<!DOCTYPE svg PUBLIC "-//W3C//DTD SVG 1.1//EN" "http://www.w3.org/Graphics/SVG/1.1/DTD/svg11.dtd">
<svg version="1.1" id="Layer_1" xmlns="http://www.w3.org/2000/svg" xmlns:xlink="http://www.w3.org/1999/xlink" x="0px" y="0px"
	 viewBox="0 0 800 800" style="enable-background:new 0 0 800 800;" xml:space="preserve">
<path d="M0,0v800h800V0H0z M461.5,437.3c0.3-0.2,0.7-0.3,1-0.3c1.2,0,2.1,1,2.1,2.1c0,0.5-0.2,0.9-0.4,1.3c-0.3,0.2-0.6,0.5-0.8,0.7
	c-16.5,13.1-37.3,20.9-60,20.9c-53.4,0-96.8-43.3-96.8-96.8c0-53.4,43.3-96.8,96.8-96.8c6.4,0,12.7,0.6,18.8,1.8l0,0
	c6.2,1.3,10.8,6.7,10.8,13.3c0,6.7-4.8,11.9-11.2,13c-2.3,0.4-4.9-0.3-7.4-0.5c-1.7-0.1-3.4-0.2-5.1-0.2c-44.4,0-80.4,36-80.4,80.4
	c0,44.4,36,80.4,80.4,80.4c19.7,0,37.7-7.1,51.7-18.8C461.1,437.7,461.3,437.5,461.5,437.3z M362.4,405.3L362.4,405.3
	c0.2,0.3,0.3,0.6,0.3,1c0,1.2-1,2.1-2.1,2.1c-0.6,0-1.2-0.3-1.6-0.7c-0.1-0.2-0.3-0.4-0.4-0.6c-5.5-9-8.6-19.5-8.6-30.8
	c0-31.4,24.4-57.1,55.3-59.2c0.4,0,0.7,0,1.1-0.1c0,0,0.1,0,0.1,0c5.7,0,10.4,4.7,10.4,10.4c0,5.6-4.5,10.2-10,10.4
	c-0.4,0-0.9,0-1.3,0c-0.1,0-0.3,0.1-0.4,0.1c-0.3,0-0.6,0.1-0.9,0.1c0,0,0,0,0,0c-0.3,0-0.7-0.1-1-0.1c-25.4,0-46,20.6-46,46
	C357,391.6,359,398.9,362.4,405.3z M588.9,442.9c-0.2,0.9-0.4,1.9-0.7,2.8c-20.6,84-96.4,146.3-186.7,146.3
	c-106.2,0-192.3-86.1-192.3-192.3c0-106.2,86.1-192.3,192.3-192.3c11.7,0,23.2,1.1,34.4,3.1c0.2,0,0.5,0.1,0.7,0.1
	c9.2,1.8,16.1,9.9,16.1,19.6c0,11-8.9,20-20,20c-1.2,0-2.3-0.1-3.4-0.3c-0.5-0.1-1.1-0.2-1.7-0.4c-7.8-1.6-15.9-2.5-24.2-2.5
	c-65.2,0-118.1,52.9-118.1,118.1s52.9,118.1,118.1,118.1c46.9,0,87.4-27.3,106.4-66.9l0,0c6.8-14.1,21.2-23.8,37.9-23.8
	c23.2,0,42,18.8,42,42C589.7,437.4,589.4,440.2,588.9,442.9z"/>
</svg>
