<?xml version="1.0" encoding="utf-8"?>
<!-- Generator: Adobe Illustrator 18.1.0, SVG Export Plug-In . SVG Version: 6.00 Build 0)  -->
<!DOCTYPE svg PUBLIC "-//W3C//DTD SVG 1.1//EN" "http://www.w3.org/Graphics/SVG/1.1/DTD/svg11.dtd">
<svg version="1.1" id="Layer_1" xmlns="http://www.w3.org/2000/svg" xmlns:xlink="http://www.w3.org/1999/xlink" x="0px" y="0px"
	 viewBox="0 0 850 850" enable-background="new 0 0 850 850" xml:space="preserve">
<rect fill="#FFFFFF" width="850" height="850"/>
<g>
	
		<linearGradient id="SVGID_1_" gradientUnits="userSpaceOnUse" x1="655.9238" y1="-330.4439" x2="655.9238" y2="-181.4439" gradientTransform="matrix(1 0 0 1 -242.8266 625.8439)">
		<stop  offset="0" style="stop-color:#E62262"/>
		<stop  offset="0.132" style="stop-color:#E22262"/>
		<stop  offset="0.2674" style="stop-color:#D62160"/>
		<stop  offset="0.4046" style="stop-color:#C1215E"/>
		<stop  offset="0.5428" style="stop-color:#A4205A"/>
		<stop  offset="0.6821" style="stop-color:#7F1F56"/>
		<stop  offset="0.822" style="stop-color:#521D51"/>
		<stop  offset="0.9601" style="stop-color:#1D1C4B"/>
		<stop  offset="1" style="stop-color:#0C1B49"/>
	</linearGradient>
	<path fill="url(#SVGID_1_)" d="M473.8,425.9c0.7,1.3-0.7,2.2-0.9,2.4c-12.6,10.2-28.8,16.1-46.2,16.1c-41.2,0-74.5-33.5-74.5-74.5
		c0-41.2,35.1-74.5,76.4-74.5c5,0,14.4,0.6,16.3,1.5l0,0c3.7,0.9,6.7,5.2,6.7,10.2c0,5.2-4.6,9.1-9.6,10c-1.8,0.4-8.9-0.6-10.2-0.6
		c-34.2,0-61.2,27-61.2,61.2s26.1,58.6,60.3,58.6c15.2,0,29.4-2.8,40.3-10.4C471.2,425.7,472.9,424.2,473.8,425.9z"/>
	
		<linearGradient id="SVGID_2_" gradientUnits="userSpaceOnUse" x1="654.03" y1="-291.9506" x2="654.03" y2="-222.4197" gradientTransform="matrix(1 0 0 1 -242.8266 625.8439)">
		<stop  offset="0" style="stop-color:#E62262"/>
		<stop  offset="0.132" style="stop-color:#E22262"/>
		<stop  offset="0.2674" style="stop-color:#D62160"/>
		<stop  offset="0.4046" style="stop-color:#C1215E"/>
		<stop  offset="0.5428" style="stop-color:#A4205A"/>
		<stop  offset="0.6821" style="stop-color:#7F1F56"/>
		<stop  offset="0.822" style="stop-color:#521D51"/>
		<stop  offset="0.9601" style="stop-color:#1D1C4B"/>
		<stop  offset="1" style="stop-color:#0C1B49"/>
	</linearGradient>
	<path fill="url(#SVGID_2_)" d="M395,400.8c0.6,1.7-0.2,2.6-1.1,2.6s-1.7-0.4-3.3-3.9c-2.4-5-5.2-12.6-5.2-21.3
		c0-24.2,18.9-43.1,42.7-44.6c4.8-0.4,9.1,3,8.9,7.4c-0.4,6.5-4.1,7.8-10.5,7.8c-19.6,0-34.8,15.7-34.8,35.3
		C391.7,390.4,394.3,399.3,395,400.8z"/>
	
		<linearGradient id="SVGID_3_" gradientUnits="userSpaceOnUse" x1="666.5766" y1="-377.2439" x2="666.5766" y2="-81.0439" gradientTransform="matrix(1 0 0 1 -242.8266 625.8439)">
		<stop  offset="0" style="stop-color:#E62262"/>
		<stop  offset="0.132" style="stop-color:#E22262"/>
		<stop  offset="0.2674" style="stop-color:#D62160"/>
		<stop  offset="0.4046" style="stop-color:#C1215E"/>
		<stop  offset="0.5428" style="stop-color:#A4205A"/>
		<stop  offset="0.6821" style="stop-color:#7F1F56"/>
		<stop  offset="0.822" style="stop-color:#521D51"/>
		<stop  offset="0.9601" style="stop-color:#1D1C4B"/>
		<stop  offset="1" style="stop-color:#0C1B49"/>
	</linearGradient>
	<path fill="url(#SVGID_3_)" d="M569,432c-15.9,64.7-74.3,112.8-143.8,112.8c-81.9,0-148.1-66.4-148.1-148.1
		c0-81.9,66.4-148.1,148.1-148.1c9.1,0,17.9,0.7,26.4,2.4c0.2,0,0.4,0,0.6,0.2c7,1.5,12.4,7.6,12.4,15.2c0,8.5-6.8,15.3-15.3,15.3
		c-0.9,0-1.8,0-2.6-0.2c-0.4-0.2-0.9-0.2-1.3-0.2c-6.1-1.3-12.2-1.8-18.7-1.8c-50.3,0-91,40.7-91,91s40.7,91,91,91
		c36.1,0,66.7-20.3,82.1-51.6c5.9-12,16.3-18.3,29.2-18.3c17.9,0,32.4,14.4,32.4,32.4C570.1,425.5,569.2,431.3,569,432z"/>
</g>
</svg>
