<!-- Generator: Adobe Illustrator 18.0.0, SVG Export Plug-In  -->
<svg version="1.1"
	 xmlns="http://www.w3.org/2000/svg" xmlns:xlink="http://www.w3.org/1999/xlink" xmlns:a="http://ns.adobe.com/AdobeSVGViewerExtensions/3.0/"
	 x="0px" y="0px" width="1399.8px" height="750.8px" viewBox="0 0 1399.8 750.8" enable-background="new 0 0 1399.8 750.8"
	 xml:space="preserve">
<defs>
</defs>
<rect x="0" y="0" fill="#035D5D" width="1399.8" height="750.8"/>
<g>
	<g>
		<g>
			<g>
				<path fill="#FFFFFF" d="M557.7,406.4c0.2-0.4,0.5-0.7,0.9-0.7c0.2,0,0.8,0.2,0.8,0.8c0,0.2,0,0.3-0.1,0.5l-7.2,19.4h-2L543,407
					c-0.1-0.2-0.1-0.3-0.1-0.5c0-0.6,0.6-0.8,0.8-0.8c0.4,0,0.7,0.3,0.9,0.7l6.6,17.5L557.7,406.4z"/>
				<path fill="#FFFFFF" d="M583.1,426.5c-0.3,0-0.8-0.2-0.8-1V407c0-0.9,0.5-1,0.8-1c0.3,0,0.8,0.1,0.8,1v18.5
					C583.9,426,583.8,426.5,583.1,426.5z"/>
				<path fill="#FFFFFF" d="M611.5,414.3l7.5,1.6c3.1,0.7,4,3.1,4,5.4c0,2.4-1.2,5.2-5.4,5.2h-2.6c-4.4,0-7.1-0.8-7.1-5.7
					c0-0.7,0.3-1,0.9-1c0.5,0,0.8,0.4,0.8,1c0,3.7,1.5,4.1,5.4,4.1h3.2c2.5,0,3.1-2.3,3.1-3.6c0-2.3-1.2-3.5-1.9-3.6l-7.4-1.6
					c-3-0.7-4.1-2.2-4.1-5c0-2.4,1.2-5.1,5.6-5.1h2.4c4.3,0,7.1,0.7,7.1,5.6c0,0.7-0.3,1-0.9,1c-0.5,0-0.8-0.4-0.8-1
					c0-3.7-1.5-4-5.4-4h-3.1c-2.5,0-3.3,2.2-3.3,3.5C609.6,412.8,610.5,414.1,611.5,414.3z"/>
				<path fill="#FFFFFF" d="M648,426.5c-0.3,0-0.8-0.2-0.8-1V407c0-0.9,0.5-1,0.8-1c0.3,0,0.8,0.1,0.8,1v18.5
					C648.8,426,648.7,426.5,648,426.5z"/>
				<path fill="#FFFFFF" d="M673,419.1v-5.7c0-4.8,3.1-7.5,7.3-7.5c4.2,0,7.3,2.7,7.3,7.5v5.7c0,4.8-3.2,7.5-7.3,7.5
					C676.1,426.6,673,423.9,673,419.1z M674.6,413.4v5.6c0,3.7,2.1,5.9,5.7,5.9c3.6,0,5.7-2.2,5.7-5.9v-5.6c0-3.7-2.1-5.9-5.7-5.9
					C676.7,407.5,674.6,409.7,674.6,413.4z"/>
				<path fill="#FFFFFF" d="M725.1,426.3l-11.6-17.2v16.4c0,0.7-0.2,1-0.8,1c-0.7,0-0.8-0.5-0.8-1.1v-18.4c0-0.6,0.2-1.1,0.8-1.1
					c0.4,0,0.7,0.2,1,0.6l11.3,16.7v-16.2c0-0.6,0.2-1.1,0.8-1.1c0.7,0,0.9,0.5,0.9,1.1v18.4c0,0.6-0.2,1.1-0.8,1.1
					C725.5,426.5,725.3,426.5,725.1,426.3z"/>
				<path fill="#FFFFFF" d="M765.9,425.5c0.1,0.2,0.1,0.3,0.1,0.5c0,0.6-0.6,0.8-0.8,0.8c-0.4,0-0.7-0.3-0.9-0.7l-2.2-6.1h-8.7
					l-2.2,6.1c-0.2,0.4-0.5,0.7-0.9,0.7c-0.2,0-0.8-0.2-0.8-0.8c0-0.2,0-0.3,0.1-0.5l7.2-19.4h2L765.9,425.5z M754,418.4h7.4
					l-3.7-9.8L754,418.4z"/>
				<path fill="#FFFFFF" d="M802.5,425.5c0,0.6-0.3,1-0.9,1c-0.5,0-0.8-0.5-0.8-1c0-0.4-1.4-7.1-4.4-9.4h-6v9.4c0,0.5-0.2,1-0.9,1
					c-0.3,0-0.8-0.2-0.8-1v-18.2c0-0.6,0.2-1.1,0.8-1.1h5.7c4.2,0,6.9,0.9,6.9,4.9c0,2.6-1.4,4.2-3.7,4.7
					C800.8,418,802.5,425.1,802.5,425.5z M800.6,411.2c0-2.9-1.7-3.3-5.3-3.3h-4.8v6.5h4.8C799,414.5,800.6,414,800.6,411.2z"/>
				<path fill="#FFFFFF" d="M824.5,407.4c-0.1-0.2-0.3-0.4-0.3-0.7c0-0.5,0.5-0.8,0.8-0.8c0.3,0,0.6,0.3,0.8,0.6l6.1,8.5l6.1-8.5
					c0.3-0.5,0.7-0.6,0.8-0.6c0.3,0,0.8,0.3,0.8,0.8c0,0.3-0.1,0.5-0.3,0.7l-6.6,9.2v9c0,0.5-0.2,1-0.9,1c-0.3,0-0.8-0.2-0.8-1v-9
					L824.5,407.4z"/>
				<path fill="#FFFFFF" d="M898.5,418.5c-0.8,0-1.1-0.3-1.1-0.8c0-0.7,0.4-0.9,1.1-0.9h5.8v6c0,1.6-0.3,3.5-3.2,3.5h-4.7
					c-4.2,0-6.9-0.8-6.9-5.6v-8.9c0-4.8,2.7-5.6,7.1-5.6h4.5c2.9,0,3.2,1.8,3.2,3.5c0,0.8-0.3,1.1-0.8,1.1c-0.5,0-0.8-0.3-0.8-1.1
					c0-1.4-0.3-1.9-1.7-1.9h-4.2c-3.8,0-5.4,0.3-5.4,4v8.9c0,3.6,1.6,4,5.2,4h4.4c1.4,0,1.7-0.5,1.7-1.9v-4.2H898.5z"/>
				<path fill="#FFFFFF" d="M930.3,424.7h12c0.7,0,1.1,0.3,1.1,0.9s-0.4,0.8-1.1,0.8h-12.9c-0.6,0-0.8-0.5-0.8-1.1v-17.9
					c0-0.6,0.2-1.1,0.8-1.1h12.9c0.7,0,1.1,0.3,1.1,0.9s-0.4,0.8-1.1,0.8h-12v6.3h8.2c0.6,0,1.1,0.2,1.1,0.9c0,0.6-0.4,0.8-1.1,0.8
					h-8.2V424.7z"/>
				<path fill="#FFFFFF" d="M966.1,419.1v-5.7c0-4.8,3.1-7.5,7.3-7.5c4.2,0,7.3,2.7,7.3,7.5v5.7c0,4.8-3.2,7.5-7.3,7.5
					C969.3,426.6,966.1,423.9,966.1,419.1z M967.8,413.4v5.6c0,3.7,2.1,5.9,5.7,5.9s5.7-2.2,5.7-5.9v-5.6c0-3.7-2.1-5.9-5.7-5.9
					S967.8,409.7,967.8,413.4z"/>
				<path fill="#FFFFFF" d="M1012.1,417.2l-5.5-8.2v16.4c0,0.7-0.2,1.1-0.8,1.1c-0.7,0-0.8-0.5-0.8-1.1v-18.4c0-0.6,0.2-1.1,0.8-1.1
					c0.4,0,0.7,0.2,0.9,0.6l6,8.8l6-8.8c0.3-0.4,0.5-0.6,0.9-0.6c0.6,0,0.8,0.5,0.8,1.1v18.4c0,0.7-0.3,1.1-0.9,1.1
					c-0.6,0-0.8-0.5-0.8-1.1v-16.4l-5.5,8.2c-0.1,0.2-0.3,0.3-0.6,0.3C1012.6,417.5,1012.3,417.5,1012.1,417.2z"/>
				<path fill="#FFFFFF" d="M1059.7,425.5c0.1,0.2,0.1,0.3,0.1,0.5c0,0.6-0.6,0.8-0.8,0.8c-0.4,0-0.7-0.3-0.9-0.7l-2.2-6.1h-8.7
					l-2.2,6.1c-0.2,0.4-0.5,0.7-0.9,0.7c-0.2,0-0.8-0.2-0.8-0.8c0-0.2,0-0.3,0.1-0.5l7.2-19.4h2L1059.7,425.5z M1047.8,418.4h7.4
					l-3.7-9.8L1047.8,418.4z"/>
				<path fill="#FFFFFF" d="M1092.3,407c0,0.6-0.5,0.8-1,0.8h-4.8v17.7c0,0.9-0.6,1-0.9,1c-0.3,0-0.8-0.2-0.8-1v-17.7h-4.9
					c-0.9,0-1-0.5-1-0.8c0-0.3,0.1-0.8,1-0.8h11.4C1092,406.2,1092.3,406.5,1092.3,407z"/>
				<path fill="#FFFFFF" d="M1116.1,426.5c-0.3,0-0.8-0.2-0.8-1V407c0-0.9,0.5-1,0.8-1c0.3,0,0.8,0.1,0.8,1v18.5
					C1116.9,426,1116.8,426.5,1116.1,426.5z"/>
				<path fill="#FFFFFF" d="M1148.4,426.3c-4.4,0-7.1-0.8-7.1-5.7v-8.7c0-4.9,2.7-5.7,6.9-5.7h4.7c2.9,0,3.2,1.8,3.2,3.5
					c0,0.6-0.2,1.1-0.8,1.1c-0.3,0-0.8-0.1-0.8-1c0-1.5-0.5-2-1.7-2h-4.4c-3.6,0-5.2,0.3-5.2,4.1v8.7c0,3.7,1.6,4.1,5.4,4.1h4.2
					c1.4,0,1.7-0.6,1.7-2c0-0.9,0.5-1,0.8-1c0.6,0,0.8,0.4,0.8,1.1c0,1.7-0.3,3.5-3.2,3.5H1148.4z"/>
				<path fill="#FFFFFF" d="M1182.8,414.3l7.5,1.6c3.1,0.7,4,3.1,4,5.4c0,2.4-1.2,5.2-5.4,5.2h-2.6c-4.4,0-7.1-0.8-7.1-5.7
					c0-0.7,0.3-1,0.9-1c0.5,0,0.8,0.4,0.8,1c0,3.7,1.5,4.1,5.4,4.1h3.2c2.5,0,3.1-2.3,3.1-3.6c0-2.3-1.2-3.5-1.9-3.6l-7.4-1.6
					c-3-0.7-4.1-2.2-4.1-5c0-2.4,1.2-5.1,5.6-5.1h2.4c4.3,0,7.1,0.7,7.1,5.6c0,0.7-0.3,1-0.9,1c-0.5,0-0.8-0.4-0.8-1
					c0-3.7-1.5-4-5.4-4h-3.1c-2.5,0-3.3,2.2-3.3,3.5C1180.9,412.8,1181.7,414.1,1182.8,414.3z"/>
			</g>
		</g>
		<g>
			<g>
				<path fill="#FFFFFF" d="M586.8,342.5c-2.3-9.3-11.2-12.7-18.5-12.7c-11.3,0-20,8.8-20,20.9c0,12.2,8.7,21.1,20,21.1
					c7.1,0,14.6-3.3,18.1-11.7h-12.9l-8.4-8.3h31c-0.4,4.9-0.8,8.1-1.6,10v-0.1c-3.9,11-15.8,18.1-26.2,18.1
					c-16.1,0-28.3-12.2-28.3-29.1c0-17,12.4-29.2,28.3-29.2c11,0,24.4,5.7,27.4,21H586.8z"/>
				<path fill="#FFFFFF" d="M661.5,371.1h26.7v8.3h-35.1v-57.5h35v8.3h-26.7v16.2h26.1v8.4h-26.1V371.1z"/>
				<path fill="#FFFFFF" d="M751.6,329.8c5.3-5.3,12.7-8.7,20.7-8.7c8.1,0,15.5,3.4,20.8,8.7c5.2,5.3,8.6,12.7,8.6,20.8
					c0,8.1-3.4,15.5-8.6,20.8c-5.3,5.4-12.7,8.7-20.8,8.7c-8.1,0-15.5-3.3-20.7-8.7c-5.2-5.3-8.6-12.7-8.6-20.8
					C743.1,342.5,746.4,335.2,751.6,329.8z M787.2,335.7c-3.9-3.9-9.2-6.3-14.9-6.3c-5.7,0-10.9,2.4-14.7,6.3
					c-3.8,3.8-6.2,9-6.2,14.9c0,5.8,2.4,11.1,6.2,14.9c3.8,3.9,9,6.3,14.7,6.3c5.7,0,11-2.4,14.9-6.3c3.7-3.8,6.1-9,6.1-14.9
					C793.3,344.7,790.9,339.5,787.2,335.7z"/>
				<path fill="#FFFFFF" d="M880.3,321.9c18.8,0,28.3,14.4,28.3,28.8c0,14.4-9.5,28.7-28.3,28.7h-20.6v-57.5H880.3z M880.3,371.1
					c13.3,0,20.1-10.2,20.1-20.4s-6.7-20.5-20.1-20.5h-12.3v40.9H880.3z"/>
				<path fill="#FFFFFF" d="M971.2,379.4v-57.5h8.3v57.5H971.2z"/>
				<path fill="#FFFFFF" d="M1055.5,379.4h-8.3v-57.6h6.7l19,28l19-28h6.6v57.6h-8.2v-40.6l-15.1,22.4h-4.7l-15.1-22.4V379.4z"/>
				<path fill="#FFFFFF" d="M1165.8,371.1h26.7v8.3h-35.1v-57.5h35v8.3h-26.7v16.2h26.1v8.4h-26.1V371.1z"/>
			</g>
			<polygon fill="#FFFFFF" points="1065.1,353 1072.9,364.5 1080.7,353 			"/>
		</g>
	</g>
	<g id="XMLID_1_">
		<g id="XMLID_2_">
			<g>
				<polygon fill="#EA5D2C" points="401.9,301.1 461.2,403.5 401.9,437.8 401.9,437.2 				"/>
				<polygon fill="#018080" points="401.9,437.2 401.9,437.8 401.4,436.9 				"/>
				<polygon fill="#018080" points="401.9,301.1 401.9,437.2 401.4,436.9 362.7,369.3 369.4,357.7 				"/>
				<polygon fill="#EA5D2C" points="401.4,436.9 401.9,437.8 343.1,471.7 343.1,335.1 283.7,437.4 283.7,437.4 323.4,276.2 
					323.4,276.2 369.4,357.7 362.7,369.3 				"/>
				<polygon fill="#018080" points="343.1,335.1 343.1,471.7 283.7,437.4 				"/>
				<polygon fill="#018080" points="323.4,276.2 283.7,437.4 224.6,403.2 				"/>
				<polygon fill="#EA5D2C" points="283.7,437.4 283.7,437.4 283.7,437.4 				"/>
			</g>
			<g>
			</g>
		</g>
	</g>
</g>
</svg>
