<!-- Generator: Adobe Illustrator 18.0.0, SVG Export Plug-In  -->
<svg version="1.1"
	 xmlns="http://www.w3.org/2000/svg" xmlns:xlink="http://www.w3.org/1999/xlink" xmlns:a="http://ns.adobe.com/AdobeSVGViewerExtensions/3.0/"
	 x="0px" y="0px" width="1399.4px" height="751.4px" viewBox="0 0 1399.4 751.4" enable-background="new 0 0 1399.4 751.4"
	 xml:space="preserve">
<defs>
</defs>
<g>
	<g>
		<g id="XMLID_1_">
			<path fill="#008080" d="M44.3,373.7c-1.8,1-3.1,1.3-4.2-0.7l-2-3.5c-1.1-2-0.3-2.9,1.4-3.9l1.9-1.1c1.2-0.7,1.7,0,2.1,0.7
				c0.1,0.2,0.2,0.5-0.1,0.6c-0.1,0.1-0.4,0.1-0.6-0.2c-0.4-0.6-0.7-0.7-1.2-0.4l-1.8,1c-1.5,0.9-2,1.4-1.2,2.9l2,3.5
				c0.9,1.5,1.6,1.3,3.1,0.4l1.7-1c0.6-0.3,0.6-0.6,0.2-1.2c-0.2-0.4,0-0.5,0.1-0.6c0.2-0.1,0.4,0,0.6,0.3c0.4,0.7,0.7,1.5-0.5,2.2
				L44.3,373.7z"/>
			<polygon fill="#D56100" points="656.3,273.7 656.3,273.6 672.9,273.6 661.8,283.2 656.3,273.7 			"/>
			<polygon fill="#A84902" points="673.1,302.7 605.9,302.7 616.7,224.5 639.3,302.5 639.3,302.5 639.3,302.5 639.3,302.5 
				639.3,302.5 639.3,302.5 639.3,302.5 			"/>
			<polygon fill="#D56100" points="656.2,215.8 706.5,244.8 684,264.1 			"/>
			<polygon fill="#008080" points="689.6,273.6 689.7,273.9 689.3,273.6 			"/>
			<polygon fill="#A84902" points="639.3,302.5 661.8,283.2 673.1,302.7 			"/>
			<path fill="#A84902" d="M639.3,302.5L639.3,302.5L639.3,302.5z"/>
			<path fill="#008080" d="M27.4,348.3c-2-1.2-3.6-2.7-4.7-4.6L9.4,320.6c-2.4-4.2-2.2-8.3,0.7-12.4c1-1.1,2.1-2.1,3.5-2.9l8.1-4.7
				c1.8-1,3.5-1,5,0.1l1.1,1.5l0.1,0.2l-0.1,0.3l-10.1,5.8c-4,2.3-5.5,4.7-4.7,7.2c-0.2,0.3,0.2,1.3,1,2.8l5.2,8.9l11.2-6.5
				c2.4-1,4.1-0.5,5.3,1.4l0.4,0.8l-0.1,0.3l-14.3,8.3L27,341c1.8,3.2,4.5,4.1,7.9,2.8l2-1.1l7.1-4.1c2.5-1,4.2-0.6,5.3,1.3l0.5,0.8
				l-0.1,0.3l-11.9,6.9C34.6,349.8,31,350,27.4,348.3z"/>
			<polygon fill="#D56100" points="679.5,267.9 679.5,267.9 689.3,273.6 672.9,273.6 			"/>
			<polygon fill="#A84902" points="689.6,273.6 689.3,273.6 689.3,273.6 679.5,267.9 684,264.1 			"/>
			<path fill="#008080" d="M55.6,363.6c0.2-0.1,0.4,0,0.6,0.2c0.9,1.5,1.6,1.3,3.1,0.4l1.3-0.8c1-0.6,0.7-1.7,0.4-2.2
				c-0.5-0.9-1.3-1.1-1.6-1l-3.4,1.1c-1.4,0.4-2.2,0.1-2.8-1.1c-0.6-1-0.7-2.4,1.1-3.4l1-0.6c1.8-1,3-1.4,4.2,0.6
				c0.2,0.3,0.1,0.5-0.1,0.6c-0.2,0.1-0.4,0-0.6-0.2c-0.9-1.5-1.5-1.3-3.1-0.4l-1.3,0.7c-1,0.6-0.8,1.6-0.5,2.2
				c0.4,0.7,1.1,1,1.5,0.9l3.4-1.1c1.4-0.4,2.4,0.3,2.9,1.3c0.6,1,0.7,2.4-1,3.4l-1.1,0.6c-1.8,1-3,1.3-4.2-0.7
				C55.4,364,55.4,363.8,55.6,363.6z"/>
			<polygon fill="#D56100" points="689.7,273.9 673.1,302.7 661.8,283.2 672.9,273.6 672.9,273.6 689.3,273.6 689.3,273.6 			"/>
			<line fill="#008080" x1="0" y1="348.2" x2="0" y2="358.2"/>
			<path fill="#008080" d="M1.8,394l3-1.7l-3.8-3.1L1.8,394z M2.2,398.3c-0.1,0.1-0.4,0.1-0.5-0.1c0-0.1-0.1-0.1-0.1-0.2L0,388.4
				l0.8-0.5l7.4,6.2c0.1,0.1,0.1,0.1,0.2,0.2c0.1,0.3-0.1,0.5-0.1,0.5c-0.2,0.1-0.3,0-0.5-0.1l-2.3-1.9l-3.5,2l0.5,3
				C2.4,398,2.4,398.2,2.2,398.3z"/>
			<polygon fill="#A84902" points="661.8,283.2 639.3,302.5 639.3,302.5 639.3,302.5 639.3,302.5 639.3,302.5 639.5,244.5 
				639.5,244.7 656.3,273.7 			"/>
			<polygon fill="#D56100" points="689.7,273.9 689.6,273.6 684,264.1 706.5,244.8 			"/>
			<polygon fill="#FFFFFF" points="639.3,302.5 639.3,302.5 639.3,302.5 			"/>
			<polygon fill="#D56100" points="656.3,273.7 639.5,244.7 656.3,254.4 656.3,273.6 656.3,273.7 			"/>
			<path fill="#008080" d="M31.3,381.3c-0.1,0.1-0.4,0.1-0.6-0.2l-4.3-7.5c-0.2-0.4,0-0.5,0.1-0.6c0.1-0.1,0.4-0.1,0.6,0.2l4.3,7.5
				C31.5,380.9,31.6,381.2,31.3,381.3z"/>
			<polygon fill="#D56100" points="684,264.1 684,264.1 689.6,273.6 684,264.1 			"/>
			<polygon fill="#D56100" points="672.9,273.6 672.9,273.6 656.3,273.6 656.3,254.4 679.5,267.9 			"/>
			<polygon fill="#FFFFFF" points="706.5,244.8 673.1,302.7 689.7,273.9 			"/>
			<path fill="#008080" d="M12.2,382.2c-0.4,0.2-0.5,0-0.6-0.1c-0.1-0.1-0.1-0.4,0.2-0.6l4.6-2.7c0.3-0.2,0.5-0.1,0.6,0.1
				c0.1,0.3,0,0.4-0.2,0.6l-1.9,1.1l4.1,7.2c0.2,0.3,0,0.5-0.1,0.6c-0.1,0.1-0.4,0.1-0.6-0.2l-4.1-7.2L12.2,382.2z"/>
			<path fill="#FFFFFF" d="M605.9,302.7l67.1,0l33.4-58l-50.3-28.9l0.1,32l-39.5-23.3l0,0L605.9,302.7z M245.9,435.2
				c-0.1,0-12.1-5.2-19.3-17.7c-7.2-12.5-5.7-25.5-5.7-25.6l-16.7,38.5L245.9,435.2z M144.3,436.4c0.1,0,12.1,5.2,19.3,17.7
				c7.2,12.5,5.7,25.5,5.7,25.6l16.7-38.5L144.3,436.4z M56.2,363.9c-0.1-0.3-0.4-0.3-0.6-0.2c-0.2,0.1-0.3,0.4-0.1,0.6
				c1.1,2,2.4,1.7,4.2,0.7l1.1-0.6c1.7-1,1.5-2.4,1-3.4c-0.5-0.9-1.5-1.7-2.9-1.3l-3.4,1.1c-0.5,0.1-1.1-0.2-1.5-0.9
				c-0.3-0.6-0.5-1.6,0.5-2.2l1.3-0.7c1.6-0.9,2.2-1.1,3.1,0.4c0.1,0.3,0.4,0.3,0.6,0.2c0.2-0.1,0.3-0.4,0.1-0.6
				c-1.1-2-2.4-1.6-4.2-0.6l-1,0.6c-1.8,1-1.6,2.4-1.1,3.4c0.7,1.1,1.5,1.5,2.8,1.1l3.4-1.1c0.3-0.1,1.1,0.1,1.6,1
				c0.3,0.5,0.6,1.6-0.4,2.2l-1.3,0.8C57.8,365.2,57.1,365.4,56.2,363.9z M9.4,320.6l13.3,23.1c1.1,1.9,2.7,3.4,4.7,4.6
				c3.6,1.7,7.2,1.6,10.5-0.4l11.9-6.9l0.1-0.3l-0.5-0.8c-1.1-1.8-2.8-2.3-5.3-1.3l-7.1,4.1l-2,1.1c-3.4,1.4-6.1,0.4-7.9-2.8
				l-5.4-9.3l14.3-8.3l0.1-0.3l-0.4-0.8c-1.1-1.9-2.9-2.4-5.3-1.4l-11.2,6.5l-5.2-8.9c-0.8-1.6-1.2-2.5-1-2.8
				c-0.8-2.5,0.8-4.9,4.7-7.2l10.1-5.8l0.1-0.3l-0.1-0.2l-1.1-1.5c-1.5-1.1-3.2-1.2-5-0.1l-8.1,4.7c-1.4,0.8-2.6,1.8-3.5,2.9
				C7.2,312.3,7,316.4,9.4,320.6z M39.5,365.6c-1.7,1-2.6,1.9-1.4,3.9l2,3.5c1.1,2,2.4,1.7,4.2,0.7l1.8-1c1.2-0.7,0.9-1.5,0.5-2.2
				c-0.2-0.3-0.4-0.4-0.6-0.3c-0.1,0.1-0.3,0.2-0.1,0.6c0.3,0.6,0.3,0.9-0.2,1.2l-1.7,1c-1.6,0.9-2.3,1.1-3.1-0.4l-2-3.5
				c-0.9-1.5-0.3-2,1.2-2.9l1.8-1c0.5-0.3,0.8-0.2,1.2,0.4c0.2,0.4,0.4,0.3,0.6,0.2c0.3-0.2,0.2-0.4,0.1-0.6c-0.4-0.7-1-1.4-2.1-0.7
				L39.5,365.6z M30.7,381.1c0.2,0.3,0.4,0.3,0.6,0.2c0.3-0.2,0.2-0.4,0.1-0.6l-4.3-7.5c-0.2-0.4-0.5-0.3-0.6-0.2
				c-0.1,0.1-0.3,0.2-0.1,0.6L30.7,381.1z M11.9,381.6c-0.4,0.2-0.3,0.4-0.2,0.6c0.1,0.1,0.2,0.3,0.6,0.1l2-1.1l4.1,7.2
				c0.2,0.3,0.4,0.3,0.6,0.2c0.1-0.1,0.3-0.3,0.1-0.6l-4.1-7.2l1.9-1.1c0.2-0.1,0.4-0.3,0.2-0.6c-0.1-0.2-0.3-0.3-0.6-0.1
				L11.9,381.6z M1203.2,398.2L1203.2,398.2L1203.2,398.2l-54.8,0l0,0l0,0h0l-27.4,47.4l0,0l0,0l0,0l27.4,47.4l0,0l0,0l0,0l54.8,0
				l27.4-47.4l0,0l0,0l0,0L1203.2,398.2L1203.2,398.2z M1398.1,650.4l0,101l-172.1,0l-0.2-1.4l7.8-4.7l5.6,4.4l0.8-0.5l-16.3-12.8
				l-0.9,0.5l2.5,14.5l-23.9,0l-0.7-1.2l-0.8,0.5l0.5,0.8l-135.2,0c-0.1-0.3-0.3-0.6-0.4-0.9l-1.4,0.9l-33.8,0
				c1.3-1.9,3.1-3.5,5.2-4.8c5.4-3.2,13.3-4.6,19.1,1.1l6.5-3.9c-8.9-9.9-21.2-8.2-29.2-3.3c-4.5,2.7-7.8,6.5-9.7,10.9l-299.1,0
				c1.8-3.2,2.7-7,2-10.7l0,0c-0.2-1.2-0.9-2.9-2.1-5.4l-15.6,9l6.6,1.7l6.5-3.8c0.5,3.8-0.9,6.9-3,9.1h-16.7
				c-0.8-0.8-1.5-1.7-2.1-2.8c-3.5-6.1-1.7-13,4-16.3c3.7-2.1,9.1-3,13,1l4.5-2.6c-6-6.8-14.3-5.8-19.8-2.6
				c-8,4.6-10.7,14.3-5.7,22.9c0.1,0.1,0.1,0.2,0.2,0.4l-37.2,0c0-0.4,0.1-0.6,0.1-0.6l-0.3,0.6l-1.1,0l0.7-1c0,0-0.5,0.4-1.4,1
				l-34.3,0c-0.9-0.6-1.4-0.9-1.4-0.9l0.7,0.9h-1.2l-0.2-0.5c0,0,0,0.2,0,0.5l-265,0l3.8-6.5l14.5-8.4l0-16.8l8.9-15.5l-8.9,5.2
				l0-38l-15.8-9.1l-8.4-14.5l-16.5,0.1l-15.8-9.1l5.3,9.2l-37.8,0.3l-8.2,14.6l-15.6,9l0.1,18.4l-8.4,15l8.5-4.9l0.3,36.2l14.6,8.2
				l3.7,6.5L0,751.4l0-362.9l1.6,9.5c0,0.1,0,0.2,0.1,0.2c0.1,0.3,0.4,0.2,0.5,0.1c0.2-0.1,0.2-0.3,0.2-0.5l-0.5-3l3.5-2l2.3,1.9
				c0.2,0.1,0.4,0.2,0.5,0.1c0.1-0.1,0.3-0.3,0.1-0.5c0-0.1-0.1-0.1-0.2-0.2L0.8,388L0,388.4l0-30.2l2.9,5c1.2,2.1,3.1,2.6,5.7,1.5
				l0.6-0.3l0.1-0.3L0,348.2l0-184.3c0.1-0.1,0.2-0.1,0.3-0.2c8.4-4.8,17-3.8,17-3.8L0,152.4l0-6.2l17.6,13.1c0,0-5.3-7-5.3-16.6
				c0-9.7,5.2-16.6,5.2-16.6L0,139.1l0-6.1l17.3-7.5c0,0-8.7,1.1-17-3.8c-0.1,0-0.2-0.1-0.2-0.1L0,1.4l257.7,0
				c0,0.4-0.1,0.7-0.3,0.9c-0.2,0.2-0.6,0.5-0.9,0.7c-0.2,0.1-0.2,0.2-0.1,0.3c0.1,0.2,0.3,0.2,0.7,0c0.9-0.5,2.7-1.7,3-1.9l328.3,0
				l10.7,18.4l21.4-12.3l-2.9-5.1l-16.3,9.4l-5.7-9.9l0.9-0.5l801.8,0v23.2l-12.2,7l-5.7-9.9l16.2-9.4l-2.9-5.1l-21.3,12.3l20.2,35
				l5.7-3.3l0,52.4c-1.3-0.1-2.7,0.4-3.8,0.9c-1.5,0.7-3,1.4-3.9,0.1c-0.3-0.4-0.5-0.9-0.4-1.4c0.1-1,0.9-1.8,1.8-2.4
				c1.1-0.7,2.7-0.9,3.6,0.1l1.8-1.2c-1.7-2.2-4.4-2-6.4-0.9c-1.5,0.9-2.7,2.4-3,4c-0.1,1.1,0.1,2.1,0.7,2.9l0,0
				c1.8,2.6,4.4,1.7,6.6,0.7c1.1-0.5,2.1-0.9,2.9-0.8l0,4.1c-0.2,0.2-0.5,0.4-0.7,0.5c-1.2,0.7-3.1,0.9-3.9-0.2l0,0.1l-0.2-0.3
				l-1.9,1.1l0.2,0.3c1.5,2.1,4.4,2,6.4,1l0,193.9l-2.1-3.7c-2.6-4.5-5.3-7.5-8.2-9.1c-2.9-1.6-6.3-1.2-10.3,1.1l-9.7,5.6l29.9,51.7
				l0.5-0.3L1398.1,650.4c0-2-0.6-4.1-2-6.3c-1.5-2.5-3.3-4.2-5.4-5.1c-2.3-0.9-4.7-0.7-7.2,0.8c-2.5,1.5-3.8,3.5-4.1,6
				c-0.2,2.3,0.4,4.6,1.9,7.2c1.5,2.5,3.3,4.2,5.4,5.1c2.3,0.9,4.7,0.7,7.2-0.8c2.5-1.5,3.8-3.5,4.1-5.9
				C1398.1,651,1398.1,650.7,1398.1,650.4z M1348.1,57.9l-18.9,10.9l8,2.1l7.9-4.5c0.8,6.3-2.6,11-6.9,13.5
				c-6.9,4-15.3,1.6-19.6-5.8c-4.3-7.4-2-15.8,4.8-19.7c4.5-2.6,11-3.6,15.7,1.2l5.4-3.1c-7.2-8.2-17.3-7-24-3.1
				c-9.7,5.6-12.9,17.4-6.9,27.7c6,10.3,17.6,13.4,27.4,7.8c6.4-3.7,11.1-12.1,9.6-20.2l0,0C1350.4,63.1,1349.6,61,1348.1,57.9z
				 M1374.7,111.1l-1.1-1.9l-6.7,3.9l1.1,1.9l2.4-1.4l5.4,9.3l-2.4,1.4l1.1,1.9l6.7-3.9l-1.1-1.9l-2.4,1.4l-5.4-9.3L1374.7,111.1z
				 M1357,136.2l-2.3-16.1l-2,1.2l1.7,12l-9.5-7.5l-2.1,1.2l12.8,10.1L1357,136.2z M1348.3,330.3c-2.2-3.7-4.3-6.5-6.3-8.3
				c-3.5-3.1-7.5-3.2-12.2-0.6c-3.2,1.8-5.1,4.1-5.8,6.8c-0.8,3.4,0.4,8.1,3.8,13.9l13.2,22.8c3.1,5.4,6.1,8.8,9.1,10.4
				c3,1.6,6.3,1.3,10.1-0.9c3.8-2.2,5.7-4.9,5.8-8.3s-1.4-7.7-4.5-13.1L1348.3,330.3z M1208.6,151.9l-2.9-5l-15.3,8.8l29.6,51.2
				l15.4-8.9l-2.9-5l-9.4,5.4l-10.8-18.7l8.8-5.1l-2.9-5l-8.8,5.1l-10.1-17.5L1208.6,151.9z M1295,349.1l-2.9-5.1l-15.5,8.9
				l29.9,51.7l15.6-9l-2.9-5.1l-9.5,5.5l-10.9-18.9l8.9-5.1l-2.9-5.1l-8.9,5.1l-10.2-17.7L1295,349.1z M1192.7,222.7l-29.6-51.2
				l-7.5,4.4l17.4,46.1l-31.7-37.9l-7.5,4.3l29.6,51.2l5.3-3.1l-11.9-20.5l-11.6-18.9l30.1,35.4l5.4-3.1l-15.9-43.6l10.6,19.4
				l11.9,20.5L1192.7,222.7z M1257.2,383c-2.2-3.7-4.3-6.5-6.3-8.3c-3.5-3.1-7.5-3.2-12.2-0.6c-3.2,1.8-5.1,4.1-5.8,6.8
				c-0.8,3.4,0.4,8.1,3.8,13.9l13.2,22.8c3.1,5.4,6.1,8.8,9.1,10.4c3,1.6,6.3,1.3,10.1-0.9c3.8-2.2,5.7-4.9,5.8-8.3
				c0.1-3.3-1.4-7.7-4.5-13.1l-7.1-12.3l-10,5.8l2.7,4.7l3.9-2.3l4.4,7.6c2.3,3.9,3.5,6.7,3.8,8.5c0.3,1.8-0.4,3.1-2.1,4.1
				c-1.7,1-3.2,0.9-4.6-0.2c-1.4-1.1-3.2-3.6-5.5-7.6l-13.4-23.2c-1.9-3.2-2.9-5.7-3.1-7.5c-0.2-1.8,0.5-3.1,2.1-4.1
				c1.6-0.9,3.1-0.9,4.4,0.2c1.3,1.1,2.9,3.3,4.9,6.6l2.9,5l6.1-3.5L1257.2,383z M1374.9,591.7l-25.3-42.1l-6.1,3.6l25.3,42.1
				L1374.9,591.7z M1136.1,255.4l-29.6-51.2l-6,3.5l29.6,51.2L1136.1,255.4z M1370.5,670.8l-0.4-0.7l-9.6,5.8l-4.5-7.6l7.4-4.5
				l-0.4-0.7l-7.4,4.5l-4.1-6.9l9.4-5.6l-0.4-0.7l-10.2,6.1l10,16.6L1370.5,670.8z M982.8,30.3l-1.1-1.5c-1.5-1.1-3.2-1.2-5-0.1
				l-8.1,4.7c-1.4,0.8-2.6,1.8-3.5,2.9c-2.8,4.1-3.1,8.3-0.7,12.4l13.3,23.1c1.1,1.9,2.7,3.4,4.7,4.6c3.6,1.7,7.2,1.6,10.5-0.4
				l11.9-6.9l0.1-0.3l-0.5-0.8c-1.1-1.8-2.8-2.3-5.3-1.3l-7.1,4.1l-2,1.1c-3.4,1.4-6.1,0.4-7.9-2.8l-5.4-9.3l14.3-8.3l0.1-0.3
				l-0.4-0.8c-1.1-1.9-2.9-2.4-5.3-1.4l-11.2,6.5l-5.2-8.9c-0.8-1.6-1.2-2.5-1-2.8c-0.8-2.5,0.8-4.9,4.7-7.2l10.1-5.8l0.1-0.3
				L982.8,30.3z M1014.5,85c-1.1-2-2.4-1.6-4.2-0.6l-1,0.6c-1.8,1-1.6,2.4-1.1,3.4c0.7,1.1,1.5,1.5,2.8,1.1l3.4-1.1
				c0.3-0.1,1.1,0.1,1.6,1c0.3,0.5,0.6,1.6-0.4,2.2l-1.3,0.8c-1.6,0.9-2.3,1.1-3.1-0.4c-0.1-0.3-0.4-0.3-0.6-0.2
				c-0.2,0.1-0.3,0.4-0.1,0.6c1.1,2,2.4,1.7,4.2,0.7l1.1-0.6c1.7-1,1.5-2.4,1-3.4c-0.5-0.9-1.5-1.7-2.9-1.3l-3.4,1.1
				c-0.5,0.1-1.1-0.2-1.5-0.9c-0.3-0.6-0.5-1.6,0.5-2.2l1.3-0.7c1.6-0.9,2.2-1.1,3.1,0.4c0.1,0.3,0.4,0.3,0.6,0.2
				C1014.6,85.5,1014.6,85.3,1014.5,85z M1310.5,601.8c-6.3-10.5-19.6-16.9-33.3-8.6l-15.1,9.1l25.3,42.1l15.1-9.1
				C1316.1,627,1316.8,612.3,1310.5,601.8z M998.6,93.2c-0.4-0.7-1-1.4-2.1-0.7l-1.9,1.1c-1.7,1-2.6,1.9-1.4,3.9l2,3.5
				c1.1,2,2.4,1.7,4.2,0.7l1.8-1c1.2-0.7,0.9-1.5,0.5-2.2c-0.2-0.3-0.4-0.4-0.6-0.3c-0.1,0.1-0.3,0.2-0.1,0.6
				c0.3,0.6,0.3,0.9-0.2,1.2l-1.7,1c-1.6,0.9-2.3,1.1-3.1-0.4l-2-3.5c-0.9-1.5-0.3-2,1.2-2.9l1.8-1c0.5-0.3,0.8-0.2,1.2,0.4
				c0.2,0.4,0.4,0.3,0.6,0.2C998.8,93.7,998.7,93.4,998.6,93.2z M1081.2,237.4c-2.6-4.4-5.3-7.4-8.2-9c-2.9-1.6-6.3-1.2-10.2,1.1
				l-9.6,5.6l29.6,51.2l9.4-5.4c3.8-2.2,5.8-4.9,6.1-8.2c0.3-3.2-1.1-7.5-4.1-12.7L1081.2,237.4z M1338.8,680.2
				c-0.1-0.1-0.2-0.3-0.2-0.4c-0.1-0.1-0.2-0.3-0.3-0.4l-6.2,3.7l0.4,0.7l5.5-3.3l0.4,0.7c1.1,1.9,1.5,3.7,1.2,5.4
				c-0.4,1.8-1.5,3.2-3.4,4.4c-2.1,1.3-4.3,1.4-6.4,0.5c-1.8-0.8-3.4-2.4-4.8-4.6c-1.4-2.3-2-4.4-1.8-6.4c0.2-2.3,1.3-4.1,3.4-5.4
				c2.9-1.8,5.5-1.7,7.7,0.4l0.5-0.8c-1.2-1.1-2.6-1.7-4.2-1.6c-1.5,0-2.9,0.5-4.4,1.4c-2.4,1.5-3.7,3.4-3.9,6
				c-0.2,2.2,0.5,4.6,2,7.1c1.5,2.5,3.3,4.2,5.4,5c2.3,1,4.7,0.7,7.1-0.7c1.1-0.7,2-1.5,2.7-2.5
				C1341.1,686.7,1340.9,683.7,1338.8,680.2z M982.1,101.2c-0.2-0.4-0.5-0.3-0.6-0.2c-0.1,0.1-0.3,0.2-0.1,0.6l4.3,7.5
				c0.2,0.3,0.4,0.3,0.6,0.2c0.3-0.2,0.2-0.4,0.1-0.6L982.1,101.2z M945.6,59.8c-1.7-2.9-3.9-4.8-6.7-5.6c-3-0.7-5.8-0.3-8.4,1.2
				l-3,1.7c-2.5,1.5-4.2,3.9-4.9,7.4c-3.3-1.1-6.6-0.7-9.9,1.2l-0.8,0.4c-2.9,1.7-4.9,3.5-6,5.6c-1.3-0.7-2.8-0.5-4.5,0.5l-0.1,0.1
				l-0.1,0.3l22.9,39.6c1.6,1.4,3.5,1.5,5.6,0.3c0.2-0.1,0.2-0.2,0.2-0.4L911.3,80l-0.6-1.3c-1.3-3.3-0.4-5.8,2.8-7.6l1.7-1l1.9-0.8
				c3-0.7,5.2,0.1,6.7,2.6l17.1,29.6c1.2,2,3,2.4,5.6,1.3l0.5-0.3l0.1-0.3l-17.7-30.7c-0.8-1.4-1.4-2.7-1.6-3.7
				c-0.6-2.9,0.5-5.2,3.3-6.8c1.4-0.8,2.7-1.4,3.9-1.8c2.6-0.8,4.9,0.5,6.9,3.8l16.3,28.2c1.2,2.1,3.1,2.6,5.7,1.5l0.6-0.3l0.1-0.3
				L945.6,59.8z M972.1,107c-0.1-0.2-0.3-0.3-0.6-0.1l-4.6,2.7c-0.4,0.2-0.3,0.4-0.2,0.6c0.1,0.1,0.2,0.3,0.6,0.1l2-1.1l4.1,7.2
				c0.2,0.3,0.4,0.3,0.6,0.2s0.3-0.3,0.1-0.6l-4.1-7.2l1.9-1.1C972.1,107.5,972.3,107.3,972.1,107z M963.4,122.3
				c0-0.1-0.1-0.1-0.2-0.2l-7.4-6.2l-0.8,0.5l1.6,9.5c0,0.1,0,0.2,0.1,0.2c0.1,0.3,0.4,0.2,0.5,0.1c0.2-0.1,0.2-0.3,0.2-0.5l-0.5-3
				l3.5-2l2.3,1.9c0.2,0.1,0.4,0.2,0.5,0.1C963.4,122.8,963.6,122.6,963.4,122.3z M1034,264.6c-2.1-3.7-4.2-6.5-6.3-8.2
				c-3.5-3-7.5-3.2-12-0.6c-3.1,1.8-5,4.1-5.7,6.7c-0.8,3.4,0.4,8,3.8,13.8l13,22.6c3.1,5.3,6.1,8.8,9,10.3c2.9,1.6,6.3,1.3,10-0.9
				c3.7-2.2,5.6-4.9,5.7-8.2c0.1-3.3-1.4-7.6-4.5-12.9L1034,264.6z M943,123.8c-0.1-0.3-0.3-0.4-0.6-0.3c-0.2,0.1-0.2,0.2-0.2,0.5
				l-0.4,5l-4.5-2.2c-0.2-0.1-0.4-0.1-0.5,0c-0.2,0.1-0.2,0.4,0,0.6l4.3,7.4c0.1,0.2,0.3,0.4,0.6,0.2c0.2-0.1,0.2-0.3,0.1-0.6
				l-3.8-6.6l4.1,2c0.1,0.1,0.2,0,0.3,0c0.1-0.1,0.2-0.1,0.2-0.2l0.3-4.6l3.8,6.6c0.1,0.3,0.3,0.4,0.6,0.3c0.2-0.1,0.3-0.4,0.1-0.6
				L943,123.8z M1283.9,712.8l0.1-12.8l-0.9,0.5l-0.1,11.6l-10.4-5.3l-0.9,0.5l11.3,5.8l4.4,7.4l0.8-0.5L1283.9,712.8z
				 M1242.9,642.3l-11-6.1l-6.5-10.9l-12.6,0.2l-11.1-6.1l3.8,6.3l-27.3,0.5l-6.1,11.1l-10.8,6.5l0.2,12.6l-6.1,11.1l6.3-3.8
				l0.5,27.3l11.1,6.1l6.5,10.8l12.6-0.2l11.1,6.1l-3.8-6.3l27.3-0.5l6.1-11l10.8-6.5l-0.2-12.6l6.1-11.1l-6.3,3.8L1242.9,642.3z
				 M928.5,135.7c-1.1-1.9-3-2.3-4.7-1.3c-1.7,1-2.3,2.8-1.2,4.8l1.3,2.3c1.1,1.9,3,2.3,4.7,1.3c1.7-1,2.3-2.8,1.2-4.8L928.5,135.7z
				 M906.4,125.7l-22.8-39.5c-1.7-1.5-3.4-1.7-5.2-0.7l-0.6,0.3l-0.1,0.3l22.3,38.5l1,1.3c1.6,1.1,3.3,1.1,5.3,0L906.4,125.7z
				 M911.9,141.9c-0.1-0.2-0.3-0.3-0.6-0.1l-5.2,3c-0.2,0.1-0.2,0.4,0,0.6l4.2,7.2c0.2,0.3,0.3,0.4,0.6,0.3l5.2-3
				c0.3-0.2,0.4-0.3,0.3-0.6c-0.1-0.2-0.3-0.3-0.6-0.1l-4.8,2.8l-2.1-3.6l3.3-1.9c0.3-0.2,0.4-0.3,0.3-0.6c-0.2-0.3-0.4-0.2-0.7-0.1
				l-3.3,1.9l-1.5-2.6l4.8-2.8C911.9,142.3,912,142.1,911.9,141.9z M1259.3,720.8c-1-1.7-2.3-2.6-3.8-2.6c-1.2,0-2.7,0.5-4.5,1.6
				l-5.5,3.3l10,16.6l0.8-0.5l-4.7-7.9l5-3c1.2-0.7,2.1-1.1,2.8-1.1c0.9-0.1,1.8,0.4,2.5,1.3c0.1,0.1,0.2,0.3,0.4,0.6
				c0.2,0.3,0.4,0.6,0.7,1.1l2.2,3.7l0.9-0.5l-1.9-3.2c-0.8-1.4-1.3-2.1-1.3-2.1c-1.1-1.5-2.5-2-4.1-1.5
				C1260.4,724.9,1260.6,723,1259.3,720.8z M981.3,283.3l-2.9-5l-15.3,8.8l29.6,51.2l15.4-8.9l-2.9-5l-9.4,5.4L985,311.1l8.8-5.1
				l-2.9-5l-8.8,5.1L972,288.6L981.3,283.3z M896.7,152.1c-0.4-0.7-1-1.3-2.1-0.7l-1.8,1c-1.8,1-2.7,2-1.5,3.9l2.1,3.6
				c1.1,1.9,2.4,1.6,4.1,0.7l1.9-1.1c1.2-0.7,0.9-1.5,0.5-2.1l-1.4-2.4l-2.3,1.4c-0.3,0.2-0.4,0.3-0.3,0.6c0.1,0.2,0.3,0.2,0.6,0.1
				l1.7-1l1,1.7c0.3,0.6,0.3,0.9-0.3,1.2l-1.8,1c-1.5,0.9-2.2,1.1-3-0.4l-2.1-3.6c-0.9-1.5-0.3-2,1.3-2.9l1.7-1
				c0.6-0.3,0.8-0.2,1.2,0.4c0.2,0.3,0.4,0.4,0.6,0.2C896.9,152.6,896.9,152.4,896.7,152.1z M864.4,107.1c-0.9-1.6-2.1-2.9-3.5-4
				c-3.8-2.8-8-2.9-12.5-0.2l-11.4,6.6l-0.1,0.3l24.3,42l0.3,0.1l11.8-6.8c1.2-0.7,2.4-1.7,3.5-3c3-3.7,3-8.2,0-13.4L864.4,107.1z
				 M869.8,166c-0.1-0.2-0.4-0.2-0.5-0.1c-0.1,0-0.2,0.1-0.2,0.4l-0.5,4.8l-4.5-2c-0.2-0.1-0.3-0.1-0.5,0c-0.1,0.1-0.3,0.3-0.1,0.5
				c0.1,0.1,0.2,0.2,0.3,0.2l4.8,2.2l2.1,3.6c0.2,0.3,0.4,0.3,0.6,0.2c0.3-0.2,0.2-0.4,0.1-0.6l-2.1-3.6l0.5-5.2
				C869.9,166.2,869.9,166.1,869.8,166z M943.8,316.8c-2.1-3.7-4.2-6.5-6.3-8.2c-3.5-3-7.5-3.2-12-0.6c-3.1,1.8-5,4.1-5.7,6.7
				c-0.8,3.4,0.4,8,3.8,13.8l13,22.6c3.1,5.3,6.1,8.8,9,10.3c2.9,1.6,6.3,1.3,10-0.9c3.7-2.2,5.6-4.9,5.7-8.2
				c0.1-3.3-1.4-7.6-4.5-12.9l-7-12.1l-9.9,5.7l2.7,4.7l3.9-2.2l4.4,7.6c2.2,3.9,3.5,6.7,3.8,8.4s-0.4,3.1-2.1,4
				c-1.6,1-3.2,0.9-4.5-0.2c-1.4-1.1-3.2-3.6-5.4-7.5l-13.3-23c-1.8-3.2-2.9-5.7-3.1-7.4c-0.2-1.8,0.5-3.1,2.1-4
				c1.6-0.9,3-0.8,4.4,0.2c1.3,1.1,2.9,3.2,4.8,6.5l2.9,5l6-3.5L943.8,316.8z M859.2,182.3c-0.1-0.2-2.4-2.6-3.9-3
				c0.8-0.7,1-1.7,0.4-2.8c-0.9-1.6-2.2-1.4-3.9-0.4l-2.3,1.3c-0.2,0.1-0.2,0.4,0,0.6l4.3,7.4c0.2,0.3,0.4,0.3,0.6,0.2
				c0.3-0.2,0.2-0.4,0.1-0.6l-2.2-3.8l2.4-1.4c1.7,0.2,3.9,2.6,4,2.8c0.1,0.2,0.3,0.4,0.6,0.2C859.3,182.8,859.3,182.5,859.2,182.3z
				 M823.8,131.1c-0.5-0.8-1.2-1.8-2.1-3c-4.2-4-8.8-4.6-13.9-1.6l-1.6,0.9c-3.4,1.9-5.3,4.6-6,8c-0.6,2.3,0.4,5.7,3.1,10.3
				l10.9,18.9c1.5,2.5,3.1,4.4,5,5.6c3.8,1.9,7.2,2,10.2,0.3l4.2-2.5l1.2-1c4-4.2,4.5-9,1.5-14.2L823.8,131.1z M844.5,191
				c0-0.1-0.1-0.1-0.2-0.2l-7.4-6.2l-0.8,0.5l1.6,9.5c0,0.1,0,0.2,0.1,0.2c0.1,0.3,0.4,0.2,0.5,0.1c0.2-0.1,0.2-0.3,0.2-0.5l-0.5-3
				l3.5-2l2.3,1.9c0.2,0.1,0.4,0.2,0.5,0.1C844.5,191.5,844.7,191.3,844.5,191z M824.1,192.6c-0.1-0.2-0.3-0.4-0.6-0.2
				c-0.3,0.1-0.2,0.4-0.1,0.6l3.8,6.6l-8.5-4.1c-0.2-0.1-0.4-0.1-0.5,0c-0.2,0.1-0.2,0.4,0,0.6l4.3,7.4c0.1,0.2,0.3,0.4,0.6,0.2
				c0.2-0.1,0.3-0.3,0.1-0.6l-3.8-6.6l8.7,4.2c0.1,0,0.2,0,0.3-0.1c0.3-0.1,0.2-0.4,0.1-0.6L824.1,192.6z M1144.1,730.2l-3.6-6.1
				l-19.6,11.7l-7.2-11.9l19.1-11.5l-3.7-6.1l-19.1,11.5L1103,706l19.5-11.7l-3.6-6.1l-25.6,15.4l25.3,42.1L1144.1,730.2z
				 M780.2,147.4l-1.1-1.5c-1.5-1.1-3.2-1.2-5-0.1l-8.1,4.7c-1.4,0.8-2.6,1.8-3.5,2.9c-2.8,4.1-3.1,8.3-0.7,12.4l13.3,23.1
				c1.1,1.9,2.7,3.4,4.7,4.6c3.6,1.7,7.2,1.6,10.5-0.4l11.9-6.9l0.1-0.3l-0.5-0.9c-1.1-1.8-2.8-2.3-5.3-1.3l-7.1,4.1l-2,1.1
				c-3.4,1.4-6.1,0.4-7.9-2.8l-5.4-9.3l14.3-8.3l0.1-0.3l-0.4-0.8c-1.1-1.9-2.9-2.4-5.3-1.4l-11.2,6.5l-5.2-8.9
				c-0.8-1.6-1.2-2.5-1-2.8c-0.8-2.5,0.8-4.9,4.7-7.2l10.1-5.8l0.1-0.3L780.2,147.4z M892.7,336.6l-15.6,36l39,4.4
				c0,0-11.3-4.8-18.1-16.5C891.2,348.8,892.7,336.6,892.7,336.6z M809.9,204.2c-1.1-1.9-3-2.3-4.7-1.3c-1.7,1-2.3,2.8-1.2,4.8
				l1.3,2.3c1.1,1.9,3,2.3,4.7,1.3c1.7-1,2.3-2.8,1.2-4.8L809.9,204.2z M1015.1,551.5l-2.4-4.2l-17.6,10.2l16.7,28.9l17.6-10.2
				l-2.4-4.2l-13.4,7.8l-4.7-8.2l13.1-7.6l-2.4-4.2l-13.1,7.6l-4.7-8.1L1015.1,551.5z M858,361.6l23.3-31.6c0,0-9.8,7.4-23.4,7.4
				c-13.6,0-23.4-7.4-23.4-7.4L858,361.6z M916.1,390.2l-39,4.5l15.7,36c0,0-1.5-12.2,5.3-23.9C904.8,395,916.1,390.2,916.1,390.2z
				 M792.7,210.7c-0.2-0.4-0.4-0.3-0.6-0.2c-0.1,0.1-0.3,0.2-0.1,0.6l4.3,7.5c0.2,0.3,0.4,0.3,0.6,0.2c0.3-0.2,0.2-0.4,0.1-0.6
				L792.7,210.7z M783.3,218.6c-1.1-2-2.4-1.6-4.2-0.6l-1,0.6c-1.8,1-1.6,2.4-1.1,3.4c0.7,1.1,1.5,1.5,2.8,1.1l3.4-1.1
				c0.3-0.1,1.1,0.1,1.6,1c0.3,0.5,0.6,1.6-0.4,2.2l-1.3,0.8c-1.6,0.9-2.3,1.1-3.1-0.4c-0.1-0.3-0.4-0.3-0.6-0.2
				c-0.2,0.1-0.3,0.4-0.1,0.6c1.1,2,2.4,1.7,4.2,0.7l1.1-0.6c1.7-1,1.5-2.4,1-3.4c-0.5-0.9-1.5-1.7-2.9-1.3l-3.4,1.1
				c-0.5,0.1-1.1-0.2-1.5-0.9c-0.3-0.6-0.5-1.6,0.5-2.2l1.3-0.7c1.6-0.9,2.2-1.1,3.1,0.4c0.1,0.3,0.4,0.3,0.6,0.2
				C783.4,219.1,783.5,218.9,783.3,218.6z M737.7,167.1l-0.3-0.1l-11.4,6.6c-1.2,0.7-2.3,1.6-3.4,2.7c-3.2,4-3.4,8.4-0.7,13.2
				l12.6,21.8c0.7,1.2,1.4,2.2,2.3,3.1c4.1,3.8,8.6,4.4,13.4,1.6l2.8-1.6c1.9-1.1,3.2-2.6,4-4.6c1.4,0.8,3,0.6,4.9-0.5l0.1-0.3
				l-9.3-16.1c-1.7-2.4-3.6-3-5.6-1.8l-10.5,6.1l-0.1,0.3l0.4,0.7c1.2,2,2.9,2.5,5.4,1.4l5.6-3.2c0.5-0.3,1,0,1.5,0.8l2.6,4.4
				c0.6,1,0.9,1.9,1,2.8c0.4,2.6-0.9,4.8-3.7,6.4l-1.1,0.7c-0.9,0.5-2,0.9-3.2,1.1c-2.5,0.2-4.5-1-6-3.6l-12.5-21.6
				c-1-1.7-1.5-3.2-1.4-4.5c-0.1-2,1.5-4,4.9-6l6.8-3.9l0.7-0.5c1.4-1.6,1.7-3,0.9-4.3L737.7,167.1z M766.4,225.9
				c-0.2-0.4-0.4-0.3-0.6-0.2c-0.1,0.1-0.3,0.2-0.1,0.6l4.3,7.5c0.2,0.3,0.4,0.3,0.6,0.2c0.3-0.2,0.2-0.4,0.1-0.6L766.4,225.9z
				 M838.9,372.6l-15.7-36c0,0,1.5,12.2-5.3,23.9c-6.8,11.8-18.1,16.6-18.1,16.6L838.9,372.6z M982.2,603.4l-16.7-28.9l-3.3,1.9
				l-1.4,19.5l-17.6-8.5l-3.4,2l16.7,28.9l4.2-2.4l-11.8-20.4l10.1,4.9l-0.6,0.3l7.2,3.5l0.6-8l-0.6,0.3l0.8-11.2l11.8,20.4
				L982.2,603.4z M881.3,437.3l-23.4-31.6l-23.3,31.6c0,0,9.8-7.4,23.4-7.4C871.5,429.9,881.3,437.3,881.3,437.3z M756.4,231.4
				c-0.1-0.3-0.4-0.2-0.5-0.1c-0.2,0.1-0.2,0.3-0.2,0.5l1.4,8.6l-6.8-5.5c-0.2-0.1-0.4-0.2-0.5-0.1c-0.1,0.1-0.3,0.3-0.1,0.5
				c0,0.1,0.1,0.1,0.2,0.2l7.4,6.2l0.8-0.5l-1.6-9.5C756.4,231.5,756.4,231.5,756.4,231.4z M644.2,49.6c-0.2-0.3-0.4-0.6-0.6-0.8
				c-1.7-1.8-4.2-1-6.1-0.2c-1.5,0.7-3,1.4-3.9,0.1c-0.3-0.4-0.5-0.9-0.4-1.4c0.1-1,0.9-1.8,1.8-2.4c1.1-0.7,2.7-0.9,3.6,0.1
				l1.8-1.2c-1.7-2.2-4.4-2-6.4-0.9c-1.5,0.9-2.7,2.4-3,4c-0.1,1.1,0.1,2.1,0.7,2.9l0,0c1.8,2.6,4.4,1.7,6.6,0.7
				c1.4-0.6,2.8-1.2,3.6-0.4c0.1,0.1,0.2,0.3,0.3,0.4c0.8,1.3-0.3,3-1.7,3.8c-1.2,0.7-3.1,0.9-3.9-0.2l0,0.1l-0.2-0.3l-1.9,1.1
				l0.2,0.3c1.6,2.2,4.7,2,6.7,0.8C644,55,645.6,52.1,644.2,49.6z M823.2,430.7l15.6-36l-39-4.4c0,0,11.3,4.8,18.1,16.5
				C824.7,418.5,823.2,430.7,823.2,430.7z M621.3,61.4l-1.8,1.1c0.5,2.4-0.6,4.5-2.5,5.6c-1.3,0.7-2.7,0.8-4,0.5
				c-1.3-0.4-2.5-1.2-3.3-2.5c-0.8-1.3-0.9-2.8-0.6-4.1c0.3-1.3,1.2-2.5,2.4-3.3c1.9-1.1,4.1-1,5.9,0.5l1.9-1.1
				c-2.5-2.5-5.9-3-8.9-1.3c-1.8,1-2.9,2.7-3.4,4.6c-0.4,1.8-0.2,3.9,0.8,5.8c1,1.8,2.7,3,4.6,3.6c1.8,0.5,3.9,0.4,5.6-0.7
				C621.1,68.2,622.3,64.8,621.3,61.4z M593.2,69.3l-1.1-1.9l-6.7,3.9l1.1,1.9l2.4-1.4l5.4,9.3l-2.4,1.4l1.1,1.9l6.7-3.9l-1.1-1.9
				l-2.4,1.4l-5.4-9.3L593.2,69.3z M922.5,638l-16.7-28.9l-4.2,2.4l16.7,28.9L922.5,638z M563.1,40.5l-20.2-35l-4,2.3l-1.7,23.7
				l-21.4-10.3l-4.1,2.4l20.2,35l5.1-2.9L522.7,31l17,8.3l0.2-0.1l2.1,1l0.2-2.4l0.3-0.2l1.3-18.9l14.3,24.7L563.1,40.5z
				 M573.8,80.4l-1-1.8l-9.8,5.7l1,1.8l4-2.3l6.6,11.4l1.9-1.1l-6.6-11.4L573.8,80.4z M560.6,103.1l-12.9-10.2l-1.4,0.8l2.4,16.3
				l2-1.2c-0.2-1.3-0.5-3.3-0.7-4.7l4.7-2.7l3.8,2.9L560.6,103.1z M878.6,644.1c-4.2-7.2-13.1-11.7-22.6-6.2l-10.4,6l16.7,28.9
				l10.4-6C882.1,661.3,882.7,651.3,878.6,644.1z M536.2,117.2l-7.5-13.1l-1.5,0.9l-0.6,8.8l-8-3.9l-1.5,0.9l7.5,13.1l1.9-1.1
				l-5.3-9.2l6.3,3.1l1.1-0.6l0.5-7l5.3,9.2L536.2,117.2z M490.7,82.3l-20.2-35l-5.1,2.9l20.2,35L490.7,82.3z M507.4,125.1
				c-1.1-1.8-2.8-3.1-4.7-3.6c-1.9-0.5-4-0.3-5.9,0.8c-1.8,1.1-3.1,2.8-3.6,4.7c-0.5,1.9-0.3,4,0.8,5.8c1.1,1.8,2.8,3.1,4.7,3.6
				c1.9,0.5,4,0.3,5.8-0.7c1.8-1.1,3.1-2.8,3.6-4.7C508.7,129,508.5,126.9,507.4,125.1z M824.9,675.1c-2.4-4.1-6.2-6.8-10.3-8
				c-4.2-1.1-8.9-0.7-13,1.7c-4,2.3-6.8,6.2-7.9,10.4c-1,4.2-0.6,8.8,1.7,12.9s6.2,6.8,10.3,8c4.2,1.2,8.9,0.7,12.9-1.6
				c4.1-2.4,6.8-6.1,7.9-10.4C827.7,683.8,827.3,679.2,824.9,675.1z M479,135.4l-1.1-1.9l-7.9,4.6l7.5,13l8-4.6l-1.1-1.9l-6.1,3.5
				l-2.1-3.7l5.9-3.4l-1.1-1.9l-5.9,3.4l-2.1-3.7L479,135.4z M437.5,89.8c-5.1-8.8-15.9-14.2-27.3-7.6l-12.6,7.3l20.2,35l12.6-7.3
				C441.8,110.6,442.5,98.6,437.5,89.8z M460.9,152.3l-7,4.1l1.1,1.9l4.8-2.8c0.3,2.4-1,4.1-2.6,5c-2.6,1.5-5.7,0.6-7.3-2.2
				c-1.6-2.7-0.8-5.9,1.8-7.4c1.7-1,4.1-1.4,5.9,0.4l2-1.2c-2.7-3.1-6.5-2.6-9-1.2c-3.6,2.1-4.8,6.5-2.6,10.3
				c2.2,3.8,6.6,5,10.2,2.9c2.4-1.4,4.1-4.5,3.6-7.5l0,0C461.8,154.3,461.5,153.5,460.9,152.3z M671,507.7l-8.9-3.1
				c-1.8,4.8-5,6.9-7.1,8.2c-5.3,3.1-8.2,0.1-9.5-1.4l20-11.6c-0.8-4.4-4.3-8.9-6.3-10.7c-4.9-4.3-12.9-4.8-20.5-0.4
				c-9.6,5.5-13.5,16-7.5,26.4c7,12.2,18.8,12.1,26.7,7.5C664.4,518.9,668.6,514.5,671,507.7z M686.1,538.5
				c-0.1-0.3-0.4-0.5-0.6-0.8c-1.7-1.8-4.1-1-6-0.2c-1.4,0.7-3,1.3-3.8,0.1c-0.3-0.4-0.4-0.9-0.4-1.4c0.1-0.9,0.9-1.8,1.8-2.3
				c1.1-0.7,2.6-0.9,3.5,0.1l1.8-1.1c-1.7-2.1-4.3-2-6.3-0.8c-1.5,0.9-2.7,2.3-2.9,3.9c-0.1,1,0.1,2,0.7,2.8l0,0
				c1.7,2.5,4.3,1.6,6.4,0.7c1.3-0.6,2.8-1.2,3.5-0.4c0.1,0.1,0.2,0.3,0.3,0.4c0.8,1.3-0.3,2.9-1.7,3.7c-1.2,0.7-3,0.9-3.8-0.2
				l0,0.1l-0.2-0.3l-1.8,1.1l0.2,0.3c1.5,2.1,4.6,1.9,6.6,0.8C685.9,543.8,687.5,541,686.1,538.5z M671.1,545.8l-1.8,1
				c0.5,2.3-0.5,4.4-2.5,5.5c-1.2,0.7-2.6,0.8-3.9,0.4c-1.3-0.4-2.4-1.2-3.2-2.5c-0.8-1.3-0.9-2.7-0.6-4c0.3-1.3,1.1-2.5,2.3-3.2
				c1.9-1.1,4-1,5.8,0.5l1.8-1.1c-2.4-2.5-5.7-2.9-8.6-1.3c-1.7,1-2.9,2.6-3.3,4.4c-0.4,1.8-0.2,3.8,0.8,5.6c1,1.8,2.7,2.9,4.4,3.5
				c1.8,0.5,3.8,0.3,5.5-0.7C670.9,552.5,672.1,549.2,671.1,545.8z M762,697.8l-2.4-4.2L742,703.8l16.7,28.9l17.6-10.2l-2.4-4.2
				l-13.4,7.8l-4.7-8.2l13.1-7.6l-2.4-4.2l-13.1,7.6l-4.7-8.1L762,697.8z M650.9,549.3l-1.1-1.8l-6.6,3.8l1.1,1.8l2.4-1.4l5.2,9.1
				l-2.4,1.4l1.1,1.8l6.6-3.8l-1.1-1.8l-2.4,1.4l-5.2-9.1L650.9,549.3z M638.5,532.4l-5-8.6l-3.1,1.8l-5.1-8.8
				c-4.5-7.7-10.4-14.3-20.7-8.4c-4.4,2.5-6,6.6-6.7,10c-1.9-0.9-5.7-2.8-12.1,0.9c-4,2.3-4.9,7.4-5.3,9.2l-3.6-2.9l-12,6.9l4.8,8.4
				l2.7-1.5l8.7,15l-2.7,1.5l4.8,8.3l18.9-10.9l-4.8-8.3l-3.8,2.2l-6.5-11.3c-1.5-2.6-1.4-4.3,0.7-5.5c2.5-1.5,3.9,0.6,6.8,5.7
				l9.4,16.2l16.4-9.5l-4.9-8.5l-3.8,2.2l-5.9-10.3c-1.6-2.7-2-5,0.7-6.6c3-1.7,5.2,3.4,7,6.5l9,15.6L638.5,532.4z M415.7,179.7
				l0.4-10.5l-2.2,1.3l-0.3,7.8l-6.9-3.7l-2.2,1.3l9.3,4.9l3.1,5.3l1.9-1.1L415.7,179.7z M639.3,555.9l-1-1.7l-9.5,5.5l1,1.7
				l3.9-2.2l6.4,11.1l1.8-1.1l-6.4-11.1L639.3,555.9z M379.6,123.3c-9.6-16.6-30.3-22.7-47.2-14.4l-0.2,0.1
				c-12.6,6.3-14.3,21.2-14.3,21.3l0,0c0,0,11.3-9.7,24.3-10.5c14.8-0.9,38.6,9.3,38.1,29.3l-0.2,2.4c-0.6,4.6-2,9.1-4.2,13.1
				c0,0-0.1,0.1-0.1,0.1l0,0.1c0-0.1,0.1-0.1,0.1-0.2C385.5,153.4,387.5,136.9,379.6,123.3z M633.7,573.8l-12.6-9.9l-1.3,0.8
				l2.3,15.8l2-1.1c-0.2-1.3-0.5-3.2-0.6-4.6l4.6-2.6l3.7,2.9L633.7,573.8z M403,194.2l-7-2.5c2-1.7,2.1-4.1,1.1-5.9
				c-1.2-2.1-3.8-3.3-6.7-1.7l-4.8,2.8l7.5,13.1l1.9-1.1l-6.4-11.2l2.9-1.7c1.6-0.9,3-0.2,3.7,0.9c0.7,1.1,0.5,2.7-1.1,3.6l-2.2,1.3
				l0.5,0.9l8.1,3L403,194.2z M376.1,151.2L376.1,151.2c0,0-11.3,9.7-24.3,10.5c-14.8,0.9-38.6-9.3-38.1-29.3l0.2-2.4l0,0
				c0.6-4.6,2-9.1,4.2-13.1c0,0,0.1-0.1,0.1-0.1l0-0.1c0,0.1-0.1,0.1-0.1,0.2c-9.6,11.3-11.5,27.9-3.7,41.4
				c9.6,16.6,30.3,22.7,47.2,14.4l0.1-0.1C374.4,166.2,376.1,151.3,376.1,151.2z M617.2,583.3l-7.4-12.7l-1.5,0.8l-0.6,8.6l-7.8-3.8
				l-1.5,0.9l7.4,12.7l1.8-1.1l-5.2-9l6.2,3l1-0.6l0.5-6.9l5.2,9L617.2,583.3z M380.7,207l-12.9-10.2l-1.4,0.8l2.4,16.3l2-1.2
				c-0.2-1.3-0.5-3.3-0.7-4.7l4.7-2.7l3.8,2.9L380.7,207z M596.4,586.9c-1-1.8-2.7-3-4.6-3.5c-1.9-0.5-3.9-0.3-5.7,0.7
				c-1.8,1-3,2.7-3.5,4.6c-0.5,1.8-0.3,3.9,0.8,5.7c1,1.8,2.7,3,4.6,3.5c1.9,0.5,3.9,0.3,5.7-0.7c1.8-1,3-2.7,3.5-4.6
				C597.7,590.7,597.5,588.7,596.4,586.9z M579.6,566.4l-4.8-8.3l-3,1.8l-13.5-23.4l-14.7,8.5l4.8,8.3l2.7-1.5l8.8,15.2l-2.7,1.5
				l4.8,8.3L579.6,566.4z M553.7,526.7c-1.7-2.9-6.3-5-10.7-2.4c-4.4,2.6-4.8,7.5-3.1,10.4c1.8,3,6.6,4.8,10.6,2.4
				C554.9,534.5,555.7,530.1,553.7,526.7z M356.1,221.3l-7.5-13.1l-1.9,1.1l5.3,9.2l-11.7-5.5l-1.5,0.8l7.6,13.1l1.9-1.1l-5.3-9.1
				l11.6,5.5L356.1,221.3z M576,592.7l-1.1-1.8l-7.7,4.5l7.3,12.7l7.8-4.5l-1.1-1.8l-5.9,3.4l-2.1-3.6l5.8-3.3l-1.1-1.9l-5.8,3.3
				l-2.1-3.6L576,592.7z M219.1,8.8C217,5,214,3.3,211.5,2.5c-6-1.7-11.6,1.9-14.7,3.7c-1.9,1.1-3.8,2.3-4.2,2.6
				c-0.2,0.1-2.2,1.1-3.6,2c-0.3,0.2-0.5,0.4-0.4,0.5c0.1,0.1,0.2,0.1,0.4,0c0.3-0.2,0.8-0.4,1.1-0.5c1.2-0.4,1.7,0,2.4,1
				c0.6,1,1.2,1.9,4,6.8l3.2,5.6c1.8,3,3.2,5.5,3.8,6.9c0.4,1,0.6,1.8,0.1,2.3c-0.2,0.2-0.6,0.5-0.9,0.7c-0.2,0.1-0.2,0.2-0.1,0.3
				c0.1,0.2,0.3,0.2,0.7,0c0.5-0.3,1.2-0.8,1.8-1.1c0.6-0.4,1.2-0.7,1.2-0.8c0.2-0.1,1.3-0.6,2.7-1.3c1.4-0.7,3.1-1.6,4.5-2.3
				c5.4-3.1,6.9-6.9,7.5-9.2C221.6,16.8,221.4,12.8,219.1,8.8z M558.6,578.5l-4.8-8.3l-3,1.8l-22.7-39.4l-15.8,9.1l4.8,8.3l2.9-1.7
				l5.4,9.4c-1.6-0.1-4.9-0.4-9.4,2.2c-7.8,4.5-11.1,14.8-5.4,24.7c5.1,8.8,15.5,13.4,24.4,8.2c4.4-2.5,5.9-6.3,6.3-7.5l2.4,1.7
				L558.6,578.5z M565.7,605l-6.9,4l1.1,1.8l4.7-2.7c0.3,2.3-0.9,4-2.5,4.9c-2.5,1.4-5.6,0.6-7.1-2.1c-1.5-2.7-0.7-5.7,1.7-7.2
				c1.6-0.9,4-1.3,5.7,0.4l2-1.1c-2.6-3-6.3-2.5-8.7-1.1c-3.5,2-4.7,6.3-2.5,10.1c2.2,3.7,6.4,4.9,10,2.8c2.3-1.3,4-4.4,3.5-7.4l0,0
				C566.5,606.9,566.2,606.1,565.7,605z M445.8,407.3c-0.2-0.3-0.3-0.6-0.6-0.5c-0.2,0.1-0.2,0.3,0,0.8c0.7,1.8,0.6,2.9-0.1,3.9
				c-0.8,1-2.5,2.1-3.6,2.7c-3.9,2.3-4.8,2.1-6.5-0.6c-0.5-0.8-3.2-5.5-3.9-6.8l-2-3.5c-0.1-0.2-0.1-0.3,0.1-0.4
				c0.7-0.4,4.7-2.6,5.8-3.1c1.7-0.7,2.4-0.3,2.9,0.2c0.5,0.4,0.7,0.8,0.9,1.2c0.1,0.2,0.3,0.3,0.5,0.2c0.3-0.2,0-0.6-0.2-0.9
				c-0.2-0.3-0.9-1.8-1.3-2.6c-0.6-1.4-0.8-2.2-1-2.4c-0.1-0.2-0.3-0.3-0.4-0.2c-0.2,0.1-0.2,0.4-0.3,0.9c-0.1,0.6-0.6,1-1.6,1.6
				c-0.9,0.6-5.8,3.5-6.3,3.8c-0.2,0.1-0.3,0-0.5-0.3l-6.4-11c-0.2-0.3-0.2-0.4,0-0.5c0.4-0.3,4.8-2.7,5.5-3c2.3-1,3-0.8,3.6-0.3
				c0.5,0.4,0.9,1,1.1,1.3c0.2,0.3,0.4,0.5,0.6,0.3c0.2-0.1,0.1-0.4,0-0.6c-0.2-0.5-1.1-2.3-1.3-2.8c-0.5-1.2-0.6-1.8-0.8-2.1
				c-0.1-0.2-0.2-0.3-0.4-0.3c-0.2,0.1-0.3,0.4-0.4,0.5c-0.3,0.3-0.9,0.7-1.6,1.2c-0.9,0.6-8.8,5.2-9.1,5.3l-1.7,0.9
				c-0.9,0.5-2,1.1-2.9,1.6c-0.4,0.3-0.6,0.4-0.5,0.7c0.1,0.2,0.3,0.1,0.5,0.1c0.4-0.2,1.1-0.6,1.4-0.7c1.5-0.5,2.2,0,3,1.3
				c0.8,1.2,1.5,2.4,5.1,8.6l4.1,7c2.2,3.8,4,7,4.8,8.8c0.5,1.3,0.8,2.2,0.1,2.9c-0.3,0.3-0.7,0.6-1.1,0.9c-0.2,0.1-0.2,0.3-0.2,0.4
				c0.1,0.2,0.4,0.2,0.8,0c0.6-0.3,1.5-1,2.3-1.4c0.8-0.5,1.5-0.9,1.6-1c0.6-0.3,1.6-0.9,3.2-1.7c1.6-0.9,3.8-2.1,6.8-3.8
				c1.6-0.9,1.9-1.1,1.6-2.3C447.2,410.6,446,407.7,445.8,407.3z M329.5,227.9c-1.1-1.8-2.8-3.1-4.7-3.6c-1.9-0.5-4-0.3-5.9,0.8
				c-1.8,1.1-3.1,2.8-3.6,4.7c-0.5,1.9-0.3,4,0.8,5.8c1.1,1.8,2.8,3.1,4.7,3.6c1.9,0.5,4,0.3,5.8-0.7c1.8-1.1,3.1-2.8,3.6-4.7
				C330.7,231.9,330.6,229.8,329.5,227.9z M281.4,163.4l-2.9-5.1l-21.3,12.3l20.2,35l21.4-12.3l-2.9-5.1l-16.3,9.4l-5.7-9.9
				l15.9-9.2l-2.9-5.1l-15.9,9.2l-5.7-9.9L281.4,163.4z M536.2,623.3l0.4-10.3l-2.2,1.3l-0.2,7.6l-6.7-3.6l-2.2,1.3l9.1,4.8l3,5.2
				l1.9-1.1L536.2,623.3z M301.6,237.8l-1.1-1.9l-6.7,3.9l1.1,1.9l2.4-1.4l5.4,9.3l-2.4,1.4l1.1,1.9l6.7-3.9l-1.1-1.9l-2.4,1.4
				l-5.4-9.3L301.6,237.8z M531,633.2l-6.8-2.5c2-1.6,2.1-4,1-5.8c-1.2-2-3.7-3.3-6.5-1.7l-4.6,2.7l7.4,12.7l1.8-1.1l-6.3-10.9
				l2.8-1.6c1.5-0.9,3-0.2,3.6,0.9c0.6,1.1,0.5,2.7-1,3.6l-2.1,1.2l0.5,0.9l7.9,2.9L531,633.2z M508.9,586.3
				c-6.3-10.5-17.2-12.2-27.3-6.6c-8.8,5.1-13.9,15.9-7.9,26.6c6.4,11.3,18.4,11.8,27.4,6.6C510.8,607.3,515.1,596.7,508.9,586.3z
				 M165.8,39.3c-4.2-7.3-12.1-8.8-19.2-4.7c-8.7,5-8.3,14.4-5.3,19.5c3.3,5.7,10.8,10.3,19.4,5.3C168.3,55.1,169.9,46.4,165.8,39.3
				z M286,256.6c-0.2-0.3-0.4-0.6-0.6-0.8c-1.7-1.8-4.2-1-6.1-0.2c-1.5,0.7-3,1.4-3.9,0.1c-0.3-0.4-0.5-0.9-0.4-1.4
				c0.1-1,0.9-1.8,1.8-2.4c1.1-0.7,2.7-0.9,3.6,0.1l1.8-1.2c-1.7-2.2-4.4-2-6.4-0.9c-1.5,0.9-2.7,2.4-3,4c-0.1,1.1,0.1,2.1,0.7,2.9
				l0,0c1.8,2.6,4.4,1.7,6.6,0.7c1.4-0.6,2.8-1.2,3.6-0.4c0.1,0.1,0.2,0.3,0.3,0.4c0.8,1.3-0.3,3-1.7,3.8c-1.2,0.7-3.1,0.9-3.9-0.2
				l0,0.1l-0.2-0.3l-1.9,1.1l0.2,0.3c1.6,2.2,4.7,2,6.7,0.8C285.8,262,287.5,259.1,286,256.6z M516.5,641.5l-12.6-9.9l-1.3,0.8
				l2.3,15.8l2-1.1c-0.2-1.3-0.5-3.2-0.6-4.6l4.6-2.6l3.7,2.9L516.5,641.5z M395,442.6c-0.1-0.2-0.2-0.1-0.4,0
				c-0.4,0.2-1.4,0.8-2.8,1.1c-2,0.4-3.6-1.6-4.6-3l-16.9-23c-0.5-0.7-0.8-1-1.1-0.8c-0.3,0.2-0.3,0.5-0.2,1l2.8,31.9L345,431.8
				c-0.5-0.3-0.7-0.4-0.9-0.3c-0.2,0.1-0.2,0.5,0,1l12.2,27.7c0.7,1.6,1.5,3.2,0.3,4.2c-0.5,0.5-0.8,0.6-1.1,0.8
				c-0.2,0.1-0.4,0.3-0.3,0.4c0.2,0.3,0.5,0.2,0.9,0c1.1-0.6,2.9-1.9,3.3-2.1c0.3-0.2,2.3-1.2,3.8-2c0.5-0.3,0.7-0.5,0.5-0.8
				c-0.1-0.1-0.3-0.1-0.4,0c-0.2,0.1-0.9,0.4-1.6,0.7c-0.7,0.2-1.4,0-1.8-0.6c-0.4-0.7-0.8-1.4-1.1-2.1l-9.1-19.5l0.2-0.1
				c1.1,0.8,11.1,7.8,11.9,8.3c0.4,0.3,7.9,5.2,10,6.6c1.6,1,2,1.3,2.3,1.1c0.4-0.2,0.3-0.6,0.1-2.9l-2.2-26.4l0.1-0.1l13.9,19.6
				c0.5,0.7,0.8,1.4,0.7,1.5c-0.2,0.2-0.2,0.3-0.1,0.4c0.1,0.2,0.4,0.2,1.3-0.2c1.5-0.7,5.9-3.2,6.8-3.7
				C394.9,443.2,395.2,442.9,395,442.6z M499.8,651.2l-7.4-12.7l-1.8,1.1l5.2,9l-11.4-5.4l-1.4,0.8l7.4,12.7l1.8-1.1l-5.1-8.9
				l11.3,5.3L499.8,651.2z M233.1,208.9l-18.9,10.9l8,2.1l7.9-4.5c0.8,6.3-2.6,11-6.9,13.5c-6.9,4-15.3,1.6-19.6-5.8
				c-4.3-7.4-2-15.8,4.8-19.7c4.5-2.6,11-3.6,15.7,1.2l5.4-3.1c-7.2-8.2-17.3-7-24-3.1c-9.7,5.6-12.9,17.4-6.9,27.7
				c6,10.3,17.6,13.4,27.4,7.8c6.4-3.7,11.1-12.1,9.6-20.2l0,0C235.4,214.1,234.6,212,233.1,208.9z M478.1,619.2l-8.9-3.1
				c-1.8,4.8-5,6.9-7.1,8.2c-5.3,3.1-8.2,0.1-9.5-1.4l20-11.6c-0.8-4.4-4.3-8.9-6.3-10.7c-4.9-4.3-12.9-4.8-20.5-0.4
				c-9.6,5.5-13.5,16-7.5,26.4c7,12.2,18.8,12.1,26.7,7.5C471.6,630.4,475.8,626,478.1,619.2z M259.7,262.1l-1.1-1.9l-6.7,3.9
				l1.1,1.9l2.4-1.4l5.4,9.3l-2.4,1.4l1.1,1.9l6.7-3.9l-1.1-1.9l-2.4,1.4l-5.4-9.3L259.7,262.1z M481.2,653.5c-1-1.8-2.7-3-4.6-3.5
				c-1.9-0.5-3.9-0.3-5.7,0.7c-1.8,1-3,2.7-3.5,4.6c-0.5,1.8-0.3,3.9,0.8,5.7s2.7,3,4.6,3.5c1.9,0.5,3.9,0.3,5.7-0.7
				c1.8-1,3-2.7,3.5-4.6C482.4,657.3,482.2,655.3,481.2,653.5z M242,287.2l-2.3-16.1l-2,1.2l1.7,12l-9.5-7.5l-2.1,1.2l12.8,10.1
				L242,287.2z M116.4,79.5c-0.1-0.2-0.3-0.5-0.5-0.4c-0.2,0.1-0.1,0.3,0,0.6c0.5,1.4,0.5,2.3-0.1,3.1c-0.6,0.8-2,1.6-2.8,2.1
				c-3.1,1.8-3.8,1.6-5.2-0.5c-0.4-0.6-2.5-4.3-3.1-5.4l-1.6-2.8c-0.1-0.1-0.1-0.3,0.1-0.3c0.5-0.3,3.7-2.1,4.6-2.4
				c1.3-0.6,1.9-0.2,2.3,0.2c0.4,0.3,0.5,0.7,0.7,1c0.1,0.2,0.2,0.2,0.4,0.2c0.2-0.1,0-0.5-0.1-0.7c-0.1-0.2-0.7-1.4-1-2.1
				c-0.5-1.1-0.7-1.7-0.8-1.9c-0.1-0.2-0.2-0.2-0.3-0.2c-0.1,0.1-0.2,0.3-0.2,0.7c-0.1,0.5-0.5,0.8-1.2,1.3c-0.7,0.5-4.6,2.7-5,3
				c-0.2,0.1-0.2,0-0.4-0.2l-5-8.7c-0.1-0.2-0.1-0.4,0-0.4c0.3-0.2,3.8-2.2,4.4-2.4c1.8-0.8,2.3-0.6,2.9-0.2c0.4,0.3,0.7,0.8,0.8,1
				c0.1,0.3,0.3,0.4,0.5,0.3c0.1-0.1,0.1-0.3,0-0.5c-0.2-0.4-0.9-1.8-1-2.2c-0.4-0.9-0.5-1.4-0.6-1.6c-0.1-0.2-0.2-0.3-0.3-0.2
				c-0.2,0.1-0.2,0.3-0.4,0.4c-0.2,0.2-0.7,0.6-1.3,0.9c-0.7,0.5-7,4.1-7.2,4.2l-1.3,0.7c-0.7,0.4-1.6,0.9-2.3,1.3
				c-0.3,0.2-0.5,0.4-0.4,0.5c0.1,0.1,0.2,0.1,0.4,0c0.3-0.2,0.8-0.4,1.1-0.5c1.2-0.4,1.7,0,2.4,1c0.6,1,1.2,1.9,4,6.8l3.2,5.6
				c1.8,3,3.2,5.5,3.8,6.9c0.4,1,0.6,1.8,0.1,2.3c-0.2,0.2-0.6,0.5-0.9,0.7c-0.2,0.1-0.2,0.2-0.1,0.3c0.1,0.2,0.3,0.2,0.7,0
				c0.5-0.3,1.2-0.8,1.8-1.1c0.6-0.4,1.2-0.7,1.2-0.8c0.5-0.3,1.2-0.7,2.5-1.3c1.2-0.7,3-1.6,5.4-3c1.2-0.7,1.5-0.9,1.2-1.8
				C117.5,82,116.5,79.7,116.4,79.5z M461.3,658.9l-1.1-1.8l-6.6,3.8l1.1,1.8l2.4-1.4l5.2,9.1l-2.4,1.4l1.1,1.8l6.6-3.8l-1.1-1.8
				l-2.4,1.4l-5.2-9.1L461.3,658.9z M436.5,627.9l-3.9-6.8l-21.1,12.2l3.9,6.8l3.9-2.2l1.5,2.7c0,2.2-0.7,4.5-4.3,6.6
				c-5.5,3.2-11.7-0.2-15.4-6.7c-3.7-6.3-3.3-14,1.8-17c3.7-2.2,8.7-1.2,11.9,3.9l11.4-6.6l-10.8-18.7l-9.5,5.5l1.3,5.3
				c-1.6-0.4-6.3-3.5-15.5,1.8c-9.9,5.7-14,20.8-6,34.6c7.9,13.7,21.7,17.2,32.8,10.8c4.9-2.8,7.5-7.3,7.6-10.5l4.3,2.9l12.7-7.3
				l-9.2-15.9L436.5,627.9z M453.4,673c-0.1-0.3-0.4-0.5-0.6-0.8c-1.7-1.8-4.1-1-6-0.2c-1.4,0.7-3,1.3-3.8,0.1
				c-0.3-0.4-0.4-0.9-0.4-1.4c0.1-0.9,0.9-1.8,1.8-2.3c1.1-0.7,2.6-0.9,3.5,0.1l1.8-1.1c-1.7-2.1-4.3-2-6.3-0.8
				c-1.5,0.9-2.7,2.3-2.9,3.9c-0.1,1,0.1,2,0.7,2.8l0,0c1.7,2.5,4.3,1.6,6.4,0.7c1.3-0.6,2.8-1.2,3.5-0.4c0.1,0.1,0.2,0.3,0.3,0.4
				c0.8,1.3-0.3,2.9-1.7,3.7c-1.2,0.7-3,0.9-3.8-0.2l0,0.1l-0.2-0.3l-1.8,1.1l0.2,0.3c1.6,2.1,4.6,1.9,6.6,0.8
				C453.2,678.3,454.8,675.5,453.4,673z M435,674.2l-1.1-1.8l-6.6,3.8l1.1,1.8l2.4-1.4l5.2,9.1l-2.4,1.4l1.1,1.8l6.6-3.8l-1.1-1.8
				l-2.4,1.4l-5.2-9.1L435,674.2z M317.9,487.2c-0.1-0.1-0.2-0.2-0.5-0.1c-0.4,0.2-1.3,0.6-1.9,0.9c-1.3,0.5-2-0.2-2.8-1.3
				c-1.2-1.6-3-4.7-5.2-8.6l-4.1-7c-3.6-6.2-4.2-7.4-4.9-8.7c-0.7-1.4-0.8-2.3,0.2-3.1c0.4-0.4,0.7-0.5,0.9-0.7
				c0.2-0.1,0.3-0.3,0.2-0.4c-0.1-0.2-0.4-0.2-0.8,0c-1.2,0.7-3.6,2.3-3.8,2.4c-0.2,0.1-2.8,1.5-4.1,2.2c-0.4,0.3-0.6,0.4-0.5,0.7
				c0.1,0.2,0.3,0.1,0.5,0.1c0.3-0.2,0.8-0.4,1.3-0.6c1-0.3,1.8,0.1,2.7,1.5c0.8,1.2,1.5,2.4,5.1,8.6l4.1,7c2.2,3.8,4,7,4.8,8.8
				c0.5,1.3,0.8,2.2,0.1,2.9c-0.3,0.3-0.7,0.6-1.1,0.9c-0.2,0.1-0.3,0.3-0.2,0.4c0.1,0.2,0.4,0.2,0.8-0.1c1.2-0.7,3.6-2.3,3.8-2.4
				c0.2-0.1,2.8-1.5,5-2.7C317.9,487.6,318,487.4,317.9,487.2z M425,694.5l-2.3-15.7l-2,1.1l1.7,11.7l-9.3-7.3l-2,1.2l12.5,9.8
				L425,694.5z M68.1,97c-0.1-0.2-0.3-0.2-0.7,0c-0.9,0.5-2.9,1.8-3,1.9c-0.2,0.1-2.2,1.1-3.6,2c-0.3,0.2-0.5,0.4-0.4,0.5
				c0.1,0.1,0.2,0.1,0.4,0c0.3-0.2,0.8-0.4,1.1-0.5c1.5-0.4,1.8-0.1,3.3,2.4l3.1,5.4c0.3,0.5,0.3,1,0,1.5c-0.5,0.9-2.1,2.1-3.2,2.7
				c-2.9,1.7-6.3,2.4-10.2,1.4c-1.7-0.4-5.8-2.4-8.4-6.8c-2.1-3.7-2.5-7.3-1.5-9.8c1.3-3.3,3.6-4.8,5.5-6c4.1-2.4,7.4-2.5,8.9-1.7
				c0.9,0.5,1.6,1.3,1.9,1.7c0.2,0.3,0.3,0.4,0.5,0.3c0.2-0.1,0.2-0.3-0.1-0.8c-1.8-3.2-2.1-4.2-2.4-4.6c-0.1-0.1-0.2-0.2-0.5-0.1
				c-0.8,0.4-2,0.9-2.7,1.2c-0.7,0.2-3.1,1.1-5.1,2.3c-2.4,1.4-5.4,3.4-7.2,6.8c-1.8,3.4-2.2,8.4,0.7,13.4c2.3,3.9,6.1,6.3,8.9,6.8
				c5.3,1,9.9-1.2,12.3-2.6c1.8-1.1,4.5-3,5.9-5.3c0.3-0.4,0.2-0.5-0.6-1.9l-2-3.5c-0.8-1.3-1.3-2.3-1.8-3.3
				c-0.6-1.1-0.6-1.8,0.1-2.5c0.3-0.3,0.5-0.4,0.7-0.5C68.1,97.2,68.2,97.1,68.1,97z M195.1,425.3l25-33.7c0,0-10.5,7.9-25,7.9
				c-14.5,0-25-7.9-25-7.9L195.1,425.3z M245.9,436.3l-41.7,4.8l16.7,38.5c0,0-1.6-13,5.6-25.6S245.9,436.3,245.9,436.3z M260.7,500
				c-2.7-4.8-6.5-7-9.7-7.9c-7.6-2.2-14.7,2.4-18.7,4.7c-2.4,1.4-4.8,3-5.3,3.2c-0.2,0.1-2.8,1.5-4.6,2.5c-0.4,0.3-0.6,0.4-0.5,0.7
				c0.1,0.2,0.3,0.1,0.5,0.1c0.4-0.2,1.1-0.6,1.4-0.7c1.5-0.5,2.2,0,3,1.3c0.8,1.2,1.5,2.4,5.1,8.6l4.1,7c2.2,3.8,4,7,4.8,8.8
				c0.5,1.3,0.8,2.2,0.1,2.9c-0.3,0.3-0.7,0.6-1.1,0.9c-0.2,0.1-0.2,0.3-0.2,0.4c0.1,0.2,0.4,0.2,0.8,0c0.6-0.3,1.5-1,2.3-1.4
				c0.8-0.5,1.5-0.9,1.6-1c0.2-0.1,1.6-0.8,3.5-1.7c1.8-0.9,4-2,5.7-3c6.8-3.9,8.8-8.8,9.5-11.6C263.8,510.1,263.6,505.1,260.7,500z
				 M186,430.5L169.3,392c0,0,1.6,13-5.6,25.6c-7.2,12.6-19.3,17.7-19.3,17.7L186,430.5z M220,480.1l-25-33.7l-24.9,33.7
				c0,0,10.5-7.9,25-7.9C209.6,472.2,220,480.1,220,480.1z M193.1,538.7c-5.4-9.3-15.4-11.1-24.4-5.9c-11,6.4-10.5,18.2-6.7,24.7
				c4.2,7.2,13.6,13.1,24.6,6.7C196.3,558.7,198.3,547.7,193.1,538.7z M130.5,589.6c-0.2-0.3-0.3-0.6-0.6-0.5
				c-0.2,0.1-0.2,0.3,0,0.8c0.7,1.8,0.6,2.9-0.1,3.9c-0.8,1-2.5,2.1-3.6,2.7c-3.9,2.3-4.8,2.1-6.5-0.6c-0.5-0.8-3.2-5.5-3.9-6.8
				l-2-3.5c-0.1-0.2-0.1-0.3,0.1-0.4c0.7-0.4,4.7-2.6,5.8-3.1c1.7-0.7,2.4-0.3,2.9,0.2c0.5,0.4,0.7,0.8,0.9,1.2
				c0.1,0.2,0.3,0.3,0.5,0.2c0.3-0.2,0-0.6-0.2-0.9c-0.2-0.3-0.9-1.8-1.3-2.6c-0.6-1.4-0.8-2.2-1-2.4c-0.1-0.2-0.3-0.3-0.4-0.2
				c-0.2,0.1-0.2,0.4-0.3,0.9c-0.1,0.6-0.6,1-1.6,1.6c-0.9,0.6-5.8,3.5-6.3,3.8c-0.2,0.1-0.3,0-0.5-0.3l-6.4-11
				c-0.2-0.3-0.2-0.4,0-0.5c0.4-0.3,4.8-2.7,5.5-3c2.3-1,3-0.8,3.6-0.3c0.5,0.4,0.9,1,1.1,1.3c0.2,0.3,0.4,0.5,0.6,0.3
				c0.2-0.1,0.1-0.4,0-0.6c-0.2-0.5-1.1-2.3-1.3-2.8c-0.5-1.2-0.6-1.8-0.8-2.1c-0.1-0.2-0.2-0.3-0.4-0.3c-0.2,0.1-0.3,0.4-0.4,0.5
				c-0.3,0.3-0.9,0.7-1.6,1.2c-0.9,0.6-8.8,5.2-9.1,5.3l-1.7,0.9c-0.9,0.5-2,1.1-2.9,1.6c-0.4,0.3-0.6,0.4-0.5,0.7
				c0.1,0.2,0.3,0.1,0.5,0.1c0.4-0.2,1.1-0.6,1.4-0.7c1.5-0.5,2.2,0,3,1.3c0.8,1.2,1.5,2.4,5.1,8.6l4.1,7c2.2,3.8,4,7,4.8,8.8
				c0.5,1.3,0.8,2.2,0.1,2.9c-0.3,0.3-0.7,0.6-1.1,0.9c-0.2,0.1-0.3,0.3-0.2,0.4c0.1,0.2,0.4,0.2,0.8,0c0.6-0.3,1.5-1,2.3-1.4
				c0.8-0.5,1.5-0.9,1.6-1c0.6-0.3,1.6-0.9,3.2-1.7c1.6-0.9,3.8-2.1,6.8-3.8c1.6-0.9,1.9-1.1,1.6-2.3
				C131.9,592.8,130.7,589.9,130.5,589.6z M69.4,611.7c-0.1-0.2-0.4-0.2-0.8,0.1c-1.2,0.7-3.6,2.3-3.8,2.4c-0.2,0.1-2.8,1.5-4.6,2.5
				c-0.4,0.3-0.6,0.4-0.5,0.7c0.1,0.2,0.3,0.1,0.5,0.1c0.4-0.2,1.1-0.6,1.4-0.7c1.9-0.5,2.3-0.2,4.2,3.1l3.9,6.8
				c0.4,0.7,0.4,1.3,0,1.9c-0.7,1.2-2.6,2.6-4.1,3.5c-3.7,2.1-8,3-12.9,1.8c-2.2-0.6-7.4-3-10.6-8.6c-2.7-4.7-3.2-9.3-1.9-12.4
				c1.7-4.2,4.5-6.1,7-7.6c5.2-3,9.4-3.1,11.3-2.2c1.2,0.6,2,1.6,2.4,2.2c0.2,0.3,0.4,0.6,0.6,0.4c0.3-0.2,0.2-0.4-0.1-1
				c-2.3-4-2.7-5.3-3-5.8c-0.1-0.2-0.3-0.3-0.7-0.1c-1,0.5-2.5,1.2-3.5,1.5c-0.9,0.3-4,1.4-6.5,2.9c-3.1,1.8-6.9,4.3-9.2,8.7
				c-2.3,4.3-2.8,10.6,0.9,17c2.9,5,7.7,7.9,11.3,8.6c6.7,1.3,12.6-1.6,15.6-3.3c2.3-1.3,5.7-3.9,7.4-6.7c0.3-0.6,0.3-0.7-0.7-2.5
				l-2.6-4.5c-1-1.7-1.7-2.9-2.3-4.2c-0.7-1.4-0.8-2.3,0.2-3.1c0.4-0.4,0.7-0.5,0.9-0.7C69.4,612.1,69.5,611.9,69.4,611.7z"/>
			<polygon fill="#D56100" points="656.2,215.8 684,264.1 684,264.1 			"/>
			<path fill="#008080" d="M8.6,364.7c-2.6,1.1-4.4,0.6-5.7-1.5l-2.9-5l0-10l9.2,15.9l-0.1,0.3L8.6,364.7z"/>
			<polygon fill="#D56100" points="616.7,224.5 656.3,247.8 656.3,254.4 639.5,244.7 639.5,244.5 639.3,302.5 616.7,224.5 			"/>
			<polygon fill="#FFFFFF" points="0.9,389.2 4.8,392.3 1.8,394 			"/>
			<polygon fill="#FFFFFF" points="639.3,302.5 639.3,302.5 639.3,302.5 			"/>
			<polygon fill="#A84902" points="656.3,254.4 656.3,247.8 656.2,215.8 684,264.1 684,264.1 679.5,267.9 679.5,267.9 			"/>
			<polygon fill="#D56100" points="1203.2,398.2 1230.6,445.6 1226.2,445.1 1201.5,402.3 1203.2,398.2 			"/>
			<polygon fill="#008080" points="609.9,570.6 617.2,583.3 615.4,584.4 610.2,575.4 609.8,582.3 608.7,582.9 602.5,579.9 
				607.7,588.8 605.9,589.9 598.5,577.2 600,576.3 607.8,580.1 608.4,571.5 			"/>
			<path fill="#FFFFFF" d="M413.1,87.3c8.1-4.7,15.8-0.8,19.4,5.4c3.6,6.2,3.1,14.8-5,19.5l-7.5,4.3l-14.4-24.9L413.1,87.3z"/>
			<polygon fill="#D56100" points="1184.9,450.9 1185,450.9 1185,451 1184.9,451 1184.9,450.9 			"/>
			<path fill="#008080" d="M1398.1,110l0,2.6c-2,1-4.9,1.1-6.4-1l-0.2-0.3l1.9-1.1l0.2,0.3l0-0.1c0.8,1.1,2.7,0.9,3.9,0.2
				C1397.7,110.4,1397.9,110.2,1398.1,110z"/>
			<polygon fill="#D56100" points="1201.5,489 1203.3,493.1 1200.6,489.5 1201.2,489.5 			"/>
			<path fill="#008080" d="M621.2,563.9l12.6,9.9l-2,1.1l-3.7-2.9l-4.6,2.6c0.2,1.4,0.4,3.3,0.6,4.6l-2,1.1l-2.3-15.8L621.2,563.9z
				 M626.4,570.8l-4.2-3.6l1,5.4L626.4,570.8z"/>
			<path fill="#FFFFFF" d="M814,129.7c2-0.1,4,1.5,5.9,4.7l11.3,19.5c1.2,2.1,1.8,3.7,1.9,4.8c0.3,2.4-0.8,4.4-3.4,5.9l-1.5,0.9
				c-3.8,2.2-6.8,1.2-9.2-2.9l-12.6-21.8c-2.2-3.8-1.3-6.9,2.6-9.2l0.9-0.5C811.1,130.4,812.5,129.9,814,129.7z"/>
			<path fill="#008080" d="M257.7,1.4l2.3,0c-0.3,0.2-2.1,1.3-3,1.9c-0.3,0.2-0.5,0.2-0.7,0c-0.1-0.1,0-0.2,0.1-0.3
				c0.3-0.2,0.6-0.4,0.9-0.7C257.6,2,257.7,1.7,257.7,1.4z"/>
			<path fill="#008080" d="M1338.5,679.8c0.1,0.1,0.2,0.3,0.2,0.4c2.1,3.5,2.3,6.5,0.5,9c-0.7,1-1.6,1.8-2.7,2.5
				c-2.4,1.4-4.8,1.7-7.1,0.7c-2.1-0.9-3.9-2.6-5.4-5c-1.5-2.5-2.2-4.9-2-7.1c0.2-2.5,1.5-4.5,3.9-6c1.5-0.9,3-1.4,4.4-1.4
				c1.6,0,3,0.5,4.2,1.6l-0.5,0.8c-2.2-2-4.8-2.1-7.7-0.4c-2.1,1.3-3.3,3.1-3.4,5.4c-0.1,2,0.5,4.2,1.8,6.4c1.4,2.3,3,3.8,4.8,4.6
				c2.1,1,4.3,0.8,6.4-0.5c1.9-1.1,3-2.6,3.4-4.4c0.4-1.7,0-3.5-1.2-5.4l-0.4-0.7l-5.5,3.3l-0.4-0.7l6.2-3.7
				C1338.3,679.5,1338.4,679.6,1338.5,679.8z"/>
			<path fill="#008080" d="M669.3,546.9l1.8-1c0.9,3.3-0.2,6.6-3.2,8.3c-1.7,1-3.7,1.2-5.5,0.7c-1.8-0.5-3.4-1.7-4.4-3.5
				c-1-1.8-1.2-3.8-0.8-5.6c0.4-1.8,1.6-3.4,3.3-4.4c2.9-1.7,6.3-1.2,8.6,1.3l-1.8,1.1c-1.8-1.5-3.9-1.6-5.8-0.5
				c-1.2,0.7-2,1.9-2.3,3.2c-0.3,1.3-0.2,2.7,0.6,4c0.7,1.3,1.9,2.1,3.2,2.5c1.3,0.4,2.7,0.3,3.9-0.4
				C668.8,551.2,669.8,549.2,669.3,546.9z"/>
			<polygon fill="#FFFFFF" points="1166.8,450.9 1150.3,489.1 1125.5,446.2 1166.8,450.9 1166.8,450.7 1166.8,450.9 			"/>
			<polygon fill="#008080" points="492.5,638.5 499.8,651.2 498.4,652 487.1,646.7 492.2,655.6 490.4,656.6 483,643.9 484.5,643.1 
				495.8,648.5 490.7,639.5 			"/>
			<path fill="#FFFFFF" d="M805.5,203.6c1.5-0.9,2.8-0.4,3.7,1.1l1.3,2.3c0.9,1.5,0.5,2.9-0.9,3.7c-1.5,0.9-2.8,0.4-3.7-1.1
				l-1.3-2.3C803.8,205.8,804.1,204.4,805.5,203.6z"/>
			<path fill="#FFFFFF" d="M476.1,652c1.3,0.4,2.5,1.2,3.2,2.5c0.8,1.3,0.9,2.8,0.6,4.1c-0.4,1.3-1.2,2.6-2.5,3.3
				c-1.3,0.7-2.7,0.9-4.1,0.5c-1.3-0.4-2.5-1.2-3.3-2.5c-0.7-1.3-0.9-2.8-0.5-4.1c0.3-1.3,1.2-2.5,2.5-3.3
				C473.3,651.8,474.7,651.7,476.1,652z"/>
			<path fill="#008080" d="M1063.3,751.4l1.4-0.9c0.1,0.3,0.3,0.6,0.4,0.9L1063.3,751.4z"/>
			<polygon fill="#008080" points="617.4,2.4 620.3,7.5 598.9,19.8 588.3,1.4 596.3,1.4 595.4,1.9 601.1,11.8 			"/>
			<polygon fill="#D56100" points="1230.6,445.6 1230.6,445.6 1226.3,446.2 1226.5,445.7 1226.2,445.1 			"/>
			<polygon fill="#D56100" points="1121.1,445.7 1125.5,446.2 1150.3,489.1 1148.5,493.1 1148.5,493.1 			"/>
			<polygon fill="#D56100" points="1166.8,440.5 1166.8,450.7 1166.8,450.9 1125.5,446.2 1125.2,445.7 1125.5,445.2 			"/>
			<path fill="#008080" d="M476.6,650c1.8,0.5,3.5,1.7,4.6,3.5s1.2,3.9,0.8,5.7c-0.5,1.9-1.7,3.5-3.5,4.6c-1.8,1-3.8,1.2-5.7,0.7
				c-1.8-0.5-3.5-1.7-4.6-3.5s-1.2-3.9-0.8-5.7c0.5-1.9,1.7-3.5,3.5-4.6C472.7,649.7,474.8,649.5,476.6,650z M479.3,654.5
				c-0.8-1.3-1.9-2.2-3.2-2.5c-1.3-0.4-2.8-0.2-4.1,0.5c-1.3,0.7-2.1,1.9-2.5,3.3c-0.4,1.3-0.2,2.8,0.5,4.1c0.7,1.3,1.9,2.2,3.3,2.5
				c1.3,0.4,2.8,0.2,4.1-0.5c1.3-0.7,2.1-1.9,2.5-3.3C480.2,657.3,480.1,655.9,479.3,654.5z"/>
			<path fill="#008080" d="M1397.3,99.9l-1.8,1.2c-0.9-1-2.5-0.8-3.6-0.1c-0.9,0.5-1.7,1.4-1.8,2.4c-0.1,0.5,0.1,1,0.4,1.4
				c0.9,1.3,2.4,0.6,3.9-0.1c1.2-0.5,2.5-1,3.8-0.9l0,2.2c-0.8-0.2-1.9,0.3-2.9,0.8c-2.2,1-4.8,1.9-6.6-0.7l0,0
				c-0.6-0.8-0.9-1.8-0.7-2.9c0.2-1.6,1.4-3.1,3-4C1392.8,97.9,1395.5,97.7,1397.3,99.9z"/>
			<polygon fill="#D56100" points="1148.4,398.3 1150.2,402.3 1125.5,445.2 1121.1,445.7 1121.1,445.7 1148.4,398.3 			"/>
			<path fill="#008080" d="M1390.7,639c2.1,0.9,3.9,2.6,5.4,5.1c1.3,2.2,2,4.3,2,6.3c0,0.3,0,0.6,0,0.8c-0.3,2.5-1.7,4.5-4.1,5.9
				c-2.5,1.5-4.9,1.8-7.2,0.8c-2.1-0.8-3.9-2.5-5.4-5.1c-1.5-2.5-2.2-4.9-1.9-7.2c0.3-2.5,1.6-4.5,4.1-6
				C1386,638.3,1388.4,638.1,1390.7,639z M1397.2,651.1c0.2-2-0.5-4.2-1.8-6.5c-1.4-2.3-3-3.9-4.9-4.7c-2.1-0.9-4.3-0.7-6.5,0.6
				c-2.2,1.3-3.4,3.1-3.6,5.5c-0.2,2,0.5,4.2,1.8,6.5c1.4,2.3,3,3.9,4.9,4.7c2.1,0.9,4.3,0.7,6.5-0.6
				C1395.8,655.2,1397,653.4,1397.2,651.1z"/>
			<path fill="#D56100" d="M656.4,751.4l0.3-0.6c0,0,0,0.2-0.1,0.6L656.4,751.4z"/>
			<polygon fill="#A84902" points="342.1,726.3 341.7,751.4 306.2,751.4 294.5,731.2 332.5,731.9 			"/>
			<polygon fill="#D56100" points="1230.6,445.6 1230.6,445.7 1203.3,493.1 1201.5,489 1226.3,446.2 			"/>
			<path fill="#008080" d="M591.9,583.4c1.8,0.5,3.5,1.7,4.6,3.5c1,1.8,1.2,3.9,0.8,5.7c-0.5,1.9-1.7,3.5-3.5,4.6
				c-1.8,1-3.8,1.2-5.7,0.7c-1.8-0.5-3.5-1.7-4.6-3.5c-1-1.8-1.2-3.9-0.8-5.7c0.5-1.9,1.7-3.5,3.5-4.6
				C588,583.1,590,582.9,591.9,583.4z M594.6,587.9c-0.8-1.3-1.9-2.2-3.2-2.5c-1.3-0.4-2.8-0.2-4.1,0.5c-1.3,0.7-2.1,1.9-2.5,3.3
				c-0.4,1.3-0.2,2.8,0.5,4.1c0.7,1.3,1.9,2.2,3.3,2.5c1.3,0.4,2.8,0.2,4.1-0.5c1.3-0.7,2.1-1.9,2.5-3.3
				C595.5,590.7,595.3,589.3,594.6,587.9z"/>
			<path fill="#008080" d="M432.5,621.2l3.9,6.8l-2.5,1.5l9.2,15.9l-12.7,7.3l-4.3-2.9c0,3.2-2.7,7.7-7.6,10.5
				c-11.1,6.4-24.9,2.9-32.8-10.8c-8-13.8-3.9-28.9,6-34.6c9.2-5.3,13.9-2.3,15.5-1.8l-1.3-5.3l9.5-5.5l10.8,18.7l-11.4,6.6
				c-3.2-5-8.2-6-11.9-3.9c-5.1,3-5.5,10.6-1.8,17c3.7,6.5,9.9,9.8,15.4,6.7c3.6-2.1,4.3-4.4,4.3-6.6l-1.5-2.7l-3.9,2.2l-3.9-6.8
				L432.5,621.2z"/>
			<path fill="#D56100" d="M0,121.6L0,133"/>
			<polygon fill="#D56100" points="1148.4,398.3 1151.1,401.8 1150.5,401.8 1150.2,402.3 1148.4,398.3 			"/>
			<polygon fill="#D56100" points="1184.9,451 1201.5,489 1201.2,489.5 1200.6,489.5 1175.9,456.2 			"/>
			<path fill="#008080" d="M1060.3,743.8l-6.5,3.9c-5.8-5.8-13.7-4.4-19.1-1.1c-2.1,1.3-3.9,2.9-5.2,4.8l-8.2,0
				c1.9-4.4,5.3-8.2,9.7-10.9C1039.1,735.7,1051.3,734,1060.3,743.8z"/>
			<polygon fill="#D56100" points="1148.5,493.1 1148.5,493.1 1148.5,493.1 			"/>
			<path fill="#008080" d="M543,524.2c4.4-2.5,9-0.5,10.7,2.4c2,3.5,1.2,7.8-3.3,10.4c-4,2.3-8.8,0.6-10.6-2.4
				C538.2,531.7,538.5,526.8,543,524.2z"/>
			<polygon fill="#008080" points="1200.6,750.2 1201.3,751.4 1200.3,751.4 1199.8,750.6 			"/>
			<path fill="#FFFFFF" d="M858.4,642c6.7-3.9,13.1-0.7,16,4.5c3,5.1,2.5,12.2-4.2,16.1l-6.2,3.6l-11.9-20.5L858.4,642z"/>
			<polygon fill="#D56100" points="1184.9,440.5 1226.2,445.1 1226.5,445.7 1226.3,446.2 1185,450.9 1184.9,440.7 			"/>
			<path fill="#008080" d="M662.1,504.7l8.9,3.1c-2.3,6.8-6.6,11.2-13.2,15c-7.9,4.5-19.7,4.7-26.7-7.5c-6-10.4-2.1-20.9,7.5-26.4
				c7.6-4.4,15.6-3.8,20.5,0.4c2,1.8,5.6,6.3,6.3,10.7l-20,11.6c1.4,1.5,4.2,4.5,9.5,1.4C657.1,511.6,660.3,509.5,662.1,504.7z
				 M642,505l9.6-5.5c-1.5-2.4-3.6-4.7-7.6-2.4C640.1,499.4,641.2,503.4,642,505z"/>
			<polygon fill="#FFFFFF" points="505,634.9 509.2,638.5 506,640.3 			"/>
			<path fill="#008080" d="M685.5,537.7c0.2,0.2,0.4,0.5,0.6,0.8c1.4,2.5-0.2,5.3-2.5,6.6c-2,1.1-5,1.3-6.6-0.8l-0.2-0.3l1.8-1.1
				l0.2,0.3l0-0.1c0.8,1.1,2.6,0.9,3.8,0.2c1.4-0.8,2.4-2.4,1.7-3.7c-0.1-0.1-0.2-0.3-0.3-0.4c-0.8-0.8-2.2-0.2-3.5,0.4
				c-2.1,0.9-4.7,1.9-6.4-0.7l0,0c-0.6-0.8-0.8-1.8-0.7-2.8c0.2-1.6,1.4-3.1,2.9-3.9c2-1.1,4.6-1.3,6.3,0.8l-1.8,1.1
				c-0.9-1-2.4-0.8-3.5-0.1c-0.8,0.5-1.6,1.3-1.8,2.3c-0.1,0.5,0.1,0.9,0.4,1.4c0.8,1.3,2.4,0.6,3.8-0.1
				C681.4,536.8,683.8,536,685.5,537.7z"/>
			<path fill="#D56100" d="M17.3,125.5L0,133l0-11.4c0.1,0,0.2,0.1,0.2,0.1C8.6,126.5,17.3,125.5,17.3,125.5z"/>
			<polygon fill="#D56100" points="1230.6,445.6 1230.6,445.6 1230.6,445.6 			"/>
			<polygon fill="#D56100" points="288.5,683.4 288.6,720.9 294.5,731.2 265.6,730.7 273.8,744.9 259.2,736.7 258.9,700.5 			"/>
			<path fill="#008080" d="M469.3,616.1l8.9,3.1c-2.3,6.8-6.6,11.2-13.2,15c-7.9,4.5-19.7,4.7-26.7-7.5c-6-10.4-2.1-20.9,7.5-26.4
				c7.6-4.4,15.6-3.8,20.5,0.4c2,1.8,5.6,6.3,6.3,10.7l-20,11.6c1.4,1.5,4.2,4.5,9.5,1.4C464.3,623,467.5,620.9,469.3,616.1z
				 M449.1,616.5l9.6-5.5c-1.5-2.4-3.6-4.7-7.6-2.4C447.2,610.8,448.3,614.8,449.1,616.5z"/>
			<path fill="#FFFFFF" d="M248.2,495.5c2.6,0.8,6.7,2.8,9.7,7.9c2.1,3.7,3.2,8.2,2.3,11.4c-1,3.7-3.6,7.1-7.4,9.2
				c-4.7,2.7-6.8,2.8-7.7,2.3c-0.6-0.3-1.6-1.8-2.2-2.8c-0.5-0.7-2.6-4.4-5.1-8.6l-2.9-5c-1.8-3.1-4.1-7.2-4.9-8.5
				c-0.3-0.4-0.2-0.7,0-1.1c0.2-0.3,1.6-1.3,2.4-1.8C237.2,495.8,242.1,493.7,248.2,495.5z"/>
			<polygon fill="#008080" points="536.6,613 536.2,623.3 539.2,628.5 537.3,629.5 534.3,624.3 525.3,619.5 527.4,618.3 
				534.1,621.9 534.4,614.3 			"/>
			<polygon fill="#FFFFFF" points="1200.6,401.8 1175.9,435.2 1175.8,435.2 1175.8,435.2 1151.1,401.8 			"/>
			<path fill="#008080" d="M452.8,672.2c0.2,0.2,0.4,0.5,0.6,0.8c1.4,2.5-0.2,5.3-2.5,6.6c-2,1.1-5,1.3-6.6-0.8l-0.2-0.3l1.8-1.1
				l0.2,0.3l0-0.1c0.8,1.1,2.6,0.9,3.8,0.2c1.4-0.8,2.4-2.4,1.7-3.7c-0.1-0.1-0.2-0.3-0.3-0.4c-0.8-0.8-2.2-0.2-3.5,0.4
				c-2.1,0.9-4.7,1.9-6.4-0.7l0,0c-0.6-0.8-0.8-1.8-0.7-2.8c0.2-1.6,1.4-3.1,2.9-3.9c2-1.1,4.6-1.3,6.3,0.8l-1.8,1.1
				c-0.9-1-2.4-0.8-3.5-0.1c-0.8,0.5-1.6,1.3-1.8,2.3c-0.1,0.5,0.1,0.9,0.4,1.4c0.8,1.3,2.4,0.6,3.8-0.1
				C448.7,671.3,451.1,670.5,452.8,672.2z"/>
			<path fill="#008080" d="M524.2,630.7l6.8,2.5l-2.4,1.4l-7.9-2.9l-0.5-0.9l2.1-1.2c1.5-0.9,1.7-2.4,1-3.6c-0.6-1.1-2-1.8-3.6-0.9
				l-2.8,1.6l6.3,10.9l-1.8,1.1l-7.4-12.7l4.6-2.7c2.8-1.6,5.3-0.4,6.5,1.7C526.3,626.7,526.2,629.1,524.2,630.7z"/>
			<polygon fill="#D56100" points="1201.2,401.8 1201.5,402.3 1184.9,440.5 1184.9,440.4 1175.9,435.2 1200.6,401.8 			"/>
			<path fill="#D56100" d="M0,152.4l0,11.4"/>
			<polygon fill="#FFFFFF" points="1398.1,31.4 1398.1,44.6 1394.6,46.6 1388.9,36.7 			"/>
			<polygon fill="#D56100" points="1121.1,445.7 1121.1,445.7 1121.1,445.7 			"/>
			<polygon fill="#008080" points="460.3,657.1 461.3,658.9 459,660.3 464.2,669.3 466.6,668 467.6,669.8 461.1,673.6 460,671.8 
				462.4,670.4 457.1,661.3 454.8,662.7 453.7,660.9 			"/>
			<path fill="#FFFFFF" d="M1023,261.3c1.3,1.1,2.9,3.2,4.8,6.5l13.3,23c2.2,3.9,3.5,6.7,3.8,8.4c0.3,1.7-0.4,3.1-2.1,4
				c-1.6,1-3.2,0.9-4.5-0.2c-1.4-1.1-3.2-3.6-5.4-7.5l-13.3-23c-1.8-3.2-2.9-5.7-3.1-7.4c-0.2-1.8,0.5-3.1,2.1-4
				C1020.2,260.1,1021.7,260.2,1023,261.3z"/>
			<path fill="#D56100" d="M656,750.4l-0.7,1l-0.7,0C655.5,750.8,656,750.4,656,750.4z"/>
			<line fill="#008080" x1="1398.1" y1="31.4" x2="1398.1" y2="24.6"/>
			<polygon fill="#D56100" points="330.8,647.9 320.3,648 315,638.8 			"/>
			<path fill="#D56100" d="M620.3,751.4l-0.7,0l-0.7-0.9C618.9,750.4,619.4,750.8,620.3,751.4z"/>
			<polygon fill="#D56100" points="1184.9,450.9 1184.9,451 1175.9,456.2 1175.9,456.1 1175.9,456.1 			"/>
			<polygon fill="#D56100" points="1175.8,456.2 1151.1,489.6 1150.6,489.6 1150.3,489.1 1166.8,450.9 1166.9,450.9 			"/>
			<polygon fill="#A84902" points="294.5,731.2 306.2,751.4 285.3,751.4 273.8,744.9 265.6,730.7 			"/>
			<line fill="#D56100" x1="0" y1="139.1" x2="0" y2="146.2"/>
			<path fill="#FFFFFF" d="M380.4,149.2l0.1-1.7c0,1.4-0.1,2.8-0.3,4.2C380.3,150.8,380.3,150,380.4,149.2z"/>
			<path fill="#FFFFFF" d="M147,35.8c5-2.9,11.9-1.5,16.3,6.1c5.3,9.2,0.4,14.2-2.5,15.9c-5.7,3.3-12.8,1.1-17.1-6.2
				C139.8,44.6,141.7,38.9,147,35.8z"/>
			<polygon fill="#FFFFFF" points="1218.1,646.7 1222.2,653.7 1222.4,682.2 1215.4,686.4 1186.9,686.5 1182.7,679.5 1182.6,651 
				1189.5,646.8 			"/>
			<path fill="#008080" d="M553.9,570.3l4.8,8.3l-14.9,8.6l-2.4-1.7c-0.4,1.2-1.9,5-6.3,7.5c-9,5.2-19.3,0.6-24.4-8.2
				c-5.7-9.9-2.4-20.2,5.4-24.7c4.5-2.6,7.7-2.3,9.4-2.2l-5.4-9.4l-2.9,1.7l-4.8-8.3l15.8-9.1l22.7,39.4L553.9,570.3z M533.3,582
				c2.5-1.4,3-5.9-0.2-10.7c-2.5-4.3-6.6-6.4-9-5c-2.7,1.5-2.7,5.7,0.1,10.5C526.5,580.6,530.5,583.6,533.3,582z"/>
			<polygon fill="#008080" points="1284.1,700.1 1283.9,712.8 1288.3,720.1 1287.6,720.6 1283.1,713.2 1271.9,707.4 1272.7,706.8 
				1283.1,712.2 1283.2,700.6 			"/>
			<polygon fill="#D56100" points="355.7,662.2 371.5,671.3 371.5,709.3 342.1,726.3 342.7,686.7 337.5,677.6 364.6,677.5 			"/>
			<polygon fill="#D56100" points="1203.2,398.2 1203.2,398.2 1203.2,398.2 			"/>
			<polygon fill="#FFFFFF" points="837.1,185.9 840.9,189 837.9,190.7 			"/>
			<polygon fill="#D56100" points="1175.9,435.2 1166.8,440.5 1166.8,440.4 1175.8,435.2 1175.9,435.2 			"/>
			<polygon fill="#D56100" points="1175.9,456.1 1175.9,456.2 1175.9,456.2 1175.8,456.2 1175.9,456.1 			"/>
			<line fill="#008080" x1="1398.1" y1="351.8" x2="1398.1" y2="338.9"/>
			<line fill="#008080" x1="1398.1" y1="320.4" x2="1398.1" y2="306.4"/>
			<path fill="#FFFFFF" d="M209.3,5.2c2.1,0.6,5.3,2.2,7.6,6.2c1.7,2.9,2.5,6.4,1.8,9c-0.8,2.9-2.9,5.6-5.8,7.3
				c-3.7,2.2-5.3,2.2-6.1,1.8c-0.5-0.2-1.2-1.4-1.7-2.2c-0.4-0.6-2.1-3.5-4-6.8l-2.3-3.9c-1.4-2.4-3.3-5.6-3.9-6.7
				c-0.2-0.3-0.2-0.6,0-0.8c0.2-0.3,1.3-1,1.9-1.4C200.6,5.4,204.5,3.8,209.3,5.2z"/>
			<polygon fill="#FFFFFF" points="337.5,677.6 342.7,686.7 342.1,726.3 332.5,731.9 294.5,731.2 288.6,720.9 288.5,683.4 
				298.3,677.7 			"/>
			<polygon fill="#D56100" points="1175.8,435.2 1175.8,435.2 1175.9,435.2 1175.9,435.2 1175.9,435.2 			"/>
			<path fill="#FFFFFF" d="M852.2,176.9c1.4-0.8,2.2-1.1,2.9,0.1c0.6,1.1,0.1,1.7-1.4,2.5l-1.9,1.1l-1.5-2.6L852.2,176.9z"/>
			<polygon fill="#D56100" points="1151.1,489.6 1148.5,493.1 1148.5,493.1 1150.3,489.1 1150.6,489.6 			"/>
			<polygon fill="#A84902" points="273.8,744.9 285.3,751.4 277.5,751.4 			"/>
			<path fill="#D56100" d="M0,152.4l17.3,7.5c0,0-8.7-1.1-17,3.8c-0.1,0.1-0.2,0.1-0.3,0.2L0,152.4z"/>
			<polygon fill="#008080" points="574.9,590.8 576,592.7 570.1,596.1 572.1,599.7 577.9,596.3 579,598.2 573.2,601.5 575.3,605.1 
				581.2,601.7 582.3,603.5 574.5,608 567.2,595.3 			"/>
			<path fill="#FFFFFF" d="M1395.3,644.6c1.4,2.3,2,4.5,1.8,6.5c-0.2,2.3-1.4,4.1-3.6,5.4c-2.2,1.3-4.4,1.5-6.5,0.6
				c-1.9-0.8-3.5-2.4-4.9-4.7c-1.4-2.3-2-4.5-1.8-6.5c0.2-2.3,1.4-4.1,3.6-5.5c2.2-1.3,4.4-1.5,6.5-0.6
				C1392.3,640.7,1393.9,642.3,1395.3,644.6z"/>
			<path fill="#FFFFFF" d="M324.3,226.4c1.3,0.4,2.6,1.2,3.3,2.6s0.9,2.8,0.6,4.2c-0.4,1.4-1.3,2.6-2.6,3.4
				c-1.3,0.7-2.8,0.9-4.2,0.5c-1.4-0.4-2.6-1.2-3.4-2.6c-0.8-1.3-0.9-2.8-0.6-4.2c0.4-1.4,1.2-2.6,2.5-3.3
				C321.3,226.2,322.9,226.1,324.3,226.4z"/>
			<polygon fill="#008080" points="433.9,672.3 435,674.2 432.6,675.5 437.8,684.6 440.2,683.2 441.3,685 434.7,688.8 433.6,687 
				436,685.6 430.8,676.6 428.4,677.9 427.3,676.1 			"/>
			<polygon fill="#D56100" points="1184.9,440.7 1185,450.9 1184.9,450.9 1184.9,450.9 			"/>
			<path fill="#008080" d="M1223.6,736.4l16.3,12.8l-0.8,0.5l-5.6-4.4l-7.8,4.7l0.2,1.4h-0.8l-2.5-14.5L1223.6,736.4z M1232.9,744.8
				l-9.2-7.2l2,11.6L1232.9,744.8z"/>
			<polygon fill="#D56100" points="1148.4,398.2 1148.4,398.3 1148.4,398.3 			"/>
			<path fill="#FFFFFF" d="M1337.2,326.9c1.3,1.1,2.9,3.3,4.9,6.6l13.4,23.2c2.3,3.9,3.5,6.7,3.8,8.5c0.3,1.8-0.4,3.1-2.1,4.1
				c-1.7,1-3.2,0.9-4.6-0.2c-1.4-1.1-3.2-3.6-5.5-7.6l-13.4-23.2c-1.9-3.2-2.9-5.7-3.1-7.5c-0.2-1.8,0.5-3.1,2.1-4.1
				C1334.4,325.7,1335.8,325.8,1337.2,326.9z"/>
			<polygon fill="#FFFFFF" points="1150.2,402.3 1166.8,440.4 1166.8,440.4 1166.8,440.5 1125.5,445.2 			"/>
			<path fill="#FFFFFF" d="M458.7,610.9l-9.6,5.5c-0.8-1.7-1.9-5.7,2-7.9C455.2,606.2,457.3,608.6,458.7,610.9z"/>
			<polygon fill="#A84902" points="342.1,726.3 371.5,709.3 371.5,719.7 357,744.8 345.7,751.4 341.7,751.4 			"/>
			<polygon fill="#008080" points="422.8,678.8 425,694.5 423.7,695.3 411.2,685.5 413.2,684.3 422.5,691.6 420.8,679.9 			"/>
			<path fill="#FFFFFF" d="M169.3,534.3c6.3-3.6,15.1-1.9,20.7,7.7c6.7,11.6,0.5,18-3.1,20.1c-7.2,4.2-16.2,1.4-21.6-7.9
				C160.2,545.5,162.6,538.2,169.3,534.3z"/>
			<path fill="#008080" d="M1250.8,374.6c2.1,1.8,4.2,4.6,6.3,8.3l2.7,4.7l-6.1,3.5l-2.9-5c-1.9-3.3-3.5-5.5-4.9-6.6
				c-1.3-1.1-2.8-1.1-4.4-0.2c-1.6,0.9-2.3,2.3-2.1,4.1c0.2,1.8,1.2,4.3,3.1,7.5l13.4,23.2c2.3,3.9,4.1,6.5,5.5,7.6
				c1.4,1.1,2.9,1.2,4.6,0.2c1.7-1,2.4-2.3,2.1-4.1c-0.3-1.8-1.6-4.6-3.8-8.5l-4.4-7.6l-3.9,2.3l-2.7-4.7l10-5.8l7.1,12.3
				c3.1,5.4,4.6,9.7,4.5,13.1c-0.1,3.3-2,6.1-5.8,8.3c-3.8,2.2-7.1,2.5-10.1,0.9c-3-1.6-6-5.1-9.1-10.4l-13.2-22.8
				c-3.4-5.9-4.7-10.5-3.8-13.9c0.7-2.7,2.6-4.9,5.8-6.8C1243.3,371.4,1247.3,371.6,1250.8,374.6z"/>
			<polygon fill="#D56100" points="1166.8,440.5 1166.8,450.7 1166.8,440.5 1166.8,440.5 			"/>
			<polygon fill="#008080" points="638.3,554.2 639.3,555.9 635.5,558.1 641.9,569.2 640,570.2 633.6,559.2 629.8,561.4 
				628.8,559.7 			"/>
			<path fill="#FFFFFF" d="M486.3,587.9c3-1.7,6.8,1.1,9.6,5.8c2.8,4.8,3.3,9.4,0.6,10.9c-2.7,1.5-6.7-0.7-9.7-5.9
				C484.1,594.2,483.9,589.4,486.3,587.9z"/>
			<polygon fill="#008080" points="1370,670.1 1370.5,670.8 1360.1,677.1 1350.1,660.4 1360.2,654.3 1360.7,655.1 1351.3,660.7 
				1355.4,667.6 1362.9,663.1 1363.3,663.8 1355.9,668.3 1360.4,675.8 			"/>
			<path fill="#008080" d="M1398.5,112.4c-0.1,0.1-0.2,0.1-0.3,0.2l0-2.6c1-0.9,1.6-2.2,1-3.3c-0.1-0.1-0.2-0.3-0.3-0.4
				c-0.2-0.2-0.4-0.3-0.7-0.4l0-2.2"/>
			<path fill="#FFFFFF" d="M924.2,135c1.5-0.9,2.8-0.4,3.7,1.1l1.3,2.3c0.9,1.5,0.5,2.9-0.9,3.7c-1.5,0.9-2.8,0.4-3.7-1.1l-1.3-2.3
				C922.4,137.2,922.7,135.9,924.2,135z"/>
			<polygon fill="#A84902" points="288.5,654.7 288.5,683.4 258.9,700.5 258.9,690.4 274.3,662.9 			"/>
			<path fill="#008080" d="M504,631.6l12.6,9.9l-2,1.1l-3.7-2.9l-4.6,2.6c0.2,1.4,0.4,3.3,0.6,4.6l-2,1.1l-2.3-15.8L504,631.6z
				 M509.2,638.5l-4.2-3.6l1,5.4L509.2,638.5z"/>
			<polygon fill="#D56100" points="1166.8,440.4 1166.8,440.5 1166.8,440.5 1166.8,440.5 1166.8,440.4 			"/>
			<polygon fill="#008080" points="574.8,558.1 579.6,566.4 561.8,576.7 557,568.4 559.7,566.8 550.9,551.7 548.2,553.2 
				543.4,544.9 558.2,536.4 571.7,559.9 			"/>
			<polygon fill="#A84902" points="380.4,704.2 371.5,719.7 371.5,709.3 			"/>
			<path fill="#FFFFFF" d="M502.2,123.6c1.3,0.4,2.6,1.2,3.3,2.6c0.8,1.3,0.9,2.8,0.6,4.2c-0.4,1.4-1.3,2.6-2.6,3.4
				c-1.3,0.7-2.8,0.9-4.2,0.5c-1.4-0.4-2.6-1.2-3.4-2.6c-0.8-1.3-0.9-2.8-0.6-4.2c0.4-1.4,1.2-2.6,2.5-3.3
				C499.3,123.4,500.8,123.2,502.2,123.6z"/>
			<path fill="#008080" d="M633.5,523.8l5,8.6l-16.1,9.3l-9-15.6c-1.8-3-4-8.2-7-6.5c-2.7,1.6-2.3,3.8-0.7,6.6l5.9,10.3l3.8-2.2
				l4.9,8.5l-16.4,9.5l-9.4-16.2c-3-5.1-4.3-7.2-6.8-5.7c-2,1.2-2.2,2.9-0.7,5.5l6.5,11.3l3.8-2.2l4.8,8.3l-18.9,10.9l-4.8-8.3
				l2.7-1.5l-8.7-15l-2.7,1.5l-4.8-8.4l12-6.9l3.6,2.9c0.3-1.8,1.3-6.9,5.3-9.2c6.4-3.7,10.2-1.8,12.1-0.9c0.7-3.4,2.3-7.4,6.7-10
				c10.3-5.9,16.2,0.6,20.7,8.4l5.1,8.8L633.5,523.8z"/>
			<path fill="#FFFFFF" d="M1280.8,599.3c9.7-5.9,19.2-1.3,23.7,6.2c4.5,7.5,4,17.9-5.7,23.7l-9,5.4l-18-29.9L1280.8,599.3z"/>
			<polygon fill="#008080" points="1292.1,344.1 1295,349.1 1285.6,354.5 1295.8,372.2 1304.7,367.1 1307.6,372.2 1298.8,377.3 
				1309.7,396.1 1319.1,390.7 1322.1,395.7 1306.5,404.7 1276.6,353 			"/>
			<path fill="#FFFFFF" d="M1384.7,299.8c1.6,1,3.3,3.1,5.2,6.3l8.3,14.3l0,18.5l-21.5-37.3l3.1-1.8
				C1381.4,298.8,1383.1,298.8,1384.7,299.8z"/>
			<path fill="#008080" d="M719.2,730.7l-4.5,2.6c-3.9-4-9.3-3.1-13-1c-5.7,3.3-7.5,10.2-4,16.3c0.6,1.1,1.3,2,2.1,2.8l-6.1,0
				c-0.1-0.1-0.1-0.2-0.2-0.4c-4.9-8.5-2.2-18.3,5.7-22.9C704.9,724.9,713.2,723.9,719.2,730.7z"/>
			<polygon fill="#D56100" points="1200.6,489.5 1203.3,493.1 1148.5,493.1 1151.1,489.6 			"/>
			<path fill="#D56100" d="M0,139.1L17.6,126c0,0-5.2,7-5.2,16.6c0,9.7,5.3,16.6,5.3,16.6L0,146.2L0,139.1z"/>
			<path fill="#008080" d="M558.8,609l6.9-4c0.5,1.1,0.8,1.9,0.9,2.4l0,0c0.5,2.9-1.2,6-3.5,7.4c-3.6,2.1-7.8,0.9-10-2.8
				c-2.2-3.8-1-8,2.5-10.1c2.4-1.4,6.1-1.9,8.7,1.1l-2,1.1c-1.7-1.8-4.1-1.4-5.7-0.4c-2.5,1.4-3.3,4.5-1.7,7.2
				c1.6,2.7,4.6,3.6,7.1,2.1c1.6-0.9,2.8-2.6,2.5-4.9l-4.7,2.7L558.8,609z"/>
			<path fill="#008080" d="M1387.8,293.6c2.9,1.6,5.6,4.6,8.2,9.1l2.1,3.7l0,14l-8.3-14.3c-1.9-3.2-3.6-5.3-5.2-6.3
				c-1.6-1-3.2-0.9-5,0.1l-3.1,1.8l21.5,37.3l0,12.8l-0.5,0.3l-29.9-51.7l9.7-5.6C1381.4,292.4,1384.9,292.1,1387.8,293.6z"/>
			<polygon fill="#008080" points="649.9,547.5 650.9,549.3 648.6,550.7 653.8,559.7 656.2,558.4 657.2,560.2 650.7,564 
				649.6,562.2 652,560.8 646.7,551.8 644.4,553.1 643.3,551.3 			"/>
			<polygon fill="#008080" points="1393.5,7.3 1396.4,12.4 1380.2,21.7 1385.9,31.6 1398.1,24.6 1398.1,31.4 1388.9,36.7 
				1394.6,46.6 1398.1,44.6 1398.1,51.3 1392.4,54.6 1372.2,19.6 			"/>
			<polygon fill="#D56100" points="1125.5,445.2 1125.2,445.7 1125.5,446.2 1121.1,445.7 1121.1,445.7 			"/>
			<path fill="#008080" d="M481.6,579.7c10.1-5.7,21-3.9,27.3,6.6c6.2,10.5,1.9,21-7.8,26.6c-9.1,5.2-21.1,4.7-27.4-6.6
				C467.7,595.6,472.8,584.8,481.6,579.7z M495.9,593.8c-2.8-4.8-6.5-7.5-9.6-5.8c-2.5,1.4-2.3,6.2,0.4,10.8c3,5.2,7,7.5,9.7,5.9
				C499.2,603.1,498.6,598.5,495.9,593.8z"/>
			<path fill="#FFFFFF" d="M533.2,571.2c3.2,4.9,2.7,9.3,0.2,10.7c-2.8,1.6-6.9-1.4-9.1-5.2c-2.8-4.8-2.7-9-0.1-10.5
				C526.6,564.9,530.7,566.9,533.2,571.2z"/>
			<path fill="#FFFFFF" d="M813.3,671.8c3,0.8,5.7,2.7,7.4,5.7c1.7,3,2,6.3,1.3,9.2c-0.8,3.1-2.8,5.8-5.7,7.5
				c-2.8,1.6-6.2,2-9.2,1.1c-3-0.8-5.7-2.8-7.4-5.7c-1.7-2.9-2-6.3-1.2-9.3c0.8-3,2.7-5.8,5.6-7.4
				C806.9,671.3,810.3,671,813.3,671.8z"/>
			<polygon fill="#A84902" points="357,744.8 353.2,751.4 345.7,751.4 			"/>
			<line fill="#008080" x1="596.3" y1="1.4" x2="588.3" y2="1.4"/>
			<polygon fill="#A84902" points="330.8,647.9 355.7,662.2 364.6,677.5 337.5,677.6 320.3,648 			"/>
			<polygon fill="#FFFFFF" points="548.8,96.2 553,99.9 549.8,101.8 			"/>
			<path fill="#FFFFFF" d="M313.9,129.9c-0.1,0.8-0.2,1.6-0.2,2.4l-0.1,1.7C313.6,132.6,313.7,131.3,313.9,129.9z"/>
			<polygon fill="#FFFFFF" points="1226.3,446.2 1201.5,489 1184.9,451 1185,451 1185,450.9 			"/>
			<polygon fill="#D56100" points="371.5,719.7 371.5,736.5 357,744.8 			"/>
			<polygon fill="#D56100" points="1184.9,440.4 1175.9,435.2 1175.9,435.2 			"/>
			<polygon fill="#FFFFFF" points="368.8,200.2 373.1,203.9 369.9,205.8 			"/>
			<polygon fill="#FFFFFF" points="1184.9,440.5 1201.5,402.3 1226.2,445.1 1184.9,440.5 1184.9,440.7 1184.9,440.5 			"/>
			<polygon fill="#FFFFFF" points="1175.9,456.2 1200.6,489.5 1151.1,489.6 1175.8,456.2 1175.9,456.2 			"/>
			<path fill="#008080" d="M1342,322c2.1,1.8,4.2,4.6,6.3,8.3l13.2,22.8c3.1,5.4,4.6,9.7,4.5,13.1s-2,6.1-5.8,8.3
				c-3.8,2.2-7.1,2.5-10.1,0.9c-3-1.6-6-5.1-9.1-10.4l-13.2-22.8c-3.4-5.9-4.7-10.5-3.8-13.9c0.7-2.7,2.6-4.9,5.8-6.8
				C1334.4,318.7,1338.5,318.9,1342,322z M1342,333.5c-1.9-3.3-3.5-5.5-4.9-6.6c-1.3-1.1-2.8-1.1-4.4-0.2c-1.6,0.9-2.3,2.3-2.1,4.1
				c0.2,1.8,1.2,4.3,3.1,7.5l13.4,23.2c2.3,3.9,4.1,6.5,5.5,7.6c1.4,1.1,2.9,1.2,4.6,0.2c1.7-1,2.4-2.3,2.1-4.1
				c-0.3-1.8-1.6-4.6-3.8-8.5L1342,333.5z"/>
			<line fill="#008080" x1="1398.1" y1="51.3" x2="1398.1" y2="44.6"/>
			<polygon fill="#A84902" points="258.9,690.4 258.9,700.5 250.4,705.4 			"/>
			<polygon fill="#A84902" points="320.3,648 337.5,677.6 298.3,677.7 288.5,683.4 288.5,654.7 274.3,662.9 282.5,648.3 			"/>
			<path fill="#008080" d="M1255.5,718.3c1.5,0,2.8,0.9,3.8,2.6c1.3,2.1,1.1,4.1-0.5,5.9c1.6-0.6,2.9-0.1,4.1,1.5
				c0.1,0.1,0.5,0.8,1.3,2.1l1.9,3.2l-0.9,0.5l-2.2-3.7c-0.3-0.4-0.5-0.8-0.7-1.1c-0.2-0.3-0.3-0.5-0.4-0.6
				c-0.8-0.9-1.6-1.3-2.5-1.3c-0.7,0-1.6,0.4-2.8,1.1l-5,3l4.7,7.9l-0.8,0.5l-10-16.6l5.5-3.3
				C1252.8,718.8,1254.3,718.3,1255.5,718.3z M1258.5,721.4c-1.2-2.1-2.9-2.7-5-1.9c-0.2,0.1-0.5,0.2-0.9,0.4
				c-0.4,0.2-0.8,0.4-1.3,0.7l-4.7,2.8l4.4,7.4l5.1-3.1C1259.2,725.9,1260,723.8,1258.5,721.4z"/>
			<polygon fill="#A84902" points="347.3,647.7 355.7,662.2 330.8,647.9 			"/>
			<polygon fill="#D56100" points="1151.1,401.8 1175.8,435.2 1166.8,440.4 1150.2,402.3 1150.5,401.8 			"/>
			<path fill="#D56100" d="M618.2,750.8l0.2,0.5l-0.2,0C618.2,751,618.2,750.8,618.2,750.8z"/>
			<path fill="#008080" d="M260,1.4C260,1.4,260,1.4,260,1.4l-2.3,0c0-0.4-0.2-0.9-0.4-1.4"/>
			<polygon fill="#D56100" points="1166.8,440.5 1175.9,435.2 1175.9,435.2 1175.9,435.2 1184.9,440.4 1184.9,440.5 1184.9,440.5 
				1184.9,440.7 1184.9,450.9 1184.9,450.9 1184.9,450.9 1175.9,456.1 1175.9,456.1 1175.9,456.1 1166.9,450.9 1166.8,450.9 
				1166.8,450.9 1166.8,450.7 1166.8,440.5 1166.8,440.5 			"/>
			<path fill="#FFFFFF" d="M1070,234.4c1.6,1,3.3,3,5.1,6.2l13.6,23.6c2.6,4.5,3.5,7.7,2.7,9.5c-0.4,0.8-1.2,1.6-2.3,2.3l-3.1,1.8
				l-24-41.6l3.1-1.8C1066.8,233.5,1068.5,233.5,1070,234.4z"/>
			<polygon fill="#D56100" points="1203.2,398.2 1201.5,402.3 1201.2,401.8 1200.6,401.8 1203.2,398.2 			"/>
			<path fill="#008080" d="M706.6,744.3l15.6-9c1.2,2.6,1.9,4.3,2.1,5.4l0,0c0.7,3.7-0.2,7.5-2,10.7l-5.5,0c2.2-2.2,3.6-5.3,3-9.1
				l-6.5,3.8L706.6,744.3z"/>
			<path fill="#FFFFFF" d="M854.7,106c2-0.2,4.3,1.7,6.7,5.9l10.3,17.8c1.1,1.9,1.8,3.5,2.1,4.7c0.5,2.7-0.7,5-3.6,6.6l-6.9,4
				l-19.5-33.8l6.8-3.9C852.2,106.5,853.5,106.1,854.7,106z"/>
			<polygon fill="#D56100" points="274.3,662.9 258.9,690.4 258.7,671.9 			"/>
			<polygon fill="#D56100" points="1203.2,398.2 1200.6,401.8 1151.1,401.8 1148.4,398.3 			"/>
			<path fill="#FFFFFF" d="M591.3,585.4c1.3,0.4,2.5,1.2,3.2,2.5c0.8,1.3,0.9,2.8,0.6,4.1c-0.4,1.3-1.2,2.6-2.5,3.3
				c-1.3,0.7-2.7,0.9-4.1,0.5c-1.3-0.4-2.5-1.2-3.3-2.5c-0.7-1.3-0.9-2.8-0.5-4.1c0.3-1.3,1.2-2.5,2.5-3.3
				C588.5,585.2,590,585.1,591.3,585.4z"/>
			<polygon fill="#D56100" points="1166.9,450.9 1175.9,456.1 1175.8,456.2 			"/>
			<polygon fill="#FFFFFF" points="956,117.2 959.8,120.3 956.8,122 			"/>
			<path fill="#FFFFFF" d="M651.6,499.5L642,505c-0.8-1.7-1.9-5.7,2-7.9C648,494.8,650.1,497.1,651.6,499.5z"/>
			<path fill="#FFFFFF" d="M1253.6,719.5c2.1-0.8,3.7-0.1,5,1.9c1.5,2.4,0.7,4.6-2.3,6.4l-5.1,3.1l-4.4-7.4l4.7-2.8
				c0.5-0.3,0.9-0.5,1.3-0.7C1253.1,719.7,1253.4,719.6,1253.6,719.5z"/>
			<polygon fill="#FFFFFF" points="622.2,567.2 626.4,570.8 623.2,572.6 			"/>
			<polygon fill="#FFFFFF" points="1223.7,737.5 1232.9,744.8 1225.7,749.1 			"/>
			<path fill="#D56100" d="M169.3,392l16.7,38.5l-41.7,4.8c0,0,12.1-5.1,19.3-17.7C170.9,405,169.3,392,169.3,392z"/>
			<polygon fill="#008080" points="1012.7,547.3 1015.1,551.5 1001.7,559.2 1006.4,567.4 1019.5,559.8 1021.9,564 1008.8,571.6 
				1013.6,579.7 1027,572 1029.4,576.2 1011.8,586.4 995.1,557.5 			"/>
			<polygon fill="#008080" points="239.7,271.1 242,287.2 240.6,288 227.8,278 229.9,276.8 239.4,284.3 237.7,272.3 			"/>
			<path fill="#008080" d="M68.6,611.8c0.4-0.3,0.7-0.3,0.8-0.1c0.1,0.2,0,0.3-0.2,0.4c-0.3,0.2-0.5,0.3-0.9,0.7
				c-1,0.8-0.9,1.7-0.2,3.1c0.7,1.3,1.4,2.5,2.3,4.2l2.6,4.5c1,1.8,1,1.9,0.7,2.5c-1.8,2.8-5.1,5.4-7.4,6.7c-3,1.8-8.9,4.6-15.6,3.3
				c-3.7-0.7-8.4-3.6-11.3-8.6c-3.7-6.4-3.2-12.7-0.9-17c2.3-4.3,6.1-6.9,9.2-8.7c2.5-1.5,5.7-2.6,6.5-2.9c1-0.3,2.4-0.9,3.5-1.5
				c0.4-0.2,0.6-0.1,0.7,0.1c0.3,0.6,0.7,1.8,3,5.8c0.4,0.6,0.4,0.9,0.1,1c-0.2,0.1-0.4-0.1-0.6-0.4c-0.4-0.5-1.2-1.5-2.4-2.2
				c-1.9-0.9-6.1-0.8-11.3,2.2c-2.5,1.5-5.4,3.4-7,7.6c-1.3,3.2-0.8,7.8,1.9,12.4c3.3,5.6,8.4,8.1,10.6,8.6
				c4.9,1.3,9.3,0.3,12.9-1.8c1.4-0.8,3.4-2.3,4.1-3.5c0.4-0.6,0.4-1.2,0-1.9l-3.9-6.8c-1.9-3.2-2.3-3.6-4.2-3.1
				c-0.4,0.1-1.1,0.5-1.4,0.7c-0.2,0.1-0.4,0.1-0.5-0.1c-0.1-0.2,0-0.4,0.5-0.7c1.8-1,4.4-2.4,4.6-2.5
				C64.9,614,67.4,612.5,68.6,611.8z"/>
			<polygon fill="#008080" points="542.9,5.5 563.1,40.5 558.1,43.4 543.8,18.7 542.6,37.6 542.3,37.8 542.8,30.5 533.4,35.9 
				539.9,39.1 539.7,39.3 522.7,31 536.9,55.6 531.9,58.5 511.6,23.5 515.7,21.2 537.1,31.5 538.9,7.8 			"/>
			<path fill="#008080" d="M1073.1,228.4c2.9,1.6,5.6,4.6,8.2,9l13,22.5c3,5.3,4.4,9.5,4.1,12.7c-0.3,3.2-2.3,6-6.1,8.2l-9.4,5.4
				l-29.6-51.2l9.6-5.6C1066.8,227.1,1070.2,226.8,1073.1,228.4z M1075.2,240.7c-1.8-3.2-3.6-5.3-5.1-6.2c-1.6-1-3.2-0.9-4.9,0.1
				l-3.1,1.8l24,41.6l3.1-1.8c1.2-0.7,1.9-1.4,2.3-2.3c0.8-1.8-0.1-5-2.7-9.5L1075.2,240.7z"/>
			<path fill="#008080" d="M1399.2,519.8"/>
			<path fill="#D56100" d="M877.1,372.6l15.6-36c0,0-1.5,12.2,5.3,23.9c6.8,11.8,18.1,16.5,18.1,16.5L877.1,372.6z"/>
			<path fill="#008080" d="M937.6,308.5c2,1.8,4.1,4.5,6.3,8.2l2.7,4.6l-6,3.5l-2.9-5c-1.9-3.3-3.5-5.4-4.8-6.5
				c-1.3-1.1-2.8-1.1-4.4-0.2c-1.6,0.9-2.3,2.3-2.1,4c0.2,1.8,1.2,4.2,3.1,7.4l13.3,23c2.3,3.9,4.1,6.4,5.4,7.5
				c1.4,1.1,2.9,1.2,4.5,0.2c1.6-1,2.3-2.3,2.1-4s-1.5-4.5-3.8-8.4l-4.4-7.6l-3.9,2.2l-2.7-4.7l9.9-5.7l7,12.1
				c3.1,5.3,4.6,9.6,4.5,12.9c-0.1,3.3-2,6-5.7,8.2c-3.7,2.2-7.1,2.5-10,0.9c-2.9-1.6-5.9-5-9-10.3l-13-22.6
				c-3.4-5.8-4.6-10.4-3.8-13.8c0.7-2.7,2.6-4.9,5.7-6.7C930.1,305.3,934.1,305.5,937.6,308.5z"/>
			<path fill="#008080" d="M1277.1,593.2c13.8-8.3,27-1.9,33.3,8.6c6.3,10.5,5.7,25.2-8.1,33.4l-15.1,9.1l-25.3-42.1L1277.1,593.2z
				 M1304.4,605.4c-4.5-7.5-13.9-12-23.7-6.2l-9,5.4l18,29.9l9-5.4C1308.5,623.3,1308.9,612.9,1304.4,605.4z"/>
			<polygon fill="#008080" points="258.6,260.2 259.7,262.1 257.2,263.5 262.6,272.8 265,271.4 266.1,273.2 259.4,277.1 
				258.3,275.3 260.7,273.9 255.4,264.6 252.9,266 251.8,264.1 			"/>
			<path fill="#008080" d="M1027.8,256.4c2,1.8,4.1,4.5,6.3,8.2l13,22.6c3.1,5.3,4.6,9.6,4.5,12.9c-0.1,3.3-2,6-5.7,8.2
				c-3.7,2.2-7.1,2.5-10,0.9c-2.9-1.6-5.9-5-9-10.3l-13-22.6c-3.4-5.8-4.6-10.4-3.8-13.8c0.7-2.7,2.6-4.9,5.7-6.7
				C1020.3,253.2,1024.3,253.4,1027.8,256.4z M1027.8,267.8c-1.9-3.3-3.5-5.4-4.8-6.5c-1.3-1.1-2.8-1.1-4.4-0.2
				c-1.6,0.9-2.3,2.3-2.1,4c0.2,1.8,1.2,4.2,3.1,7.4l13.3,23c2.3,3.9,4.1,6.4,5.4,7.5c1.4,1.1,2.9,1.2,4.5,0.2c1.6-1,2.3-2.3,2.1-4
				c-0.3-1.7-1.5-4.5-3.8-8.4L1027.8,267.8z"/>
			<path fill="#008080" d="M963.3,122.1c0.1,0.1,0.1,0.1,0.2,0.2c0.1,0.3-0.1,0.5-0.1,0.5c-0.2,0.1-0.3,0-0.5-0.1l-2.3-1.9l-3.5,2
				l0.5,3c0,0.2,0,0.4-0.2,0.5c-0.1,0.1-0.4,0.1-0.5-0.1c0-0.1-0.1-0.1-0.1-0.2l-1.6-9.5l0.8-0.5L963.3,122.1z M959.8,120.3
				l-3.8-3.1l0.8,4.8L959.8,120.3z"/>
			<path fill="#D56100" d="M857.9,405.7l23.4,31.6c0,0-9.8-7.4-23.4-7.4c-13.6,0-23.4,7.4-23.4,7.4L857.9,405.7z"/>
			
				<rect x="895.4" y="622.3" transform="matrix(-0.5004 -0.8658 0.8658 -0.5004 827.5352 1726.9978)" fill="#008080" width="33.3" height="4.8"/>
			<path fill="#D56100" d="M204.3,441.1l41.7-4.8c0,0-12.1,5.1-19.3,17.7s-5.6,25.6-5.6,25.6L204.3,441.1z"/>
			<path fill="#008080" d="M792.1,210.5c0.1-0.1,0.4-0.1,0.6,0.2l4.3,7.5c0.1,0.2,0.2,0.4-0.1,0.6c-0.1,0.1-0.4,0.1-0.6-0.2
				l-4.3-7.5C791.8,210.7,792,210.6,792.1,210.5z"/>
			<polygon fill="#008080" points="528.6,104.1 536.2,117.2 534.3,118.2 529,109 528.5,116.1 527.5,116.7 521.1,113.6 526.4,122.8 
				524.6,123.9 517,110.8 518.5,109.9 526.5,113.8 527.2,105 			"/>
			<polygon fill="#008080" points="348.5,208.2 356.1,221.3 354.6,222.1 343,216.6 348.3,225.8 346.4,226.9 338.8,213.8 340.3,213 
				352,218.5 346.6,209.3 			"/>
			<path fill="#008080" d="M168.8,532.8c9-5.2,19-3.4,24.4,5.9c5.2,8.9,3.1,20-6.5,25.6c-10.9,6.3-20.4,0.4-24.6-6.7
				C158.3,551,157.8,539.2,168.8,532.8z M190,542c-5.5-9.6-14.4-11.4-20.7-7.7c-6.7,3.9-9.1,11.1-4.1,19.9
				c5.4,9.3,14.4,12.1,21.6,7.9C190.4,560,196.7,553.7,190,542z"/>
			<path fill="#D56100" d="M881.3,330L858,361.6L834.6,330c0,0,9.8,7.4,23.4,7.4C871.5,337.4,881.3,330,881.3,330z"/>
			<path fill="#008080" d="M923.8,134.3c1.7-1,3.6-0.6,4.7,1.3l1.3,2.3c1.1,1.9,0.5,3.8-1.2,4.8c-1.7,1-3.6,0.6-4.7-1.3l-1.3-2.3
				C921.4,137.2,922.1,135.3,923.8,134.3z M927.9,136.1c-0.9-1.5-2.2-1.9-3.7-1.1c-1.5,0.9-1.8,2.2-0.9,3.7l1.3,2.3
				c0.9,1.5,2.2,1.9,3.7,1.1c1.5-0.9,1.8-2.2,0.9-3.7L927.9,136.1z"/>
			<path fill="#008080" d="M285.4,255.8c0.2,0.2,0.4,0.5,0.6,0.8c1.5,2.5-0.2,5.4-2.6,6.8c-2,1.2-5.1,1.4-6.7-0.8l-0.2-0.3l1.9-1.1
				l0.2,0.3l0-0.1c0.8,1.1,2.7,0.9,3.9,0.2c1.4-0.8,2.5-2.5,1.7-3.8c-0.1-0.1-0.2-0.3-0.3-0.4c-0.8-0.9-2.2-0.3-3.6,0.4
				c-2.2,1-4.8,1.9-6.6-0.7l0,0c-0.6-0.8-0.9-1.8-0.7-2.9c0.2-1.6,1.4-3.1,3-4c2-1.2,4.7-1.3,6.4,0.9l-1.8,1.2
				c-0.9-1-2.5-0.8-3.6-0.1c-0.9,0.5-1.7,1.4-1.8,2.4c-0.1,0.5,0.1,1,0.4,1.4c0.9,1.3,2.4,0.6,3.9-0.1
				C281.2,254.8,283.7,254,285.4,255.8z"/>
			<path fill="#008080" d="M823.5,192.3c0.3-0.2,0.5,0,0.6,0.2l4.3,7.4c0.1,0.2,0.2,0.5-0.1,0.6c-0.1,0.1-0.2,0.1-0.3,0.1l-8.7-4.2
				l3.8,6.6c0.2,0.3,0.2,0.5-0.1,0.6c-0.3,0.2-0.5,0-0.6-0.2l-4.3-7.4c-0.1-0.3-0.2-0.5,0-0.6c0.2-0.1,0.3-0.1,0.5,0l8.5,4.1
				l-3.8-6.6C823.3,192.7,823.3,192.5,823.5,192.3z"/>
			<path fill="#008080" d="M410.2,82.2c11.5-6.6,22.3-1.2,27.3,7.6c5.1,8.8,4.3,20.8-7.1,27.4l-12.6,7.3l-20.2-35L410.2,82.2z
				 M432.5,92.7c-3.6-6.2-11.3-10.1-19.4-5.4l-7.5,4.3l14.4,24.9l7.5-4.3C435.5,107.5,436.1,98.9,432.5,92.7z"/>
			<path fill="#008080" d="M942.5,123.6c0.3-0.1,0.4,0,0.6,0.3l4.3,7.4c0.2,0.3,0.1,0.5-0.1,0.6c-0.3,0.1-0.4,0-0.6-0.3l-3.8-6.6
				l-0.3,4.6c0,0.1-0.1,0.2-0.2,0.2c0,0-0.1,0.1-0.3,0l-4.1-2l3.8,6.6c0.2,0.3,0.2,0.5-0.1,0.6c-0.3,0.2-0.5,0-0.6-0.2l-4.3-7.4
				c-0.1-0.3-0.2-0.5,0-0.6c0.2-0.1,0.3-0.1,0.5,0l4.5,2.2l0.4-5C942.2,123.8,942.3,123.7,942.5,123.6z"/>
			<path fill="#008080" d="M367.8,196.8l12.9,10.2l-2,1.2l-3.8-2.9l-4.7,2.7c0.2,1.5,0.4,3.4,0.7,4.7l-2,1.2l-2.4-16.3L367.8,196.8z
				 M373.1,203.9l-4.3-3.7l1,5.6L373.1,203.9z"/>
			<path fill="#008080" d="M1010.3,84.4c1.8-1,3-1.4,4.2,0.6c0.2,0.3,0.1,0.5-0.1,0.6c-0.2,0.1-0.4,0-0.6-0.2
				c-0.9-1.5-1.5-1.3-3.1-0.4l-1.3,0.7c-1,0.6-0.8,1.6-0.5,2.2c0.4,0.7,1.1,1,1.5,0.9l3.4-1.1c1.4-0.4,2.4,0.3,2.9,1.3
				c0.6,1,0.7,2.4-1,3.4l-1.1,0.6c-1.8,1-3,1.3-4.2-0.7c-0.2-0.3-0.1-0.5,0.1-0.6c0.2-0.1,0.4,0,0.6,0.2c0.9,1.5,1.6,1.3,3.1,0.4
				l1.3-0.8c1-0.6,0.7-1.7,0.4-2.2c-0.5-0.9-1.3-1.1-1.6-1l-3.4,1.1c-1.4,0.4-2.2,0.1-2.8-1.1c-0.6-1-0.7-2.4,1.1-3.4L1010.3,84.4z"
				/>
			<path fill="#008080" d="M855.3,179.3c1.5,0.4,3.8,2.8,3.9,3c0.1,0.2,0.1,0.5-0.1,0.6c-0.2,0.1-0.4,0-0.6-0.2
				c-0.1-0.2-2.2-2.6-4-2.8l-2.4,1.4l2.2,3.8c0.1,0.2,0.2,0.4-0.1,0.6c-0.1,0.1-0.4,0.1-0.6-0.2l-4.3-7.4c-0.1-0.3-0.2-0.5,0-0.6
				l2.3-1.3c1.7-1,3-1.2,3.9,0.4C856.3,177.6,856.1,178.5,855.3,179.3z M855.1,176.9c-0.7-1.2-1.4-0.9-2.9-0.1l-1.9,1.1l1.5,2.6
				l1.9-1.1C855.2,178.6,855.7,178.1,855.1,176.9z"/>
			<path fill="#D56100" d="M318.2,116.6L318.2,116.6c0,0.1-0.1,0.2-0.1,0.2C318.2,116.7,318.2,116.6,318.2,116.6z"/>
			<path fill="#008080" d="M938.8,54.3c2.8,0.8,5.1,2.6,6.7,5.6l18.7,32.3l-0.1,0.3l-0.6,0.3c-2.6,1.1-4.4,0.6-5.7-1.5L941.6,63
				c-1.9-3.4-4.2-4.6-6.9-3.8c-1.2,0.3-2.5,0.9-3.9,1.8c-2.8,1.6-3.9,3.9-3.3,6.8c0.3,1,0.8,2.3,1.6,3.7l17.7,30.7l-0.1,0.3
				l-0.5,0.3c-2.6,1.2-4.5,0.7-5.6-1.3l-17.1-29.6c-1.4-2.4-3.6-3.3-6.7-2.6l-1.9,0.8l-1.7,1c-3.1,1.8-4,4.3-2.8,7.6l0.6,1.3
				l18.6,32.1c0.1,0.1,0,0.2-0.2,0.4c-2.1,1.2-4,1.1-5.6-0.3l-22.9-39.6l0.1-0.3l0.1-0.1c1.7-1,3.2-1.1,4.5-0.5
				c1.1-2.1,3.1-3.9,6-5.6l0.8-0.4c3.3-1.9,6.6-2.3,9.9-1.2c0.7-3.4,2.4-5.9,4.9-7.4l3-1.7C933.1,54,935.9,53.6,938.8,54.3z"/>
			<path fill="#008080" d="M129.9,589.1c0.2-0.1,0.4,0.2,0.6,0.5c0.2,0.3,1.4,3.2,1.7,4.2c0.3,1.2,0,1.4-1.6,2.3
				c-3,1.7-5.2,2.9-6.8,3.8c-1.6,0.8-2.6,1.3-3.2,1.7c-0.1,0-0.8,0.4-1.6,1c-0.8,0.5-1.7,1.1-2.3,1.4c-0.4,0.3-0.7,0.3-0.8,0
				c-0.1-0.1-0.1-0.3,0.2-0.4c0.4-0.2,0.8-0.6,1.1-0.9c0.7-0.6,0.4-1.6-0.1-2.9c-0.8-1.8-2.6-4.9-4.8-8.8l-4.1-7
				c-3.6-6.2-4.2-7.4-5.1-8.6c-0.9-1.3-1.6-1.8-3-1.3c-0.4,0.1-1.1,0.5-1.4,0.7c-0.2,0.1-0.4,0.1-0.5-0.1c-0.1-0.2,0-0.4,0.5-0.7
				c0.9-0.5,2-1.2,2.9-1.6l1.7-0.9c0.3-0.2,8.2-4.8,9.1-5.3c0.7-0.5,1.3-0.9,1.6-1.2c0.2-0.2,0.2-0.4,0.4-0.5
				c0.1-0.1,0.3,0.1,0.4,0.3c0.2,0.3,0.2,0.9,0.8,2.1c0.2,0.4,1.1,2.2,1.3,2.8c0.1,0.2,0.1,0.5,0,0.6c-0.2,0.1-0.4,0-0.6-0.3
				c-0.2-0.3-0.6-0.9-1.1-1.3c-0.6-0.5-1.3-0.7-3.6,0.3c-0.7,0.3-5.1,2.8-5.5,3c-0.2,0.1-0.2,0.3,0,0.5l6.4,11
				c0.2,0.3,0.3,0.4,0.5,0.3c0.5-0.3,5.4-3.1,6.3-3.8c0.9-0.6,1.4-1,1.6-1.6c0.1-0.5,0.1-0.8,0.3-0.9c0.1-0.1,0.2,0,0.4,0.2
				c0.1,0.2,0.3,1,1,2.4c0.4,0.8,1.2,2.4,1.3,2.6c0.2,0.3,0.4,0.8,0.2,0.9c-0.2,0.1-0.4,0-0.5-0.2c-0.2-0.4-0.5-0.8-0.9-1.2
				c-0.5-0.5-1.2-0.9-2.9-0.2c-1.1,0.5-5.1,2.7-5.8,3.1c-0.2,0.1-0.2,0.3-0.1,0.4l2,3.5c0.8,1.4,3.4,6,3.9,6.8
				c1.7,2.7,2.6,2.9,6.5,0.6c1-0.6,2.8-1.6,3.6-2.7c0.8-1,0.8-2.1,0.1-3.9C129.7,589.4,129.7,589.2,129.9,589.1z"/>
			<path fill="#008080" d="M883.6,86.2l22.8,39.5l-0.1,0.3c-1.9,1.1-3.7,1.1-5.3,0l-1-1.3l-22.3-38.5l0.1-0.3l0.6-0.3
				C880.2,84.5,881.9,84.7,883.6,86.2z"/>
			<polygon fill="#008080" points="1354.7,120.1 1357,136.2 1355.6,137 1342.8,127 1344.9,125.8 1354.4,133.3 1352.7,121.3 			"/>
			<path fill="#D56100" d="M332.4,108.9c16.9-8.3,37.6-2.2,47.2,14.4c7.8,13.6,5.9,30.1-3.7,41.4c2.3-4,3.7-8.5,4.2-13.1
				c0.2-1.4,0.3-2.8,0.3-4.2l1.1-16.4l-13.4-14.5l-20-7.7l-25.7,12.4l-4.5,9.1c0-0.1,1.7-15,14.3-21.3L332.4,108.9z"/>
			<polygon fill="#008080" points="300.6,235.9 301.6,237.8 299.2,239.2 304.6,248.5 307,247.1 308.1,249 301.4,252.9 300.3,251 
				302.7,249.6 297.3,240.3 294.9,241.7 293.8,239.8 			"/>
			<path fill="#008080" d="M643.6,48.8c0.2,0.2,0.4,0.5,0.6,0.8c1.5,2.5-0.2,5.4-2.6,6.8c-2,1.2-5.1,1.4-6.7-0.8l-0.2-0.3l1.9-1.1
				l0.2,0.3l0-0.1c0.8,1.1,2.7,0.9,3.9,0.2c1.4-0.8,2.5-2.5,1.7-3.8c-0.1-0.1-0.2-0.3-0.3-0.4c-0.8-0.9-2.2-0.3-3.6,0.4
				c-2.2,1-4.8,1.9-6.6-0.7l0,0c-0.6-0.8-0.9-1.8-0.7-2.9c0.2-1.6,1.4-3.1,3-4c2-1.2,4.7-1.3,6.4,0.9l-1.8,1.2
				c-0.9-1-2.5-0.8-3.6-0.1c-0.9,0.5-1.7,1.4-1.8,2.4c-0.1,0.5,0.1,1,0.4,1.4c0.9,1.3,2.4,0.6,3.9-0.1
				C639.4,47.8,641.9,47,643.6,48.8z"/>
			<path fill="#008080" d="M869.3,165.9c0.1-0.1,0.4-0.1,0.5,0.1c0.1,0.1,0.1,0.2,0.1,0.3l-0.5,5.2l2.1,3.6c0.1,0.2,0.2,0.4-0.1,0.6
				c-0.1,0.1-0.4,0.1-0.6-0.2l-2.1-3.6l-4.8-2.2c-0.1,0-0.2-0.1-0.3-0.2c-0.1-0.2,0-0.4,0.1-0.5c0.1-0.1,0.3,0,0.5,0l4.5,2l0.5-4.8
				C869.1,166,869.2,165.9,869.3,165.9z"/>
			<path fill="#008080" d="M971.5,106.9c0.3-0.2,0.5-0.1,0.6,0.1c0.1,0.3,0,0.4-0.2,0.6l-1.9,1.1l4.1,7.2c0.2,0.3,0,0.5-0.1,0.6
				s-0.4,0.1-0.6-0.2l-4.1-7.2l-2,1.1c-0.4,0.2-0.5,0-0.6-0.1c-0.1-0.1-0.1-0.4,0.2-0.6L971.5,106.9z"/>
			<polygon fill="#008080" points="965.5,596.7 965.2,601.1 962.9,602.4 959,600.5 			"/>
			<path fill="#D56100" d="M376,164.8c0,0.1-0.1,0.1-0.1,0.2l0-0.1C375.9,164.9,375.9,164.8,376,164.8z"/>
			<path fill="#008080" d="M779.1,145.8l1.1,1.5l0.1,0.2l-0.1,0.3l-10.1,5.8c-3.9,2.3-5.5,4.7-4.7,7.2c-0.2,0.3,0.2,1.3,1,2.8
				l5.2,8.9l11.2-6.5c2.4-1,4.1-0.5,5.3,1.4l0.4,0.8l-0.1,0.3l-14.3,8.3l5.4,9.3c1.8,3.2,4.5,4.1,7.9,2.8l2-1.1l7.1-4.1
				c2.5-1,4.2-0.6,5.3,1.3l0.5,0.9l-0.1,0.3l-11.9,6.9c-3.4,2-6.9,2.1-10.5,0.4c-2-1.2-3.6-2.7-4.7-4.6l-13.3-23.1
				c-2.4-4.2-2.2-8.3,0.7-12.4c1-1.1,2.1-2.1,3.5-2.9l8.1-4.7C775.8,144.7,777.5,144.7,779.1,145.8z"/>
			<path fill="#D56100" d="M838.8,394.7l-15.6,36c0,0,1.5-12.2-5.3-23.9c-6.8-11.8-18.1-16.5-18.1-16.5L838.8,394.7z"/>
			<path fill="#D56100" d="M823.2,336.6l15.7,36l-39,4.5c0,0,11.3-4.8,18.1-16.6C824.7,348.8,823.2,336.6,823.2,336.6z"/>
			<path fill="#D56100" d="M220,391.5l-25,33.7l-25-33.7c0,0,10.5,7.9,25,7.9C209.6,399.4,220,391.5,220,391.5z"/>
			<path fill="#008080" d="M981.7,28.7l1.1,1.5l0.1,0.2l-0.1,0.3l-10.1,5.8c-4,2.3-5.5,4.7-4.7,7.2c-0.2,0.3,0.2,1.3,1,2.8l5.2,8.9
				l11.2-6.5c2.4-1,4.1-0.5,5.3,1.4l0.4,0.8l-0.1,0.3l-14.3,8.3l5.4,9.3c1.8,3.2,4.5,4.1,7.9,2.8l2-1.1l7.1-4.1
				c2.5-1,4.2-0.6,5.3,1.3l0.5,0.8l-0.1,0.3L993,75.9c-3.4,2-6.9,2.1-10.5,0.4c-2-1.2-3.6-2.7-4.7-4.6l-13.3-23.1
				c-2.4-4.2-2.2-8.3,0.7-12.4c1-1.1,2.1-2.1,3.5-2.9l8.1-4.7C978.5,27.6,980.1,27.6,981.7,28.7z"/>
			<polygon fill="#008080" points="759.6,693.6 762,697.8 748.6,705.5 753.3,713.6 766.4,706.1 768.8,710.3 755.7,717.8 760.5,726 
				773.9,718.3 776.3,722.4 758.7,732.6 742,703.8 			"/>
			<path fill="#008080" d="M502.7,121.5c1.9,0.5,3.6,1.8,4.7,3.6c1.1,1.8,1.3,4,0.8,5.8c-0.5,1.9-1.7,3.6-3.6,4.7
				c-1.8,1.1-3.9,1.3-5.8,0.7c-1.9-0.5-3.6-1.8-4.7-3.6c-1.1-1.8-1.3-4-0.8-5.8c0.5-1.9,1.7-3.6,3.6-4.7
				C498.7,121.2,500.8,121,502.7,121.5z M505.5,126.2c-0.8-1.3-2-2.2-3.3-2.6c-1.4-0.4-2.9-0.2-4.2,0.5c-1.3,0.7-2.2,2-2.5,3.3
				c-0.4,1.4-0.2,2.9,0.6,4.2c0.8,1.3,2,2.2,3.4,2.6c1.4,0.4,2.9,0.2,4.2-0.5c1.3-0.7,2.2-2,2.6-3.4
				C506.4,129,506.3,127.5,505.5,126.2z"/>
			<polygon fill="#008080" points="542.8,30.5 542.3,37.8 539.9,39.1 533.4,35.9 			"/>
			<polygon fill="#008080" points="572.8,78.6 573.8,80.4 569.8,82.6 576.4,94 574.5,95.1 568,83.7 564,86 563,84.3 			"/>
			<path fill="#D56100" d="M318,130.4c4.6-5.9,13.4-11,22-13.2c16-4.1,24.1-2,35.1,10.6c3.5,3.9,4.9,11,5.3,16.4
				c0.1,1.1,0.1,2.2,0.1,3.4l-0.1,1.7c0.4-20.1-23.4-30.2-38.1-29.3C329.2,120.7,318,130.4,318,130.4L318,130.4z"/>
			<path fill="#D56100" d="M368.2,116.6l13.4,14.5l-1.1,16.4c0-1.1,0-2.3-0.1-3.4c-0.4-5.4-1.8-12.5-5.3-16.4
				c-11-12.5-19.2-14.7-35.1-10.6c-8.6,2.2-17.5,7.3-22,13.2l4.5-9.1l25.7-12.4L368.2,116.6z"/>
			<path fill="#008080" d="M894.6,151.4c1.2-0.7,1.7,0,2.1,0.7c0.2,0.3,0.2,0.5-0.1,0.7c-0.2,0.1-0.4,0.1-0.6-0.2
				c-0.3-0.6-0.6-0.7-1.2-0.4l-1.7,1c-1.6,0.9-2.1,1.4-1.3,2.9l2.1,3.6c0.9,1.5,1.6,1.2,3,0.4l1.8-1c0.6-0.3,0.6-0.6,0.3-1.2l-1-1.7
				l-1.7,1c-0.3,0.2-0.5,0.1-0.6-0.1c-0.2-0.3,0-0.5,0.3-0.6l2.3-1.4l1.4,2.4c0.4,0.7,0.7,1.5-0.5,2.1l-1.9,1.1
				c-1.7,1-3,1.3-4.1-0.7l-2.1-3.6c-1.1-1.9-0.2-2.9,1.5-3.9L894.6,151.4z"/>
			<path fill="#008080" d="M394.6,442.6c0.2-0.1,0.3-0.1,0.4,0c0.1,0.2-0.2,0.6-0.6,0.8c-0.9,0.5-5.2,3-6.8,3.7
				c-1,0.5-1.2,0.4-1.3,0.2c-0.1-0.2-0.1-0.3,0.1-0.4c0.2-0.2-0.2-0.9-0.7-1.5l-13.9-19.6l-0.1,0.1l2.2,26.4
				c0.2,2.2,0.3,2.7-0.1,2.9c-0.3,0.2-0.7-0.1-2.3-1.1c-2.2-1.4-9.6-6.3-10-6.6c-0.8-0.5-10.8-7.5-11.9-8.3l-0.2,0.1l9.1,19.5
				c0.3,0.7,0.7,1.4,1.1,2.1c0.3,0.6,1.1,0.9,1.8,0.6c0.8-0.2,1.4-0.5,1.6-0.7c0.2-0.1,0.4-0.1,0.4,0c0.2,0.3,0,0.5-0.5,0.8
				c-1.5,0.9-3.5,1.8-3.8,2c-0.4,0.2-2.2,1.4-3.3,2.1c-0.4,0.2-0.7,0.3-0.9,0c-0.1-0.1,0.1-0.3,0.3-0.4c0.3-0.2,0.6-0.3,1.1-0.8
				c1.2-1,0.4-2.6-0.3-4.2L344,432.5c-0.2-0.5-0.2-0.8,0-1c0.2-0.1,0.5-0.1,0.9,0.3l26.7,18.1l-2.8-31.9c0-0.5,0-0.8,0.2-1
				c0.3-0.2,0.6,0.1,1.1,0.8l16.9,23c1,1.3,2.6,3.4,4.6,3C393.2,443.5,394.2,442.9,394.6,442.6z"/>
			<polygon fill="#008080" points="592.1,67.4 593.2,69.3 590.8,70.7 596.1,80 598.6,78.6 599.6,80.5 592.9,84.4 591.8,82.5 
				594.2,81.1 588.9,71.8 586.4,73.2 585.4,71.3 			"/>
			<polygon fill="#008080" points="965.5,574.5 982.2,603.4 978.1,605.8 966.3,585.5 965.5,596.7 959,600.5 948.9,595.6 
				960.6,615.9 956.4,618.3 939.7,589.4 943.1,587.5 960.8,596 962.2,576.4 			"/>
			<polygon fill="#008080" points="1140.5,724.2 1144.1,730.2 1118.4,745.7 1093.2,703.6 1118.8,688.2 1122.5,694.3 1103,706 
				1110.1,717.9 1129.2,706.4 1132.8,712.5 1113.8,724 1120.9,735.9 			"/>
			<polygon fill="#008080" points="477.9,133.5 479,135.4 472.9,138.8 475,142.5 480.9,139.1 482,141 476.1,144.4 478.3,148.1 
				484.3,144.6 485.4,146.5 477.5,151.1 469.9,138.1 			"/>
			<path fill="#008080" d="M844.4,190.8c0.1,0.1,0.1,0.1,0.2,0.2c0.1,0.3-0.1,0.5-0.1,0.5c-0.2,0.1-0.3,0-0.5-0.1l-2.3-1.9l-3.5,2
				l0.5,3c0,0.2,0,0.4-0.2,0.5c-0.1,0.1-0.4,0.1-0.5-0.1c0-0.1-0.1-0.1-0.1-0.2l-1.6-9.5l0.8-0.5L844.4,190.8z M840.9,189l-3.8-3.1
				l0.8,4.8L840.9,189z"/>
			<path fill="#008080" d="M211.5,2.5c2.5,0.7,5.5,2.5,7.7,6.2c2.3,4,2.4,8,1.7,10.9c-0.5,2.2-2.1,6.1-7.5,9.2
				c-1.4,0.8-3.1,1.7-4.5,2.3c-1.4,0.7-2.6,1.2-2.7,1.3c-0.1,0-0.6,0.3-1.2,0.8c-0.6,0.4-1.3,0.8-1.8,1.1c-0.3,0.2-0.5,0.2-0.7,0
				c-0.1-0.1,0-0.2,0.1-0.3c0.3-0.2,0.6-0.4,0.9-0.7c0.6-0.5,0.3-1.3-0.1-2.3c-0.6-1.4-2-3.9-3.8-6.9l-3.2-5.6
				c-2.8-4.9-3.4-5.8-4-6.8c-0.7-1-1.2-1.4-2.4-1c-0.3,0.1-0.8,0.4-1.1,0.5c-0.1,0.1-0.3,0.1-0.4,0c-0.1-0.2,0-0.3,0.4-0.5
				c1.4-0.8,3.5-1.9,3.6-2c0.4-0.2,2.3-1.5,4.2-2.6C199.9,4.4,205.5,0.8,211.5,2.5z M216.9,11.4c-2.3-4-5.5-5.6-7.6-6.2
				c-4.8-1.4-8.6,0.2-12.4,2.4C196.2,8,195.1,8.7,195,9c-0.2,0.3-0.2,0.5,0,0.8c0.6,1.1,2.4,4.3,3.9,6.7l2.3,3.9
				c1.9,3.3,3.6,6.2,4,6.8c0.5,0.8,1.3,2,1.7,2.2c0.8,0.4,2.4,0.3,6.1-1.8c2.9-1.7,5-4.3,5.8-7.3C219.4,17.8,218.6,14.3,216.9,11.4z
				"/>
			<polygon fill="#008080" points="1163.1,171.5 1192.7,222.7 1187.4,225.8 1175.5,205.2 1164.9,185.8 1180.8,229.4 1175.4,232.6 
				1145.3,197.2 1156.8,216 1168.7,236.5 1163.4,239.6 1133.8,188.4 1141.3,184.1 1173,221.9 1155.6,175.8 			"/>
			<path fill="#008080" d="M324.8,224.3c1.9,0.5,3.6,1.8,4.7,3.6c1.1,1.8,1.3,4,0.8,5.8c-0.5,1.9-1.7,3.6-3.6,4.7
				c-1.8,1.1-3.9,1.3-5.8,0.7c-1.9-0.5-3.6-1.8-4.7-3.6c-1.1-1.8-1.3-4-0.8-5.8c0.5-1.9,1.7-3.6,3.6-4.7
				C320.8,224,322.9,223.8,324.8,224.3z M327.6,229c-0.8-1.3-2-2.2-3.3-2.6c-1.4-0.4-2.9-0.2-4.2,0.5c-1.3,0.7-2.2,2-2.5,3.3
				c-0.4,1.4-0.2,2.9,0.6,4.2c0.8,1.3,2,2.2,3.4,2.6c1.4,0.4,2.9,0.2,4.2-0.5c1.3-0.7,2.2-2,2.6-3.4
				C328.5,231.8,328.4,230.4,327.6,229z"/>
			<path fill="#008080" d="M821.7,128.2c0.9,1.1,1.6,2.1,2.1,3l12.6,21.7c3,5.2,2.5,10-1.5,14.2l-1.2,1l-4.2,2.5
				c-3,1.7-6.4,1.6-10.2-0.3c-1.9-1.2-3.5-3-5-5.6l-10.9-18.9c-2.7-4.6-3.7-8-3.1-10.3c0.6-3.4,2.6-6,6-8l1.6-0.9
				C812.8,123.6,817.5,124.1,821.7,128.2z M819.9,134.4c-1.9-3.2-3.8-4.8-5.9-4.7c-1.5,0.2-2.9,0.7-4.1,1.4l-0.9,0.5
				c-4,2.3-4.8,5.4-2.6,9.2l12.6,21.8c2.4,4.1,5.4,5,9.2,2.9l1.5-0.9c2.6-1.5,3.7-3.5,3.4-5.9c-0.1-1.1-0.7-2.7-1.9-4.8L819.9,134.4
				z"/>
			
				<rect x="1334.7" y="568.9" transform="matrix(-0.5147 -0.8574 0.8574 -0.5147 1568.0846 2032.5172)" fill="#008080" width="49.1" height="7.1"/>
			<path fill="#D56100" d="M371.6,160.3l4.5-9.1c0,0.1-1.7,15-14.3,21.3l-0.1,0.1c-16.9,8.3-37.6,2.2-47.2-14.4
				c-7.8-13.6-5.9-30.1,3.7-41.4c-2.3,4-3.7,8.5-4.2,13.1l0,0c-0.2,1.4-0.3,2.8-0.3,4.2l-1.1,16.4l13.4,14.5l20,7.7L371.6,160.3z"/>
			<path fill="#008080" d="M619.5,62.5l1.8-1.1c1,3.4-0.3,6.8-3.3,8.6c-1.8,1-3.8,1.2-5.6,0.7c-1.8-0.5-3.5-1.8-4.6-3.6
				c-1.1-1.8-1.3-3.9-0.8-5.8c0.5-1.8,1.6-3.5,3.4-4.6c3-1.7,6.4-1.2,8.9,1.3l-1.9,1.1c-1.8-1.6-4-1.6-5.9-0.5
				c-1.3,0.7-2.1,1.9-2.4,3.3c-0.3,1.3-0.2,2.8,0.6,4.1c0.8,1.3,1.9,2.2,3.3,2.5c1.3,0.4,2.8,0.3,4-0.5
				C618.9,67,620,64.9,619.5,62.5z"/>
			<path fill="#008080" d="M814.6,667.1c4.2,1.2,8,3.9,10.3,8c2.4,4.1,2.8,8.7,1.7,12.9c-1.1,4.3-3.8,8-7.9,10.4
				c-4,2.3-8.7,2.8-12.9,1.6c-4.2-1.2-8-3.9-10.3-8s-2.8-8.7-1.7-12.9c1.1-4.2,3.8-8.1,7.9-10.4C805.7,666.4,810.4,666,814.6,667.1z
				 M820.7,677.5c-1.7-3-4.4-4.9-7.4-5.7c-3.1-0.8-6.4-0.5-9.3,1.2c-2.8,1.6-4.8,4.4-5.6,7.4c-0.8,3-0.5,6.3,1.2,9.3
				c1.7,2.9,4.4,4.9,7.4,5.7c3,0.8,6.4,0.5,9.2-1.1c2.8-1.6,4.8-4.4,5.7-7.5C822.7,683.8,822.4,680.5,820.7,677.5z"/>
			<path fill="#008080" d="M981.5,101c0.1-0.1,0.4-0.1,0.6,0.2l4.3,7.5c0.1,0.2,0.2,0.4-0.1,0.6c-0.1,0.1-0.4,0.1-0.6-0.2l-4.3-7.5
				C981.2,101.2,981.4,101.1,981.5,101z"/>
			<path fill="#008080" d="M445.2,406.9c0.2-0.1,0.4,0.2,0.6,0.5c0.2,0.3,1.4,3.2,1.7,4.2c0.3,1.2,0,1.4-1.6,2.3
				c-3,1.7-5.2,2.9-6.8,3.8c-1.6,0.8-2.6,1.3-3.2,1.7c-0.1,0-0.8,0.4-1.6,1c-0.8,0.5-1.7,1.1-2.3,1.4c-0.4,0.3-0.7,0.3-0.8,0
				c-0.1-0.1-0.1-0.3,0.2-0.4c0.4-0.2,0.8-0.6,1.1-0.9c0.7-0.6,0.4-1.6-0.1-2.9c-0.8-1.8-2.6-4.9-4.8-8.8l-4.1-7
				c-3.6-6.2-4.2-7.4-5.1-8.6c-0.9-1.3-1.6-1.8-3-1.3c-0.4,0.1-1.1,0.5-1.4,0.7c-0.2,0.1-0.4,0.1-0.5-0.1c-0.1-0.2,0-0.4,0.5-0.7
				c0.9-0.5,2-1.2,2.9-1.6l1.7-0.9c0.3-0.2,8.2-4.8,9.1-5.3c0.7-0.5,1.3-0.9,1.6-1.2c0.2-0.2,0.2-0.4,0.4-0.5
				c0.1-0.1,0.3,0.1,0.4,0.3c0.2,0.3,0.2,0.9,0.8,2.1c0.2,0.4,1.1,2.2,1.3,2.8c0.1,0.2,0.1,0.5,0,0.6c-0.2,0.1-0.4,0-0.6-0.3
				c-0.2-0.3-0.6-0.9-1.1-1.3c-0.6-0.5-1.3-0.7-3.6,0.3c-0.7,0.3-5.1,2.8-5.5,3c-0.2,0.1-0.2,0.3,0,0.5l6.4,11
				c0.2,0.3,0.3,0.4,0.5,0.3c0.5-0.3,5.4-3.1,6.3-3.8c0.9-0.6,1.4-1,1.6-1.6c0.1-0.5,0.1-0.8,0.3-0.9c0.1-0.1,0.2,0,0.4,0.2
				c0.1,0.2,0.3,1,1,2.4c0.4,0.8,1.2,2.4,1.3,2.6c0.2,0.3,0.4,0.8,0.2,0.9c-0.2,0.1-0.4,0-0.5-0.2c-0.2-0.4-0.5-0.8-0.9-1.2
				c-0.5-0.5-1.2-0.9-2.9-0.2c-1.1,0.5-5.1,2.7-5.8,3.1c-0.2,0.1-0.2,0.3-0.1,0.4l2,3.5c0.8,1.4,3.4,6,3.9,6.8
				c1.7,2.7,2.6,2.9,6.5,0.6c1-0.6,2.8-1.6,3.6-2.7c0.8-1,0.8-2.1,0.1-3.9C445,407.2,445,407,445.2,406.9z"/>
			
				<rect x="457.9" y="63.4" transform="matrix(-0.5004 -0.8658 0.8658 -0.5004 659.8737 513.4182)" fill="#008080" width="40.4" height="5.8"/>
			<path fill="#008080" d="M861,103.1c1.4,1.1,2.6,2.5,3.5,4l12.4,21.5c3,5.2,3,9.6,0,13.4c-1.1,1.3-2.2,2.3-3.5,3l-11.8,6.8
				l-0.3-0.1l-24.3-42l0.1-0.3l11.4-6.6C853,100.2,857.1,100.3,861,103.1z M861.4,112c-2.4-4.2-4.7-6.2-6.7-5.9
				c-1.2,0-2.6,0.5-4.1,1.4l-6.8,3.9l19.5,33.8l6.9-4c2.9-1.7,4.1-3.9,3.6-6.6c-0.3-1.3-1-2.8-2.1-4.7L861.4,112z"/>
			<polygon fill="#008080" points="966.1,596.3 965.6,604.4 958.4,600.8 959,600.5 962.9,602.4 965.2,601.1 965.5,596.7 			"/>
			<path fill="#D56100" d="M376.1,151.2L376.1,151.2c-4.6,5.9-13.4,11-22,13.2c-16,4.1-24.1,2-35.1-10.6c-3.5-3.9-4.9-11-5.3-16.4
				c-0.1-1.1-0.1-2.3-0.1-3.4l0.1-1.7c-0.4,20.1,23.4,30.2,38.1,29.3C364.8,160.9,376.1,151.2,376.1,151.2z"/>
			<path fill="#008080" d="M67.5,97c0.3-0.2,0.5-0.2,0.7,0c0.1,0.1,0,0.3-0.1,0.3c-0.2,0.1-0.4,0.3-0.7,0.5
				c-0.8,0.7-0.7,1.3-0.1,2.5c0.5,1,1.1,2,1.8,3.3l2,3.5c0.8,1.4,0.8,1.5,0.6,1.9c-1.4,2.2-4,4.2-5.9,5.3c-2.4,1.4-7.1,3.7-12.3,2.6
				c-2.9-0.6-6.7-2.9-8.9-6.8c-2.9-5-2.5-10-0.7-13.4c1.8-3.4,4.8-5.4,7.2-6.8c2-1.1,4.5-2,5.1-2.3c0.8-0.2,1.9-0.7,2.7-1.2
				c0.3-0.2,0.5-0.1,0.5,0.1c0.3,0.4,0.5,1.5,2.4,4.6c0.3,0.5,0.3,0.7,0.1,0.8c-0.2,0.1-0.3-0.1-0.5-0.3c-0.3-0.4-1-1.2-1.9-1.7
				c-1.5-0.7-4.8-0.6-8.9,1.7c-2,1.1-4.2,2.7-5.5,6c-1,2.5-0.6,6.1,1.5,9.8c2.6,4.4,6.7,6.4,8.4,6.8c3.9,1,7.3,0.3,10.2-1.4
				c1.1-0.7,2.7-1.8,3.2-2.7c0.3-0.5,0.3-0.9,0-1.5l-3.1-5.4c-1.5-2.6-1.8-2.8-3.3-2.4c-0.3,0.1-0.8,0.4-1.1,0.5
				c-0.1,0.1-0.3,0.1-0.4,0c-0.1-0.2,0-0.3,0.4-0.5c1.4-0.8,3.5-1.9,3.6-2C64.6,98.8,66.5,97.5,67.5,97z"/>
			<path fill="#008080" d="M737.4,167l0.3,0.1l0.7,1.1c0.7,1.3,0.4,2.7-0.9,4.3l-0.7,0.5L730,177c-3.4,1.9-5,3.9-4.9,6
				c0,1.3,0.5,2.8,1.4,4.5l12.5,21.6c1.5,2.6,3.5,3.8,6,3.6c1.2-0.2,2.2-0.5,3.2-1.1l1.1-0.7c2.8-1.6,4.1-3.8,3.7-6.4
				c-0.1-0.9-0.4-1.8-1-2.8l-2.6-4.4c-0.5-0.8-1-1.1-1.5-0.8l-5.6,3.2c-2.4,1-4.2,0.6-5.4-1.4l-0.4-0.7l0.1-0.3l10.5-6.1
				c2-1.2,3.9-0.6,5.6,1.8l9.3,16.1l-0.1,0.3c-1.9,1.1-3.5,1.3-4.9,0.5c-0.8,2-2.2,3.5-4,4.6l-2.8,1.6c-4.8,2.8-9.3,2.3-13.4-1.6
				c-0.8-0.9-1.6-1.9-2.3-3.1L722,189.5c-2.8-4.8-2.6-9.2,0.7-13.2c1.1-1.2,2.3-2.1,3.4-2.7L737.4,167z"/>
			<path fill="#008080" d="M765.8,225.7c0.1-0.1,0.4-0.1,0.6,0.2l4.3,7.5c0.1,0.2,0.2,0.4-0.1,0.6c-0.1,0.1-0.4,0.1-0.6-0.2
				l-4.3-7.5C765.5,225.9,765.7,225.7,765.8,225.7z"/>
			<path fill="#008080" d="M755.8,231.3c0.1-0.1,0.4-0.1,0.5,0.1c0,0.1,0.1,0.1,0.1,0.2l1.6,9.5l-0.8,0.5l-7.4-6.2
				c-0.1-0.1-0.1-0.1-0.2-0.2c-0.1-0.3,0.1-0.5,0.1-0.5c0.2-0.1,0.3,0,0.5,0.1l6.8,5.5l-1.4-8.6
				C755.6,231.6,755.7,231.4,755.8,231.3z"/>
			<polygon fill="#008080" points="978.4,278.3 981.3,283.3 972,288.6 982.1,306.1 990.9,301.1 993.8,306.1 985,311.1 995.8,329.8 
				1005.2,324.4 1008.1,329.4 992.7,338.3 963.1,287.1 			"/>
			
				<rect x="1088.7" y="228.1" transform="matrix(-0.5004 -0.8658 0.8658 -0.5004 1477.4436 1315.6196)" fill="#008080" width="59.1" height="7"/>
			<path fill="#008080" d="M317.5,487.2c0.2-0.1,0.4-0.1,0.5,0.1c0.1,0.2,0,0.4-0.5,0.7c-2.2,1.3-4.8,2.6-5,2.7
				c-0.2,0.1-2.6,1.7-3.8,2.4c-0.4,0.3-0.7,0.3-0.8,0.1c-0.1-0.1-0.1-0.3,0.2-0.4c0.4-0.2,0.8-0.6,1.1-0.9c0.7-0.6,0.4-1.6-0.1-2.9
				c-0.8-1.8-2.6-4.9-4.8-8.8l-4.1-7c-3.6-6.2-4.2-7.4-5.1-8.6c-0.9-1.3-1.7-1.8-2.7-1.5c-0.5,0.1-1.1,0.4-1.3,0.6
				c-0.2,0.1-0.4,0.1-0.5-0.1c-0.1-0.2,0-0.4,0.5-0.7c1.3-0.8,3.9-2.1,4.1-2.2c0.2-0.1,2.6-1.7,3.8-2.4c0.4-0.3,0.7-0.3,0.8,0
				c0.1,0.2,0,0.3-0.2,0.4c-0.3,0.2-0.5,0.3-0.9,0.7c-1,0.8-0.9,1.7-0.2,3.1c0.7,1.3,1.3,2.4,4.9,8.7l4.1,7c2.2,3.8,4,7,5.2,8.6
				c0.8,1.1,1.5,1.8,2.8,1.3C316.2,487.8,317.1,487.4,317.5,487.2z"/>
			<path fill="#D56100" d="M195.1,446.4l25,33.7c0,0-10.5-7.9-25-7.9c-14.5,0-25,7.9-25,7.9L195.1,446.4z"/>
			<path fill="#008080" d="M251,492.1c3.2,0.9,7,3.2,9.7,7.9c2.9,5,3.1,10.1,2.2,13.8c-0.7,2.8-2.7,7.7-9.5,11.6
				c-1.7,1-3.9,2.1-5.7,3c-1.8,0.9-3.3,1.6-3.5,1.7c-0.1,0-0.8,0.4-1.6,1c-0.8,0.5-1.7,1.1-2.3,1.4c-0.4,0.3-0.7,0.3-0.8,0
				c-0.1-0.1-0.1-0.3,0.2-0.4c0.4-0.2,0.8-0.6,1.1-0.9c0.7-0.6,0.4-1.6-0.1-2.9c-0.8-1.8-2.6-4.9-4.8-8.8l-4.1-7
				c-3.6-6.2-4.2-7.4-5.1-8.6c-0.9-1.3-1.6-1.8-3-1.3c-0.4,0.1-1.1,0.5-1.4,0.7c-0.2,0.1-0.4,0.1-0.5-0.1c-0.1-0.2,0-0.4,0.5-0.7
				c1.8-1,4.4-2.4,4.6-2.5c0.5-0.3,2.9-1.9,5.3-3.2C236.3,494.5,243.4,490,251,492.1z M257.8,503.3c-2.9-5.1-7-7.1-9.7-7.9
				c-6-1.8-10.9,0.3-15.7,3c-0.8,0.5-2.2,1.4-2.4,1.8c-0.3,0.4-0.3,0.6,0,1.1c0.7,1.4,3.1,5.5,4.9,8.5l2.9,5
				c2.4,4.2,4.6,7.9,5.1,8.6c0.6,1,1.6,2.5,2.2,2.8c1,0.5,3,0.4,7.7-2.3c3.7-2.1,6.4-5.5,7.4-9.2C261,511.5,259.9,507,257.8,503.3z"
				/>
			<path fill="#D56100" d="M354.1,164.4c8.6-2.2,17.5-7.3,22-13.2l-4.5,9.1l-25.7,12.4l-20-7.7l-13.4-14.5l1.1-16.4
				c0,1.1,0,2.3,0.1,3.4c0.4,5.4,1.8,12.5,5.3,16.4C329.9,166.4,338.1,168.5,354.1,164.4z"/>
			<path fill="#008080" d="M453.9,156.4l7-4.1c0.5,1.2,0.9,1.9,1,2.5l0,0c0.5,3-1.2,6.2-3.6,7.5c-3.7,2.1-8,0.9-10.2-2.9
				c-2.2-3.9-1-8.3,2.6-10.3c2.5-1.4,6.3-1.9,9,1.2l-2,1.2c-1.7-1.8-4.2-1.4-5.9-0.4c-2.6,1.5-3.4,4.6-1.8,7.4
				c1.6,2.8,4.7,3.7,7.3,2.2c1.6-0.9,2.9-2.7,2.6-5l-4.8,2.8L453.9,156.4z"/>
			<path fill="#008080" d="M396,191.6l7,2.5l-2.4,1.4l-8.1-3l-0.5-0.9l2.2-1.3c1.6-0.9,1.7-2.5,1.1-3.6c-0.6-1.1-2.1-1.8-3.7-0.9
				l-2.9,1.7l6.4,11.2l-1.9,1.1l-7.5-13.1l4.8-2.8c2.8-1.6,5.5-0.4,6.7,1.7C398.2,187.5,398,189.9,396,191.6z"/>
			<polygon fill="#008080" points="1205.7,146.9 1208.6,151.9 1199.3,157.3 1209.4,174.8 1218.2,169.7 1221.1,174.7 1212.3,179.8 
				1223.1,198.4 1232.5,193 1235.4,198 1220,206.9 1190.4,155.7 			"/>
			<path fill="#D56100" d="M313.9,129.9l-0.2,2.4C313.7,131.5,313.8,130.7,313.9,129.9z"/>
			<path fill="#008080" d="M911.2,141.7c0.3-0.2,0.5-0.1,0.6,0.1c0.1,0.2,0,0.4-0.3,0.6l-4.8,2.8l1.5,2.6l3.3-1.9
				c0.3-0.1,0.5-0.2,0.7,0.1c0.1,0.2,0,0.4-0.3,0.6l-3.3,1.9l2.1,3.6l4.8-2.8c0.3-0.2,0.5-0.1,0.6,0.1c0.1,0.2,0,0.4-0.3,0.6l-5.2,3
				c-0.2,0.1-0.4,0-0.6-0.3l-4.2-7.2c-0.1-0.3-0.2-0.5,0-0.6L911.2,141.7z"/>
			<path fill="#008080" d="M214.2,219.8l18.9-10.9c1.5,3.1,2.3,5.2,2.5,6.6l0,0c1.5,8.1-3.2,16.6-9.6,20.2
				c-9.8,5.7-21.5,2.5-27.4-7.8c-6-10.4-2.7-22.1,6.9-27.7c6.7-3.9,16.8-5.1,24,3.1l-5.4,3.1c-4.7-4.8-11.3-3.8-15.7-1.2
				c-6.9,4-9.1,12.4-4.8,19.7c4.3,7.4,12.7,9.8,19.6,5.8c4.3-2.5,7.7-7.1,6.9-13.5l-7.9,4.5L214.2,219.8z"/>
			<path fill="#D56100" d="M204.2,430.5l16.7-38.5c0,0.1-1.6,13.1,5.7,25.6c7.2,12.5,19.2,17.6,19.3,17.7L204.2,430.5z"/>
			<path fill="#008080" d="M805.2,202.9c1.7-1,3.6-0.6,4.7,1.3l1.3,2.3c1.1,1.9,0.5,3.8-1.2,4.8c-1.7,1-3.6,0.6-4.7-1.3l-1.3-2.3
				C802.8,205.7,803.5,203.9,805.2,202.9z M809.2,204.6c-0.9-1.5-2.2-1.9-3.7-1.1c-1.5,0.9-1.8,2.2-0.9,3.7l1.3,2.3
				c0.9,1.5,2.2,1.9,3.7,1.1c1.5-0.9,1.8-2.2,0.9-3.7L809.2,204.6z"/>
			<path fill="#D56100" d="M380.2,151.7l0.2-2.4C380.3,150,380.3,150.8,380.2,151.7z"/>
			<path fill="#D56100" d="M877,394.7l39-4.5c0,0-11.3,4.8-18.1,16.6c-6.8,11.8-5.3,23.9-5.3,23.9L877,394.7z"/>
			<polygon fill="#008080" points="416.1,169.1 415.7,179.7 418.8,185 416.9,186.1 413.8,180.8 404.5,175.8 406.8,174.6 
				413.6,178.2 413.9,170.4 			"/>
			<polygon fill="#008080" points="1373.6,109.2 1374.7,111.1 1372.2,112.5 1377.6,121.8 1380,120.4 1381.1,122.2 1374.4,126.1 
				1373.3,124.3 1375.7,122.9 1370.4,113.6 1367.9,115 1366.8,113.1 			"/>
			<path fill="#008080" d="M1329.2,68.8l18.9-10.9c1.5,3.1,2.3,5.2,2.5,6.6l0,0c1.5,8.1-3.2,16.6-9.6,20.2
				c-9.8,5.7-21.5,2.5-27.4-7.8c-6-10.4-2.7-22.1,6.9-27.7c6.7-3.9,16.8-5.1,24,3.1l-5.4,3.1c-4.7-4.8-11.3-3.8-15.7-1.2
				c-6.9,4-9.1,12.4-4.8,19.7c4.3,7.4,12.7,9.8,19.6,5.8c4.3-2.5,7.7-7.1,6.9-13.5l-7.9,4.5L1329.2,68.8z"/>
			<path fill="#008080" d="M779.1,218c1.8-1,3-1.4,4.2,0.6c0.2,0.3,0.1,0.5-0.1,0.6c-0.2,0.1-0.4,0-0.6-0.2
				c-0.9-1.5-1.5-1.3-3.1-0.4l-1.3,0.7c-1,0.6-0.8,1.6-0.5,2.2c0.4,0.7,1.1,1,1.5,0.9l3.4-1.1c1.4-0.4,2.4,0.3,2.9,1.3
				c0.6,1,0.7,2.4-1,3.4l-1.1,0.6c-1.8,1-3,1.3-4.2-0.7c-0.2-0.3-0.1-0.5,0.1-0.6c0.2-0.1,0.4,0,0.6,0.2c0.9,1.5,1.6,1.3,3.1,0.4
				l1.3-0.8c1-0.6,0.7-1.7,0.4-2.2c-0.5-0.9-1.3-1.1-1.6-1l-3.4,1.1c-1.4,0.4-2.2,0.1-2.8-1.1c-0.6-1-0.7-2.4,1.1-3.4L779.1,218z"/>
			<polygon fill="#008080" points="542.3,37.8 542.1,40.2 539.9,39.1 			"/>
			<path fill="#008080" d="M115.9,79.1c0.2-0.1,0.3,0.1,0.5,0.4c0.1,0.3,1.1,2.5,1.4,3.3c0.3,0.9,0,1.1-1.2,1.8
				c-2.4,1.4-4.1,2.3-5.4,3c-1.3,0.6-2,1.1-2.5,1.3c-0.1,0-0.6,0.3-1.2,0.8c-0.6,0.4-1.3,0.8-1.8,1.1c-0.3,0.2-0.5,0.2-0.7,0
				c-0.1-0.1,0-0.2,0.1-0.3c0.3-0.2,0.6-0.4,0.9-0.7c0.6-0.5,0.3-1.3-0.1-2.3c-0.6-1.4-2-3.9-3.8-6.9L98.8,75
				c-2.8-4.9-3.4-5.8-4-6.8c-0.7-1-1.2-1.4-2.4-1c-0.3,0.1-0.8,0.4-1.1,0.5c-0.1,0.1-0.3,0.1-0.4,0c-0.1-0.2,0-0.3,0.4-0.5
				c0.7-0.4,1.6-0.9,2.3-1.3l1.3-0.7c0.2-0.1,6.5-3.8,7.2-4.2c0.6-0.4,1-0.7,1.3-0.9c0.1-0.1,0.2-0.3,0.4-0.4
				c0.1-0.1,0.2,0.1,0.3,0.2c0.1,0.2,0.2,0.7,0.6,1.6c0.2,0.3,0.9,1.8,1,2.2c0.1,0.2,0.1,0.4,0,0.5c-0.2,0.1-0.3,0-0.5-0.3
				c-0.1-0.2-0.5-0.7-0.8-1c-0.5-0.4-1-0.6-2.9,0.2c-0.6,0.2-4,2.2-4.4,2.4c-0.1,0.1-0.1,0.2,0,0.4l5,8.7c0.1,0.2,0.2,0.3,0.4,0.2
				c0.4-0.2,4.3-2.5,5-3c0.7-0.5,1.1-0.8,1.2-1.3c0.1-0.4,0.1-0.6,0.2-0.7c0.1-0.1,0.2,0,0.3,0.2c0.1,0.2,0.3,0.8,0.8,1.9
				c0.3,0.7,0.9,1.9,1,2.1c0.1,0.3,0.3,0.6,0.1,0.7c-0.2,0.1-0.3,0-0.4-0.2c-0.2-0.3-0.4-0.6-0.7-1c-0.4-0.4-1-0.7-2.3-0.2
				c-0.9,0.4-4.1,2.1-4.6,2.4c-0.2,0.1-0.2,0.2-0.1,0.3l1.6,2.8c0.6,1.1,2.7,4.8,3.1,5.4c1.4,2.1,2.1,2.3,5.2,0.5
				c0.8-0.5,2.2-1.3,2.8-2.1c0.6-0.8,0.6-1.7,0.1-3.1C115.7,79.4,115.7,79.2,115.9,79.1z"/>
			<path fill="#008080" d="M856,637.9c9.5-5.5,18.4-1,22.6,6.2c4.2,7.2,3.6,17.2-5.9,22.6l-10.4,6l-16.7-28.9L856,637.9z
				 M874.4,646.5c-3-5.1-9.3-8.3-16-4.5l-6.2,3.6l11.9,20.5l6.2-3.6C877,658.7,877.4,651.6,874.4,646.5z"/>
			<polygon fill="#008080" points="278.5,158.3 281.4,163.4 265.2,172.7 270.9,182.6 286.8,173.4 289.7,178.5 273.9,187.7 
				279.6,197.6 295.9,188.2 298.8,193.3 277.4,205.6 257.2,170.6 			"/>
			<path fill="#008080" d="M146.6,34.6c7.1-4.1,15-2.7,19.2,4.7c4.1,7.1,2.5,15.8-5.1,20.2c-8.6,5-16.1,0.4-19.4-5.3
				C138.3,49.1,137.9,39.7,146.6,34.6z M163.3,41.9c-4.4-7.6-11.3-9-16.3-6.1c-5.3,3-7.2,8.8-3.2,15.7c4.2,7.3,11.4,9.5,17.1,6.2
				C163.7,56.2,168.6,51.1,163.3,41.9z"/>
			<path fill="#008080" d="M996.5,92.5c1.2-0.7,1.7,0,2.1,0.7c0.1,0.2,0.2,0.5-0.1,0.6c-0.1,0.1-0.4,0.1-0.6-0.2
				c-0.4-0.6-0.7-0.7-1.2-0.4l-1.8,1c-1.5,0.9-2,1.4-1.2,2.9l2,3.5c0.9,1.5,1.6,1.3,3.1,0.4l1.7-1c0.6-0.3,0.6-0.6,0.2-1.2
				c-0.2-0.4,0-0.5,0.1-0.6c0.2-0.1,0.4,0,0.6,0.3c0.4,0.7,0.7,1.5-0.5,2.2l-1.8,1c-1.8,1-3.1,1.3-4.2-0.7l-2-3.5
				c-1.1-2-0.3-2.9,1.4-3.9L996.5,92.5z"/>
			<path fill="#008080" d="M547.7,92.9l12.9,10.2l-2,1.2l-3.8-2.9l-4.7,2.7c0.2,1.5,0.4,3.4,0.7,4.7l-2,1.2l-2.4-16.3L547.7,92.9z
				 M553,99.9l-4.3-3.7l1,5.6L553,99.9z"/>
			<path fill="#D56100" d="M186,441.1l-16.7,38.5c0-0.1,1.6-13.1-5.7-25.6c-7.2-12.5-19.2-17.6-19.3-17.7L186,441.1z"/>
			<polygon fill="#D56100" points="1218.1,646.7 1238.2,646.6 1231.9,636.1 1242.9,642.3 1243.4,669.5 1222.4,682.2 1222.2,653.7 
							"/>
			<polygon fill="#D56100" points="1231.9,636.1 1212.7,625.5 1225.4,625.3 			"/>
			<polygon fill="#D56100" points="1243.4,669.5 1249.7,665.8 1243.5,676.9 			"/>
			<polygon fill="#A84902" points="1212.7,625.5 1231.9,636.1 1238.2,646.6 1218.1,646.7 1205.4,625.6 			"/>
			<polygon fill="#D56100" points="1243.5,676.9 1243.7,689.5 1232.9,696 			"/>
			<polygon fill="#D56100" points="1212.7,625.5 1205.4,625.6 1201.7,619.4 			"/>
			<polygon fill="#D56100" points="1232.9,696 1226.8,707 1199.5,707.5 1186.9,686.5 1215.4,686.4 1222.4,682.2 1222.4,702.3 			"/>
			<polygon fill="#A84902" points="1243.4,669.5 1243.5,676.9 1232.9,696 1222.4,702.3 1222.4,682.2 			"/>
			<polygon fill="#D56100" points="1182.6,651 1182.5,630.9 1172,637.2 1178.2,626.1 1205.4,625.6 1218.1,646.7 1189.5,646.8 			"/>
			<polygon fill="#D56100" points="1172,637.2 1161.4,656.3 1161.2,643.7 			"/>
			<polygon fill="#D56100" points="1199.5,707.5 1203.3,713.8 1192.2,707.6 			"/>
			<polygon fill="#A84902" points="1173,697 1166.8,686.5 1186.9,686.5 1199.5,707.5 1192.2,707.6 			"/>
			<polygon fill="#A84902" points="1182.5,630.9 1182.6,651 1161.5,663.6 1161.4,656.3 1172,637.2 			"/>
			<polygon fill="#D56100" points="1161.5,663.6 1155.3,667.4 1161.4,656.3 			"/>
			<polygon fill="#D56100" points="1179.6,707.9 1173,697 1192.2,707.6 			"/>
			<polygon fill="#D56100" points="1166.8,686.5 1173,697 1162,690.9 1161.5,663.6 1182.6,651 1182.7,679.5 1186.9,686.5 			"/>
		</g>
	</g>
</g>
</svg>
