<!-- Generator: Adobe Illustrator 18.0.0, SVG Export Plug-In  -->
<svg version="1.1"
	 xmlns="http://www.w3.org/2000/svg" xmlns:xlink="http://www.w3.org/1999/xlink" xmlns:a="http://ns.adobe.com/AdobeSVGViewerExtensions/3.0/"
	 x="0px" y="0px" width="1399.8px" height="750.8px" viewBox="0 0 1399.8 750.8" enable-background="new 0 0 1399.8 750.8"
	 xml:space="preserve">
<defs>
</defs>
<rect x="0" y="0" fill="#C2D3D2" width="1399.8" height="750.8"/>
<g>
	<g>
		<g>
			<g>
				<path fill="#018080" d="M438,566.1c-2.2-8.7-10.5-11.9-17.4-11.9c-10.6,0-18.7,8.3-18.7,19.6c0,11.4,8.2,19.8,18.7,19.8
					c6.6,0,13.7-3.1,17-11h-12.1l-7.8-7.8h29.1c-0.4,4.6-0.8,7.6-1.5,9.3v-0.1c-3.7,10.3-14.8,17-24.6,17
					c-15.1,0-26.5-11.4-26.5-27.3c0-16,11.6-27.4,26.5-27.4c10.3,0,22.8,5.3,25.7,19.7H438z"/>
				<path fill="#018080" d="M508,593H533v7.8h-32.9v-53.9H533v7.8h-25v15.2h24.4v7.9H508V593z"/>
				<path fill="#018080" d="M592.5,554.3c4.9-5,11.9-8.2,19.4-8.2c7.6,0,14.5,3.2,19.5,8.2c4.9,5,8,11.9,8,19.5s-3.2,14.5-8,19.5
					c-5,5.1-11.9,8.2-19.5,8.2c-7.6,0-14.5-3.1-19.4-8.2c-4.9-5-8-11.9-8-19.5S587.6,559.3,592.5,554.3z M625.9,559.8
					c-3.6-3.6-8.6-5.9-14-5.9s-10.3,2.2-13.8,5.9c-3.5,3.5-5.8,8.5-5.8,14s2.2,10.4,5.8,14c3.5,3.6,8.5,5.9,13.8,5.9
					s10.3-2.2,14-5.9c3.5-3.5,5.7-8.4,5.7-14S629.4,563.4,625.9,559.8z"/>
				<path fill="#018080" d="M713.1,546.8c17.7,0,26.5,13.5,26.5,27s-8.9,26.9-26.5,26.9h-19.4v-53.9H713.1z M713.1,593
					c12.5,0,18.8-9.6,18.8-19.1c0-9.6-6.3-19.2-18.8-19.2h-11.6V593H713.1z"/>
				<path fill="#018080" d="M798.3,600.8v-53.9h7.8v53.9H798.3z"/>
				<path fill="#018080" d="M877.4,600.8h-7.8v-54h6.3l17.8,26.2l17.8-26.2h6.2v54H910v-38l-14.1,21h-4.4l-14.1-21V600.8z"/>
				<path fill="#018080" d="M980.8,593h25.1v7.8h-32.9v-53.9h32.9v7.8h-25v15.2h24.4v7.9h-24.4V593z"/>
			</g>
			<polygon fill="#018080" points="886.4,577 893.7,587.8 901,577 			"/>
		</g>
	</g>
	<g id="XMLID_1_">
		<g id="XMLID_2_">
			<g>
				<polygon fill="#EA5D2C" points="790.1,186.9 881.3,344.4 790.1,397.1 790.1,396.2 				"/>
				<polygon fill="#018080" points="740.2,273.9 790.1,186.9 790.1,396.2 789.4,395.8 729.9,291.8 				"/>
				<polygon fill="#018080" points="790.1,396.2 790.1,397.1 789.4,395.8 				"/>
				<polygon fill="#018080" points="608.3,396.5 699.7,239.1 699.7,449.3 				"/>
				<polygon fill="#EA5D2C" points="699.7,239.1 608.3,396.5 608.3,396.5 669.4,148.6 669.4,148.5 740.2,273.9 729.9,291.8 
					789.4,395.8 790.1,397.1 699.7,449.3 				"/>
				<polygon fill="#018080" points="669.4,148.6 608.3,396.5 517.5,344 				"/>
				<polygon fill="#EA5D2C" points="608.3,396.5 608.2,396.5 608.3,396.5 				"/>
			</g>
			<g>
			</g>
		</g>
	</g>
</g>
</svg>
