<!-- Generator: Adobe Illustrator 18.0.0, SVG Export Plug-In  -->
<svg version="1.1"
	 xmlns="http://www.w3.org/2000/svg" xmlns:xlink="http://www.w3.org/1999/xlink" xmlns:a="http://ns.adobe.com/AdobeSVGViewerExtensions/3.0/"
	 x="0px" y="0px" width="800px" height="800px" viewBox="0 0 800 800" enable-background="new 0 0 800 800" xml:space="preserve">
<defs>
</defs>
<rect fill="#035D5D" width="800" height="800"/>
<g id="XMLID_1_">
	<g id="XMLID_2_">
		<g>
			<polygon fill="#EA5D2C" points="519.1,527.2 519.1,253.4 638.4,459.5 519.1,528.3 			"/>
			<polygon fill="#018080" points="519.1,527.2 519.1,528.3 518.1,526.6 			"/>
			<polygon fill="#018080" points="518.1,526.6 440.3,390.6 453.7,367.2 519.1,253.4 519.1,527.2 			"/>
			<polygon fill="#018080" points="400.8,321.7 400.7,596.7 281.2,527.5 			"/>
			<polygon fill="#EA5D2C" points="361.2,203.2 453.7,367.2 440.3,390.6 518.1,526.6 519.1,528.3 400.7,596.7 400.8,321.7 
				281.2,527.5 281.2,527.5 361.1,203.2 			"/>
			<polygon fill="#018080" points="162.4,458.8 361.1,203.2 281.2,527.5 			"/>
			<polygon fill="#EA5D2C" points="281.2,527.5 281.1,527.6 281.2,527.5 			"/>
		</g>
		<g>
		</g>
	</g>
</g>
</svg>
