<?xml version="1.0" encoding="utf-8"?>
<!-- Generator: Adobe Illustrator 18.0.0, SVG Export Plug-In . SVG Version: 6.00 Build 0)  -->
<!DOCTYPE svg PUBLIC "-//W3C//DTD SVG 1.1//EN" "http://www.w3.org/Graphics/SVG/1.1/DTD/svg11.dtd">
<svg version="1.1" id="Layer_1" xmlns="http://www.w3.org/2000/svg" xmlns:xlink="http://www.w3.org/1999/xlink" x="0px" y="0px"
	 viewBox="0 0 97.3 136.5" style="enable-background:new 0 0 97.3 136.5;" xml:space="preserve">
<path d="M72.7,59.8c-0.3-0.3-0.5-0.5-0.8-0.7l0,0L41.6,28.7c-4.7-4.7-12.3-4.7-16.9,0S20,41,24.6,45.6l22.6,22.6L25.4,90l0,0
	c-0.3,0.2-0.5,0.5-0.8,0.7c-4.7,4.7-4.7,12.3,0,16.9s12.3,4.7,16.9,0c0.3-0.3,0.5-0.5,0.7-0.8l0,0l29.3-29.3c0.3-0.3,0.7-0.6,1-0.9
	C77.4,72.1,77.4,64.5,72.7,59.8z"/>
</svg>
