<?xml version="1.0" encoding="utf-8"?>
<!-- Generator: Adobe Illustrator 18.0.0, SVG Export Plug-In . SVG Version: 6.00 Build 0)  -->
<!DOCTYPE svg PUBLIC "-//W3C//DTD SVG 1.1//EN" "http://www.w3.org/Graphics/SVG/1.1/DTD/svg11.dtd">
<svg version="1.1" id="Layer_1" xmlns="http://www.w3.org/2000/svg" xmlns:xlink="http://www.w3.org/1999/xlink" x="0px" y="0px"
	 viewBox="0 0 97.3 136.5" style="enable-background:new 0 0 97.3 136.5;" xml:space="preserve">
<path d="M69.2,68.2c0-3.9-1.9-7.4-4.8-9.5L49.7,44c-2.2-2.9-5.6-4.8-9.5-4.8c-6.6,0-12,5.4-12,12c0,3.2,1.2,6,3.2,8.2l-0.1,0.1
	l8.8,8.8l-8.4,8.4c0,0-0.1,0.1-0.1,0.1l-0.3,0.3l0,0c-2,2.1-3.2,5-3.2,8.1c0,6.6,5.4,12,12,12c3.1,0,6-1.2,8.1-3.2l0,0l17.4-17.4
	l0,0C67.8,74.5,69.2,71.5,69.2,68.2z"/>
</svg>
