<svg class="svg-defs" xmlns="http://www.w3.org/2000/svg">
	<!-- TRANSPARENCY -->
	<style>
		.transparent {
			opacity: 0.3;
		}
	</style>


	<!-- NAV ICONS -->
	<symbol viewBox="0 0 780.6 893.6" id="nav-about">
		<title>nav-about</title>
		<path d="M433.5,216L557.9,0H222l124.4,216H0l390.3,677.6L780.6,216H433.5z M471.4,50L390,191.4L308.5,50H471.4z M86.5,266h607.6 L390.3,793.4L86.5,266z"/>
	</symbol>

	<symbol viewBox="0 0 780.6 893.6" id="nav-work">
		<title>nav-work</title>
		<path d="M780.6,677.6L390.3,0L0,677.6h124.4L0,893.6h780.6l-124.4-216H780.6z M86.5,627.6l303.8-527.4l303.8,527.4h-66.7L390.3,216 L153.2,627.6H86.5z M569.7,627.6H210.9l179.4-311.4L569.7,627.6z M694.1,843.6H86.5l95.6-166h416.3L694.1,843.6z"/>
	</symbol>
	
	<symbol viewBox="0 0 780.6 918.2" id="nav-contact">
		<title>nav-contact</title>
		<path d="M780.6,240.7h-252L390,0L251.4,240.7H0l390.3,677.6L780.6,240.7z M694.1,290.7l-68.3,118.6l-68.3-118.6H694.1z M582.1,433.7H197.9l82.4-143h219.4L582.1,433.7z M390,100.2l80.9,140.5H309.1L390,100.2z M86.5,290.7h136l-68,118.1L86.5,290.7z M390.3,818L197.7,483.7h385.2L390.3,818z"/>
	</symbol>

	<symbol viewBox="0 0 558 868" id="nav-cv">
		<title>nav-cv</title>
		<path d="M558,0H0l250,434L0,868h558l-250-434L558,0z M86.5,50h385L279.2,383.9l-0.2-0.3l-0.2,0.3L86.5,50z M471.5,818h-385 l192.3-333.9l0.2,0.3l0.2-0.3L471.5,818z"/>
	</symbol>

	<!-- TRIANGLES -->
	<symbol viewBox="0 0 473.3 410.8" id="triangle">
		<title>triangle</title>
		<polygon points="236.6,1 472.4,410.3 0.9,410.3 "/>
	</symbol>

	<symbol viewBox="0 0 540.7 469.4" id="spinner">
		<title>spinner</title>
		<path d="M540.7,469.4H0L270.4,0L540.7,469.4z M69.2,429.4h402.3L270.4,80.1L69.2,429.4z"/>
	</symbol>

	<!-- SOCIAL ICONS -->
	<symbol viewBox="0 0 106.1 86.2" id="twitter">
		<title>twitter</title>
		<path d="M106.1,10.2c-3.9,1.7-8.1,2.9-12.5,3.4c4.5-2.7,7.9-7,9.6-12c-4.2,2.5-8.9,4.3-13.8,5.3C85.4,2.6,79.7,0,73.4,0 c-12,0-21.8,9.7-21.8,21.8c0,1.7,0.2,3.4,0.6,5C34.2,25.8,18.1,17.2,7.4,4c-1.9,3.2-2.9,7-2.9,10.9c0,7.6,3.8,14.2,9.7,18.1 c-3.6-0.1-6.9-1.1-9.9-2.7c0,0.1,0,0.2,0,0.3c0,10.5,7.5,19.3,17.5,21.3c-1.8,0.5-3.7,0.8-5.7,0.8c-1.4,0-2.8-0.1-4.1-0.4 c2.8,8.6,10.8,14.9,20.3,15.1c-7.4,5.8-16.8,9.3-27,9.3c-1.8,0-3.5-0.1-5.2-0.3c9.6,6.2,21.1,9.8,33.4,9.8c40,0,61.9-33.2,61.9-61.9 c0-0.9,0-1.9-0.1-2.8C99.5,18.4,103.2,14.6,106.1,10.2z"/>
	</symbol>

	<symbol viewBox="0 0 94 89.9" id="linkedin">
		<title>linkedin</title>
		<path d="M21.3,89.9V29.2H1.2v60.6H21.3L21.3,89.9z M11.3,21c7,0,11.4-4.7,11.4-10.5C22.5,4.5,18.3,0,11.4,0 C4.5,0,0,4.5,0,10.5C0,16.3,4.4,21,11.1,21H11.3L11.3,21z"/>
		<path d="M32.5,89.9h20.2V56c0-1.8,0.1-3.6,0.7-4.9c1.5-3.6,4.8-7.4,10.3-7.4c7.3,0,10.2,5.6,10.2,13.7v32.4H94V55.1 c0-18.6-9.9-27.3-23.2-27.3C60,27.8,55.2,33.9,52.5,38h0.1v-8.8H32.5C32.8,34.9,32.5,89.9,32.5,89.9L32.5,89.9z"/>
	</symbol>

	<symbol viewBox="0 0 97.3 97.3" id="skype">
		<title>skype</title>
		<path d="M71.3,97.3c-1.1,0-2.1,0-3.2,0c-0.2-0.1-0.3-0.2-0.5-0.2c-4-0.3-7.7-1.6-11.2-3.5c-0.5-0.3-1.2-0.3-1.8-0.2 c-4.3,0.6-8.6,0.5-12.8-0.1C17.6,89.5,0.8,67.1,4,42.8c0.1-0.7-0.1-1.4-0.4-2c-0.9-2.6-2-5.1-2.9-7.7c-0.4-1.2-0.5-2.5-0.7-3.8 c0-1.3,0-2.5,0-3.8c0.1-0.4,0.2-0.8,0.3-1.3C1.8,13.6,7.5,6.1,17.4,2.1C20.1,1,23.2,0.7,26.1,0c1.1,0,2.1,0,3.2,0 c0.2,0.1,0.3,0.2,0.5,0.2c4,0.3,7.7,1.6,11.2,3.5C41.5,4,42.2,4.1,42.8,4c4.3-0.6,8.6-0.5,12.8,0.1c24.2,3.8,40.9,26.1,37.7,50.4 c-0.1,0.7,0.1,1.4,0.4,2c0.9,2.6,2,5.1,2.9,7.7c0.4,1.2,0.5,2.5,0.7,3.8c0,1.3,0,2.5,0,3.8c-0.1,0.4-0.2,0.8-0.3,1.3 c-1.5,10.6-7.2,18.1-17.2,22.2C77.2,96.4,74.1,96.7,71.3,97.3z M48.8,77.9c0.6,0,1.3,0,1.9,0c5.6-0.3,11-1.5,15.6-4.9 c6.9-5.1,8.8-14.9,4.2-21.6c-2.3-3.4-5.8-5.3-9.6-6.4c-5-1.5-10.1-2.7-15.2-4.1c-2-0.6-4-1.2-5.7-2.3c-3.6-2.1-3.6-5.9-0.2-8.4 c2.2-1.6,4.7-2,7.4-2.2c5.1-0.3,9.1,1.3,11.5,6.1c0.5,0.9,1.1,1.8,1.7,2.7c1.6,2.1,4.2,2.7,6.6,1.7c2.2-1,3.6-3.4,3.3-5.9 c-0.6-4.5-3.3-7.6-7-9.5c-10.1-5.2-20.5-5-30.5,0.3c-6,3.2-8.4,9.9-6.5,16.3c1.4,4.9,5,7.8,9.5,9.4c4.7,1.6,9.5,2.8,14.3,4.1 c2.7,0.8,5.6,1.3,7.9,3c3.3,2.5,3.5,7,0.5,9.8c-1.9,1.8-4.2,2.7-6.7,3c-8.1,1-12.7-0.9-15.7-8.2c-0.3-0.8-0.8-1.6-1.3-2.3 c-1.6-2.3-4.2-3-6.8-2c-2.5,1-3.8,3.3-3.3,6.1c0.8,4.9,3.7,8.5,7.7,11.3C37.2,77.1,42.9,77.8,48.8,77.9z"/>
	</symbol>

	<symbol viewBox="0 0 100.6 98.1" id="github">
		<title>github</title>
		<path d="M50.3,0C22.5,0,0,22.5,0,50.3C0,72.5,14.4,91.4,34.4,98c2.5,0.5,3.4-1.1,3.4-2.4c0-1.2,0-4.4-0.1-8.6 c-14,3-16.9-6.7-16.9-6.7c-2.3-5.8-5.6-7.4-5.6-7.4c-4.6-3.1,0.3-3.1,0.3-3.1c5,0.4,7.7,5.2,7.7,5.2c4.5,7.7,11.8,5.5,14.6,4.2 c0.5-3.2,1.8-5.5,3.2-6.7c-11.2-1.3-22.9-5.6-22.9-24.9c0-5.5,2-10,5.2-13.5c-0.5-1.3-2.2-6.4,0.5-13.3c0,0,4.2-1.4,13.8,5.2 c4-1.1,8.3-1.7,12.6-1.7c4.3,0,8.6,0.6,12.6,1.7c9.6-6.5,13.8-5.2,13.8-5.2c2.7,6.9,1,12,0.5,13.3c3.2,3.5,5.2,8,5.2,13.5 c0,19.3-11.8,23.6-23,24.8c1.8,1.6,3.4,4.6,3.4,9.3c0,6.7-0.1,12.1-0.1,13.8c0,1.3,0.9,2.9,3.5,2.4c20-6.7,34.4-25.5,34.4-47.7 C100.6,22.5,78.1,0,50.3,0z"/>
	</symbol>

	<symbol viewBox="0 0 102 101.8" id="codepen">
		<title>codepen</title>
		<path d="M101.9,50.9c0,4.9,0,9.9,0,14.8c0,2.1-0.7,3.5-2.4,4.7C84.3,80.5,69,90.7,53.8,100.9c-2,1.3-3.8,1.3-5.8,0 C32.9,90.7,17.7,80.6,2.5,70.5C0.8,69.3,0,67.8,0,65.7c0-9.9,0-19.7,0-29.6c0-2.1,0.8-3.6,2.6-4.8C17.7,21.2,32.9,11.1,48,1 c2.1-1.4,4-1.3,6,0c15.1,10.1,30.2,20.2,45.3,30.2c1.9,1.2,2.7,2.8,2.7,5C101.9,41.2,101.9,46,101.9,50.9z M12.3,35.4 c5,3.3,9.8,6.6,14.7,9.8c0.4,0.2,1.2,0,1.6-0.2c5.7-3.7,11.3-7.5,16.9-11.3c0.5-0.4,1-1.2,1-1.9c0.1-5.9,0-11.9,0-17.8 c0-0.3-0.1-0.7-0.1-1.3C35,20.2,23.7,27.8,12.3,35.4z M55.5,12.6c-0.1,0.5-0.1,0.7-0.1,0.9c0,6.2,0,12.3,0,18.5 c0,0.6,0.5,1.4,1,1.7c5.6,3.8,11.2,7.5,16.8,11.3c0.8,0.6,1.4,0.6,2.2,0c4.1-2.8,8.2-5.5,12.3-8.3c0.6-0.4,1.2-0.8,1.9-1.3 C78.2,27.7,66.9,20.2,55.5,12.6z M12.3,66.4C23.8,74.1,35,81.6,46.4,89.1c0.1-0.4,0.2-0.5,0.2-0.6c0-6.3,0-12.5,0-18.8 c0-0.4-0.3-1.1-0.6-1.3c-5.8-4-11.7-7.9-17.6-11.8c-0.3-0.2-1-0.2-1.4, 0C22.1,59.8,17.3,63.1,12.3,66.4z M55.4,89.3 C66.9,81.6,78.2,74,89.7,66.4c-5-3.3-9.7-6.6-14.5-9.7c-0.4-0.3-1.3-0.2-1.8,0.1c-5.7,3.7-11.3,7.5-16.9,11.3 c-0.5,0.4-1,1.2-1,1.9c-0.1,4.9,0,9.8,0,14.6C55.4,86.1,55.4,87.5,55.4,89.3z M66.5,50.9c-5.1-3.4-10-6.7-14.9-9.9 c-0.3-0.2-1.2,0-1.6,0.3c-4.5,3-9,6-13.5,9c-0.3,0.2-0.5,0.4-0.8,0.7c4.9,3.3,9.7,6.5,14.5,9.7c0.4,0.2,1.2,0.3,1.5,0.1 C56.5,57.6,61.4,54.3,66.5,50.9z M93,58.1c0-4.9,0-9.6,0-14.5c-3.7,2.5-7.2,4.8-10.8,7.2C85.9,53.4,89.4,55.7,93,58.1z M8.9,58.2 c3.8-2.5,7.2-4.8,10.9-7.3c-3.7-2.5-7.2-4.8-10.9-7.3C8.9,48.6,8.9,53.2,8.9,58.2z"/>
	</symbol>

	<symbol viewBox="0 0 128.3 81.8" id="behance">
		<title>behance</title>
		<path d="M128.2,54.7c0-3,0.2-6.4,0-9.4c-0.8-12.2-8.4-21.9-19.9-24.8c-3.5-0.9-7.2-1.2-10.8-1.1c-12.8,0.2-23.1,8.2-26.2,20.5 c-1.8,7-1.7,14.1-0.2,21.2c1.7,7.8,6.2,13.4,13.2,17c8.8,4.5,17.9,4.9,27.2,1.9c6.4-2.1,11-6.3,14.3-12c0.9-1.5,1.3-3.2,2.1-5.3 c-5.4,0-10.3,0-15.2,0c-0.4,0-0.9,0.5-1.2,0.8c-3.4,5.6-8.7,6.5-14.4,5.7c-7.3-0.9-12.5-6.5-11.4-14.5 C99.9,54.7,114,54.7,128.2,54.7z M99.1,32.2c7.7,0,12.7,4.4,13.4,12.4c-8.8,0-17.5,0-26.4,0C86.6,36.7,91.6,32.3,99.1,32.2z"/>
		<path d="M53.8,37.3c2.3-2.4,5.1-4.4,6.7-7.1c5.9-9.9,1.2-23.6-9.5-27.8c-3.3-1.3-6.9-2.1-10.4-2.2C27.5-0.1,14.4,0,1.4,0 C0.9,0,1,0.1,0,0.2c0,26.6,0,53,0,79.6c1,0,1,0.1,1.5,0.1c11.7,0,23.3,0.1,35-0.1c3.8-0.1,7.6-0.5,11.3-1.3 c9.4-2,16.2-9.7,17.5-19.9C66.2,50.3,63.5,41.2,53.8,37.3z M16,14.2c0-0.1,0.2-0.3,0.3-0.3c7.9,0.1,15.8,0,23.7,0.5 c4.6,0.3,6.7,3,7,7.2c0.3,5-1.6,7.9-6.2,9.2c-1.6,0.4-3.4,0.7-5,0.7c-6.3,0.1-12.5,0-18.9,0c-0.3,0-0.9-0.1-0.9-0.2 C16,25.6,16,19.9,16,14.2z M41,65.4c-1.1,0.3-2.3,0.5-3.5,0.5C30.4,66,24,66,16,66c0-7.1,0-14.1,0-21.6c8,0.2,16.4,0.1,24.5,0.8 c5.4,0.4,7.9,3.9,8.1,9.2C48.8,60.2,46.1,64.1,41,65.4z M53.7,37.2C53.6,37.2,53.5,37.1,53.7,37.2L53.7,37.2z"/>
		<path d="M115,4.7c-11,0-22,0-34,0c0,3,0,5,0,8c12,0,23,0,34,0C115,9.7,115,7.7,115,4.7z"/>
	</symbol>

	<!-- TOOLBOX ICONS -->

	<symbol viewBox="0 0 370 360" id="photoshop">
		<title>photoshop</title>
		<path d="M193.1,114.4c-8.5-25.5-30.5-32.3-49.3-33.5C125,79.7,92,81.6,92,81.6V252h27v-61.9c0,0,14.5,2.6,36.4-3 C192.5,177.7,201.6,140,193.1,114.4z M159.5,157.3c-11.2,12.1-39.5,8-39.5,8v-58.9c0,0,23.8-4.3,36.2,3.9S173.1,142.7,159.5,157.3z"/>
		<path d="M213.8,222l0,22.2c0,0-0.4,1.8,1.8,2.9c2.2,1.1,23.7,11.2,50.8,3.1c27.1-8.1,31.5-42.2,15.4-59.1s-43.3-20.4-41.7-34.8 c1.6-14.4,30.3-9.8,41.2-4c3.5,2.2,4.2,0.9,4.2-0.9c0-1.8,0-20.8,0-20.8s0.2-2.6-3.8-3.7c-4-1.1-38.1-10.6-57,7.4 s-11.5,46.9,7,57.1c18.5,10.3,38.9,18.8,30.3,32.3c-7.8,12.2-36.9,3.1-43.9-1.9C213.3,218.4,213.8,220.4,213.8,222z"/>
		<path d="M0,0v360h370V0H0z M355,346H15V14h340V346z"/>
	</symbol>

	<symbol viewBox="0 0 370 360" id="illustrator">
		<title>illustrator</title>
		<path d="M0,0v360h370V0H0z M354,346H14V14h340V346z"/>
		<path d="M164.5,83h-34.2l-1.2,11.1L83.1,257h26.3l12.8-50h50.4l12.8,50h30.2L164.5,83z M129.3,182l17.5-74h1.2l17.5,74H129.3z"/>
		<rect x="242.5" y="128" width="28" height="128.1"/>
		<circle cx="256.3" cy="93.8" r="16.5"/>
	</symbol>

	<symbol viewBox="0 0 320.2 451.1" id="html5">
		<title>html5</title>
		<path class="transparent" d="M15.5,99.5l40,285.7l105,48.8l115-28.2l26-306.2H15.5z M242.5,358.8l-82,22.9V340l44.5-11.8l4.5-51.7h-49 v-41h92.9L242.5,358.8z M257,194.5h-0.1h-96.4v-40h100.1L257,194.5z"/>
		<path d="M30.3,0h20.3v20.1h18.6V0h20.3v60.8H69.2V40.4H50.6v20.4H30.3L30.3,0L30.3,0z"/>
		<path d="M116.2,20.2H98.3V0h56.1v20.2h-17.9v40.6h-20.3L116.2,20.2L116.2,20.2z"/>
		<path d="M163.3,0h21.2l13,21.4l13-21.4h21.2v60.8h-20.2V30.7l-14,21.6h-0.3l-14-21.6v30.1h-19.9V0z"/>
		<path d="M241.9,0h20.3v40.7h28.6v20.1h-48.9V0z"/>
		<path d="M0,87.5l29.2,327.1L160,451.1l131-36.4l29.2-327.1H0z M266.2,394l-105.7,29.3v-41.6l-0.2,0L78,358.9l-5.8-64.4h40.3 l3,33.4l44.9,12.1l0.2,0v-63.5h-90l-10.8-122h100.8v-40H291L266.2,394z"/>
		<polygon points="107.1,235.5 160.5,235.5 160.5,194.5 103.5,194.5"/>
	</symbol>

	<symbol viewBox="0 0 326.1 457" id="css3">
		<title>css3</title>
		<path class="transparent" d="M14.6,103.5l29.5,305.6l118.5,30.1l123.5-22.6l26-313.1H14.6z M246.3,363.7l-83.4,24.1l-0.3,0V344l46-12.9 l3.3-52.1l-49.2-0.2v-39.2l94.2,0.2L246.3,363.7z M260.2,197.7l-97.7,41.9v-39.5l5.9-2.5h-5.9v-40h102L260.2,197.7z"/>
		<polygon points="87.9,41.3 87.9,21.6 116.6,21.6 116.6,0 66.3,0 66.3,61 116.6,61 116.6,41.3"/>
		<path d="M168.4,21.6h20.1V0h-50.3c0,0,0,10.8,0,21.6c6.7,6.7,10.3,10,20,19.7c-5.7,0-20,0-20,0V61h50.3V41.3L168.4,21.6z"/>
		<path d="M239.7,21.6h20.1V0h-50.3c0,0,0,10.8,0,21.6c6.7,6.7,10.2,10,20,19.7c-5.7,0-20,0-20,0V61h50.3V41.3L239.7,21.6z"/>
		<path d="M0,89.5l30.6,331.6L163.1,457l132.5-36l30.6-331.5H0z M270.6,399.7l-107.5,29l-0.5,0.1v-40.9L79.3,363l-5.2-62.5h41.3 l2.7,32.4l44.3,11.2l0.2,0v-65.2l-91.5-0.3l0.1,0.1l-3.4-39.2l94.8-39.4v-2.5h-98l-5-40h103v-41h132.7L270.6,399.7z"/>
		<polygon points="163.1,239.6 163.1,239.6 163,239.6"/>
	</symbol>

	<symbol viewBox="0 0 322 453.6" id="javascript">
		<title>javascript</title>
		<polygon points="112.9,237.8 161.2,237.8 161.2,196.8 114.8,196.8"/>
		<path d="M161,88.8H0l30.2,327.6L161,453.6l130.8-37.2L322,88.8H161z M267.1,395.9l-105.9,30.1v-41.7l-82.5-23.6l-5.9-62.9h40.7 l2.8,31.5l44.9,13.1v-64.6h-90l-0.2,0.7l11.3-122.7h78.9v-40h131.6L267.1,395.9z"/>
		<path class="transparent" d="M43.2,108.8v298.1l118,35l125-36.9l22-296.2H43.2z M161.2,155.8h84.1l9,64h-41.1l-1.5-23h-50.5V155.8z M243.5,360.8l-82.3,23.4v-41.8l44.1-12.7l4.4-51.9h-48.5v-40h93.6L243.5,360.8z"/>
		<polygon points="129.7,40.6 101,40.6 101,61.1 129.7,61.1 145,61.1 150.2,61.1 150.2,0 129.7,0"/>
		<path d="M221,0.3h-50c0,0,0,10.7,0,21.4c6.7,6.7,10.2,9.9,19.8,19.5c-5.7,0-19.8,0-19.8,0v19.5h50V41.3l-20-19.6h20V0.3z"/>
	</symbol>

	<symbol viewBox="0 0 417.2 328.9" id="jquery">
		<title>jquery</title>
		<path d="M150.2,34.5l0.8-2.5c-0.4,0,3.4-6,3-6c-28.5,27.5-26,64.4-12.3,90.9c9.5,18.5,27,35.8,47.8,45.1c9.6,4.3,24.4,8.3,39.8,8 c33.1-0.7,56.3-16.3,69.3-41.8l0.8-2c-11.5,11.6-30.4,19.7-45.1,21.2C192.9,153.7,129.7,98.7,150.2,34.5z"/>
		<path d="M231.8,43.9c8.1,13,23.6,24.5,47.8,19.4c6.1-1.3,19.9-11.7,22.3-17.2c-20.7,14.1-33.6,9.4-39.7,7.6 c-1.3-0.4-4.4-1.8-7.3-3.5c-6.4-3.9-9.6-5.6-14.6-12.9c-2.7-4-5.5-10.3-6.4-14c-1.5-6-1.1-15.3,1.8-23.2 c-9.4,8.4-10.8,24.6-7.7,35.3C228.3,36.6,230.5,41.9,231.8,43.9z"/>
		<path d="M238.4,112.9c32.5,4.3,56.7-9.3,65-30.5c-9.6,10.1-25.7,17.4-41.1,17.3c-34.5-0.2-73.4-31.2-69-74.3 c0.4-3.7,1.9-9.5,5.8-17.1c-11.5,14.4-18.4,26.3-16.5,46.3C185.3,81.9,211.2,109.3,238.4,112.9z"/>
		<path d="M395.3,219.4L364,262.8l-2.8-11.3h-20.5c0,0,2,10.3,3.5,15.6c1.5,5.2,4.1,10.4,4.2,15.6c0.1,5.9-3,17.1-3,17.1l20-0.1 c0,0,2.2-10.7,4.2-15.6c0.8-1.9,2.5-3.5,3.5-5c3.3-4.5,43.9-59.5,43.9-59.5L395.3,219.4z"/>
		<path d="M354,231c-4.4-2.6-14.8-1.5-23.8-1.5h-13.8c-8.7,0-13.8-0.6-14.7,2.8c-2.7,10.3-14.2,67.3-14.2,67.3H306l12-52.4h9.9 c11.5,0,32.6-0.3,32.6-0.3S358,233.5,354,231z"/>
		<path d="M283.5,236.6c-3.9-5.4-11.8-7.3-17-7.8c-13.9-1.4-25.5,2.3-31.9,7.1c-1.9,1.4-3.5,2.6-5,4.2c-0.5,0.6-1.1,1.3-1.5,1.9 c-0.4,0.6-0.9,1-1.3,1.6c-0.6,0.9-1.2,2.6-1.9,4.1c-0.6,1.2-1.1,2.6-1.6,3.7c-3.8,9.6-7.8,27.5-4.2,36.8c0.5,1.4,1.7,3.1,2.1,3.7 c0.5,0.7,0.9,1.4,1.5,2c1.9,2.1,4.8,3.5,7.8,4.2c15.3,3.7,46,2.1,46,2.1l3.8-16.7c0,0-21.7,1-32.1-0.3c-1.6-0.2-5.9-0.4-8.1-2.4 c-1.9-1.7-4.2-5.7-2.5-8.3c1.2-1.8,5.9-1.3,9.9-1.4c12.8-0.4,36.1,0,36.1,0s4.5-19.9,2.1-28.3C285,240.9,284.5,238.1,283.5,236.6z M268.2,256.6l-27.4-0.2c0,0-0.3-11.9,15.7-11.4c5.7,0.2,7.7,0.9,9.8,4.3C268.8,253.2,268.2,256.6,268.2,256.6z"/>
		<path d="M201.1,229.5l-12.8,53.1c0,0-7.1,0-9.2,0c-6.8-0.2-9-0.4-10.6-3.5c-1.7-3.3-0.1-7.6,0.7-12c2.2-12.5,7.4-37.6,7.4-37.6 l-18.5,0.2c0,0-3.5,16.1-5.2,24c-2.4,11.1-7.4,27.6-2.1,37.5c5.4,10.3,18.2,8.5,32.6,8.5h20.5c5.1-23,15-70.2,15-70.2L201.1,229.5
		z"/>
		<path d="M142.3,237.3c-1.1-7.9-6.3-16.5-11.9-20.1c-0.2-0.1-1.2-1-1.5-1.1c-4.2-2.4-10.9-4.5-15.6-5c-24.1-2.5-38.5,8.2-46.8,22.7 c-3.3,5.7-5.4,11.9-7.1,18.4c-1.9,7.3-3.2,16.1-2.1,24.1c0.6,4.8,3.3,11.6,7.1,15.6c9.4,9.8,27.8,8.5,47.5,8.5 c6,0,20.5-0.1,24.8-0.2c1.4,0,5.5-16.5,5.1-17c-0.3-0.4-5.2,0.2-10.7-0.3C136.5,268.5,144.4,252.1,142.3,237.3z M117.5,263.5 c-1.8,6.3-3.5,12.7-5.7,18.4c-14.3-0.1-27.6,1.9-31.9-7.1c-2.4-5.1-1.3-11.9,0-18.4c1.8-8.7,3.5-15.1,8.5-20.5 c3.9-4.2,13.6-9.4,24.1-5.7c3.5,1.2,8.8,7.1,9.2,13.5C122.1,249.6,119.4,256.8,117.5,263.5z"/>
		<path d="M31.8,246.5h19.8c1.3-5.4,2.4-11.5,3.6-16.9c-7,0-12.9-0.1-19.2-0.1C34.5,234.6,33.4,240.5,31.8,246.5z"/>
		<path d="M23.3,284c-2.9,13.8-3.3,28-18.4,26.2c-1.4,5.3-3.3,12.4-4.9,18.4c6.2,0.1,11.9,0.6,16.9,0.1c3.1-0.3,8.7-1.7,9.9-2.8 c0.5-0.5,0.8-0.2,1.4-0.7c6.6-5.1,8.2-12.2,10.6-22c3.9-15.5,8.8-37.9,11.3-51.7H31.1C30.1,254.6,25,276.1,23.3,284z"/>
	</symbol>

	<symbol viewBox="0 0 470 352.5" id="sass">
		<title>sass</title>
		<path d="M227.7,0c7.4,1.5,14.9,2.7,22.2,4.7c13.9,3.9,26.5,10.1,36,21.6c8.5,10.4,11.5,22.7,10.1,35.7 c-3.7,35.6-24.3,60.3-53.3,78.6c-21.5,13.6-45.6,19.7-70.9,20.9c-10.3,0.5-20.8-0.3-30.9-1.9c-10.6-1.7-19.8-7.3-26.8-15.7 c-2.4-2.9-3.9-6.5-5.3-10c-0.4-1,0.7-2.7,1.5-3.8c0.2-0.2,2.3,0.4,3,1.1c13.3,14.2,30.4,16.2,48.2,14.5 c27-2.6,51.8-11.7,73.5-28.1c13.6-10.3,25.2-22.5,31.6-38.5c2.3-5.8,3.7-12.3,4.1-18.6c0.6-10.7-4.5-18.7-14-23.9 c-10.3-5.6-21.6-7.6-33.1-8c-30.6-1.1-59.3,7.2-86.7,19.9C111.8,59.9,87.9,73.6,67,91.8c-10.3,9-19.4,19.1-25.5,31.5 c-10,20.4-7.8,40.5,8.1,56.7c10.6,10.9,23,20.1,34.6,30c7.5,6.5,15.2,12.8,22.6,19.4c2.3,2.1,3.9,2.2,6.4,0.8 c12.9-7.2,26-14.3,38.9-21.6c2.6-1.5,4.9-3.6,6.8-5.8c8.6-10,18.2-18.6,30.8-23.1c12.6-4.5,21.7,0.8,23.1,13.7 c0.4,3.9-0.1,7.9-0.2,11.9c0,0.7-0.2,1.5-0.4,2.5c1.9-0.8,3.5-1.8,5.2-2.1c7.2-1.4,11.7,4,9.9,11.5c-3.7,14.8-7.5,29.6-10.9,44.4 c-0.9,4-0.5,8.3-0.7,12.5c0.5,0.1,0.9,0.3,1.4,0.4c0.9-1.5,2-2.8,2.7-4.4c13.7-30.2,27.4-60.4,40.9-90.6 c1.6-3.6,1.9-7.7,3.3-11.4c0.7-1.9,2.3-4.3,4-5c6.7-2.4,13.7-3.4,20.7-1.6c4.7,1.2,5.8,3.1,4.1,7.6c-4.3,11.4-6.4,23-3.5,35 c1.2,5.2,3.5,10.2,5.3,15.3c0.5,0,1,0.1,1.5,0.1c4.3-7.5,8.7-14.9,12.9-22.4c7.4-13.4,15-26.7,17.8-42c0.8-4.7,3.8-6.9,8.1-7.3 c5.4-0.5,11-1.1,16.4-0.5c5.4,0.6,6.6,3.1,4.7,8.3c-4.2,11.1-6.4,22.5-3.3,34.1c2,7.7,5.6,15,8.2,21.6c11-2.9,20.7-6.4,30.7-7.8 c21.3-3,41.8-0.3,59.5,13.6c9.1,7.1,15.1,16.3,18,27.5c0.2,0.8,0.7,1.6,1,2.4c0,4.3,0,8.6,0,12.9c-0.5,1.1-1.2,2.1-1.6,3.2 c-3,8.7-8.9,14.9-17.1,18.8c-2.1,1-5,0.5-7.5,0.6c1.4-1.7,2.6-3.7,4.4-5c12.2-8.8,15.2-20.8,8.1-34.1c-5-9.4-13-15.3-22.5-19.2 c-15-6.2-30.7-6.8-46.5-5.2c-6.7,0.7-13.3,3-20.2,4.6c0.8,2.5,1.3,4,1.8,5.6c3.5,11.5,3.2,22.3-5.1,31.9 c-8.7,10.1-19.8,16.3-32.4,19.7c-9.4,2.5-16.5-3.4-15.2-13.1c0.8-5.9,2.8-11.9,5.4-17.3c5-10.3,12.9-18.5,21-25.3 c-4.4-12.5-8.6-24.7-12.6-36.2c-6.6,11.4-13.1,23.8-20.8,35.2c-4.7,7-6.2,12.8-3.4,21.2c4.8,14.1,2,27.4-9.9,37.4 c-10.4,8.7-22.7,13.1-36.2,13.8c-4.7,0.2-9.6,0-12.1-4.8c-2.4-4.7,0.6-8.5,3.3-12.1c0.5-0.6,0.9-1.2,1.4-1.8 c8.8-10.9,17.6-21.9,26.5-32.8c2-2.4,2.4-4.5,0.8-7.4c-5.7-10.5-9.8-21.7-11.8-33.6c-0.1-0.6-0.6-1.1-1.2-2.1 c-0.6,1.5-1,2.5-1.4,3.4c-8.8,19.2-17.2,38.5-26.5,57.4c-5.4,11.1-12,21.6-18.7,32c-3.4,5.2-8.6,9.9-15.8,7.8 c-7.6-2.2-9-9.1-9.6-15.7c-0.5-5.9-0.1-12-0.1-18c-1.3,1.3-2,2.8-2.7,4.3c-4.3,8.8-8.4,17.7-12.9,26.3 c-6.9,13.1-23.8,14.3-31.7-0.5c-7.5-13.9-10.3-28.7-8.1-44.3c1.1-8.2,2.9-16.4,4.5-25c-8.5,4.9-16.9,9.8-25.5,14.7 c5.2,11,6.1,22.1,5.8,33.6c-0.9,34.5-26.1,65.3-59.8,72.9c-2.2,0.5-4.3,1.2-6.4,1.8c-5.8,0-11.6,0-17.4,0 c-1.1-0.4-2.1-1.1-3.2-1.3c-9.3-1.4-15.1-7.2-18.4-15.4c-6.6-16.3-3.4-31.7,6.5-45.5c9.7-13.5,23.1-23.1,37.1-31.7 c9.6-5.9,19.5-11.3,29.8-17.3c-2.1-1.6-3.9-3.2-5.9-4.6c-11.7-8.3-23.5-16.5-35.1-25c-13.2-9.5-25.6-19.9-35.9-32.6 c-7.3-9-11.9-19.4-15.2-30.4c0-3.7,0-7.3,0-11c0.2-0.2,0.6-0.4,0.6-0.6C4.8,115.4,17,98.2,31.7,82.5C49,64.2,69.3,49.8,91.2,37.8 C119,22.5,147.8,9.6,179.1,3.2c5.8-1.2,11.6-2.2,17.3-3.2C206.8,0,217.3,0,227.7,0z M103.5,251.3c-16.8,10-33.1,20-46.4,33.9 c-7,7.3-11.5,16.1-12.8,26.3c-1.2,9.2,3.3,14.5,12.5,14.3c1.7,0,3.4-0.2,5-0.6c18.7-4.7,31.1-16.9,39.1-33.8 C107,278.7,107.1,265.4,103.5,251.3z M200.2,203.4c0.1-6.3-1.5-7.9-5.5-6c-4,1.9-8.3,4.3-11.1,7.7 c-15.3,18.3-22.8,39.5-20.9,63.5c0.3,3.4,1.4,6.9,2.7,10.1c1.1,2.8,3.5,3.1,5.3,0.7c2.3-3.2,4.7-6.5,6.2-10.1 c7-17.9,13.7-35.9,20.3-54C198.8,210.9,199.5,206.2,200.2,203.4z M332.3,265.8c14.4-3.4,23.6-20.3,17.2-31.7 C340.5,239.8,330.3,258.7,332.3,265.8z M287.9,254.2c-8,9.4-15.4,18.1-23.2,27.3C275.3,280.5,287.2,266.5,287.9,254.2z"/>
	</symbol>

	<symbol viewBox="0 0 318.3 374.3" id="grunt">
		<title>grunt</title>
		<path d="M199.7,374.3c-0.3-1.5-0.9-3.1-0.9-4.6c-0.1-18.1,0.1-36.2-0.1-54.3c0-3.5,1.2-3.9,4.3-4.1c6.1-0.6,10.1,1.6,13.9,6.4 c7.6,9.7,15.8,18.9,24.3,29c0.1-2,0.3-3.2,0.3-4.4c0-9,0.1-17.9,0-26.9c0-2.7,0.4-3.9,3.6-4c12-0.2,12-0.3,12,11.8 c0,15.4-0.1,30.9,0.1,46.3c0,2.3-0.7,3.7-2.5,4.8c-2.7,0-5.3,0-8,0c-2.5-2.3-5.4-4.4-7.6-6.9c-7.5-8.6-14.9-17.5-22.2-26.3 c-0.7-0.8-1-2-1.5-3c-0.4,0.4-0.8,0.7-1.2,1.1c0,10.3,0.1,20.5-0.1,30.8c0,1.4-1.2,2.9-1.8,4.3 C207.9,374.3,203.8,374.3,199.7,374.3z"/>
		<path d="M71.6,374.3c-0.3-1.5-0.9-3.1-0.9-4.6c-0.1-18.1,0.1-36.2-0.1-54.3c0-3.4,1-4.2,4.2-4.1c9.2,0.5,18.5,0.1,27.7,1.1 c8.3,0.9,14.7,5.2,16.6,14.1c1.7,8.1-1.6,14.8-9.8,20.4c-0.2,0.1-0.4,0.4-0.4,0.4c5,7.7,9.9,15.3,15.1,22.8 c1.6,2.3,0.5,3.1-1.1,4.1c-4.7,0-9.4,0-14.1,0c-2.5-2.9-5.2-5.7-7.4-8.8c-2.7-3.8-4.7-8.1-7.5-11.9c-0.9-1.2-3.2-1.5-4.8-2.2 c-0.5,1.2-1.3,2.4-1.3,3.6c-0.1,5.1,0.1,10.3-0.1,15.4c-0.1,1.3-1.2,2.6-1.8,3.9C81,374.3,76.3,374.3,71.6,374.3z M87.5,331.9 c0,8.7,0.4,9.1,8.2,7.3c5-1.1,7.4-4.5,6.7-9.2c-0.7-4.5-5.4-6.9-12.5-6c-4.8,0.6-1.4,4.7-2.4,6.9 C87.4,331.2,87.5,331.6,87.5,331.9z"/>
		<path d="M0,335.4c0.3-0.3,0.7-0.5,0.8-0.9c4-17.5,21.5-26.1,40.1-23.3c5.7,0.9,11.2,4,16.7,6.3c2.4,1,2.7,2.9,0.8,4.9 c-0.1,0.1-0.2,0.2-0.2,0.4c-5.1,7.7-5.1,7.7-13.4,3.8c-7.6-3.6-17.3-2.5-22.3,2.5c-5.3,5.3-6.6,15.6-2.9,23.1 c3.7,7.7,14.7,11.8,22.3,7.9c1.2-0.6,1.5-3.6,1.6-5.5c0-0.5-1.9-1.5-3-1.8c-1.2-0.3-2.7,0.2-3.9-0.2c-0.8-0.3-1.9-1.3-2-2.1 c-0.3-2.6-0.3-5.3,0-7.9c0.1-0.9,1.4-2.2,2.2-2.2c6.8-0.2,13.5-0.2,20.3,0c0.8,0,2.1,1.5,2.2,2.3c0.2,7.6,0.2,15.3,0,22.9 c0,1.2-1.5,2.9-2.7,3.4c-4.6,2-9.4,3.5-14.1,5.2c-5.3,0-10.6,0-15.9,0c-13-3.7-22.1-11.7-26.5-24.7C0,344.8,0,340.1,0,335.4z"/>
		<path d="M150.2,374.3c-1.1-0.6-2.1-1.3-3.3-1.7c-10.6-3.8-16.9-12.1-17-23.2c-0.2-11.6,0-23.2-0.1-34.9c0-2.2,0.6-3.2,3-3.1 c3.7,0.2,7.4,0.2,11,0c2.7-0.2,3.1,1.1,3.1,3.4c-0.1,10.3-0.1,20.6,0,30.9c0,1.9,0.1,3.8,0.5,5.7c1.3,6.5,5.5,9.4,12.6,8.9 c5.9-0.4,9.8-4.4,9.9-10.9c0.2-11,0.2-22.1,0-33.1c-0.1-3.9,0.9-5.3,4.9-4.9c3.9,0.4,9.6-1.2,11.4,0.8c2.1,2.4,1,7.7,1,11.8 c0.1,7.5-0.1,15,0.1,22.5c0.3,15.7-9.2,24.9-20.9,27c-0.3,0.1-0.6,0.5-0.9,0.8C160.2,374.3,155.2,374.3,150.2,374.3z"/>
		<path d="M283.6,374.3c-0.2-1.7-0.7-3.4-0.7-5.2c-0.1-13.5-0.1-27.1,0-40.6c0-3.2-0.9-4-3.9-3.8c-3.8,0.3-7.8,0.7-11.4-0.1 c-5.7-1.2-1.5-6-2.5-9.1c-0.5-1.6-1-4.2,2.6-4.2c15.9,0.1,31.8,0.1,47.7,0c2.1,0,2.7,0.8,2.8,2.8c0.5,10.5,0.6,10.5-10.1,10.5 c-7.8,0-7.8,0-7.8,7.7c0,12.4-0.1,24.7,0.1,37.1c0,2.4-0.8,3.6-2.6,4.7C293,374.3,288.3,374.3,283.6,374.3z"/>
		<path d="M64.5,183c2,10.1,6.5,18,14.3,25.3c0.6-5.7,1.2-10.6,1.5-15.4c0.4-6.3,0.6-12.6,0.7-19c0.1-8.5-3-14.9-11.1-18.9 c-5.4-2.7-10.5-6-15.3-9.5c-4.6-3.4-7.9-7.9-8.6-13.8c-0.8-7.4,1.6-13.5,7.8-17.6c4.1-2.7,6-6.3,6.2-11c0.4-7,1.2-14.1-3.9-20.2 c-1.6-1.9-2.3-4.7-3.1-7.2c-3.2-11.1,2.3-20.3,13.8-22c4.3-0.6,6-2.4,6.2-6.5c0.3-5.3-0.5-10.3-5.4-13.1c-4.4-2.5-9.3-4.2-14-6.1 c-1.6-0.6-3.3-0.8-5.4-1.2C55.4,16.4,65.5,12,77.2,11.3c15.2-0.9,27.3,5.9,37.5,16.5c1.9,2,3.6,4.3,5.6,6.2 c0.8,0.8,2.5,1.9,3,1.5c1-0.6,1.8-2.1,1.9-3.3c0.8-8.8,4.7-16,11.1-21.9c1.3-1.2,3-2.1,4.8-3.2c1.5,5.5,0,11.3,4.5,15.8 C148.1,10.4,156.3,4,168,0c-1.8,7.4-1.7,14,1.4,20.7c5.8-4.1,11.3-8.6,18.5-8.4c-1.5,5.9-3.2,11.6-4.5,17.5 c-0.6,2.7-0.2,5.6,3.5,5.6c1.4,0,3.3-0.7,4.2-1.8c8.3-9.7,17.4-17.9,30.2-21.1c16.1-4,32.4,1.5,41.5,14.3 c-1.7,0.4-3.4,0.7-4.9,1.3c-4,1.4-8.2,2.4-11.9,4.5c-7.7,4.4-8.9,8.7-7,18.4c0.2,0.9,1.6,1.8,2.6,2.2c1.6,0.6,3.5,0.6,5.2,1.1 c9.8,2.9,14.5,11,11.7,20.9c-1.1,3.6-2.8,7.1-4.7,10.4c-4.7,8-2.9,16.2-0.7,24.3c0.5,1.7,2.8,2.9,4.4,4.2 c10.4,8.2,11.3,20.9,1.4,29.6c-5.7,5-12.5,8.7-19.1,12.5c-5.5,3.2-8.9,7.8-9,13.8c-0.1,12.6,0.6,25.2,1.6,37.9 c7.9-6.4,12.4-14.4,14.4-24.6c10,9.9,13.5,21.5,12.7,34.5c-1.1,17.7-9.3,30.6-26.1,37.5c-1.3,0.5-2.5,2-3.2,3.3 c-7.9,14.3-19.5,23.3-35.8,25.8c-1.1,0.2-2.3,0.6-3.2,1.3c-13.5,9.8-28.7,11.2-44.6,9.7c-9.7-0.9-18.6-3.9-26.5-9.8 c-0.9-0.7-2.1-1-3.2-1.2c-16.1-2.6-27.6-11.6-35.5-25.6c-0.9-1.5-2.4-3-3.9-3.7c-17.8-8.2-26.6-23.1-25.5-42.8 C52.4,201,55.9,191.4,64.5,183z M189.1,187L189.1,187c0.3,0.6,0.5,1.2,0.8,1.8l0,0c2.7,7.1,5.4,14.3,8.1,21.4 c2.9,7.6,3,7.6,11.5,6.6c2.9-0.5,5.8-1.1,8.7-1.6c4.6-0.1,5.8-2.4,5.4-6.8c-0.9-10.8-1.2-21.7-1.8-32.5 c-0.8-13.8,4.6-23.7,17.5-29.6c4.6-2.1,9-5.2,12.6-8.7c5.7-5.6,4.4-14.3-2.5-18.5c-0.2,1.4-0.3,2.7-0.6,5.1 c-6-10.2-7.9-20.3-8-30.8c0.7-5,1.4-10.1,2-15.1c0.3,0,0.5,0.1,0.8,0.1c0.3,1.4,0.6,2.7,0.9,4.1c0.4,0.1,0.8,0.2,1.2,0.3 c1.6-3.7,3.4-7.3,4.6-11.1c1.2-4-0.6-7.3-4.5-8.8c-2.2-0.8-4.6-1.3-6.8-1.3c-13.5-0.1-25.7,4.4-37,11.4 c-7.4,4.5-14.4,9.6-21.6,14.4c-0.1-0.2-0.3-0.3-0.4-0.5c1.9-2.9,3.7-5.7,5.6-8.6c0.5-0.6,1-1.2,1.5-1.8c0.2-0.1,0.3-0.3,0.4-0.6 c7.1-5.3,14.2-10.7,21.4-15.9c1.8-1.3,1.9-2.3,0.3-3.2c-4.1-2.5-8.3-4.7-12.5-7c0,0-0.2,0-0.2,0c-0.3-0.3-0.7-0.5-1-0.8 c-0.9-0.5-1.8-1.1-2.7-1.4c-15.4-5.9-31.4-7.4-47.7-6c-10.1,0.9-20.1,2.7-29.2,7.5c-5.6,2.1-10.8,4.8-14.5,8.7 c8,6.5,15.6,12.7,23.3,18.9l0,0c0.3,0.4,0.6,0.8,0.9,1.1c2,3,3.9,6,5.9,9c-0.2,0.2-0.3,0.3-0.5,0.5c-4.9-3.4-9.9-6.9-14.8-10.3 C104.6,69.4,92.7,63.5,79,61.9c-6.2-0.7-13.6-2.2-17.3,4.2C58.2,72,62.5,77.6,66,82.6c0.1,0.2,0.5,0.1,0.9,0.2 c0.1-1.6,0.2-3.2,0.3-4.7c0.3,0,0.6-0.1,0.9-0.1c0.7,5.1,1.5,10.3,2.2,15.4c-0.1,0.1-0.2,0.3-0.2,0.3c0.1,0.2,0.2,0.5,0.3,0.7 c0,1.1,0,2.2,0,3.3c-0.3,1.4-0.5,2.8-0.7,4.3c-1.2,7.7-3,15.2-7.8,22.4c-0.2-2.2-0.3-3.7-0.4-5.3c-7.6,4.7-8.1,14.3-0.7,20.1 c4.5,3.5,9.5,6.4,14.6,9.1c9.5,5,13.8,13.1,13.7,23.4c-0.2,11.9-0.9,23.8-1.6,35.7c-0.4,6.4-0.6,6.4,5.3,7.7 c2.9,0.5,5.8,1.1,8.8,1.6c2,0.2,4.1,0.6,6.1,0.4c1.2-0.1,3-0.9,3.4-1.9c3.8-9.3,7.3-18.8,10.9-28.1l0,0c0.3-0.6,0.6-1.2,0.9-1.8 c1.2-2.3,2.4-4.5,3.6-6.8c0.3,0.1,0.7,0.2,1,0.4c-1.5,15.9-7.1,30.8-11.9,46.2c26.8,0,53.2,0,80.1,0 c-5.5-16.2-10.5-32.2-12.1-49.1c1.6,3.1,3.1,6.2,4.7,9.3C188.5,185.8,188.8,186.4,189.1,187z M111.2,260.5 C111.2,260.5,111.1,260.4,111.2,260.5c0.3,0.5,0.6,1.1,0.9,1.7c0,0,0,0,0,0c3.8,4.9,6.9,10.8,11.6,14.6 c15.5,12.6,33.3,13.6,51.6,7.2c11.3-3.9,19.4-11.9,24.4-22.9l0,0c0.3-0.6,0.6-1.2,0.9-1.7c1.1-2.5,2.4-5,3.4-7.6 c5-13,0.9-18.9-13.2-19c-23.5-0.1-47,0-70.5,0c-2.3,0-4.7,0.3-7,0.8c-7,1.6-9.7,5.7-7.9,12.6c1.2,4.5,3.3,8.7,5,13.1 C110.7,259.8,110.9,260.1,111.2,260.5z M219.1,259.5c-9.7-0.5-13.2,2.4-15.5,13.4C210,269.4,215.6,265.7,219.1,259.5 c0-0.2,0-0.3,0.1-0.4C219.2,259.2,219.1,259.3,219.1,259.5z M214.7,240.9c-0.4,3.1-0.8,6.3-1.2,9.8c13.2-0.8,24.8-4.8,32.3-16.1 c6.9-10.6,6.6-22.3,3-34.3c-0.4,0.9-0.8,1.8-1.2,2.7c-8.4,17.1-24.2,21-40.7,22.9C209.4,230.9,212,235.9,214.7,240.9z M96.3,240.9c2.7-5,5.4-10,8.1-15.1c-17.5-1.6-33.3-6.5-41.6-24.2c-0.5,0-1.5,0-1.5,0c-0.5,4.5-1.4,9-1.3,13.5 c0.3,17.8,9.5,29.3,26.8,33.9c3.5,0.9,7.2,1.2,11,1.9C97.2,246.9,96.8,243.9,96.3,240.9z M199.9,39.9c5.8,3.4,5.8,3.3,9.7-1.4 c7.3-8.7,16.3-13.7,28-13.2c2.3,0.1,4.7-1.1,8.1-1.9C230.2,15,210.5,22.5,199.9,39.9z M111.2,40C100.6,22.5,82,14.9,65.6,23.6 c3.1,0.8,5.5,1.9,7.8,1.8c12.6-0.6,22.2,5,29.3,14.8c1.9,2.7,3.3,3.3,5.8,1.3C109.3,40.9,110.3,40.5,111.2,40z M78.6,32.3 c0.9,2.6,1.8,4.8,2.3,7c0.5,2.3,0.5,4.6,0.8,7c0.2,1.4,0.4,2.9,0.8,4.3c1.4,4.7,6.9,6,10.2,2.5c4.4-4.6,4.4-4.6,1.4-10.4 C90.8,36.6,86,32.9,78.6,32.3z M231.7,32.7c-5.1-1.2-12.2,4.8-15.1,10.6c-1.7,3.5-2.3,5.9,1.1,9.1c2.4,2.3,4.2,2.8,7.1,2.1 c3.1-0.8,3.7-2.9,4.1-5.5C229.8,43.6,230.8,38.2,231.7,32.7z M91.9,259.6c3.9,5.8,9,10.1,15.6,12.6 C104.1,265.9,103.3,256.7,91.9,259.6z"/>
		<path d="M249.7,124.7l-0.2-0.2l0,0.3L249.7,124.7z"/>
		<path d="M185.5,78.3c0.5-0.6,1-1.2,1.5-1.8C186.5,77.1,186,77.7,185.5,78.3z"/>
		<path d="M199.6,261.2c0.3-0.6,0.6-1.2,0.9-1.7C200.3,260,199.9,260.6,199.6,261.2z"/>
		<path d="M111.1,260.4c0.3,0.6,0.7,1.2,1,1.7C111.8,261.6,111.5,261,111.1,260.4z"/>
		<path d="M189.1,187c0.3,0.6,0.5,1.2,0.8,1.8C189.6,188.2,189.3,187.6,189.1,187z"/>
		<path d="M188.2,185.2c0.3,0.6,0.6,1.2,0.8,1.8C188.8,186.4,188.5,185.8,188.2,185.2z"/>
		<path d="M122,187c0.3-0.6,0.6-1.2,0.9-1.8C122.5,185.8,122.3,186.4,122,187z"/>
		<path d="M219.1,259.5c0-0.1,0-0.3,0.1-0.4C219.1,259.2,219.1,259.3,219.1,259.5L219.1,259.5z"/>
		<path d="M110.5,259.4c0.2,0.3,0.5,0.7,0.7,1C110.9,260.1,110.7,259.8,110.5,259.4z"/>
		<path d="M196.3,49.7c-0.3-0.3-0.7-0.5-1-0.8C195.7,49.2,196,49.5,196.3,49.7z"/>
		<path d="M70.4,93.4c0.1,0.3,0.1,0.7,0.2,1c-0.1-0.2-0.3-0.4-0.3-0.7C70.2,93.7,70.3,93.5,70.4,93.4z"/>
		<path d="M124.4,76.6c0.3,0.4,0.6,0.8,0.9,1.1C125,77.4,124.7,77,124.4,76.6z"/>
		<path d="M86.8,121.2c-0.1-0.5-0.2-0.9-0.3-1.4c-0.2-0.9-0.5-1.8-0.7-2.7c-0.3-1-0.5-2-0.8-3.1c-0.2,0-0.5,0-0.7,0.1 c-0.5,1.7-1,3.5-1.6,5.6c-3.4-6.1-4.4-11.8,0.6-17.6c-2.2-0.8-3.9-1.4-5.7-2c-0.1,0-0.1-0.3-0.1-0.4c0-0.1,0.2-0.2,0.2-0.4 c0.4-0.2,0.9-0.4,1.3-0.5c0.2,0.1,0.3,0.1,0.5,0c11.5-1.1,22.2,1.3,31.6,8c5,3.5,9.3,8,13.8,12.1c4.2,3.9,8.6,7,14.8,5.5 c1.6-0.2,3.1-0.4,4.7-0.6c0,4.6-2.7,8.7-7.6,9.8c-3.4,0.8-3.8,2.6-4.8,5.5c-1.6,4.6-4.4,8.8-6.7,13.1c0.2-1.6,0.5-3.2,0.7-4.8 c0.5-4.5,0.8-9-2-13.2c-4.9,3.6-10.1,4.8-15.9,3.8C98.1,136.2,90.9,130.7,86.8,121.2z M119.3,125.9c-6.4-7.4-14.3-12.7-23.6-18.1 c0,4.2,0,7.6,0,11.1c0.2,11.1,13.1,15.7,22.1,12.6C122.5,129.8,122.6,129.7,119.3,125.9z"/>
		<path d="M231.5,98.8c0.7,0.3,1.3,0.6,2.6,1.1c-2.2,0.8-4,1.5-6.1,2.3c4.8,5.6,4,11.3,0.5,17.6c-0.6-2.5-1.1-4.5-1.7-6.5 c-0.2,0-0.5-0.1-0.7-0.1c-0.3,1.6-0.6,3.2-0.9,4.8c-0.3,0.9-0.5,1.9-0.8,2.8c-0.1,0.2-0.2,0.4-0.2,0.6c-0.6,1.1-1.4,2.2-1.9,3.4 c-4.8,11.1-24.2,17.6-33.3,10.9c-2.2-1.6-3.4-0.5-3.5,1.6c-0.2,4.8-0.1,9.6-0.1,14.3c-2.3-4.7-5-9.3-6.8-14.2 c-0.7-1.9-1.3-2.9-3.1-3.3c-5.1-1.3-8.4-4.4-9.4-10.2c1.8,0.2,3.4,0.4,5.1,0.5c1.6,0.1,3.1,0.4,4.7,0.2c5-0.6,8.4-3.7,11.7-7.2 C199.4,104.6,213.5,97.1,231.5,98.8z M215.3,118.9c0-3.4,0-6.8,0-10.6c-7.9,3.6-18.1,11.3-23.6,17.7c-0.7,1.3-4,2.6-1.2,4.2 C200.5,135.8,215.5,130.3,215.3,118.9z"/>
		<path d="M142.3,100.4c1.2,0.1,2.4-0.1,3.5,0.2c7.6,2.7,14.9,2.3,22.2-1c0.5-0.2,1.1-0.1,1.7-0.1c-0.5,0.7-1,1.4-1.7,2 C158.5,110.6,151.3,110.3,142.3,100.4z"/>
		<path d="M224.4,120.7c0.3-0.9,0.5-1.9,0.8-2.8C224.9,118.9,224.7,119.8,224.4,120.7z"/>
		<path d="M85.7,117.1c0.2,0.9,0.5,1.8,0.7,2.7C86.2,118.9,86,118,85.7,117.1z"/>
		<path d="M139.6,96c-0.4-0.1-0.8-0.2-1.2-0.3c0.1-0.1,0.2-0.2,0.2-0.3C138.9,95.5,139.3,95.7,139.6,96L139.6,96z"/>
		<path d="M180.4,87.3c-0.2,0.2-0.4,0.4-0.6,0.6c0.1-0.3,0.1-0.7,0.2-1C180.1,87,180.2,87.1,180.4,87.3z"/>
		<path d="M196.1,158.7c0.1,0.1,0.2,0.1,0.4,0.2C196.4,158.8,196.2,158.8,196.1,158.7L196.1,158.7z"/>
		<path d="M169.6,99.6c0.3-0.3,0.6-0.6,0.9-0.9C170.2,98.9,169.9,99.2,169.6,99.6z"/>
		<path d="M114.8,158.7c-0.1,0.1-0.1,0.2-0.2,0.4C114.7,158.9,114.8,158.8,114.8,158.7L114.8,158.7z"/>
		<path d="M79,98.8c-0.4,0.2-0.9,0.4-1.3,0.5C78.2,99.2,78.6,99,79,98.8z"/>
		<path d="M131.1,86.8c0,0.3,0.1,0.7,0.1,1c-0.2-0.2-0.4-0.4-0.6-0.5C130.8,87.1,131,86.9,131.1,86.8z"/>
		<path d="M168.9,248.6c-1.4-5.1-0.2-6.8,5.1-6.9c5.4-0.1,10.9-0.1,16.3,0c7.3,0.1,8.6,2,5.8,8.9c-0.3,0.6-0.6,1.2-1,1.7 c0,0,0,0,0,0c-1.7,1.8-3.3,3.7-5.1,5.3c-5.4,4.7-11.5,4.1-15.9-1.5C172.3,253.6,170.6,251,168.9,248.6z"/>
		<path d="M115.7,252.3c-0.2-0.2-0.5-0.4-0.6-0.6c-2.8-8.7-1.9-10,7.3-10c4.8,0,9.7-0.1,14.5,0c5.6,0.1,6.7,1.7,5.2,7 c-1.8,2.5-3.5,5-5.3,7.4c-4.5,5.8-10.8,6.1-16.2,1C119,255.5,117.4,253.9,115.7,252.3z"/>
		<path d="M195.1,252.3c0.3-0.6,0.6-1.2,1-1.7C195.8,251.1,195.5,251.7,195.1,252.3z"/>
		<polygon points="249.7,124.7 249.5,124.8 249.5,124.5"/>
	</symbol>

	<symbol viewBox="0 0 329.3 351.6" id="githubfull">
		<title>githubfull</title>
		<path d="M164.6,0c-58,0-105.1,47.1-105.1,105.1c0,46.4,30.1,85.8,71.9,99.7c5.3,1,7.2-2.3,7.2-5.1 c0-2.5-0.1-10.8-0.1-19.6c-29.2,6.4-35.4-12.4-35.4-12.4c-4.8-12.1-11.7-15.4-11.7-15.4c-9.5-6.5,0.7-6.4,0.7-6.4 c10.6,0.7,16.1,10.8,16.1,10.8c9.4,16.1,24.6,11.4,30.6,8.7c0.9-6.8,3.7-11.4,6.7-14.1c-23.3-2.7-47.9-11.7-47.9-51.9 c0-11.5,4.1-20.9,10.8-28.2c-1.1-2.6-4.7-13.3,1-27.8c0,0,8.8-2.8,28.9,10.8c8.4-2.3,17.4-3.5,26.3-3.5c8.9,0,17.9,1.2,26.3,3.5 c20.1-13.6,28.9-10.8,28.9-10.8c5.7,14.5,2.1,25.2,1,27.8c6.7,7.4,10.8,16.7,10.8,28.2c0,40.4-24.6,49.3-48,51.9 c3.8,3.3,7.1,9.7,7.1,19.5c0,14.1-0.1,25.4-0.1,28.8c0,2.8,1.9,6.1,7.2,5c41.7-13.9,71.8-53.3,71.8-99.7 C269.8,47.1,222.7,0,164.6,0z"/>
		<path d="M99.3,150.9c-0.2,0.5-1.1,0.7-1.8,0.3c-0.8-0.3-1.2-1.1-0.9-1.6c0.2-0.5,1-0.7,1.8-0.3C99.2,149.7,99.6,150.4,99.3,150.9 L99.3,150.9z M98,150"/>
		<path d="M103.6,155.7c-0.5,0.5-1.5,0.2-2.1-0.5c-0.7-0.7-0.8-1.7-0.3-2.2c0.5-0.5,1.5-0.2,2.2,0.5 C104,154.2,104.1,155.2,103.6,155.7L103.6,155.7z M102.6,154.6"/>
		<path d="M107.7,161.7c-0.6,0.4-1.7,0-2.3-0.9c-0.6-0.9-0.6-2.1,0-2.5c0.7-0.4,1.7,0,2.3,0.9C108.4,160.1,108.4,161.3,107.7,161.7 L107.7,161.7z M107.7,161.7"/>
		<path d="M113.4,167.6c-0.6,0.6-1.8,0.5-2.7-0.4c-0.9-0.8-1.2-2-0.6-2.7c0.6-0.6,1.8-0.5,2.7,0.4 C113.8,165.7,114,166.9,113.4,167.6L113.4,167.6z M113.4,167.6"/>
		<path d="M121.3,171c-0.3,0.8-1.4,1.2-2.6,0.8c-1.2-0.4-2-1.3-1.7-2.2c0.2-0.8,1.4-1.2,2.6-0.8C120.7,169.2,121.5,170.1,121.3,171 L121.3,171z M121.3,171"/>
		<path d="M129.9,171.6c0,0.9-1,1.6-2.2,1.6c-1.3,0-2.3-0.7-2.3-1.5c0-0.9,1-1.6,2.2-1.6C128.8,170,129.9,170.7,129.9,171.6 L129.9,171.6z M129.9,171.6"/>
		<path d="M137.9,170.2c0.1,0.8-0.7,1.7-2,1.9c-1.2,0.2-2.3-0.3-2.5-1.1c-0.2-0.9,0.7-1.7,2-2C136.6,168.9,137.7,169.4,137.9,170.2 L137.9,170.2z M137.9,170.2"/>
		<path d="M63.4,300.7H35.8c-0.7,0-1.3,0.6-1.3,1.3v13.5c0,0.7,0.6,1.3,1.3,1.3h10.8v16.8c0,0-2.4,0.8-9.1,0.8 c-7.9,0-18.9-2.9-18.9-27.2c0-24.3,11.5-27.5,22.3-27.5c9.3,0,13.4,1.6,15.9,2.4c0.8,0.2,1.5-0.6,1.5-1.3l3.1-13.1 c0-0.3-0.1-0.7-0.5-1c-1-0.7-7.4-4.3-23.4-4.3c-18.5,0-37.4,7.9-37.4,45.6c0,37.8,21.7,43.4,40,43.4c15.1,0,24.3-6.5,24.3-6.5 c0.4-0.2,0.4-0.7,0.4-1V302C64.7,301.2,64.1,300.7,63.4,300.7z"/>
		<path d="M206,267.1c0-0.7-0.6-1.3-1.3-1.3h-15.6c-0.7,0-1.3,0.6-1.3,1.3c0,0,0,30.1,0,30.1h-24.3v-30.1c0-0.7-0.6-1.3-1.3-1.3 h-15.6c-0.7,0-1.3,0.6-1.3,1.3v81.5c0,0.7,0.6,1.3,1.3,1.3h15.6c0.7,0,1.3-0.6,1.3-1.3v-34.9h24.3c0,0,0,34.9,0,34.9 c0,0.7,0.6,1.3,1.3,1.3h15.6c0.7,0,1.3-0.6,1.3-1.3V267.1z"/>
		<path d="M92.8,277.8c0-5.6-4.5-10.1-10-10.1c-5.5,0-10,4.5-10,10.1c0,5.6,4.5,10.2,10,10.2C88.3,287.9,92.8,283.4,92.8,277.8z" />
		<path d="M91.7,331.4c0-2.1,0-37.6,0-37.6c0-0.7-0.6-1.3-1.3-1.3H74.9c-0.7,0-1.3,0.7-1.3,1.4c0,0,0,45.3,0,53.9 c0,1.6,1,2.1,2.3,2.1c0,0,6.6,0,14,0c1.5,0,1.9-0.8,1.9-2.1C91.7,344.9,91.7,333.6,91.7,331.4z"/>
		<path d="M265.2,292.6h-15.5c-0.7,0-1.3,0.6-1.3,1.3v40c0,0-3.9,2.9-9.5,2.9c-5.6,0-7.1-2.5-7.1-8c0-5.5,0-34.9,0-34.9 c0-0.7-0.6-1.3-1.3-1.3H215c-0.7,0-1.3,0.6-1.3,1.3c0,0,0,21.3,0,37.5c0,16.2,9,20.2,21.5,20.2c10.2,0,18.4-5.6,18.4-5.6 s0.4,3,0.6,3.3c0.2,0.4,0.6,0.7,1.1,0.7l10,0c0.7,0,1.3-0.6,1.3-1.3l0-54.7C266.5,293.2,265.9,292.6,265.2,292.6z"/>
		<path d="M307.5,290.8c-8.8,0-14.8,3.9-14.8,3.9v-27.6c0-0.7-0.6-1.3-1.3-1.3h-15.6c-0.7,0-1.3,0.6-1.3,1.3v81.5 c0,0.7,0.6,1.3,1.3,1.3c0,0,10.8,0,10.8,0c0.5,0,0.9-0.3,1.1-0.7c0.3-0.4,0.7-3.8,0.7-3.8s6.4,6.1,18.5,6.1 c14.2,0,22.3-7.2,22.3-32.3C329.3,294,316.3,290.8,307.5,290.8z M301.4,336.7c-5.4-0.2-9-2.6-9-2.6v-25.8c0,0,3.6-2.2,8-2.6 c5.6-0.5,10.9,1.2,10.9,14.5C311.3,334.2,308.9,336.9,301.4,336.7z"/>
		<path d="M136.5,292.5h-11.7c0,0,0-15.4,0-15.4c0-0.6-0.3-0.9-1-0.9h-15.9c-0.6,0-1,0.3-1,0.9v16c0,0-8,1.9-8.5,2.1 c-0.5,0.2-0.9,0.7-0.9,1.2v10c0,0.7,0.6,1.3,1.3,1.3h8.2c0,0,0,10.5,0,24.1c0,17.9,12.6,19.7,21,19.7c3.9,0,8.5-1.2,9.3-1.5 c0.5-0.2,0.7-0.6,0.7-1.2l0-11c0-0.7-0.6-1.3-1.3-1.3c-0.7,0-2.4,0.3-4.2,0.3c-5.7,0-7.7-2.7-7.7-6.1c0-3.5,0-22.9,0-22.9h11.7 c0.7,0,1.3-0.6,1.3-1.3v-12.6C137.8,293,137.2,292.5,136.5,292.5z"/>
	</symbol>

	<symbol viewBox="0 0 552.5 343" id="wordpress">
		<title>WordPress</title>
		<path d="M0,272.2c10.3,0.1,20.6,0.2,31,0.3c0.9,0,1.9,0.6,2.8,0.9c-0.9,0.2-1.7,0.4-2.6,0.6c-5.5,1.3-7.5,3.6-6,9.1 c3.1,11.1,7,22.1,10.6,33.1c0.2,0.7,1.1,1.1,1.7,1.6c0.5-0.7,1.3-1.3,1.6-2.1c2.6-7.6,5.2-15.3,7.8-23c1.9-5.6,3.7-11.2,5.7-16.7 c0.4-1.1,1.3-2.1,2-3.1c0.9,1,2.1,2,2.5,3.2c4.2,12.4,8.2,24.8,12.4,37.2c0.6,1.6,1.6,3.1,2.5,4.7c0.9-1.6,2.2-3.1,2.8-4.9 c3.1-8.9,6.1-17.8,9-26.7c0.7-2.2,1.4-4.7,1.3-7c-0.1-3.6-3.1-4.6-6.1-5.4c-0.7-0.2-1.4-0.7-2.1-1c0.7-0.2,1.3-0.5,2-0.5 c7.2,0,14.4,0,21.6,0c0.6,0,1.3,0.4,1.9,0.6c-0.6,0.3-1.1,0.7-1.7,0.8c-6.4,0.7-9.7,4.8-11.6,10.5c-5.5,16.4-11,32.8-16.5,49.2 c-1,3.1-1.9,6.3-2.9,9.5c-0.4,0-0.7,0-1.1,0c-4.8-15-9.7-30-14.5-45c-0.3-0.9-0.5-1.8-1-2.6c-0.8-1.3-1.8-2.1-2.7,0 c-0.4,0.8-0.7,1.7-1,2.6c-4.4,13.2-8.8,26.5-13.2,39.7c-0.5,1.7-0.6,3.5-0.9,5.3c-0.7,0-1.5,0-2.2,0c-0.3-1.8-0.4-3.6-1-5.3 c-2.9-9.3-6-18.5-9-27.8c-3.1-9.4-6-18.9-9.7-28.1c-2.6-6.5-6.5-8.3-13.6-7.5C0,273.6,0,272.9,0,272.2z"/>
		<path d="M552.5,329.8c-2.1,2.7-3.8,6-6.4,8c-7.3,5.6-15.3,5.6-23.4,1.6c-2.5-1.2-4.8-3.3-6.3,1.1c-0.2,0.5-1.2,1-1.7,0.9 c-0.4-0.1-1-1.1-1-1.6c-0.1-5.5-0.1-11.1,0-16.6c0-0.6,0.6-1.2,0.9-1.8c0.7,0.5,1.5,0.8,1.9,1.5c1.8,3.1,3,6.8,5.4,9.4 c4.3,4.6,9.9,6.3,16.1,4.4c6.1-1.9,7.7-8.1,3.1-12.6c-1.9-1.9-4.4-3.3-6.8-4.6c-3.4-1.8-7-3.3-10.4-5.1 c-10.3-5.4-11.6-12.3-9.5-19.4c2-7,12-11.1,20.5-9c1.4,0.4,2.8,0.8,4.1,1.5c2.2,1.1,4.4,2.5,5.8-1c0-0.1,2.5,0.5,2.5,0.8 c0.2,5,0.2,9.9,0.1,14.9c0,0.5-0.8,1.4-1.3,1.4c-0.5,0.1-1.4-0.5-1.6-1.1c-0.7-1.5-1-3.2-1.7-4.6c-3.1-6.4-9.5-9.7-15.4-7.2 c-2.1,0.9-4.6,3.1-4.9,5.1c-0.4,2,1.2,5.2,2.9,6.4c3.7,2.7,7.9,4.7,12.1,6.6c6.4,2.9,11.8,6.6,15,13 C552.5,324.6,552.5,327.2,552.5,329.8z"/>
		<path d="M395.1,120.1c0.6,60.8-48.2,119.1-119.3,119.2c-70.9,0.1-120.5-58.5-119.8-121.1C156.9,54.6,209.6-1.4,278.3,0 C344.6,1.4,396.1,56.7,395.1,120.1z M161.4,119.3c-1.2,57.8,45.7,114.9,114.2,115c67.6,0.1,113.6-55.5,114.6-112.5 C391.4,60.1,341.1,5.1,275.9,5.1C210.6,5,160.7,59.3,161.4,119.3z"/>
		<path d="M420.1,340.3c-9,0-18.1-0.1-27.1,0.1c-3.5,0.1-5.8-0.9-7.9-3.8c-4-5.5-8.4-10.8-12.8-16c-0.8-1-2.3-1.5-3.5-2.2 c-0.5,1.2-1.2,2.5-1.4,3.8c-0.2,1.6-0.1,3.3,0,5c0.3,7.2,1,8.2,8,10.5c0.7,0.2,1.2,1,1.9,1.5c-0.6,0.4-1.2,1-1.8,1 c-8.9,0.1-17.7,0.1-26.6,0c-0.6,0-1.3-0.9-1.9-1.4c0.6-0.4,1.1-0.9,1.7-1.1c7.3-2.6,8-3.3,8.1-11c0.1-8.9,0.1-17.7,0-26.6 c-0.1-6.8-1-7.8-7.2-9.9c-0.9-0.3-1.5-1.1-2.3-1.7c0.8-0.3,1.6-0.8,2.4-0.8c10,0,19.9-0.3,29.9,0.3c10.1,0.6,16.2,7.1,15.8,15.6 c-0.4,6.8-4.6,10.5-10.5,12.8c-4,1.5-4,1.7-1.1,4.9c3.1,3.4,6.3,6.7,9.6,9.9c1.6,1.5,3.4,2.9,5.3,3.9c6.9,3.6,14.9,4.5,15.3-8.1 c0.3-9.2,0.1-18.4-0.1-27.6c-0.1-4.8-1.7-8.7-7.4-9.2c-0.8-0.1-1.5-0.8-2.2-1.3c0.9-0.4,1.8-1.2,2.7-1.2 c13.3-0.1,26.6-0.1,39.8,0.1c1.2,0,3.1,1.5,3.3,2.5c0.6,3.2,0.5,6.6,0.5,9.9c0,0.4-0.5,0.8-0.8,1.2c-0.4-0.3-0.9-0.5-1.1-0.9 c-1.3-3-1.9-6.9-5.8-7.5c-5.2-0.8-10.6-0.9-15.9-1c-0.7,0-2,1.9-2.1,2.9c-0.3,2.9-0.3,5.9-0.1,8.8c0.2,2.2-1.7,5.5,2.4,6.2 c4.7,0.9,9.1-0.9,10.5-4.1c0.7-1.5,1.5-2.9,2.3-4.4c0.3,1.7,0.7,3.5,0.8,5.2c0.1,4.8,0.1,9.6,0,14.4c0,0.8-0.5,1.6-0.8,2.4 c-0.5-0.6-1.2-1.2-1.4-1.9c-2.2-6.1-3.6-7-10-6.9c-2.4,0-3.9,0.6-3.7,3.4c0.2,3.7,0,7.4,0.3,11c0.3,3.8,2.6,6,6.5,6.2 c2.8,0.1,5.5,0.1,8.3,0.1c5.6,0,10.3-1.4,11.7-7.8c0.1-0.7,1.1-1.1,1.6-1.7c0.2,0.6,0.5,1.3,0.6,1.9c0.1,0.3,0,0.7,0,1.1 c0.2,11.2,0.2,11.2-11,11.2C435.3,340.3,427.7,340.3,420.1,340.3z M367.4,302.3C367.4,302.3,367.4,302.3,367.4,302.3 c0,2.8,0.1,5.5,0,8.3c-0.1,2.1,0.9,3,3,2.9c1.3-0.1,2.6,0,3.9,0c4.2,0,7.5-1.7,9.3-5.6c1.7-3.9,1.7-7.9-0.7-11.6 c-2.4-3.7-8.5-5.9-13.4-4.2c-4.2,1.4-1.1,5.4-2,8.1C367.2,300.8,367.4,301.5,367.4,302.3z"/>
		<path d="M230.6,339.4c-7.9,0-15.9-0.1-23.8,0c-3.1,0.1-5.2-1-7-3.4c-4.1-5.4-8.4-10.7-12.8-16c-0.9-1.1-2.7-1.5-4-2.3 c-0.6,1.4-1.6,2.8-1.7,4.2c-0.2,2.6,0.1,5.2,0.4,7.7c0.5,4.8,2.9,7.9,8,8.2c0.4,0,0.9,0.4,1.3,0.7c-0.4,0.2-0.8,0.7-1.3,0.7 c-8.7,0-17.3,0-26,0c-0.5,0-0.9-0.4-1.4-0.5c0.5-0.3,1.1-0.8,1.6-0.9c4.9-0.5,7.5-3.5,7.6-8c0.3-10.7,0.3-21.4,0.1-32 c-0.1-4.5-2.6-7.6-7.4-8.3c-0.7-0.1-1.3-0.5-2-0.7c0.8-0.3,1.5-0.8,2.3-0.8c9.4,0,18.8-0.1,28.2,0.1c2.2,0,4.4,0.7,6.4,1.4 c6.2,2.2,10.8,7.5,10.6,12.9c-0.3,6.3-3.7,10.6-9.5,13.1c-0.8,0.3-1.7,0.6-2.6,0.9c-1.9,0.8-2.8,2-1.1,3.7 c4.8,4.8,9.5,9.9,14.7,14.2c2.4,2,6,3,9.1,3.5c6.5,0.9,10.8-2.5,10.5-8.7c-0.3-10.1-0.2-20.2,0-30.3c0.1-5.4-2.3-8.3-7.4-9.2 c-0.5-0.1-1-0.4-1.5-0.6c0.6-0.3,1.2-0.8,1.7-0.8c11.8,0.3,23.7-0.4,35.3,1.2c14.8,2,22.8,12.8,21.8,26.5 c-0.9,12.9-11.5,22.7-25.8,23.3c-8.1,0.3-16.2,0.1-24.3,0.1C230.6,339.3,230.6,339.4,230.6,339.4z M240.9,312.1 C240.9,312.1,240.9,312.1,240.9,312.1c0,5.7,0,11.4,0,17.1c0,2.8,0.8,5.2,3.6,6.3c8.1,3,19.4-1.9,22.7-10.1 c2.8-6.7,2.9-13.6,1-20.6c-2.2-8.2-8.4-13-17-13.2c-2.2-0.1-4.4,0.1-6.6,0c-2.9-0.2-3.9,1.1-3.9,3.9 C241,301,240.9,306.6,240.9,312.1z M181.2,302.2c0,1.5,0,2.9,0,4.4c0,7.2,0,7.1,7.4,7.1c4.5,0,7.8-1.6,9.8-5.6 c2.2-4.3,1.7-8.5-1-12.5c-2.5-3.6-9.4-5.6-14-3.8c-4,1.6-1.6,5.4-2.2,8.2C181,300.7,181.2,301.5,181.2,302.2z"/>
		<path d="M303.9,271.3c7,0.4,14,0.3,20.9,1.2c11.2,1.5,17.7,9.3,17.3,19.9c-0.3,8.5-6.5,15.3-16.1,17.1c-4.7,0.9-9.5,1.1-14.3,1.1 c-3.1,0-4.4,1-4.1,4.2c0.3,3.9,0.2,7.7,0.4,11.6c0.4,6.1,2.8,10.7,9.8,11.1c0.8,0.1,1.5,0.7,2.2,1.1c-0.8,0.5-1.6,1.6-2.4,1.6 c-10.1,0.1-20.3,0.1-30.4,0c-0.8,0-1.6-0.7-2.3-1.1c0.8-0.6,1.4-1.4,2.3-1.7c7.6-2.3,9.5-4.4,9.6-12.5c0.2-12.5,0.2-25.1,0-37.6 c-0.1-8.8-1.6-10.5-10.1-13.1c-0.7-0.2-1.2-1-1.8-1.5c0.8-0.4,1.6-1.1,2.3-1.1c5.5-0.1,11.1,0,16.6,0 C303.9,271.5,303.9,271.4,303.9,271.3z M307.7,290.5C307.7,290.5,307.7,290.5,307.7,290.5c0,1.3,0,2.6,0,3.9 c0,11.3,0,11.3,11.1,10.4c6.4-0.5,10.8-4.9,11.4-11.3c0.8-8-2.5-14.3-8.8-15.8c-3.3-0.8-6.9-0.7-10.4-0.9c-2.3-0.1-3.3,1-3.3,3.3 C307.7,283.5,307.7,287,307.7,290.5z"/>
		<path d="M126.2,342.5c-7.8-0.8-14.5-3.1-20.3-7.7c-14.4-11.4-14.1-31.2,0.4-42.3c13.8-10.5,34.4-8.1,45.4,5.3 c10.7,13,5.8,32.8-10.3,40.4C136.6,340.3,131.2,341.1,126.2,342.5z M147.4,313.5c-1.2-4.3-1.8-8.9-3.6-13c-3.3-7.4-9.6-11-17.7-11 c-7.9,0-13.7,3.8-17.2,10.9c-4.2,8.6-4.3,17.4-0.3,26.1c3.5,7.6,9.5,11.6,17.9,11.4c8.4-0.1,14.5-4.1,17.6-11.9 C145.8,322.3,146.3,318,147.4,313.5z"/>
		<path d="M464.6,330.9c0-2.6-0.1-5.2,0.1-7.7c0-0.7,0.9-1.3,1.4-2c0.5,0.5,1.2,0.8,1.5,1.4c0.8,1.7,1.2,3.5,2,5.1 c3.7,7.4,12.4,11.3,19.4,9c6.4-2.1,8.1-8.4,3.1-12.8c-3-2.6-6.8-4.3-10.3-6.3c-3.2-1.8-6.7-3.1-9.8-5.1c-6-3.9-8.4-10.1-6.8-16.2 c1.5-5.7,7.1-10.4,14-10.5c3.7-0.1,7.6,0.9,11.2,1.9c2.2,0.6,3.7,2,5.4-1c1.1-2,2.5-0.9,2.6,1.1c0.1,4.4,0.1,8.8,0,13.3 c0,0.9-0.8,1.8-1.2,2.7c-0.6-0.8-1.6-1.4-1.8-2.3c-1.8-5.9-4.9-10.4-11.5-11.2c-2.2-0.3-4.8,0.2-6.9,1.1c-4.6,2.1-5.3,7-1.4,10.3 c2.1,1.8,4.6,3,7,4.3c3.9,2.1,8,3.8,11.8,5.9c7,3.9,10.1,10,8.7,16.3c-1.6,7.3-7.4,12.5-15,13.4c-5.2,0.6-10.4,0.2-14.9-2.8 c-2.4-1.6-4.2-2.2-5.5,1.2c-0.2,0.6-1.3,1-2,1.4c-0.4-0.8-1-1.6-1-2.4C464.4,336.5,464.5,333.7,464.6,330.9 C464.5,330.9,464.6,330.9,464.6,330.9z"/>
		<path d="M275.7,16.8c24,0.5,45.6,7.8,64.4,22.9c0.7,0.6,1.4,1.2,2.1,1.8c1.5,1.4,1.1,2.1-0.9,2.3c-4.5,0.5-7.9,2.8-10.7,6.2 c-4.2,5.3-5.6,11.4-3.4,17.7c2,5.5,4.7,10.8,7.7,15.8c4.9,8.4,9.5,16.9,9.6,26.7c0.1,6.4-0.4,13-2,19.1 c-4.3,16-9.3,31.8-14.1,47.6c-0.3,1-0.8,1.9-1.3,2.9c-0.5-0.9-1.1-1.8-1.5-2.8c-9.9-29.5-19.8-58.9-29.8-88.4 c-1.6-4.7-3.1-9.5-4.8-14.1c-0.7-1.9-0.4-2.7,1.7-2.9c2.4-0.2,4.8-0.6,7.1-0.8c3-0.2,5.5-1.2,5.7-4.7c0.1-2.9-2.4-4.4-6.4-4.3 c-12.2,0.3-24.3,0.7-36.5,0.9c-4.8,0.1-9.6-0.6-14.3-0.8c-4.1-0.2-6.4,1.4-6.3,4.4c0.1,3.6,2.6,4.8,5.6,4.6c6.8-0.5,10,2.6,12,9.1 c3.3,10.7,7.6,21.1,11.3,31.7c0.7,2.1,0.9,4.8,0.3,6.8c-6.3,19.6-12.9,39.1-19.4,58.7c-0.4,1.1-1.2,2.1-1.8,3.2 c-0.6-1.1-1.3-2.1-1.7-3.2c-11.3-33.7-22.6-67.3-34-101c-1.2-3.5-0.2-4.6,3.1-4.8c2-0.1,4-0.3,6.1-0.5c3-0.3,5-1.7,4.7-5 c-0.3-3.2-2.6-4.2-5.5-4.1c-8.6,0.4-17.3,0.8-25.9,1.1c-1.8,0.1-3.5-0.4-5.3-0.6c0.8-1.6,1.5-3.3,2.6-4.7 c18.7-23.9,43-37.6,73.3-40.1C270.2,17.3,272.9,17,275.7,16.8z"/>
		<path d="M275.8,222.9c-7.8-1.1-15.7-1.9-23.4-3.3c-5.5-0.9-5.5-1.2-3.7-6.3c7.5-21.7,15-43.4,22.5-65.2c1.7-5,3.4-10.1,5.1-15.2 c0.3-0.8,0.9-1.6,1.3-2.3c0.5,0.8,1.1,1.5,1.4,2.3c7,19.2,14,38.3,21,57.5c2.7,7.4,5.2,14.9,8.2,22.3c1.4,3.4,0.5,4.4-2.8,5.3 C295.6,220.7,285.9,222.5,275.8,222.9z"/>
		<path d="M172.9,120.9c0.5-13.6,2.3-25.7,6.8-37.4c0.5-1.3,1.3-2.5,2-3.8c0.6,1.2,1.5,2.4,1.9,3.7c8.1,22.1,16.2,44.3,24.3,66.4 c6.8,18.7,13.6,37.4,20.4,56c0.4,1,0.8,2.1,1.1,3.1c0.1,0.5,0.1,1,0.2,1.5c-0.6-0.1-1.3,0-1.9-0.2c-1-0.4-2-0.9-2.9-1.5 C191.3,188.5,174.6,158.6,172.9,120.9z"/>
		<path d="M366.6,82c0.2-2.5,0.3-5,0.5-7.5c1.3,2.3,2.8,4.5,3.8,7c17.8,44.2,2.8,94.8-36.1,122.2c-1.1,0.7-2.1,1.5-3.2,2.1 c-0.9,0.5-1.9,0.8-2.9,1.3c0.2-1,0.2-2.1,0.5-3.1c6.2-17.9,12.5-35.8,18.6-53.7c5.8-17.1,11.6-34.1,16.9-51.3 c1.7-5.4,1.8-11.2,2.6-16.9C367,82,366.8,82,366.6,82z"/>
	</symbol>

</svg>

