<svg class="svg-defs" xmlns="http://www.w3.org/2000/svg">
	<defs>
	
		<!-- NAV ICONS -->
		<symbol viewBox="0 0 780.6 893.6" id="nav-about">
			<title>nav-about</title>
			<path d="M433.5,216L557.9,0H222l124.4,216H0l390.3,677.6L780.6,216H433.5z M471.4,50L390,191.4L308.5,50H471.4z M86.5,266h607.6 L390.3,793.4L86.5,266z"/>
		</symbol>

		<symbol viewBox="0 0 780.6 893.6" id="nav-work">
			<title>nav-work</title>
			<path d="M780.6,677.6L390.3,0L0,677.6h124.4L0,893.6h780.6l-124.4-216H780.6z M86.5,627.6l303.8-527.4l303.8,527.4h-66.7L390.3,216 L153.2,627.6H86.5z M569.7,627.6H210.9l179.4-311.4L569.7,627.6z M694.1,843.6H86.5l95.6-166h416.3L694.1,843.6z"/>
		</symbol>
		
		<symbol viewBox="0 0 780.6 918.2" id="nav-contact">
			<title>nav-contact</title>
			<path d="M780.6,240.7h-252L390,0L251.4,240.7H0l390.3,677.6L780.6,240.7z M694.1,290.7l-68.3,118.6l-68.3-118.6H694.1z M582.1,433.7H197.9l82.4-143h219.4L582.1,433.7z M390,100.2l80.9,140.5H309.1L390,100.2z M86.5,290.7h136l-68,118.1L86.5,290.7z M390.3,818L197.7,483.7h385.2L390.3,818z"/>
		</symbol>

		<symbol viewBox="0 0 558 868" id="nav-cv">
			<title>nav-cv</title>
			<path d="M558,0H0l250,434L0,868h558l-250-434L558,0z M86.5,50h385L279.2,383.9l-0.2-0.3l-0.2,0.3L86.5,50z M471.5,818h-385 l192.3-333.9l0.2,0.3l0.2-0.3L471.5,818z"/>
		</symbol>

		<!-- TRIANGLES -->
		<symbol viewBox="0 0 473.3 410.8" id="triangle">
			<title>triangle</title>
			<polygon points="236.6,1 472.4,410.3 0.9,410.3 "/>
		</symbol>

		<symbol viewBox="0 0 540.7 469.4" id="spinner">
			<title>spinner</title>
			<path d="M540.7,469.4H0L270.4,0L540.7,469.4z M69.2,429.4h402.3L270.4,80.1L69.2,429.4z"/>
		</symbol>

		<!-- SOCIAL ICONS -->
		<symbol viewBox="0 0 106.1 86.2" id="twitter">
			<title>twitter</title>
			<path d="M106.1,10.2c-3.9,1.7-8.1,2.9-12.5,3.4c4.5-2.7,7.9-7,9.6-12c-4.2,2.5-8.9,4.3-13.8,5.3C85.4,2.6,79.7,0,73.4,0 c-12,0-21.8,9.7-21.8,21.8c0,1.7,0.2,3.4,0.6,5C34.2,25.8,18.1,17.2,7.4,4c-1.9,3.2-2.9,7-2.9,10.9c0,7.6,3.8,14.2,9.7,18.1 c-3.6-0.1-6.9-1.1-9.9-2.7c0,0.1,0,0.2,0,0.3c0,10.5,7.5,19.3,17.5,21.3c-1.8,0.5-3.7,0.8-5.7,0.8c-1.4,0-2.8-0.1-4.1-0.4 c2.8,8.6,10.8,14.9,20.3,15.1c-7.4,5.8-16.8,9.3-27,9.3c-1.8,0-3.5-0.1-5.2-0.3c9.6,6.2,21.1,9.8,33.4,9.8c40,0,61.9-33.2,61.9-61.9 c0-0.9,0-1.9-0.1-2.8C99.5,18.4,103.2,14.6,106.1,10.2z"/>
		</symbol>

		<symbol viewBox="0 0 94 89.9" id="linkedin">
			<title>linkedin</title>
			<path d="M21.3,89.9V29.2H1.2v60.6H21.3L21.3,89.9z M11.3,21c7,0,11.4-4.7,11.4-10.5C22.5,4.5,18.3,0,11.4,0 C4.5,0,0,4.5,0,10.5C0,16.3,4.4,21,11.1,21H11.3L11.3,21z"/>
			<path d="M32.5,89.9h20.2V56c0-1.8,0.1-3.6,0.7-4.9c1.5-3.6,4.8-7.4,10.3-7.4c7.3,0,10.2,5.6,10.2,13.7v32.4H94V55.1 c0-18.6-9.9-27.3-23.2-27.3C60,27.8,55.2,33.9,52.5,38h0.1v-8.8H32.5C32.8,34.9,32.5,89.9,32.5,89.9L32.5,89.9z"/>
		</symbol>

		<symbol viewBox="0 0 97.3 97.3" id="skype">
			<title>skype</title>
			<path d="M71.3,97.3c-1.1,0-2.1,0-3.2,0c-0.2-0.1-0.3-0.2-0.5-0.2c-4-0.3-7.7-1.6-11.2-3.5c-0.5-0.3-1.2-0.3-1.8-0.2 c-4.3,0.6-8.6,0.5-12.8-0.1C17.6,89.5,0.8,67.1,4,42.8c0.1-0.7-0.1-1.4-0.4-2c-0.9-2.6-2-5.1-2.9-7.7c-0.4-1.2-0.5-2.5-0.7-3.8 c0-1.3,0-2.5,0-3.8c0.1-0.4,0.2-0.8,0.3-1.3C1.8,13.6,7.5,6.1,17.4,2.1C20.1,1,23.2,0.7,26.1,0c1.1,0,2.1,0,3.2,0 c0.2,0.1,0.3,0.2,0.5,0.2c4,0.3,7.7,1.6,11.2,3.5C41.5,4,42.2,4.1,42.8,4c4.3-0.6,8.6-0.5,12.8,0.1c24.2,3.8,40.9,26.1,37.7,50.4 c-0.1,0.7,0.1,1.4,0.4,2c0.9,2.6,2,5.1,2.9,7.7c0.4,1.2,0.5,2.5,0.7,3.8c0,1.3,0,2.5,0,3.8c-0.1,0.4-0.2,0.8-0.3,1.3 c-1.5,10.6-7.2,18.1-17.2,22.2C77.2,96.4,74.1,96.7,71.3,97.3z M48.8,77.9c0.6,0,1.3,0,1.9,0c5.6-0.3,11-1.5,15.6-4.9 c6.9-5.1,8.8-14.9,4.2-21.6c-2.3-3.4-5.8-5.3-9.6-6.4c-5-1.5-10.1-2.7-15.2-4.1c-2-0.6-4-1.2-5.7-2.3c-3.6-2.1-3.6-5.9-0.2-8.4 c2.2-1.6,4.7-2,7.4-2.2c5.1-0.3,9.1,1.3,11.5,6.1c0.5,0.9,1.1,1.8,1.7,2.7c1.6,2.1,4.2,2.7,6.6,1.7c2.2-1,3.6-3.4,3.3-5.9 c-0.6-4.5-3.3-7.6-7-9.5c-10.1-5.2-20.5-5-30.5,0.3c-6,3.2-8.4,9.9-6.5,16.3c1.4,4.9,5,7.8,9.5,9.4c4.7,1.6,9.5,2.8,14.3,4.1 c2.7,0.8,5.6,1.3,7.9,3c3.3,2.5,3.5,7,0.5,9.8c-1.9,1.8-4.2,2.7-6.7,3c-8.1,1-12.7-0.9-15.7-8.2c-0.3-0.8-0.8-1.6-1.3-2.3 c-1.6-2.3-4.2-3-6.8-2c-2.5,1-3.8,3.3-3.3,6.1c0.8,4.9,3.7,8.5,7.7,11.3C37.2,77.1,42.9,77.8,48.8,77.9z"/>
		</symbol>

		<symbol viewBox="0 0 100.6 98.1" id="github">
			<title>github</title>
			<path d="M50.3,0C22.5,0,0,22.5,0,50.3C0,72.5,14.4,91.4,34.4,98c2.5,0.5,3.4-1.1,3.4-2.4c0-1.2,0-4.4-0.1-8.6 c-14,3-16.9-6.7-16.9-6.7c-2.3-5.8-5.6-7.4-5.6-7.4c-4.6-3.1,0.3-3.1,0.3-3.1c5,0.4,7.7,5.2,7.7,5.2c4.5,7.7,11.8,5.5,14.6,4.2 c0.5-3.2,1.8-5.5,3.2-6.7c-11.2-1.3-22.9-5.6-22.9-24.9c0-5.5,2-10,5.2-13.5c-0.5-1.3-2.2-6.4,0.5-13.3c0,0,4.2-1.4,13.8,5.2 c4-1.1,8.3-1.7,12.6-1.7c4.3,0,8.6,0.6,12.6,1.7c9.6-6.5,13.8-5.2,13.8-5.2c2.7,6.9,1,12,0.5,13.3c3.2,3.5,5.2,8,5.2,13.5 c0,19.3-11.8,23.6-23,24.8c1.8,1.6,3.4,4.6,3.4,9.3c0,6.7-0.1,12.1-0.1,13.8c0,1.3,0.9,2.9,3.5,2.4c20-6.7,34.4-25.5,34.4-47.7 C100.6,22.5,78.1,0,50.3,0z"/>
		</symbol>

		<symbol viewBox="0 0 102 101.8" id="codepen">
			<title>codepen</title>
			<path d="M101.9,50.9c0,4.9,0,9.9,0,14.8c0,2.1-0.7,3.5-2.4,4.7C84.3,80.5,69,90.7,53.8,100.9c-2,1.3-3.8,1.3-5.8,0 C32.9,90.7,17.7,80.6,2.5,70.5C0.8,69.3,0,67.8,0,65.7c0-9.9,0-19.7,0-29.6c0-2.1,0.8-3.6,2.6-4.8C17.7,21.2,32.9,11.1,48,1 c2.1-1.4,4-1.3,6,0c15.1,10.1,30.2,20.2,45.3,30.2c1.9,1.2,2.7,2.8,2.7,5C101.9,41.2,101.9,46,101.9,50.9z M12.3,35.4 c5,3.3,9.8,6.6,14.7,9.8c0.4,0.2,1.2,0,1.6-0.2c5.7-3.7,11.3-7.5,16.9-11.3c0.5-0.4,1-1.2,1-1.9c0.1-5.9,0-11.9,0-17.8 c0-0.3-0.1-0.7-0.1-1.3C35,20.2,23.7,27.8,12.3,35.4z M55.5,12.6c-0.1,0.5-0.1,0.7-0.1,0.9c0,6.2,0,12.3,0,18.5 c0,0.6,0.5,1.4,1,1.7c5.6,3.8,11.2,7.5,16.8,11.3c0.8,0.6,1.4,0.6,2.2,0c4.1-2.8,8.2-5.5,12.3-8.3c0.6-0.4,1.2-0.8,1.9-1.3 C78.2,27.7,66.9,20.2,55.5,12.6z M12.3,66.4C23.8,74.1,35,81.6,46.4,89.1c0.1-0.4,0.2-0.5,0.2-0.6c0-6.3,0-12.5,0-18.8 c0-0.4-0.3-1.1-0.6-1.3c-5.8-4-11.7-7.9-17.6-11.8c-0.3-0.2-1-0.2-1.4, 0C22.1,59.8,17.3,63.1,12.3,66.4z M55.4,89.3 C66.9,81.6,78.2,74,89.7,66.4c-5-3.3-9.7-6.6-14.5-9.7c-0.4-0.3-1.3-0.2-1.8,0.1c-5.7,3.7-11.3,7.5-16.9,11.3 c-0.5,0.4-1,1.2-1,1.9c-0.1,4.9,0,9.8,0,14.6C55.4,86.1,55.4,87.5,55.4,89.3z M66.5,50.9c-5.1-3.4-10-6.7-14.9-9.9 c-0.3-0.2-1.2,0-1.6,0.3c-4.5,3-9,6-13.5,9c-0.3,0.2-0.5,0.4-0.8,0.7c4.9,3.3,9.7,6.5,14.5,9.7c0.4,0.2,1.2,0.3,1.5,0.1 C56.5,57.6,61.4,54.3,66.5,50.9z M93,58.1c0-4.9,0-9.6,0-14.5c-3.7,2.5-7.2,4.8-10.8,7.2C85.9,53.4,89.4,55.7,93,58.1z M8.9,58.2 c3.8-2.5,7.2-4.8,10.9-7.3c-3.7-2.5-7.2-4.8-10.9-7.3C8.9,48.6,8.9,53.2,8.9,58.2z"/>
		</symbol>

		<symbol viewBox="0 0 128.3 81.8" id="behance">
			<title>behance</title>
			<path d="M128.2,54.7c0-3,0.2-6.4,0-9.4c-0.8-12.2-8.4-21.9-19.9-24.8c-3.5-0.9-7.2-1.2-10.8-1.1c-12.8,0.2-23.1,8.2-26.2,20.5 c-1.8,7-1.7,14.1-0.2,21.2c1.7,7.8,6.2,13.4,13.2,17c8.8,4.5,17.9,4.9,27.2,1.9c6.4-2.1,11-6.3,14.3-12c0.9-1.5,1.3-3.2,2.1-5.3 c-5.4,0-10.3,0-15.2,0c-0.4,0-0.9,0.5-1.2,0.8c-3.4,5.6-8.7,6.5-14.4,5.7c-7.3-0.9-12.5-6.5-11.4-14.5 C99.9,54.7,114,54.7,128.2,54.7z M99.1,32.2c7.7,0,12.7,4.4,13.4,12.4c-8.8,0-17.5,0-26.4,0C86.6,36.7,91.6,32.3,99.1,32.2z"/>
			<path d="M53.8,37.3c2.3-2.4,5.1-4.4,6.7-7.1c5.9-9.9,1.2-23.6-9.5-27.8c-3.3-1.3-6.9-2.1-10.4-2.2C27.5-0.1,14.4,0,1.4,0 C0.9,0,1,0.1,0,0.2c0,26.6,0,53,0,79.6c1,0,1,0.1,1.5,0.1c11.7,0,23.3,0.1,35-0.1c3.8-0.1,7.6-0.5,11.3-1.3 c9.4-2,16.2-9.7,17.5-19.9C66.2,50.3,63.5,41.2,53.8,37.3z M16,14.2c0-0.1,0.2-0.3,0.3-0.3c7.9,0.1,15.8,0,23.7,0.5 c4.6,0.3,6.7,3,7,7.2c0.3,5-1.6,7.9-6.2,9.2c-1.6,0.4-3.4,0.7-5,0.7c-6.3,0.1-12.5,0-18.9,0c-0.3,0-0.9-0.1-0.9-0.2 C16,25.6,16,19.9,16,14.2z M41,65.4c-1.1,0.3-2.3,0.5-3.5,0.5C30.4,66,24,66,16,66c0-7.1,0-14.1,0-21.6c8,0.2,16.4,0.1,24.5,0.8 c5.4,0.4,7.9,3.9,8.1,9.2C48.8,60.2,46.1,64.1,41,65.4z M53.7,37.2C53.6,37.2,53.5,37.1,53.7,37.2L53.7,37.2z"/>
			<path d="M115,4.7c-11,0-22,0-34,0c0,3,0,5,0,8c12,0,23,0,34,0C115,9.7,115,7.7,115,4.7z"/>
		</symbol>


	</defs>
</svg>
