<svg class="svg-defs" xmlns="http://www.w3.org/2000/svg">
	<defs>
	
		<!-- NAV ICONS -->
		<symbol viewBox="0 0 780.6 893.6" id="nav-about">
			<title>nav-about</title>
			<path d="M433.5,216L557.9,0H222l124.4,216H0l390.3,677.6L780.6,216H433.5z M471.4,50L390,191.4L308.5,50H471.4z M86.5,266h607.6 L390.3,793.4L86.5,266z"/>
		</symbol>

		<symbol viewBox="0 0 780.6 893.6" id="nav-work">
			<title>nav-work</title>
			<path d="M780.6,677.6L390.3,0L0,677.6h124.4L0,893.6h780.6l-124.4-216H780.6z M86.5,627.6l303.8-527.4l303.8,527.4h-66.7L390.3,216 L153.2,627.6H86.5z M569.7,627.6H210.9l179.4-311.4L569.7,627.6z M694.1,843.6H86.5l95.6-166h416.3L694.1,843.6z"/>
		</symbol>
		
		<symbol viewBox="0 0 780.6 918.2" id="nav-contact">
			<title>nav-contact</title>
			<path d="M780.6,240.7h-252L390,0L251.4,240.7H0l390.3,677.6L780.6,240.7z M694.1,290.7l-68.3,118.6l-68.3-118.6H694.1z M582.1,433.7H197.9l82.4-143h219.4L582.1,433.7z M390,100.2l80.9,140.5H309.1L390,100.2z M86.5,290.7h136l-68,118.1L86.5,290.7z M390.3,818L197.7,483.7h385.2L390.3,818z"/>
		</symbol>

		<symbol viewBox="0 0 558 868" id="nav-cv">
			<title>nav-cv</title>
			<path d="M558,0H0l250,434L0,868h558l-250-434L558,0z M86.5,50h385L279.2,383.9l-0.2-0.3l-0.2,0.3L86.5,50z M471.5,818h-385 l192.3-333.9l0.2,0.3l0.2-0.3L471.5,818z"/>
		</symbol>

		<!-- TRIANGLES -->
		<symbol viewBox="0 0 473.3 410.8" id="triangle">
			<title>triangle</title>
			<polygon points="236.6,1 472.4,410.3 0.9,410.3 "/>
		</symbol>

		<symbol viewBox="0 0 540.7 469.4" id="spinner">
			<title>spinner</title>
			<path d="M540.7,469.4H0L270.4,0L540.7,469.4z M69.2,429.4h402.3L270.4,80.1L69.2,429.4z"/>
		</symbol>

		<!-- LOGOTYPE -->
		<symbol viewBox="0 0 1932.3 331.6" id="logotype">
			<title>logotype</title>
			<g>
				<path d="M41.3,31.7H0V2.5h118.1v29.2h-42v124.5H41.3V31.7z"/>
				<path d="M339,77.7c0,50.4-30.6,80.9-75.5,80.9c-45.6, 0-72.3-34.4-72.3-78.2c0-46.1,29.4-80.5,74.8-80.5C313.3,0,339,35.3,339,77.7z M228,79.8c0,30.1,14.1,51.3,37.4,51.3c23.5,0,36.9-22.3,36.9-52.2c0-27.6-13.2-51.3-37.2-51.3C241.7,27.6,228,49.9,228,79.8z"/>
				<path d="M560.2,97.4c-0.7-18.5-1.4-40.8-1.4-63.2h-0.7C553.4,53.8,547,75.7,541,93.7l-18.7,60h-27.1l-16.4-59.5 c-5-18-10.3-39.9-13.9-60h-0.5c-0.9,20.7-1.6,44.5-2.7,63.6l-2.7,58.4h-32.1l9.8-153.7h46.3l15,51.3c4.8,17.8,9.6,36.9,13,54.9h0.7 c4.3-17.8,9.6-38.1,14.6-55.2l16.4-51.1H588l8.4,153.7h-34L560.2,97.4z"/>
				<path d="M840.9,2.5v59.1h57.2V2.5h34.7v153.7h-34.7V91.9h-57.2v64.3H806V2.5H840.9z"/>
				<path d="M1122.9,91.2h-56.5v36.5h63.2v28.5h-98V2.5h94.8V31h-60v31.9h56.5V91.2z"/>
				<path d="M1248.1,156.2L1211.6,2.5h37.2l11.6,63.4c3.4,18.2,6.6,38.1,9.1,53.6h0.5c2.5-16.6,6.2-35.1,10-54l13-62.9h36.9l12.3,64.8 c3.4,18,5.9,34.4,8.2,51.5h0.5c2.3-17.1,5.7-35.1,8.9-53.4l12.5-62.9h35.3L1368,156.2h-37.6l-13-66.1c-3-15.5-5.5-29.9-7.3-47.4 h-0.5c-2.7,17.3-5.2,31.9-8.9,47.4l-14.6,66.1H1248.1z"/>
				<path d="M1529,2.5v153.7h-34.9V2.5H1529z"/>
				<path d="M1657.1,31.7h-41.3V2.5h118.1v29.2h-42v124.5h-34.9V31.7z"/>
				<path d="M1855.4,31.7h-41.3V2.5h118.1v29.2h-42v124.5h-34.9V31.7z"/>
			</g>
			<g>
				<path d="M143.4,255.2h3.4l-8.9,44.3c-0.9,3.6-1.1,6.6-1.1,9.3c0,12.5,6.1,19.8,18.2,19.8c9.8,0,19.1-7,22.7-25.5l9.5-48h3.4 l-9.8,48.9c-4.1,20.5-15,27.5-26.4,27.5c-13.2,0-21.1-8-21.1-21.8c0-3,0.2-5.7,0.9-9.3L143.4,255.2z"/>
				<path d="M255.7,291.1l-13-35.9h3.4l8.4,23.9c1.3,3.4,2,6.1,3.4,9.5h0.2c2.7-3.2,5.5-6.8,8-10.2l17.3-23.2h3.6l-27.7,36.6l14.1,38.4 H270l-8.9-24.8c-1.4-3.6-2.7-7.5-4.1-11.4h-0.2c-3.2,3.9-6.4,8.4-9.1,12l-18,24.1h-3.6L255.7,291.1z"/>
				<path d="M323.2,328.2c0-2.5,2.3-5.2,4.8-5.2c2, 0,3,1.6,3,3.6c0,2.5-2,5-4.5,5C324.4,331.6,323.2,330,323.2,328.2z"/>
				<path d="M464.2,255.2H476c20.7,0,30.7,11.8,30.7,29.1c0,25.5-13.6,45.9-40,45.9h-17.5L464.2,255.2z M466.9,327.3 c23.4,0,36.4-20,36.4-42.7c0-15.5-8.9-26.4-27.5-26.4h-8.9L453,327.3H466.9z"/>
				<path d="M569,255.2h38.9l-0.7,3h-35.5l-6.1,30.7h30l-0.7,3h-29.8l-7.3,35.5h36.6l-0.7,3H554L569,255.2z"/>
				<path d="M649,317.3c4.8,7.3,11.6,11.4,21.4,11.4c11.4,0,20.2-7.3,20.2-18.4c0-6.8-3.9-11.4-9.8-14.8l-10-5.9 c-6.1-3.6-11.8-8.9-11.8-16.8c0-10,8.4-18.9,20.9-18.9c9.1,0,16.1,4.5,20,10l-2.5,2c-3.9-5-10-9.1-18.2-9.1 c-10.2,0-16.8,8-16.8,15.5c0,7.3,4.8,11.4,10,14.3l9.8,5.7c7,4.1,11.8,9.3,11.8,17.5c0,13.2-10.5,21.8-24.1,21.8 c-10.7,0-18.6-4.5-23.6-12.5L649,317.3z"/>
				<path d="M759,255.2h3.4l-15,75H744L759,255.2z"/>
				<path d="M849.5,253.8c8.4,0,13.9,5,17.3,10.5l-2.7,1.8c-3-5.2-7.7-9.3-14.8-9.3c-22.7,0-35.2,25.5-35.2,44.8 c0,14.8,6.4,27.1,23,27.1c7.3,0,12.7-2.7,16.4-6.1l5-25.2h-18l0.7-3h21.4l-6.1,29.8c-5.2,4.5-11.6,7.5-19.5,7.5 c-17.7,0-26.1-12.3-26.1-29.3C810.6,280.1,824.3,253.8,849.5,253.8z"/>
				<path d="M928.2,255.2h3.9l20.9,55.2l5.5,15h0.5c1.1-7,2.3-14.3,3.6-21.4l9.8-48.9h3.4l-15,75H957l-20.7-55l-5.7-15.7h-0.5 c-1.1,7.3-2.5,14.3-3.9,21.1l-9.8,49.6h-3.4L928.2,255.2z"/>
				<path d="M1019.1,328.2c0-2.5,2.3-5.2,4.8-5.2c2,0,3,1.6,3,3.6c0,2.5-2,5-4.5,5C1020.2,331.6,1019.1,330,1019.1,328.2z"/>
				<path d="M1160.1,255.2h11.8c20.7,0,30.7,11.8,30.7,29.1c0,25.5-13.6,45.9-40,45.9H1145L1160.1,255.2z M1162.8,327.3 c23.4,0,36.4-20,36.4-42.7c0-15.5-8.9-26.4-27.5-26.4h-8.9l-13.9,69.1H1162.8z"/>
				<path d="M1264.9,255.2h38.9l-0.7,3h-35.5l-6.1,30.7h30l-0.7,3H1261l-7.3,35.5h36.6l-0.7,3h-39.8L1264.9,255.2z"/>
				<path d="M1349.7,255.2h3.2l4.1,45.5c0.9,8.2,1.8,16.8,2.5,25.2h0.5c4.1-8.2,8.6-17.3,13-25.2l23.9-45.5h3.4l-39.6,75h-3.9 L1349.7,255.2z"/>
				<path d="M1450.6,255.2h38.9l-0.7,3h-35.5l-6.1,30.7h30l-0.7,3h-29.8l-7.3,35.5h36.6l-0.7,3h-39.8L1450.6,255.2z"/>
				<path d="M1545.4,255.2h3.4l-14.3,72.1h34.1l-0.7,3h-37.5L1545.4,255.2z"/>
				<path d="M1618.4,300.4c0-20,12.7-46.6,35.2-46.6c16.4,0,24.1,13,24.1,31.1c0,20-12.7,46.6-35.2,46.6 C1626.1,331.6,1618.4,318.6,1618.4,300.4z M1621.8,300c0,16.8,6.1,28.6,20.9,28.6c20.5,0,31.6-25.5,31.6-43.2 c0-16.8-6.1-28.6-20.9-28.6C1632.9,256.8,1621.8,282.3,1621.8,300z"/>
				<path d="M1740.2,255.2h19.1c13.6,0,21.8,5.2,21.8,17.1c0,16.4-12,24.6-31.4,24.6h-14.5l-6.6,33.4h-3.4L1740.2,255.2z M1749.1,293.8 c18.9,0,28.6-7.3,28.6-21.4c0-10.2-7-14.3-20.5-14.3h-14.3l-7,35.7H1749.1z"/>
				<path d="M1811.2,328.2c0-2.5,2.3-5.2,4.8-5.2c2, 0,3,1.6,3,3.6c0,2.5-2,5-4.5,5C1812.3,331.6,1811.2,330,1811.2,328.2z"/>
			</g>
		</symbol>


	</defs>
</svg>
