<svg xmlns="http://www.w3.org/2000/svg">
	<defs>
	
		<!-- NAV ICONS -->
		<symbol viewBox="0 0 780.6 893.6" id="nav-about">
			<title>nav-about</title>
			<path d="M433.5,216L557.9,0H222l124.4,216H0l390.3,677.6L780.6,216H433.5z M471.4,50L390,191.4L308.5,50H471.4z M86.5,266h607.6 L390.3,793.4L86.5,266z"/>
		</symbol>

		<symbol viewBox="0 0 780.6 893.6" id="nav-work">
			<title>nav-work</title>
			<path d="M780.6,677.6L390.3,0L0,677.6h124.4L0,893.6h780.6l-124.4-216H780.6z M86.5,627.6l303.8-527.4l303.8,527.4h-66.7L390.3,216 L153.2,627.6H86.5z M569.7,627.6H210.9l179.4-311.4L569.7,627.6z M694.1,843.6H86.5l95.6-166h416.3L694.1,843.6z"/>
		</symbol>
		
		<symbol viewBox="0 0 780.6 918.2" id="nav-contact">
			<title>nav-contact</title>
			<path d="M780.6,240.7h-252L390,0L251.4,240.7H0l390.3,677.6L780.6,240.7z M694.1,290.7l-68.3,118.6l-68.3-118.6H694.1z M582.1,433.7H197.9l82.4-143h219.4L582.1,433.7z M390,100.2l80.9,140.5H309.1L390,100.2z M86.5,290.7h136l-68,118.1L86.5,290.7z M390.3,818L197.7,483.7h385.2L390.3,818z"/>
		</symbol>

		<symbol viewBox="0 0 558 868" id="nav-cv">
			<title>nav-cv</title>
			<path d="M558,0H0l250,434L0,868h558l-250-434L558,0z M86.5,50h385L279.2,383.9l-0.2-0.3l-0.2,0.3L86.5,50z M471.5,818h-385 l192.3-333.9l0.2,0.3l0.2-0.3L471.5,818z"/>
		</symbol>

		<!-- TRIANGLE -->
		<symbol viewBox="0 0 473.3 410.8" id="triangle">
			<title>triangle</title>
			<polygon points="236.6,1 472.4,410.3 0.9,410.3 "/>
		</symbol>
		
	</defs>
</svg>
