<svg xmlns="http://www.w3.org/2000/svg">

	<symbol viewBox="0 0 97.3 136.5" id="shape-arrow-big">
		<title>arrow-big</title>
		<path d="M72.7,59.8c-0.3-0.3-0.5-0.5-0.8-0.7l0,0L41.6,28.7c-4.7-4.7-12.3-4.7-16.9,0S20,41,24.6,45.6l22.6,22.6L25.4,90l0,0 c-0.3,0.2-0.5,0.5-0.8,0.7c-4.7,4.7-4.7,12.3,0,16.9s12.3,4.7,16.9,0c0.3-0.3,0.5-0.5,0.7-0.8l0,0l29.3-29.3c0.3-0.3,0.7-0.6,1-0.9 C77.4,72.1,77.4,64.5,72.7,59.8z"/>
	</symbol>

	<symbol viewBox="0 0 97.3 136.5" id="shape-arrow">
		<title>arrow</title>
		<path d="M69.2,68.2c0-3.9-1.9-7.4-4.8-9.5L49.7,44c-2.2-2.9-5.6-4.8-9.5-4.8c-6.6,0-12,5.4-12,12c0,3.2,1.2,6,3.2,8.2l-0.1,0.1 l8.8,8.8l-8.4,8.4c0,0-0.1,0.1-0.1,0.1l-0.3,0.3l0,0c-2,2.1-3.2,5-3.2,8.1c0,6.6,5.4,12,12,12c3.1,0,6-1.2,8.1-3.2l0,0l17.4-17.4 l0,0C67.8,74.5,69.2,71.5,69.2,68.2z"/>
	</symbol>

	<symbol viewBox="0 0 161.7 161.7" id="shape-h1graphic">
		<title>h1graphic</title>
		<polygon class="poly" points="125.8,126.1 36.7,126.1 31.7,131.1 130.5,131.1 "/>
		<line class="line" x1="161.4" y1="0.4" x2="0.4" y2="161.4"/>
		<line class="line" x1="161.4" y1="161.4" x2="0.4" y2="0.4"/>
	</symbol>

	<symbol viewBox="0 0 97.3 136.5" id="shape-tridot">
		<title>tridot</title>
		<circle cx="48.7" cy="24.8" r="12"/>
		<circle cx="48.7" cy="68.8" r="12"/>
		<circle cx="48.7" cy="112.8" r="12"/>
	</symbol>

	<symbol viewBox="0 0 39 41.5" id="shape-hexagon">
		<title>hexagon</title>
		<path d="M34.6,34.2l-10.9,6.1c-2.6,1.5-5.9,1.5-8.5,0L4.4,34.2C1.7,32.7,0,29.8,0,26.7l0-11.9c0-3.1,1.7-6,4.4-7.5 l10.9-6.1c2.6-1.5,5.9-1.5,8.5,0l10.9,6.1c2.7,1.5,4.4,4.4,4.4,7.5v11.9C39,29.8,37.3,32.7,34.6,34.2z"/>
	</symbol>

</svg>
