<svg class="svg-defs" xmlns="http://www.w3.org/2000/svg">
	<symbol viewBox="0 0 1304.5 136" id="square">
		<path d="M169.1,0c-11.6,0-20.9,9.3-20.9,20.9v78.5c0,11.6,9.3,20.9,20.9,20.9h27.9V136h26.2v-15.7h29.6c11.6,0,20.9-9.3,20.9-20.9
			V20.9c0-11.6-9.3-20.9-20.9-20.9H169.1z M174.4,20.9h71.5v76.7h-22.7V85.4h-26.2v12.2h-22.7V20.9z"/>
		<path d="M24.4,0C12.8,0,3.5,9.3,3.5,20.9v27.9c0,11.6,9.3,20.9,20.9,20.9h76.7h3.5v27.9h-3.5H54.1H33.1h-3.5H0v1.7
			c0,11.6,9.3,20.9,20.9,20.9h8.7h3.5h73.2c11.6,0,20.9-9.3,20.9-20.9V68c0-11.6-9.3-20.9-20.9-20.9h-5.2h-75V20.9h75v10.5h24.4V20.9
			c0-11.6-9.3-20.9-20.9-20.9H24.4z"/>
		<path d="M294.7,0v20.9v78.5c0,11.6,9.3,20.9,20.9,20.9h14h15.7h1.7h14h29.6c11.6,0,20.9-9.3,20.9-20.9V20.9V0h-15.7h-8.7h-1.7v97.7
			H361h-14h-1.7h-15.7h-8.7V0h-5.2H294.7z"/>
		<path d="M476.9,1.7l-60.2,118.6h26.2l13.3-26.2h67.6l13.3,26.2h26.2L503.1,1.7L502.2,0h-24.4L476.9,1.7z M490,27.5l23.2,45.7h-46.4
			L490,27.5z"/>
		<path d="M575.5,0v20.9v33.1v66.3h26.2V75h16.6l43.6,45.3h34.9L653.1,75h13.1c11.6,0,20.9-9.3,20.9-20.9V20.9
			c0-11.6-9.3-20.9-20.9-20.9h-64.5h-5.2H575.5z M601.6,20.9h52.3c3.9,0,7,3.1,7,7v19.2c0,3.9-3.1,7-7,7h-52.3V20.9z"/>
		<path d="M709.7,0v120.3h101.1V97.7h-75V20.9h75V0H709.7z"/>
		<rect x="758.6" y="47.1" width="43.6" height="22.7"/>
		<path d="M866.7,0v120.3h101.1V97.7h-75V20.9h75V0H866.7z"/>
		<rect x="915.5" y="47.1" width="43.6" height="22.7"/>
		<path d="M988.7,0v6.1v114.2h24.4V35.2l62.8,74.9l1.7,2.1l6.9,8.2h5.3h10.5h1.7V0h-1.7h-24.4v81l-62.8-74.9L1008,0H988.7z"/>
		<rect x="1123" y="0" width="27.9" height="120.3"/>
		<path d="M1164.8,0l52.4,58.1l-52.7,62.2h31.4l37.5-44.2l39.8,44.2h31.4l-56-62.2L1297.8,0h-31.4l-34.1,40.2L1196.1,0H1164.8z"/>
	</symbol>

	<symbol viewBox="0 0 1256.7 223.7" id="bafta">
		
		<!-- Generator: Adobe Illustrator 18.1.0, SVG Export Plug-In  -->
<svg version="1.1"
	 xmlns="http://www.w3.org/2000/svg" xmlns:xlink="http://www.w3.org/1999/xlink" xmlns:a="http://ns.adobe.com/AdobeSVGViewerExtensions/3.0/"
	 x="0px" y="0px" width="1256.8px" height="226.3px" viewBox="0 0 1256.8 226.3" style="enable-background:new 0 0 1256.8 226.3;"
	 xml:space="preserve">
<defs>
</defs>
<g>
	<g>
		<path d="M790.4,144.9c-0.9-3.3-2.1-5.7-2.3-8.2c-0.8-11.8-1.3-23.7-1.9-35.5c-0.1-1.3-0.5-2.7-0.8-4c-0.6-0.1-1.1-0.3-1.7-0.4
			c-5.9,12-11.9,24-18.3,36.9c-8-12.9-14.1-25.5-22.3-36.7c-1.1,2-1.7,3.7-1.8,5.4c-0.5,6.5-0.3,13.1-1.3,19.5
			c-1.1,7.5,1.4,15.8-5.1,23c4.5,0,8.1,0,12.1,0c-7.1-10.4-1.3-20.8-2.6-30.9c0.5-0.2,1-0.3,1.5-0.5c5.8,9.9,11.6,19.9,17.4,29.8
			c0.5-0.1,1-0.1,1.5-0.2c4.9-9.9,9.7-19.7,14.6-29.6c1.2,5.3,1.7,10.5,1.7,15.6c0.1,5.1-0.3,10.3-0.6,15.8
			C783.3,144.9,786.8,144.9,790.4,144.9z"/>
		<path d="M456.3,185.6c2.3,15.9,2.1,25.6-0.7,32.3c3.9,0,7.6,0,10.9,0c-0.8-3.3-1.9-6.1-2.1-8.9c-0.7-10.8-1.1-21.6-1.7-32.4
			c-0.1-2.1-0.6-4.1-1-6.1c-0.6-0.1-1.2-0.2-1.8-0.3c-6,12-11.9,24-18.3,36.9c-7.5-13.1-14.4-25-21.3-37c-0.5,0.1-1,0.3-1.5,0.4
			c-0.3,1.2-0.9,2.3-1,3.5c-0.4,5-0.3,10.1-1.1,15.1c-1.5,9.6,1.3,19.9-5,28.9c3.9,0,7.5,0,11.2,0c-5.6-10.7-1.8-21.1-0.8-31.6
			c5.8,10.1,11.6,20.1,17.4,30.2c0.5,0,1,0,1.4,0.1C445.9,206.6,450.9,196.6,456.3,185.6z"/>
		<path d="M459,97.8c0.2,6.3,0.6,11.8,0.4,17.3c0,1.1-2.5,2.9-3.9,3c-6.8,0.3-13.6,0.1-20.4,0.2c-3,0-4.5-1.4-4.3-4.4
			c0.3-5.2,0.6-10.4,1-15.9c-2.9,0-6.5,0-9.4,0c2.8,15.8,2.1,31.1,0.6,46.7c2.7,0,5.9,0,7.8,0c0-6.6,0-12.5,0-18.3
			c0-2.8,1.7-3.9,4.4-3.9c6.7,0,13.3,0,20,0c3.2,0,4.7,1.4,4.6,4.5c-0.2,5.8-0.4,11.7-0.6,17.9c2.5,0,5.7,0,8.3,0
			c-1.2-16-2.2-31.4,0.8-47C465,97.8,461.4,97.8,459,97.8z"/>
		<path d="M585.5,217.9c0.1-1.9,0.4-3.7,0.4-5.4c0-8.5,0-16.9,0-25.4c0-5.4-1-11,4.5-15.7c-4.8,0-8.6,0-12,0
			c6.5,10.8,2.2,21.9,3.6,32.5c-0.5,0.2-1,0.4-1.5,0.7c-11-11.3-21.9-22.7-32.9-34c-0.5,0.2-0.9,0.5-1.4,0.7c-0.3,2-0.7,3.9-0.8,5.9
			c-0.1,8.6,0,17.2-0.1,25.8c0,5,1.1,10.3-3.5,14.8c4.5,0,8.2,0,10.9,0c-0.9-4.1-2.2-7.6-2.4-11.2c-0.4-5.5-0.1-11-0.1-16.5
			c0-1.4,0.2-2.7,0.3-4.1c0.5-0.3,1-0.5,1.5-0.8C563.1,196,574.1,206.8,585.5,217.9z"/>
		<path d="M1029.1,170.7c-0.5,0.2-1,0.4-1.5,0.6c-0.2,2.3-0.3,4.5-0.5,6.8c-1.2,13.3,2.8,26.9-2.7,40c3.5,0,7.2,0,10.8,0
			c-6-10.6-2.1-21.3-2.5-31.9c11.6,10.6,21.7,22.3,33.7,32.2c0.9-2.2,1.3-4.1,1.3-5.9c0.1-9,0-18.1,0-27.1c0-4.8-1-9.8,4.5-13.9
			c-5.1,0-8.8,0-12.6,0c-0.3,0.3-0.6,0.5-0.8,0.8c5.2,2.9,4.9,7.6,4.9,12.2c0,4,0,8,0,12c0,2.9,0,5.7,0,8.6
			c-0.4,0.1-0.8,0.1-1.1,0.2C1051.3,193.6,1040.2,182.1,1029.1,170.7z"/>
		<path d="M708.7,170.7c5,8.7,5.2,39.9,0.7,47.2c1.8,0.2,3.3,0.5,4.9,0.5c7.3,0.1,14.5,0.1,21.8,0.1c4.8,0,6.2-3.1,3.5-7.8
			c-4.6,5.5-10.8,3.7-16.6,3.5c-1.2,0-3.3-2.2-3.5-3.6c-0.5-3.5-0.6-7.2,0-10.6c0.2-1.5,2.4-3.7,3.7-3.7c4.4-0.1,8.9,0.6,13.6,1
			c0-2.1,0-5,0-7.9c-0.7,0.1-1.1,0-1.3,0.2c-4.4,3.8-9.8,3.3-14.2,1.5c-1.8-0.7-1.5-6.5-2.1-10c-0.1-0.4,0-0.9,0-1.3
			c-0.1-3.5,1.4-5.2,5.1-5.1c5.1,0.1,10.4-0.8,14.3,4.1c2.6-6.8,1.6-8.2-4.4-8.1c-5.8,0.1-11.6,0-17.4,0.1
			C714.5,170.7,712,170.7,708.7,170.7z"/>
		<path d="M821.2,212.2c-4.7,0.9-8.8,2.1-13.1,2.3c-8.5,0.4-8.5,0.1-8.5-8.6c0-1.8,0.1-3.6,0-5.3c-0.1-2.9,1.4-4.6,4.3-4.4
			c4.5,0.3,8.9,0.8,13.7,1.2c0-2.1,0-4.9,0-6.7c-4.8,0.5-9,1-13.3,1.4c-3.8,0.3-5.4-1.9-4.7-5.2c0.9-4.2-3.6-10.7,4.2-12
			c5.3-0.8,11-1.2,15.7,3.6c0.5-2.5,1-4.8,0.3-6.7c-0.3-0.8-3-1-4.6-1c-6.7-0.1-13.3,0-20,0c-1.7,0-3.4,0.3-5.2,0.5
			c3.6,8.7,3.7,39.6,0.1,46.6c1.9,0.2,3.6,0.5,5.2,0.6c6.8,0.1,13.6,0.1,20.5,0.1C821.3,218.6,822.4,216.9,821.2,212.2z"/>
		<path d="M862.7,171.2c2.3,5.4-5.5,30-10.8,35.4c-2.9-8.2-5.9-16.2-8.6-24.4c-1.1-3.5-1.6-7.2-2.4-10.9c-3.1,0-6.9,0-10.7,0
			c2.1,4.9,4,9.2,5.7,13.5c3.8,9.5,7.6,19,11.4,28.5c0.5,1.2,1,2.5,1.6,3.7c1.4,2.6,3,2.8,4.5,0.2c0.9-1.5,1.5-3.2,2.2-4.8
			c5.9-13.7,11.7-27.3,17.6-41.1C870.3,171.2,866.8,171.2,862.7,171.2z"/>
		<path d="M725.5,137.2c-4.5,5.7-10.7,4.1-16.4,4.2c-3.1,0.1-4.8-1.1-4.7-4.4c0.1-3.4,0.1-6.8,0-10.2c-0.1-3.3,1.6-4.6,4.7-4.4
			c4.4,0.4,8.8,1,13.5,1.5c0-2,0-4.6,0-7.8c-1.2,0.5-1.9,0.7-2.5,1.1c-4.5,2.8-10,3.2-13.9,0.8c-2-1.3-1.1-7.2-1.5-11.1
			c0-0.4,0.2-0.9,0.2-1.3c0.2-3.3,1.8-4.8,5.2-4.6c2.7,0.2,5.4-0.2,7.9,0.5c2.4,0.6,4.5,2.3,7.3,3.9c0.1-2.3,0.6-4.1,0.2-5.7
			c-0.2-1-1.7-2.5-2.6-2.5c-7.7,0-15.4,0.2-23.1,0.5c-1.5,0-3,0.3-4.8,0.5c3.7,7.5,3.8,38.6,0.2,46.6c1.8,0.2,3.5,0.6,5.2,0.6
			c6.8,0.1,13.6,0.1,20.4,0.1C726.2,145.3,727.5,143.2,725.5,137.2z"/>
		<path d="M584.4,136.5c-13.4,8-22.3,7.7-29.8-0.8c-7.3-8.1-8.2-20.8-1.5-28.6c2.6-2.9,6.5-5.4,10.2-6.5c7.4-2.1,14.3-0.1,19.6,6.4
			c1.9-6,1.2-8.1-3.6-8.8c-5.6-0.9-11.5-1.7-17.1-1.1c-12.7,1.3-21.1,11.2-21.3,23.9c-0.3,12.1,7.7,22.3,19.9,24.2
			c6,0.9,12.4,0.3,18.5-0.3C583.6,144.5,584.9,141.9,584.4,136.5z"/>
		<path d="M408.5,105.8c1.8-7.1,1-8.4-5-9c-1.3-0.1-2.7-0.6-4-0.3c-4.3,0.9-9.1,1.1-12.6,3.2c-8.3,5-7.4,17.9,1.3,22.5
			c3.9,2.1,8.2,3.4,12.2,5.3c3.2,1.6,5.2,4.6,4.2,8c-0.7,2.4-2.8,5.2-5,6.1c-4.3,1.7-8.8,0.9-12.5-2.3c-1-0.9-2.1-1.9-3.2-2.9
			c-2.4,5.2-1.5,8,3.2,8.6c4.6,0.6,9.4,0.8,14,0.2c4.5-0.6,7.6-3.7,9.1-8.2c2.3-7.1-0.2-12.9-7-16.2c-3.9-1.9-8-3.3-11.7-5.4
			c-3.2-1.8-4.8-5-4-8.7c0.8-3.7,3.6-5.8,7.2-6.4c4-0.7,7.7-0.1,10.7,3C406.3,104,407.2,104.7,408.5,105.8z"/>
		<path d="M932.3,179.2c1.7-6.9,1-8.3-4.8-8.9c-4.1-0.4-8.4-0.3-12.3,0.5c-6.2,1.4-9.4,5.6-10,11.6c-0.6,6.3,1.9,10.9,7.8,13.6
			c3.1,1.5,6.4,2.4,9.5,3.8c5.1,2.4,7.2,6.4,5.7,10.6c-1.5,4.2-6.4,6.5-11.5,4.9c-2.3-0.7-4.4-2.3-6.5-3.6c-0.9-0.6-1.7-1.3-2.6-2.1
			c-2.3,5.1-1.3,7.8,3.3,8.7c3.5,0.6,7.1,1,10.6,0.9c7.2-0.3,11.8-4.5,13.1-11.1c1.2-6.3-1.6-11.3-8.4-14.4
			c-3.4-1.6-6.9-2.8-10.1-4.5c-3.3-1.8-5.4-4.8-4.7-8.8c0.7-4.2,3.9-6.7,7.8-6.7c3.3,0,6.7,1.6,9.9,2.7
			C930.1,176.7,930.9,177.9,932.3,179.2z"/>
		<path d="M1254.1,179c2.6-5.4,1.6-7.8-3.5-8.6c-2.8-0.4-5.6-0.6-8.4-0.5c-8,0.2-13.5,4.6-14.6,11.1c-1.3,8.1,1.6,12.7,9.9,16.1
			c3.3,1.3,6.6,2.6,9.7,4.3c3,1.7,4.3,5,3.1,8c-0.9,2.3-3.2,4.7-5.4,5.7c-4.3,2-8.4,0.2-11.9-2.6c-1.1-0.9-2-1.9-3.2-3
			c-2.4,5.6-1.4,7.9,3.6,8.8c3,0.6,6.2,0.9,9.3,0.9c7.4-0.1,12.6-4.2,13.8-10.3c1.4-7.6-1.1-12.2-8.6-15.6
			c-3.4-1.5-6.9-2.8-10.1-4.6c-3.3-1.8-4.7-4.9-4.2-8.6c0.6-3.9,3.3-6.4,6.9-6.5c3.4-0.1,7,1.3,10.4,2.4
			C1252,176.6,1252.9,178,1254.1,179z"/>
		<path d="M1220.8,177.5c2.4-5.1,1.2-7-5.2-6.9c-10.5,0.1-21.1,0-31.6,0.1c-1.7,0-4.6,0.5-4.8,1.3c-0.6,2.1,0.1,4.5,0.3,7.8
			c1.9-1.7,2.6-2.8,3.4-3c3.8-0.7,7.7-1.5,11.5-1.1c0.9,0.1,1.9,4.5,1.9,7c0.3,7.7,0.1,15.4,0.1,23.1c0,4.2,0.8,8.7-3.3,12.2
			c4.5,0,9,0,13.4,0c-1.3-2.8-3.2-5.1-3.3-7.5c-0.1-10.5,0.3-21,0.5-31.6c0.1-2.8,1.6-4.3,4.3-3.9
			C1212.1,175.6,1216.1,176.6,1220.8,177.5z"/>
		<path d="M308.8,105.7c1.1-0.9,1.8-1.9,2.6-2.1c3.8-0.6,7.7-1.6,11.5-1.2c1,0.1,2,4.7,2.1,7.2c0.3,7.6,0.2,15.1,0.2,22.7
			c0,4.2,0.9,8.7-3.4,12.3c4.5,0,9.1,0,13.6,0c-1.3-2.8-3.2-4.9-3.2-7.1c-0.3-10.5-0.1-21.1-0.1-31.6c0-3,1.6-4.5,4.4-4.2
			c4.2,0.5,8.3,1.5,12.7,2.3c2.2-5.4,1.1-7.1-5.3-7.1c-10.2,0.1-20.4,0.1-30.7,0C306.9,96.9,305.7,99,308.8,105.7z"/>
		<path d="M809.5,144.7c3.9,0,7.6,0,11.1,0c-2.1-9-3.8-17.8,0.3-25.6c3.8-7.5,9.7-13.9,14.9-21.2c-3.4,0-6.8,0-9.8,0
			c0.4,8.6-6.1,13.2-9.8,19.6c-3.5-6.4-10.2-11.1-8.7-19.3c-4,0-7.9,0-12.5,0C806,112.2,816.9,125.3,809.5,144.7z"/>
		<path d="M660.5,177.5c4.4-0.9,8.3-2,12.3-2.6c3.6-0.5,5,1.4,5,5c-0.1,8.2,0,16.3,0,24.5c0,4.6,1.2,9.6-3.4,13.5c4.5,0,9,0,13.5,0
			c-1.2-2.5-3-4.5-3.1-6.6c-0.3-10.8-0.1-21.7-0.1-32.5c0-2.8,1.5-4.3,4.2-3.9c4.1,0.6,8.2,1.6,12.8,2.5c1.7-3.3,1.2-7-1.9-7
			c-13-0.1-26,0-39.2,0C660.5,173.3,660.5,175.9,660.5,177.5z"/>
		<path d="M282,188.9c-1.3,0.7-1.8,1.3-2.4,1.4c-3.5,0.6-7.2,1.6-10.5,1.1c-1-0.2-1.6-4.7-2-7.3c-0.3-1.7-0.5-3.8,0.1-5.3
			c0.7-1.6,2.4-3.8,3.7-3.8c4,0,8.1,0.9,12.4,1.5c1.6-4.1,0.7-5.6-4.4-5.7c-4.3-0.1-8.6,0-12.9,0c-3,0-6,0-8.4,0
			c3.9,16.3,3.4,31.6,1.2,47.2c3,0,6.5,0,9,0c-0.3-6.1-0.5-11.7-0.7-17.2c-0.1-3.2,1.5-4.9,4.6-4.5c3.5,0.4,7,1.3,10.5,2
			C282,195.4,282,192.4,282,188.9z"/>
		<path d="M325.2,218.1c-4.5-6.5-2.8-12.9-2.7-19c0-1,2.4-2.9,3.6-2.8c3.8,0.1,7.6,0.9,11.4,1.4c0-2.3,0-5.2,0-8.6
			c-1.2,0.6-1.7,1.1-2.2,1.1c-3.8,0.5-7.7,1.3-11.4,0.9c-0.8-0.1-1.2-4.9-1.6-7.5c-0.2-1.5,0-3,0-4.4c-0.1-2.9,1.3-4.6,4.3-4.4
			c4,0.4,8.1,1.1,12.5,1.7c1.7-3.8,0.7-5.7-4.2-5.7c-6.2-0.1-12.5-0.1-18.7,0c-1.3,0-2.7,0.4-4.3,0.7c5.8,7.6,3.3,15.7,3.6,23.3
			c0.3,7.7-0.2,15.4-0.4,23.4C317.5,218.1,320.9,218.1,325.2,218.1z"/>
		<path d="M405.2,209c-5,7.1-11.7,5.5-17.9,5.5c-2.6,0-4.5-1.2-4.4-3.9c0.4-13-1.9-26.2,2-39.3c-3.7,0-7.5,0-11.8,0
			c4.8,7.8,2.6,15.8,2.9,23.5c0.3,7.7-0.3,15.4-0.4,23.5c-0.5-0.2-0.1,0.1,0.4,0.1c7.6,0.1,15.1,0.1,22.7,0.2
			C405.2,218.6,406.4,217.2,405.2,209z"/>
		<path d="M752.8,218.2c0.9,0.1,2.6,0.4,4.3,0.4c6.7,0.1,13.4,0,20,0c5.5,0,7.2-2.4,5.3-8.9c-4.6,6.1-11,4.8-17.2,4.9
			c-3.4,0-4.8-1.5-4.8-4.9c0.1-6.1-0.2-12.2,0-18.2c0.2-6.7,0.7-13.3,1.1-20.2c-2.7,0-6.5,0-9.3,0
			C754.7,187,754.2,202.2,752.8,218.2z"/>
		<path d="M368.7,144.8c-1.5-16-2.1-31.3,1.1-47c-3.4,0-7.3,0-11.4,0c3.2,6.4,3.8,38.5,1,47C362.8,144.8,366.2,144.8,368.7,144.8z"
			/>
		<path d="M298,144.8c-0.9-2.9-2.1-5.1-2.1-7.3c-0.1-9.5,0.1-18.9,0.5-28.4c0.1-3.7,0.9-7.3,1.5-11.4c-3.2,0-7.1,0-10.4,0
			c3.1,15.8,2.7,31.1,0.8,47C291.1,144.8,294.3,144.8,298,144.8z"/>
		<path d="M361.9,171.2c-3.1,0-6.9,0-10,0c1.4,15.8,3.4,31.2,0.1,46.7c3.1,0,6.5,0,9.1,0c-0.5-4.1-1.3-7.7-1.4-11.3
			c0-7.8,0.2-15.7,0.6-23.5C360.5,179.2,361.3,175.4,361.9,171.2z"/>
		<path d="M892.8,218c-2.5-16-0.9-31.3,0.4-46.8c-2.8,0-6.6,0-9.6,0c1.2,15.8,3.1,31,0.4,46.8C886.7,218,890.1,218,892.8,218z"/>
		<path d="M955.8,218.1c-1.8-16-2.2-31.2,0.4-46.8c-3.1,0-6.9,0-10.9,0c3,6.4,3.6,37.4,1,46.8C949.9,218.1,953.3,218.1,955.8,218.1z
			"/>
		<path d="M666.8,98.1c-7.8-1.3-15.9-0.6-23.8-0.8c-0.5,0-1,0.5-0.7,0.3c2.5,16.1,2.7,31.3-0.1,47c0.1,0,0.8,0.6,1.6,0.6
			c8-0.2,16,0.2,23.9-0.9c10.1-1.4,16.7-8.3,18.4-17.4C688.7,113.5,680.4,100.3,666.8,98.1z M675.7,134c-3.4,5.9-15.4,10.2-21.8,7.7
			c-1.5-0.6-3-2.9-3.1-4.7c-0.4-5.1-0.1-10.2-0.1-15.2c0.1,0,0.1,0,0.2,0c0-5,0-11,0-16.4c0-3.5,1.9-5.2,5.3-5.3
			c8.3-0.1,15.2,2.7,19.4,10.1C680,118.1,680.2,126.2,675.7,134z"/>
		<path d="M272.3,136.1c-2.4-2.7-4.5-5.5-7-8.1c-2.4-2.5-2.4-4.1,0.6-6.3c2.4-1.7,4.6-4.4,5.7-7.1c2.3-5.5-0.3-12.1-5.5-15
			c-7.8-4.4-16.1-2.7-24.9-2.2c4.4,8.2,4.8,39.5,0.9,47.5c4.1,0,7.7,0,11.6,0c-3-6-2.5-12.6-1.3-19.6c1.9,1.3,3.3,1.9,4.2,2.9
			c3.7,4.4,7.5,8.8,10.9,13.5c2.8,3.9,6.8,4.9,11.9,2.1C277,141.3,274.6,138.7,272.3,136.1z M257.2,121.2c-3.8,1-5.3,0.4-5.5-3.5
			c-0.1-2.1,0-3.8,0-5.8c0,0,0,0,0.1,0c0-2-0.1-4.3,0-6.2c0.3-4.9,2.1-6.2,6.6-4.6c4.4,1.6,7.3,5.9,7,10.7
			C264.9,116.5,261.9,120,257.2,121.2z"/>
		<path d="M619.6,170.8c-5.9-0.2-11.8-0.1-17.8,0c-1.1,0-2.2,0.4-2.3,0.4c1.4,15.7,1.7,30.9-0.4,47.4c10.5-0.9,21.8,2.3,32.5-3.1
			c5.3-2.7,9-6.7,10.8-12.4C647.4,187.4,636.1,171.4,619.6,170.8z M632.4,207.7c-3.7,5.9-15.5,9.8-22,7.2c-1.4-0.6-2.8-3-3-4.7
			c-0.4-4-0.1-8-0.1-12c-0.1,0-0.2,0-0.3,0c0.4-6.5,0.8-13,1-19.5c0.1-3.8,2.1-5.5,5.6-5.3c8,0.3,14.9,2.8,19,10.3
			C636.9,191.6,637.4,199.8,632.4,207.7z"/>
		<path d="M1161.7,197.7c2.2-1.5,3.8-2.5,5.3-3.7c6.4-5.1,6.4-14.4,0.4-19.9c-4.3-4-19.7-5.6-26.1-1.8c3.2,5.2,3.9,35.6,0.9,46.6
			c3.5,0,7,0,9.5,0c-0.5-7-0.9-13.1-1.4-19.2c0.5-0.2,1.1-0.6,1.6-0.8c1.3,0.8,2.9,1.3,3.8,2.5c3.8,4.4,7.6,8.7,11.1,13.3
			c3.1,4.1,7,5.2,11.8,2.5C1173.1,210.8,1167.5,204.4,1161.7,197.7z M1155.3,194.7c-2.8,0.2-4.7-0.7-4.6-3.8
			c0.1-4.7,0.2-9.5,0.9-14.1c0.2-1.1,2.5-2.8,3.9-2.8c5.4,0.1,9,4.6,9,10.6C1164.3,190.2,1160.6,194.3,1155.3,194.7z"/>
		<path d="M225.2,169.8c-14.5-0.1-25.2,10.2-25.4,24.5c-0.2,14.1,10.4,24.9,24.5,25.1c14.4,0.2,25.2-10.3,25.4-24.6
			C249.9,180.7,239.3,169.9,225.2,169.8z M240.4,204.3c-2.1,7.5-8.4,11.9-15.9,11.8c-7.4-0.1-13.2-4.5-15.5-11.8
			c-1.8-5.9-2-11.9-0.4-18c2.1-8.1,8.2-13,15.9-13.1c8-0.1,14,4.4,16.1,12.6c0.8,2.8,0.9,5.8,1.3,9.1
			C241.4,197.9,241.3,201.2,240.4,204.3z"/>
		<path d="M991.5,169.8c-14.4-0.1-24.9,10.2-25,24.4c-0.1,14.6,10.3,25.2,24.7,25.2c14.3,0,24.8-10.4,24.8-24.7
			C1016.1,180.4,1005.8,169.9,991.5,169.8z M995.2,215.5c-8,2.1-15.9-1.7-18.9-9.4c-3-7.5-3-15.1-0.2-22.6
			c2.5-6.7,8.1-10.3,15.1-10.4c7,0,12.8,3.7,15.1,10.3c1.3,3.6,1.7,7.4,2.5,11.2C1008.3,206.3,1003.9,213.3,995.2,215.5z"/>
		<path d="M224.1,120.5c1.6-1.5,2.8-2.5,3.8-3.6c5-5.5,3.4-14.6-3.1-17.9c-6.9-3.4-14.1-1.1-21.9-1.6c4.8,8.1,2.7,16.1,2.7,23.7
			c0,7.8,2.2,15.9-3,24.6c7.9-0.6,14.7-0.7,21.3-1.7c4.3-0.7,6.7-4.1,7.6-8.4C232.9,129,229.9,124.3,224.1,120.5z M212.7,105.2
			c0.3-1.6,0.8-4,1.9-4.4c1.5-0.6,3.9-0.2,5.3,0.7c3.6,2.2,4.6,6,4.1,10c-0.4,3.6-2.5,5.8-6.1,6.8c-4,1.1-5.1,0.3-5.3-3.8
			c-0.1-1.6,0-3.2,0-4.9C212.6,108.1,212.4,106.6,212.7,105.2z M225.1,133.2c-0.6,5.1-4,8.8-8.5,8.7c-1.3,0-3.4-1.2-3.8-2.5
			c-0.6-2.2-0.2-4.5-0.2-6.5c0,0-0.1,0-0.1,0c0-2,0-3.5,0-5c0.1-4.6,2.3-6.3,6.6-4.8C223.2,124.6,225.7,128.6,225.1,133.2z"/>
		<path d="M536.8,144.9c-2.3-4-4.6-9.4-6.3-13.9c-3.7-9.8-7.1-19.9-10.7-29.7c-0.6-1.5-1.5-3-2.8-5.4c-1.4,2.7-2.4,4.8-3.1,6.5
			c-5.8,14.3-11.6,28.6-17.5,43.6c2.5,0,5.8,0,9.3,0c-0.1-2-0.1-2-0.3-2.4c-3-6.7-0.6-11,6.5-11.1c2.1,0,4.1-0.2,6.2-0.1
			c5.5,0.1,7.9,2.2,8.3,7.6c0.1,1.5-0.5,3.1-0.9,5.1C529.6,144.9,533.5,144.9,536.8,144.9z M518.5,127.9c-11.8,0.3-10.9,0.1-7-9.1
			c1.2-2.8,2.4-5.6,3.5-8.4c0.4,0,0.8,0.1,1.2,0.1c1.6,4.6,3.3,9.1,4.9,13.7C522,126.6,521,127.9,518.5,127.9z"/>
		<path d="M632.1,144.9c-2.2-4-4.5-9.4-6.2-14c-3.7-9.7-7-19.6-10.5-29.4c-0.6-1.6-1.6-3.2-2.5-4.7c-0.4,0-0.9,0.6-1.3,0.6
			c-6.6,16-13.3,32.5-19.9,48.5c2.8,0,6,0,9.8,0c-4-8-0.9-14.7,7.2-13.3c1.6,0.3,3.3-0.3,4.9-0.2c5.6,0.1,7.5,1.6,8.2,7.1
			c0.2,1.6-0.4,3.4-0.7,5.4C625,144.9,628.8,144.9,632.1,144.9z M616.7,127.2c-4,0-8-0.1-12-0.4c-0.1,0-0.3-1.7,0-2.4
			c1.8-4.7,3.7-9.3,5.6-13.9c0.4,0,0.9-0.1,1.3-0.1c1.8,5,3.6,9.9,5.4,14.9C617.2,125.8,616.8,127.2,616.7,127.2z"/>
		<path d="M534,218.9c-2.4-6-4.9-11.3-7-16.7c-3.4-8.9-6.4-18.1-9.6-27c-0.6-1.7-1.6-3.3-2.9-5.8c-1.3,2-2.1,3.5-2.6,4.6
			c-6.5,14.7-10.8,30.8-18.9,44.8c3.3,0,6.6,0,10.2,0c-3.7-9-1.1-13.1,7.7-13.2c1.5,0,3-0.3,4.4-0.3c5.6,0.1,7.8,2.3,8.4,7.8
			c0.2,1.5-0.4,2.7-0.8,5.7C527,218.9,530.8,218.9,534,218.9z M518.7,198.4c-0.5,0.8-1,2.3-1.5,2.3c-3.4,0.1-6.7-0.1-10.1-0.4
			c-0.2,0-0.6-2.2-0.2-3.1c1.7-4.6,3.6-9,5.4-13.5c0.4-0.1,0.8-0.1,1.2-0.2c1.7,4.7,3.3,9.4,5,14.1
			C518.6,197.8,518.8,198.2,518.7,198.4z"/>
		<path d="M1120.3,218.9c4.1,0,7.9,0,11.2,0c-2.2-5-4.5-9.8-6.2-14.4c-3.6-9.6-6.9-19.5-10.4-29.1c-0.6-1.7-1.6-3.4-3-5.9
			c-1.3,2.1-2.2,3.6-2.7,4.8c-6.4,14.5-10.7,30.6-18.9,44.6c3.5,0,6.7,0,10.3,0c-0.3-1-0.4-2.1-0.6-2.6c-2.6-6.4,0-10.8,6.7-10.9
			c2.2,0,4.4-0.1,6.7-0.1c5.4,0.1,8.5,4.3,7.7,9.7C1120.9,216,1120.6,216.9,1120.3,218.9z M1114.3,200.8c-3.5,0.3-7,0.1-11.5,0.1
			c2.7-6.6,4.9-12,7.1-17.4c0.4,0,0.8,0,1.2,0c1.7,4.8,3.5,9.6,5,14.5C1116.2,198.8,1115,200.7,1114.3,200.8z"/>
	</g>
	<path d="M149.3,16.9c-1.2,1.1-5.4-0.9-8.2,3.3c10-3.2,14.1,5.6,12.2,11.6c-0.3,0.8,0.5,0.7,1.1,0.2c1.4-1.3,3.5-5.5,3.8-8.5
		c0.4-4.3-2.8-10.9-8.4-12.7c-3.4-1.1-6.5-0.8-9.6,1.4C147.6,12.1,150.5,15.8,149.3,16.9z M169.4,28.8c2.8,6.6,3.4,14.7,2.6,19.7
		c-0.5,3.1,0.7,7.1-1.2,11.6c-1.8,4.5-3.3,4.5-4.1,5.2c2.9-5.7,4.9-15.2,0.7-17.8c-3.3-2.1-4.7-4.6-3.2-12.3
		c0.9,5.1,2.7,7.7,5.5,8.5c-4.3-6.8,1-16.8-10.3-26.9c5.3,10.2,0.8,19.2-3.1,22.8c-7.2,6.6-15,0.9-18.1,11.8c7.3-5.3,9,1.4,20.4-8.8
		c1.4,1.9,3.4,4.1,4.8,8.4c2.2,6.7,0.6,17.4,0.9,21.3c0.4,6.4-8.6,2.3-17.5-0.2c-5.6-1.6-12.3-2.2-17.3-1.9c-5.5,0.3-9.6,2.6-10,7.6
		c-0.3,3.8,1.8,12.6,2.5,17.3c1,6.2,2,12.8,5.6,32.2c1.5-8.2-1.2-18.2-0.4-19.8c0.8-1.7,3-0.9,5.5,0.5c4.6,2.6,10.2,4.1,12,1.9
		c0.9-1-1.7-1.7-3.8-2.8c-5.2-2.8-5.9-6.4-0.6-3.8c4.2,2.1,10.5,3.8,14.1-1.8c0.7-1.2,1.4-0.9,1.4,0.2c0,1.7-0.5,2.4-1,3.2
		c-0.7,1.4-1,2.4,0.9,1.1c3.3-2.1,3.1-3.8,3.9-3.9c0.8-0.1,1.2,0.8,1.6,2.2c0.7,2.2,0.9,12.7,0.2,19c-0.5,3.7-1.6,8.2-3.8,15.8
		c-2.4,8.2-7.5,17.1-10,28.5c-2.4,11-6.3,26.4-9.9,34.6c-7,16-19.1,13.8-19.7,13.8c-17.3-0.6-18.4,5.6-28.4-1.2
		c-3.2-2.2-6-6.2-6.5-17c-0.2-5.4-5.7-8-4.3-10.9c2.6-5.6,16,0.1,22.3,1.2c6.4,1.1,16.2,0.4,20.7-1.2c4.2-1.6,4.8-2.9,5.7-4.7
		c2.1-4.1-6.3-3.4-10.5-3.2c-4.6,0.2-9.1,1.3-12.6,0.4c-6.4-1.7-2.4-11.4,2-11.1c6.3,0.5,9.7,0.6,15.1-0.1c3-0.4,6.2-0.1,9,1.8
		c1.9,1.3,2.9,2.9,3.9,4.3c0.8,1.1,2.3,2.5,4.2-0.1c2.3-3,2.6-8.5,2-11.2c-0.4-1.6-1.3-2-1.8-1c-1.4,2.6-2.8,3.2-4.9,3.4
		c-4.6,0.3-6.2-3.4-10.8-3.7c-0.5,0-1.2,0.5-1.6,0.7c-1.5,0.9-2.2,1.7-5.2,1.7c-3.9,0-5.7-3-11.3-2.5c-8.5,0.8-10.7,2.9-16.1,3.7
		c-4.3,0.6-6.7,0-6.2-1.7c0.5-1.7-3.6-4.8-8.3-0.9c-3.5,3-6.1,6.5-4.1,14.4c1.2,5,0.7,9.2-4.6,8.6c-5.3-0.6-7.2-9.2-7.2-17.6
		c0-8.4-9.1-25.5-10.4-31.4c-1.2-5.9-1.1-19.2,12-15.3c10.1,3.1,10.8-1.4,16.8,3.3c6.4,4.9,9.3,10.3,7.4,17.7
		c-0.7,2.9-1.2,6.9,3.2,8.7c3,1.3,8.1-1.2,13,1.6c5,2.8,3.6,4.3,8,7.1c1.8,1.2,4.9,1.7,7.6,1.4c3.6-0.4,5.8-3.3,7.3-8.3
		c1.2-3.8,2.9-2.6,4.9-6.1c1.6-2.6,5.7-1.8,4.8-9.1c-0.6,3.6-3,5-2.8,4.4c0.8-4-2.4,0.5-2.7,0.9c-2.1,3.2-4.3,5.1-6.5,5.3
		c2.7-1.9,4.1-4.6,4.1-6.8c-2.5,1-6.7,2-8.3-2.3c-3.5-9.2-3-29.1-7.3-45.9c2.1,24-0.9,26.6,0.8,44c0.1,1.3-0.5,4.1-3.8,3.3
		c-2.7-0.6-4.9-0.5-8.2,0.5c-7.3,2.3-10.4-2.6-4.3-10.1c2.1-5.2,0.3-12-2.8-17.5c-3.1-5.6-1.2-13.6,5.4-19.6
		c4.3-3.9,2.8-10.4,4.7-13.3c2.2-3.3,4.9-0.5,7.4,4.9c-0.2-6.8-1.3-12.7-5.4-14.1c-4.3-1.5-6.7-1.9-12.7-1.6
		c-5.8,0.3-17.6,3-21.2,3.8c-2.6,0.5-3.8-1.6-3.2-3.1c6.3-17.2,0.5-20.5,16.4-31.9c8.5-6.1,17.6-9.2,21.7-9.2
		c8.2,0,9.3,10.6,26.2,5.9c8.3-2.3,14.5-4.8,14.3,0.1c0,1.3-1.7,3.7-2.5,6.2c0.7-1.5,2.9-2.6,5.4-5.2c3.6-3.8,1-9-0.7-9.6
		c-5-1.7-6.5,0-11.4,2.8c-5,2.8-16,7.1-21.4-9.5c2,2.3,4.1,6,12.8,7c6.5,0.8,10.5-4.9,10.5-4.9s-9.3,1.4-12.5-2.8
		c-2.7-3.5-1-3.2,4.2-2.9c5.3,0.3,7.5-3.9,7.5-3.9s-6.8,2.9-14.2-3.7c-1-0.9-0.4-2.2,1.5-1.8c2.7,0.7,17-0.1,21.2-1.6
		c-13.5-0.2-18-1.3-21.5-1.8c-5.1-0.6-13.1-1.8-14.8-2.2c0.5,8.8-6.7,40.9-38.4,25.4c22,5.7,31.7-12.1,32.9-22.8
		c0.3-2.9-3.6-2.9-5,0.9c-1.6,4.7-4,8.9-6.7,11.9c1.8-7.3-0.2-12.2-0.5-12.9c-0.2-0.5-0.8-0.6-1.3,0.3c-1.9,3.6-5.6,7.3-9.9,7.7
		c-6.8,0.8-8.9-1.2-13.7-1.6c-8.1-0.7-16.2,0.6-16.9,9.8c7.2-13.1,22.2-3.9,28.9-3.3c4.8,0.4,8.2-1.9,9.8-3.7
		c-5.4,11.9-18.8,6.2-19.5,6c-2.5-0.4-5-0.5-7.5,0.1c-11.2,2.9-11.5,13.8-11.5,13.8s-3.1-3.9-1.4-10.7c-4.7-5-0.3-13.3,7.1-15.5
		c10.2-3,13.3,1.5,20.8,0.6c7.4-0.9,6.9-7.5,21.7-7.4c-2.9-0.6-8.9-0.4-15.7,0.9C72.3,3,48-1.6,36.7,6.6c-13.6,9.7-7,29.2,2.4,32.9
		C36.6,37.4,21,7.6,51.6,4.5c-5,1.7-9.9,4.3-11.8,8.2c-3.7,7.8,1.1,25.7,17.9,34c-5.1,6.7-13.8-2-16.3-3.9
		c-7.8,2.1-16.4-9.2-16.1-19.5c-2.3,10.2,1.9,15.5,5.5,18.5c-7,0.7-21.1-21.3,4.2-36.6c-12,3.2-37.4,20.8-34.9,56
		c1.1,14.8,2.5,19.7,2,27.7c-0.5,8-2.2,16-0.1,25.7c1.9,8.4,3.4,11.6,4.6,14.3c1.2,2.6,2.9,5.6,4.5,15.5c0.8,4.9,9.3,48,20.9,66.1
		c7,10.9,12.6,11.8,29.1,14.3c16.5,2.5,41.2,1.8,55.7-1.3c1.8-0.4,15.4-1.8,22.2-13.5c5.8-9.9,9.5-28,13.6-40.6
		c2-5.8,5.2-15.6,7.2-23.9c2.9-11.8,3.5-15.1,3.5-27.2c0,0.1-0.4-9.5-0.6-12.9c-0.2-3.4-0.3-11,0.9-15.4c1-3.9,3.9-7.5,3.9-13.5
		c6.8-4.5,5.7-21.6,5.9-27.9C177.9,33.3,170.6,29.4,169.4,28.8z M159.6,91.7c-1.3-3.5-6.8-5.2-7-3.8c5.1,2.1,4.3,5.1,0.6,12.6
		c-1.6,3.2-5.1,3.9-7,1.3c-1.4-1.9,0-4.6-1.2-7.2c-0.7-1.4-1.5-1.6-1.8-3.1c-0.7-3.2,7.1-3.1,7-4.1c-0.1-0.8-8.8-0.8-17.2,4.6
		c-0.4,0.2-0.4-0.3,1.2-1.7c2.8-2.5,6.7-4,10.1-4.9c2.6-0.7,0-1.6,0.6-2.6c0.5-0.9,10.7-1.6,14.4,3.7
		C160.9,89.3,159.6,91.7,159.6,91.7z M83.5,170.7c1.3-2,2.7-1.8,5.1-2c2-0.1,2.9-0.3,5-0.5c1.8-0.1,2.5,1.6,0.6,3.6
		c-2,2.1-2,2.9-4.7,2.9C86.8,174.7,82.2,172.7,83.5,170.7z M113.3,145.9c0.9,0.6,2,3-0.7,1.7c-3.1-2.1-6-5-12.9-4.6
		C107.1,141.3,110.6,144,113.3,145.9z M62.5,110.4c-3.3,1-3.7,0-5.4,0c-0.7,0-0.5,1,1.1,1.7c2.8,1.2,3.9,2.4,2.6,3
		c-4.2,2-9.9-1.1-13.5-5.5c-3.4-4.2-0.3-4.8,3.1-2.9c1.6,0.9,4,1,0.1-3.4c-1.6-1.8-2.6-4-1.1-4.6c1.4,3.3,7.8,7.2,12.6,9.2
		C63.5,108.3,65.4,109.5,62.5,110.4z M69.5,84.8c1.3-1,5-1.7,8.1-1.5c1.2,0.1,3.2,0.1,6.6,3c2.3,2,2.8,3.9,3,5
		c0,0.4-0.3,0.6-0.5,0.4c-0.8-0.7-2.2-1.8-3.7-2.9c-1.6-1.2-2.8-2.4-4.8-2.9c-2.5-0.7-4.7-0.3-6.2-0.2
		C70.6,85.6,67.5,86.1,69.5,84.8z M68.7,87.7c5-0.6,9.7,1.3,12.2,2.7c2.5,1.4,6.1,4.7,4.7,7.1c-1.4,2.5-4.7,4.1-10.3,5.9
		c-5.6,1.9-10.8,1.3-15.5-1c-2.9-1.4-4.3-2.1-6.7-3.9c-2.5-1.9-1.1-4.2-0.6-4.8C53,93.3,61.4,88.7,68.7,87.7z M53.1,89.7
		C60,84,65.9,84,66,85.3c0.1,0.5-0.2,0.8-1,1.1c-0.7,0.2-2.3,0.3-9.2,3c-0.5,0.2-3,1.2-3.3,1.3C52.1,90.8,52,90.6,53.1,89.7z
		 M54.9,40.7c-3.9-5.9-1.7-16.4,12.4-12.1C55.6,28.8,55.1,35.5,54.9,40.7z M38.2,65.1c5.7-5.1,3.7-9.6,9.6-11.1
		c5.9-1.5,9.3,2.8,9.9,10.6c0.3,3.3,0.3,11.2-2.5,11.9c-5.1,1.2-10.9,2.4-15.2,2.8C31.2,80.2,29.8,72.6,38.2,65.1z M13.6,27
		c1.2-1,2.6-2,2.9,0.8c0.4,3.1,1,5.2-0.5,6.6c-3.2,3.1-7.3,7.6-10.3,18.1C4.6,47.8,6,33.2,13.6,27z M10.4,119.7c0,0-4.9-8.2-4.5-18
		C6.5,89.6,10.1,86,11.7,81c1.6-5-3.7-14.6-3.3-21.6c0.4-7,1.8-11.5,6.8-16.1c3.5-3.2,6.8-2,3.3,1.3c-2.2,2.1-4.4,4.8-5.9,8.9
		c-1.4,4.1-0.7,10.3,1.1,17.8c1.9,7.5,0.9,10.1-0.6,13.7c-2.2,5.4-3.7,7.2-4.1,12.8c1.7-6,6-9.3,7.7-15.3c2.5-8.9-4.7-19,0-29.3
		c1.5-3.4,4.1-4.4,5.5-4.2c1.4,0.2,0.3,4.2-0.6,5.6c-3.1,5.2-0.4,16.5,0.2,22.4c0.6,6.5-2.3,10.8-6.3,15.6
		C6.7,103.3,9.6,116.5,10.4,119.7z M41.2,207.4c-2.3-2.9-6-5.4-7.7-18.7c-1.7-12.4-5.8-25.7-15.3-47.3C12.7,129,12.3,110.1,18,103
		c3.8-4.8-1.8,10.4,7.9,21.4c5.7,6.5,8.8,13.2,11.4,26.7c1.8,9.5,1.6,20.3,4.2,37.6c2.1,13.8,6,17,8.2,20.8
		C51.7,212.9,43.9,210.9,41.2,207.4z"/>
</g>
</svg>

	</symbol>

	<symbol viewBox="0 0 648 182.2" id="game">
		<path d="M380.9,181.2c-10.9-3.6-20.9-6.6-30.5-10.4c-2-0.8-3.8-4.6-4-7.2c-0.6-7-0.2-14-0.2-21c0-43.3,0-86.6,0-129.9
			c0-8.9,2.4-11.3,11.1-11.3c5.3,0,10.7,0.2,16-0.1c3.5-0.2,5.3,1.2,7.1,4.1c14.9,23.9,29.9,47.7,44.9,71.5c1,1.5,2,3,3.5,5.2
			c1.4-2,2.5-3.5,3.5-5.1c14.5-23.1,29.2-46.1,43.5-69.3C478.7,3,482,1,487.3,1.2c8,0.3,15.9,0.1,24.7,0.1c0,2.2,0,3.9,0,5.7
			c0,51,0,102,0,152.9c0,8.2-1.6,10.4-9.5,13c-8.2,2.6-16.4,5.2-25.3,8c0-35.4,0-70.1,0-104.8c-0.4-0.1-0.7-0.2-1.1-0.4
			c-0.8,1.1-1.7,2.2-2.4,3.3c-10.1,16-20.2,32.1-30.4,48.1c-6.4,10.1-22.1,10.4-28.5,0.4c-10.2-15.8-20.1-31.8-30.1-47.7
			c-0.9-1.4-1.8-2.7-3.7-4C380.9,110.7,380.9,145.4,380.9,181.2z"/>
		<path d="M129.4,108.7c-9,0-17.4,0-25.9,0c-10,0-12.3-2.4-12.3-12.4c0-5.8,0-11.7,0.1-17.5c0-0.5,0.2-1,0.4-2.2c1.5,0,3.1,0,4.6,0
			c19,0,38,0,57,0c7.8,0,11.1,3,11.1,10.7c0.1,25,0.1,50-0.1,75c0,1.9-1.4,4.7-2.9,5.4c-30.7,13.3-62.3,18.9-95.4,10.5
			c-37.7-9.6-64.1-41.2-66-80.6c-2.4-49.1,30.1-88.9,79-96.3C107.2-3,133.3,3.7,158.6,15c1.2,0.5,2.2,2.7,2.3,4.2
			c0.3,5.7,0.1,11.3,0.1,17c-0.1,8.7-5.8,12.1-14.2,9c-10.4-3.9-20.8-8.1-31.6-10.5c-18.3-4.1-36.4-3.4-53,7.1
			c-19.8,12.6-30.2,36.4-26,59.6c4.3,23.7,21.2,40.7,44.9,46c15.3,3.4,30.1,1.7,44.8-2.4c1.3-0.4,3.2-1.9,3.2-2.9
			C129.5,131.2,129.4,120.3,129.4,108.7z"/>
		<path d="M563.9,148.5c28.1,0,55.7,0,83.9,0c0,8.9,0.6,17.6-0.2,26.1c-0.5,4.8-5.1,6.5-9.9,6.5c-15.7-0.1-31.3,0-47,0
			c-17,0-34,0-51,0c-7.9,0-11.2-3.3-11.2-11.2c0-52.7,0-105.3,0-158c0-7,3.1-10.5,9.8-10.5c34.8-0.1,69.7,0,104.5,0
			c0.8,0,1.6,0.2,3.1,0.3c0,8.3,0.3,16.5-0.1,24.8c-0.2,3.7-3,6.3-7,6.8c-2.3,0.3-4.6,0.4-7,0.4c-20.3,0-40.7,0-61,0
			c-2.1,0-4.3,0-6.6,0c-0.2,1.7-0.5,2.8-0.5,3.9c0,10.7,0.1,21.3-0.1,32c-0.1,3.7,1.3,4.8,5,4.8c22.8-0.1,45.7-0.1,68.5-0.1
			c6.6,0,6.6,0,6.6,6.6c0,5,0.1,10-0.1,15c-0.3,7.8-3.1,10.4-10.8,10.4c-21.2,0-42.3,0.1-63.5-0.1c-4.4,0-5.8,1.2-5.7,5.6
			c0.3,10.5,0.1,21,0.1,31.5C563.6,144.9,563.8,146.5,563.9,148.5z"/>
		<path d="M301.3,181c-5.1-14-10.1-27.3-14.8-40.8c-1.4-4.1-3.2-5.7-7.7-5.7c-15.7,0.3-31.3,0.2-47,0c-3.9,0-5.8,1-7.2,5
			c-4.7,13.8-9.9,27.5-15,41.5c-8.8-2.9-17.3-5.4-25.8-8.4c-5.8-2-7.3-6.9-4.5-13.6c7.3-17.9,14.6-35.7,21.9-53.6
			c13.1-32,26.2-64,39.3-96c2.9-7,4.4-8,12-8.1c14.6-0.1,14.6-0.1,20,13.2c19.6,47.9,39.2,95.7,58.7,143.6
			c3.5,8.6,1.7,12.6-7.1,15.5C316.8,176,309.4,178.4,301.3,181z M238.5,102.8c11.9,0,22.8,0,34.5,0c-5.8-15.6-11.2-30.5-16.7-45.4
			c-0.4,0-0.8,0-1.1,0C249.7,72.3,244.3,87.1,238.5,102.8z"/>
	</symbol>

	<symbol viewBox="0 0 366.9 182.5" id="argos">
		<path d="M178.5,182.5c5.6-0.2,9.5-0.2,13.3-0.4c5.9-0.3,11.8-0.5,17.7-1c6.5-0.6,13-1.5,19.5-2.3c8.9-1.2,17.8-3,26.6-5
			c22.7-5.4,44.6-13,65.6-23c12.6-6,24.8-12.8,36.5-20.4c0.8-0.5,1.5-1.2,2.1-1.9c0.7-0.9,0.9-2,0.3-3c-0.5-1.1-1.5-1.6-2.7-1.5
			c-1,0.1-1.9,0.3-2.8,0.6c-3.5,1.4-6.9,2.8-10.4,4.2c-19.6,7.8-39.5,15-59.9,20.6c-23.3,6.5-47.1,10.7-71.2,12.3
			c-8,0.5-16,0.8-24,1c-16,0.3-31.9,0-47.8-1.5c-9-0.8-18-1.9-27-3.4c-11.8-1.9-23.5-4.5-35.1-7.6c-19-5.1-37.6-11.6-56-18.7
			c-5.8-2.3-11.6-4.7-17.4-6.9c-1-0.4-2.1-0.6-3.1-0.6c-2.3,0.1-3.4,2.3-2.2,4.2c0.6,0.9,1.4,1.6,2.3,2.2
			c19.2,12.5,39.6,22.7,61,30.8c22.3,8.4,45.2,14.4,68.8,17.8c8.2,1.2,16.4,2.2,24.6,2.6C164.8,181.9,172.5,182.2,178.5,182.5z"/>
		<path d="M339.4,27.9c-2.6,0-6,0.3-9.5,1c-5.6,1.2-10.9,3.2-15.4,6.9c-5.5,4.5-8.7,10.2-8.9,17.3c-0.1,3.5,0.9,6.6,3.3,9.2
			c1.5,1.7,3.4,3,5.4,4c3,1.6,6.3,2.7,9.6,3.6c2.9,0.8,5.7,1.6,8.6,2.5c1.7,0.5,3.2,1.3,4.6,2.5c2.1,1.9,2.4,4.8,0.7,7.1
			c-0.9,1.2-2,2-3.4,2.6c-2.1,1-4.3,1.3-6.6,1.4c-4.9,0.1-9-1.5-12.3-5.2c-0.5-0.6-1.1-1.3-1.6-1.9c-1.1-1.4-2.6-2-4.4-1.7
			c-0.8,0.1-1.5,0.3-2.2,0.5c-2.6,0.9-5,2.2-7.2,3.7c-2.6,1.7-3,3.5-1.8,6.3c1.5,3.3,3.8,6.1,6.7,8.3c4.6,3.4,9.8,5,15.4,5.7
			c4,0.5,8,0.5,12,0c5.9-0.7,11.5-2.2,16.6-5.2c6.5-3.8,10.9-9.3,12.8-16.6c0.7-2.5,1-5,0.7-7.6c-0.6-4.6-3-8-6.7-10.6
			c-3.8-2.7-8-4.3-12.4-5.6c-2.5-0.8-5.1-1.6-7.6-2.5c-1.6-0.6-3-1.3-4.1-2.6c-2-2.2-1.8-5.1,0.6-6.8c0.7-0.5,1.5-0.9,2.3-1.2
			c3.8-1.3,7.4-0.5,10.8,1.3c1.9,1,3.4,2.4,4.8,4c1.8,2.1,4,2.6,6.5,1.6c2.6-1.1,5.1-2.2,7.5-3.5c3-1.6,3.5-3.5,1.8-6.5
			c-0.3-0.5-0.6-1-0.9-1.4c-1.7-2.4-3.8-4.3-6.3-5.8C353.1,29.2,346.9,27.9,339.4,27.9z"/>
		<path d="M129.5,37.5c0.2-0.8,0.3-1.4,0.4-2c0.2-0.9,0.4-1.8,0.5-2.7c0.1-1.5-0.8-2.5-2.3-2.8c-0.4-0.1-0.8-0.1-1.2-0.1
			c-3.5,0-7,0-10.5,0.1c-0.6,0-1.2,0.1-1.8,0.2c-1.6,0.2-2.6,1.2-3.1,2.6c-0.3,0.8-0.5,1.7-0.6,2.5c-1.8,8.7-3.6,17.4-5.3,26.1
			c-2.4,11.9-4.8,23.7-7.2,35.6c-0.5,2.5,0.6,3.9,3.1,3.9c4.5,0,9,0,13.5,0c0.6,0,1.1,0,1.7-0.2c1.7-0.5,2.3-1.8,2.7-3.4
			c1.9-9.6,3.9-19.2,5.8-28.8c0.8-3.9,1.9-7.6,3.8-11.2c1.9-3.7,4.9-6.1,8.9-7.2c2.7-0.7,5.4-1.2,8.2-1.2c3.1-0.1,5.5-1.2,7.1-3.8
			c0.2-0.3,0.5-0.7,0.7-1c2.5-3.6,5.3-7.1,8.4-10.2c0.3-0.3,0.6-0.6,0.8-0.9c0.7-1,0.3-2.2-0.8-2.7c-0.4-0.2-0.9-0.3-1.3-0.3
			c-5.5,0-11,0-16.4,0.9c-5.3,0.9-10.1,2.7-14.2,6.2C130.1,37.1,129.9,37.3,129.5,37.5z"/>
		<path d="M93.8,95.8C93.4,86.9,93,78,92.6,69.1c-0.4-8.1-0.8-16.2-1.2-24.3c-0.5-10.3-1.1-20.6-1.7-30.9C89.5,11,89.3,8,89.1,5
			c-0.2-2.9-1.6-4.3-4.4-4.9C84,0,83.4,0,82.8,0c-4.5,0.1-8.9,0.2-13.4,0.3c-4.8,0.2-8.8,2-11.7,6c-3.5,4.8-7.2,9.5-10.6,14.4
			c-16.6,24.1-31.8,49-46.2,74.5c-0.2,0.4-0.4,0.8-0.6,1.2c-0.9,2.4,0.3,4.3,2.9,4.3c5.5,0.1,11,0,16.5,0c1.6,0,2.9-0.7,3.9-1.9
			c0.5-0.6,1-1.3,1.4-2c2.3-3.9,4.5-7.4,6.8-11.3c1-1.7,2-3.7,3-4.7c12,0,23.9,0,36,0c0,0,0.1,0.5,0.1,0.9c0.1,4.4,0.3,8.5,0.4,12.8
			c0,1,0.1,1.9,0.2,3c0.2,1.5,1.1,2.5,2.5,2.9c0.9,0.3,1.9,0.3,2.9,0.3c4.1,0,8.1,0,12.2,0c0.5,0,1,0,1.5-0.1c2-0.2,3.2-1.5,3.3-3.4
			C93.8,96.9,93.8,96.3,93.8,95.8z M43.6,62.2c0.7-3.5,22.6-37.6,25.6-39.6c0.6,13.3,1,26.4,1.5,39.5C69.4,62.4,45.4,62.4,43.6,62.2
			z"/>
		<path d="M226.7,33.8c-0.1-2.1-1.7-3.8-3.9-3.9c-3.4-0.1-6.8-0.1-10.2,0.1c-3.3,0.2-5,1.7-5.9,4.9c-0.2,0.8-0.5,1.6-0.7,2.4
			c-0.1,0-0.2,0.1-0.3,0.1c-0.1-0.2-0.2-0.4-0.3-0.5c-2-3-4.8-5-8.1-6.4c-6.5-2.7-13-2.3-19.5,0.1c-5.7,2.2-10.4,5.9-14.4,10.5
			c-5.9,6.9-10,14.8-12.5,23.4c-1.9,6.5-2.7,13.1-1.7,19.8c1.2,8,5.8,13.3,13.3,16.1c5.1,1.9,10.3,2,15.6,1.1
			c4.8-0.8,9.1-2.7,12.5-6.4c0.1-0.1,0.2-0.1,0.5-0.2c-0.2,0.7-0.4,1.3-0.6,1.9c-1.6,4.9-3.9,9.4-7.6,13c-6.2,6.1-15.7,7.8-23.7,3.1
			c-0.6-0.4-1.3-0.7-1.9-1.1c-1.6-1-3.3-1.2-5.2-0.7c-2.8,0.8-5.6,1.8-8.1,3.3c-0.5,0.3-1.1,0.6-1.5,1c-2.4,1.8-2.8,3.6-1.2,6.1
			c0.9,1.4,1.9,2.7,3,3.8c2.5,2.6,5.7,4.4,9,5.7c3.4,1.4,6.9,2.2,10.6,2.7c4.8,0.6,9.5,0.6,14.2-0.3c8.7-1.7,15.6-6.2,21.3-12.9
			c4.7-5.6,7.8-12,10.3-18.8c2.2-5.9,3.5-12,5-18.1c3.9-15.9,7.8-31.8,11.7-47.6C226.7,35.4,226.8,34.6,226.7,33.8z M198.5,58.9
			c-0.9,4.8-2.3,9.6-4.3,14.1c-1.6,3.6-3.6,6.9-6.7,9.4c-3.6,2.9-7.8,3.8-12.3,2.8c-2.8-0.6-4.7-2.4-5.7-5.1c-0.7-1.9-1-3.9-1.1-5.9
			c0.4-2.3,0.6-4.6,1.1-6.8c1.2-5.1,3-9.9,5.8-14.3c1.7-2.6,3.7-4.8,6.3-6.4c3.6-2.3,7.6-2.8,11.7-1.8c3.3,0.8,5,3.1,5.6,6.4
			C199.3,53.8,199,56.4,198.5,58.9z"/>
		<path d="M299.7,49.9c-1.4-9.6-6.6-16.3-15.8-19.8c-4.4-1.7-8.9-2.3-13.4-2.2c-7.8-0.1-15.1,1.6-21.8,5.2
			c-8.6,4.6-14.8,11.4-18.9,20.2c-3.8,8.1-5.7,16.6-4.8,25.5c1.1,10.8,7.5,18.5,18,21.7c5.6,1.7,11.3,1.8,17.1,1.2
			c7.1-0.7,13.6-3,19.5-6.9C296,84,301.7,63.3,299.7,49.9z M279.2,53.6c0,2.7-0.5,5.4-1.1,8c-1,4.1-2.2,8.2-4.1,12.1
			c-1.4,2.8-3,5.5-5.3,7.7c-4.6,4.4-10.1,5.7-16.2,4.7c-4.4-0.8-6.7-3.7-6.9-8.3c-0.1-2.6,0.3-5.1,0.8-7.6c1-4.4,2.2-8.7,4.1-12.9
			c1.4-3.3,3.2-6.3,5.8-8.8c4.7-4.4,10.2-5.7,16.4-4.5c4,0.8,6.1,3.4,6.6,7.5C279.3,52.2,279.2,52.9,279.2,53.6z"/>
	</symbol>

	<symbol viewBox="0 0 1161 87.8" id="ctm">
		<path d="M38.5,76.3c-3.6,1.8-7.9,2.8-12.8,2.8C8.6,79.1,0,68.2,0,46.3c0-5.2,0.6-9.8,1.9-14.1c1.3-4.2,3.1-7.8,5.5-10.9
			c2.4-3,5.3-5.4,8.8-7.1c3.4-1.7,7.3-2.5,11.5-2.5c7.6,0,13.8,2.7,18.6,8.1l-5.8,8.5c-3.1-2.8-6.7-4.3-10.7-4.3
			c-3.9,0-6.9,1.7-9.2,5.2c-2.2,3.4-3.4,8.6-3.4,15.3c0,7.9,1,13.5,3,16.9c2,3.4,4.9,5,8.7,5c5,0,9.5-1.8,13.7-5.4l5,8.5
			C45.2,72.2,42.2,74.5,38.5,76.3z"/>
		<path d="M105.8,44.3c0,11.9-2.8,20.6-8.4,26.4c-5.6,5.7-13.2,8.6-22.8,8.6c-9.2,0-16.3-2.5-21.2-7.5c-4.9-5-7.4-13.3-7.4-24.9
			c0-11.9,2.8-20.8,8.4-26.4c5.6-5.7,13.2-8.5,22.8-8.5c4.6,0,8.6,0.6,12.2,1.8s6.6,3.1,9,5.7c2.4,2.6,4.3,6,5.5,10.1
			C105.2,33.6,105.8,38.5,105.8,44.3z M88.8,47c0-4.6-0.3-8.3-0.9-11.3c-0.6-3-1.4-5.3-2.5-7c-1.1-1.7-2.4-2.9-4-3.6
			c-1.6-0.7-3.4-1-5.5-1c-1.9,0-3.6,0.3-5.2,1c-1.6,0.7-2.9,1.8-4.1,3.4c-1.1,1.6-2,3.7-2.6,6.2c-0.6,2.5-1,5.7-1,9.3
			c0,4.6,0.3,8.3,0.9,11.3c0.6,3,1.4,5.3,2.5,7c1.1,1.7,2.4,2.9,4.1,3.6c1.6,0.7,3.5,1,5.5,1c1.9,0,3.6-0.3,5.2-1
			c1.5-0.7,2.9-1.8,4-3.4c1.1-1.6,2-3.7,2.6-6.2C88.5,53.8,88.8,50.7,88.8,47z"/>
		<path d="M202.1,40.9c0,2,0,4.4-0.1,7.2c0,2.8-0.1,5.8-0.2,9c-0.1,3.2-0.2,6.6-0.2,10.1c0,3.5-0.1,7-0.1,10.6h-16.5
			c0-3.3,0-6.5,0.1-9.7c0-3.2,0.1-6.3,0.1-9.2c0-2.9,0.1-5.6,0.1-8.2c0-2.5,0.1-4.7,0.1-6.6c0-3.9-0.2-7-0.5-9.5
			c-0.3-2.4-0.9-4.4-1.6-5.8c-0.7-1.4-1.6-2.4-2.6-2.9c-1-0.5-2.2-0.8-3.6-0.8c-1.7,0-3.7,0.5-5.8,1.6c-2.1,1.1-4.3,2.5-6.4,4.2
			c0.2,1,0.3,2.3,0.5,3.9c0.1,1.6,0.2,3.5,0.2,5.8v37.3H149V44c0-3.8-0.2-6.9-0.5-9.3c-0.3-2.4-0.9-4.4-1.5-5.8
			c-0.7-1.4-1.5-2.4-2.6-3c-1-0.6-2.2-0.8-3.6-0.8c-1.5,0-3.3,0.5-5.4,1.4c-2,0.9-4.1,2.2-6.2,3.9v47.4h-16.6V13.2h13.7l1.2,6.8
			c2.6-2.4,5.5-4.4,8.7-5.9c3.2-1.5,6.7-2.3,10.4-2.3c4,0,7.4,0.9,10,2.6c2.6,1.8,4.5,4,5.7,6.6c3.1-2.7,6.3-5,9.7-6.7
			c3.4-1.7,7-2.6,10.9-2.6c6.3,0,11.1,2.3,14.4,6.8C200.5,23.1,202.1,30.5,202.1,40.9z"/>
		<path d="M267.6,42.9c0,6.4-0.8,11.8-2.4,16.4c-1.6,4.6-3.9,8.4-6.7,11.3c-2.8,3-6.2,5.1-10.2,6.5c-4,1.4-8.3,2.1-12.9,2.1
			c-0.9,0-2.1,0-3.4-0.1c-1.3,0-2.4-0.2-3.5-0.3v8.9h-16.6V13.2h13.5l1.3,6.6c2.7-2.4,5.5-4.3,8.5-5.8c3-1.5,6.1-2.2,9.4-2.2
			c3.9,0,7.2,0.8,10.1,2.4c2.9,1.6,5.3,3.8,7.2,6.6c1.9,2.8,3.3,6.1,4.3,9.9C267.1,34.5,267.6,38.6,267.6,42.9z M250.6,45.2
			c0-6.7-0.9-11.8-2.8-15.3c-1.9-3.5-4.5-5.3-7.7-5.3c-1.5,0-3.3,0.4-5.4,1.4c-2,0.9-4.1,2.3-6.1,4.1v36.1c1.1,0.4,2.3,0.8,3.6,1
			c1.3,0.2,2.7,0.3,4.1,0.3c4.2,0,7.6-1.8,10.3-5.3C249.3,58.5,250.6,52.9,250.6,45.2z"/>
		<path d="M310.8,77.8l-1.2-6.6c-2.8,2.4-5.7,4.3-8.8,5.8c-3.1,1.5-6.7,2.2-10.8,2.2c-6.6,0-11.6-1.6-15-4.7
			c-3.4-3.1-5.1-7.7-5.1-13.7c0-6.7,2.7-12.1,8.1-16.2c5.4-4.1,13.8-6.1,25.1-6.1h4v-4.9c0-3.3-0.9-5.7-2.8-7.3
			c-1.9-1.6-4.9-2.4-9.1-2.4c-3.4,0-6.7,0.4-10.1,1.2c-3.4,0.8-6.5,1.7-9.5,2.7l-2.2-10.1c3.9-1.7,7.9-3.1,12.2-4.2
			c4.3-1.1,8.8-1.6,13.7-1.6c8.3,0,14.5,1.8,18.4,5.4c4,3.6,5.9,8.5,5.9,14.7v45.9H310.8z M307.2,48.7h-4.9c-3.1,0-5.7,0.2-7.8,0.7
			c-2.1,0.5-3.8,1.2-5,2.1c-1.2,0.9-2.1,2-2.6,3.2c-0.5,1.2-0.8,2.6-0.8,4.2c0,2.7,0.7,4.7,2.3,6.3c1.5,1.5,3.6,2.3,6.4,2.3
			c2,0,4-0.5,6.2-1.5c2.1-1,4.2-2.3,6.2-4.1V48.7z"/>
		<path d="M368.7,27.9c-1.4-0.4-2.5-0.7-3.3-0.8c-0.9-0.1-1.6-0.1-2.3-0.1c-1.8,0-3.6,0.7-5.4,2.1c-1.8,1.4-4.2,4-7.1,7.7v41h-16.6
			V13.2h13.7l1.3,10.1c3.3-4.4,6.1-7.4,8.5-9c2.4-1.6,4.8-2.4,7.1-2.4c0.9,0,2,0.1,3,0.3c1.1,0.2,2.1,0.6,3.2,1.1L368.7,27.9z"/>
		<path d="M386.3,48.8v0.9c0,5.9,1.2,10.2,3.7,12.9c2.5,2.7,6.1,4,10.7,4c2.9,0,6.2-0.3,9.8-1c3.6-0.6,7.3-1.6,11.1-2.8l2.4,9.5
			c-4,2.1-8.2,3.7-12.7,5c-4.5,1.2-9.2,1.9-14,1.9c-4.2,0-8.1-0.6-11.5-1.7c-3.5-1.1-6.4-2.9-8.9-5.5c-2.4-2.5-4.3-5.8-5.7-9.9
			c-1.3-4-2-9-2-15c0-11.6,2.6-20.4,7.8-26.4c5.2-6,12.4-9,21.5-9c4.1,0,7.9,0.6,11.3,1.9c3.4,1.2,6.2,3.3,8.5,6.3
			c2.3,2.9,4,6.7,5,11.4c1.1,4.7,1.4,10.5,1,17.5H386.3z M408.4,38.2c0-10.2-3.5-15.3-10.4-15.3c-3.6,0-6.4,1.4-8.3,4.3
			c-1.9,2.9-3,6.6-3.3,11.3h22V38.2z"/>
		<path d="M451.2,78.7c-5.2,0-8.9-1.3-11-3.9c-2.1-2.6-3.2-7.1-3.2-13.3V19.8h-11.1v-5.5H437c0.4-2.8,0.8-5.7,1.2-8.7
			c0.4-3,0.7-0.5,1-3.7h5.3v12.4H463v5.5h-18.6v39.8c0,4.8,0.5,8.2,1.6,10.2c1.1,2,3.4,3,6.9,3c1.2,0,2.6-0.2,4.3-0.5
			c1.7-0.3,3.8-0.9,6.3-1.9l1.2,4.6C459.7,77.5,455.2,78.7,451.2,78.7z"/>
		<path d="M519.6,41.3c0,5.4-0.1,11.4-0.2,18c-0.1,6.6-0.2,12.7-0.2,18.5h-7.3c0-5.7,0-11.6,0.1-17.7c0.1-6.1,0.1-11.6,0.1-16.5
			c0-8.8-1.2-15-3.5-18.7c-2.4-3.7-5.7-5.5-10.1-5.5c-2.3,0-5,0.7-8.1,2.2c-3.1,1.5-6.1,3.6-9.2,6.3v49.9h-7.5v-76h7.5v19.9
			c2.8-2.3,5.8-4.3,9.1-5.9c3.3-1.6,6.9-2.4,10.8-2.4c2.7,0,5.3,0.5,7.5,1.4c2.3,0.9,4.2,2.5,5.9,4.7c1.6,2.2,2.9,5.1,3.8,8.6
			C519.2,31.7,519.6,36.1,519.6,41.3z"/>
		<path d="M539.9,46.5v1.4c0,8.9,1.6,15.3,4.8,19.1c3.2,3.8,7.9,5.7,14.1,5.7c5.9,0,11.9-1.4,17.8-4.1l1.8,4.9c-3,1.6-6.3,2.8-10,3.8
			c-3.7,1-7.5,1.5-11.7,1.5c-3.7,0-7.1-0.6-10.1-1.7c-3.1-1.1-5.7-2.9-7.8-5.3c-2.1-2.4-3.8-5.6-5-9.5c-1.2-4-1.8-8.7-1.8-14.3
			c0-11,2.2-19.5,6.5-25.5c4.3-6,10.5-9,18.5-9c3.6,0,6.8,0.6,9.5,1.9c2.7,1.2,5.1,3.2,7,5.9c1.9,2.7,3.3,6.1,4.1,10.3
			c0.9,4.2,1.1,9.2,0.8,15H539.9z M571,40.5c0-6.9-1.3-12.2-3.8-15.9c-2.5-3.7-6.3-5.6-11.2-5.6c-2.6,0-4.9,0.6-6.9,1.8
			c-2,1.2-3.7,2.8-5,4.8c-1.3,2-2.3,4.3-3,7c-0.7,2.6-1.1,5.4-1.3,8.3H571V40.5z"/>
		<path d="M678.3,40.9c0,2,0,4.4-0.1,7.2c0,2.8-0.1,5.8-0.2,9c-0.1,3.2-0.2,6.6-0.2,10.1c0,3.5-0.1,7-0.1,10.6h-16.5
			c0-3.3,0-6.5,0.1-9.7c0-3.2,0.1-6.3,0.1-9.2c0-2.9,0.1-5.6,0.1-8.2c0-2.5,0.1-4.7,0.1-6.6c0-3.9-0.2-7-0.5-9.5
			c-0.3-2.4-0.9-4.4-1.6-5.8c-0.7-1.4-1.6-2.4-2.6-2.9c-1-0.5-2.2-0.8-3.6-0.8c-1.7,0-3.7,0.5-5.8,1.6c-2.1,1.1-4.3,2.5-6.4,4.2
			c0.2,1,0.3,2.3,0.5,3.9c0.1,1.6,0.2,3.5,0.2,5.8v37.3h-16.5V44c0-3.8-0.2-6.9-0.5-9.3c-0.3-2.4-0.9-4.4-1.6-5.8
			c-0.7-1.4-1.5-2.4-2.6-3c-1-0.6-2.2-0.8-3.6-0.8c-1.5,0-3.3,0.5-5.3,1.4c-2,0.9-4.1,2.2-6.3,3.9v47.4h-16.6V13.2h13.7l1.2,6.8
			c2.6-2.4,5.5-4.4,8.7-5.9c3.2-1.5,6.7-2.3,10.4-2.3c4,0,7.4,0.9,10,2.6c2.6,1.8,4.5,4,5.7,6.6c3.1-2.7,6.3-5,9.7-6.7
			c3.4-1.7,7-2.6,10.9-2.6c6.3,0,11.1,2.3,14.4,6.8C676.6,23.1,678.3,30.5,678.3,40.9z"/>
		<path d="M724.6,77.8l-1.2-6.6c-2.8,2.4-5.7,4.3-8.8,5.8c-3.1,1.5-6.7,2.2-10.8,2.2c-6.6,0-11.6-1.6-15-4.7
			c-3.4-3.1-5.1-7.7-5.1-13.7c0-6.7,2.7-12.1,8.1-16.2c5.4-4.1,13.8-6.1,25.1-6.1h4v-4.9c0-3.3-0.9-5.7-2.8-7.3
			c-1.9-1.6-4.9-2.4-9.2-2.4c-3.4,0-6.7,0.4-10.1,1.2c-3.4,0.8-6.6,1.7-9.5,2.7l-2.2-10.1c3.9-1.7,7.9-3.1,12.2-4.2
			c4.3-1.1,8.8-1.6,13.7-1.6c8.3,0,14.5,1.8,18.4,5.4c4,3.6,5.9,8.5,5.9,14.7v45.9H724.6z M721,48.7h-4.9c-3.1,0-5.7,0.2-7.8,0.7
			c-2.1,0.5-3.8,1.2-5,2.1c-1.2,0.9-2.1,2-2.6,3.2c-0.5,1.2-0.8,2.6-0.8,4.2c0,2.7,0.8,4.7,2.3,6.3c1.5,1.5,3.6,2.3,6.4,2.3
			c2,0,4-0.5,6.2-1.5c2.1-1,4.2-2.3,6.2-4.1V48.7z"/>
		<path d="M782.5,27.9c-1.4-0.4-2.5-0.7-3.4-0.8c-0.9-0.1-1.6-0.1-2.3-0.1c-1.8,0-3.6,0.7-5.4,2.1c-1.8,1.4-4.2,4-7.1,7.7v41h-16.6
			V13.2h13.7l1.3,10.1c3.3-4.4,6.1-7.4,8.5-9c2.4-1.6,4.8-2.4,7.1-2.4c0.9,0,2,0.1,3,0.3c1.1,0.2,2.1,0.6,3.2,1.1L782.5,27.9z"/>
		<path d="M822.1,77.8l-17.3-32v32h-16.6V0h16.6v38.1l14.8-24.9H839l-19.2,26.9l21.8,37.6H822.1z"/>
		<path d="M854.2,48.8v0.9c0,5.9,1.2,10.2,3.7,12.9c2.5,2.7,6.1,4,10.7,4c2.9,0,6.2-0.3,9.8-1c3.6-0.6,7.3-1.6,11.1-2.8l2.4,9.5
			c-4,2.1-8.2,3.7-12.7,5c-4.5,1.2-9.2,1.9-14,1.9c-4.2,0-8.1-0.6-11.5-1.7c-3.5-1.1-6.4-2.9-8.9-5.5c-2.4-2.5-4.3-5.8-5.7-9.9
			c-1.3-4-2-9-2-15c0-11.6,2.6-20.4,7.8-26.4c5.2-6,12.4-9,21.5-9c4.1,0,7.9,0.6,11.3,1.9c3.4,1.2,6.2,3.3,8.5,6.3
			c2.3,2.9,4,6.7,5,11.4c1.1,4.7,1.4,10.5,1,17.5H854.2z M876.3,38.2c0-10.2-3.5-15.3-10.4-15.3c-3.6,0-6.4,1.4-8.3,4.3
			c-1.9,2.9-3,6.6-3.3,11.3h22V38.2z"/>
		<path d="M925.4,78.1c-2.7,0.6-5.2,1-7.7,1c-5.9,0-10.1-1.3-12.6-3.8c-2.5-2.5-3.7-6.9-3.7-13.1V24.8h-8.1V13.2h8.8
			c0.8-2.9,1.5-5.9,2.1-8.9c0.6-3,1.2-0.7,1.8-4.3h12.1v13.2h14.3v11.6h-14.3v33.3c0,3.3,0.4,5.5,1.3,6.8c0.9,1.2,2.4,1.9,4.5,1.9
			c1,0,2.3-0.1,3.7-0.3c1.4-0.2,3.2-0.6,5.2-1.2l1.3,9.5C930.9,76.4,928.1,77.5,925.4,78.1z"/>
		<path d="M955.3,73.1c0,2.2-0.3,3.7-1,4.4c-0.7,0.7-2.1,1-4.3,1c-2.2,0-3.7-0.3-4.4-1c-0.7-0.7-1-2.1-1-4.1c0-2.2,0.4-3.7,1.1-4.4
			c0.7-0.7,2.2-1.1,4.4-1.1c2.1,0,3.5,0.3,4.2,1C955,69.6,955.3,71,955.3,73.1z"/>
		<path d="M1003.2,76.1c-3.2,1.7-7,2.6-11.4,2.6c-7.6,0-13.4-2.6-17.4-7.9c-4-5.3-6.1-13.2-6.1-23.8c0-5.3,0.6-10.1,1.9-14.2
			c1.2-4.2,3-7.7,5.3-10.6c2.3-2.9,5-5.1,8.1-6.6c3.1-1.5,6.5-2.3,10.2-2.3c6.4,0,11.8,2.6,16.4,7.7l-3.1,4
			c-4.1-3.9-8.6-5.8-13.4-5.8c-5.7,0-10,2.3-13,7c-3,4.7-4.4,11.1-4.4,19.1c0,8.9,1.4,15.6,4.3,20.2c2.8,4.6,7.1,7,12.9,7
			c2.7,0,5.3-0.6,7.8-1.7c2.5-1.1,5.1-3,7.7-5.5l3.1,3.9C1009.3,72.1,1006.4,74.4,1003.2,76.1z"/>
		<path d="M1066.9,44.9c0,5.8-0.6,10.8-1.9,15c-1.2,4.1-3.1,7.6-5.5,10.5c-2.4,2.9-5.4,5-8.7,6.3c-3.4,1.3-7,2-11.1,2
			c-3.7,0-7-0.6-9.9-1.7c-2.9-1.1-5.4-3-7.7-5.5c-2.2-2.6-4-5.8-5.2-9.7c-1.2-3.9-1.8-8.8-1.8-14.6c0-5.7,0.7-10.7,2-15
			c1.3-4.3,3.2-7.9,5.6-10.6c2.4-2.8,5.3-4.8,8.6-6.1c3.3-1.3,7-2,11-2c3.6,0,6.9,0.6,10,1.8c3.1,1.2,5.6,3.1,7.7,5.6
			c2.1,2.5,3.8,5.8,5,9.7C1066.3,34.4,1066.9,39.2,1066.9,44.9z M1059.1,47.6c0-9.8-1.4-17-4.3-21.5c-2.9-4.6-7.5-6.8-13.9-6.8
			c-5.6,0-9.9,2.2-13.1,6.5c-3.1,4.3-4.7,10.6-4.7,18.6c0,10.1,1.5,17.3,4.4,21.7c2.9,4.4,7.5,6.6,13.7,6.6c5.6,0,10-2.1,13.1-6.3
			C1057.5,62.2,1059.1,56,1059.1,47.6z"/>
		<path d="M1161,41.2c0,2.2,0,4.8-0.1,7.8c0,3-0.1,6.1-0.1,9.3c0,3.3-0.1,6.6-0.1,9.9c0,3.4-0.1,6.5-0.1,9.5h-7.5
			c0-2.8,0-5.6,0.1-8.6c0-3,0.1-6,0.1-9c0-3,0-5.9,0.1-8.8c0-2.9,0.1-5.5,0.1-7.9c0-8.6-1.1-14.7-3.3-18.4c-2.2-3.7-5.3-5.5-9.3-5.5
			c-2.5,0-5.4,0.9-8.6,2.8c-3.2,1.8-6.3,4.1-9.3,6.8c0.3,1.5,0.6,3.1,0.8,4.8c0.2,1.7,0.3,4.2,0.3,7.5v36.6h-7.5V43.4
			c0-8.4-1.1-14.5-3.3-18.3c-2.2-3.8-5.3-5.7-9.3-5.7c-2.3,0-4.9,0.8-7.9,2.4c-2.9,1.6-5.9,3.6-8.9,6.1v49.9h-7.5V14.2h6.3l0.8,7.9
			c2.7-2.5,5.8-4.6,9.3-6.3c3.5-1.7,7-2.5,10.4-2.5c3.8,0,7,1.1,9.5,3.2c2.6,2.1,4.3,4.5,5.3,7.3c3.3-2.9,6.9-5.4,10.6-7.4
			c3.7-2,7.5-3,11.5-3c2.5,0,4.8,0.5,7,1.4c2.1,0.9,4,2.5,5.6,4.7c1.6,2.2,2.8,5.1,3.7,8.6C1160.6,31.7,1161,36,1161,41.2z"/>
	</symbol>

	<symbol viewBox="0 0 395.4 200" id="ea">
		<path d="M276.8,0c-23.9,53.3-47.6,106-71.3,158.7c-47.7,0-95.2,0-143,0c8.3-16.3,16.4-32.3,24.5-48.3c32.8,0.6,65.3,0.3,98,0.6
			c5.2-11.3,10.4-22.4,15.5-33.5c0.5-1,0.9-2,1.3-3.1c0-0.1,0-0.2,0-0.2c0-0.1,0-0.2,0-0.3c0-0.1-0.1-0.1-0.2-0.2
			c-2.9-0.4-167.1-0.3-169,0.1c-3,4.6-19,34.8-19.6,37.1c1.1,0,2.1,0,3.1,0c8.6,0,17.2-0.1,25.8-0.1c0.7,0,1.4,0.1,2.3,0.1
			c-5,9.6-9.9,19-14.8,28.4c-4.9,9.5-9.9,18.9-14.8,28.4c-4.8,9.4-9.8,18.6-14.7,28.4c1.3,0,2.1,0,3,0c14.4,0,28.7,0,43.1,0.1
			c12.5,0,25,0.3,37.4,0.2c33-0.1,65.9,0.5,98.9-0.2c14.2-0.3,28.4-0.4,42.6-0.6c0.8,0,1.7-0.1,2.6-0.1
			c17.6-38.2,35.1-76.3,52.6-114.5c2.3,2.8,27.1,41.8,27.6,43.6c-5.8,0.3-11.7-0.1-17.7,0.7c-4.5,9.6-9.2,19.2-13.9,29.3
			c3.9,0.1,7.3,0,10.7,0c3.4,0,6.7,0,10.1,0c3.4,0,6.9,0,10.3,0c3.4,0,6.7,0,10.1,0c3.4,0,6.9,0,10.4,0
			c8.9,15.3,17.7,30.4,26.4,45.3c13.5,0,26.7,0,39.8,0c0.3,0,0.6-0.2,1.3-0.5C355.9,133.1,316.5,66.8,276.8,0z M64.7,0.5
			c-2.1,4-4.3,8-6.5,12.1c-2.2,4.2-4.5,8.3-6.7,12.5c-2.1,4-4.5,8-6.6,12.4c57.6,0,114.9,0,172.4,0c5.7-12.3,11.4-24.6,17-37
			C232.1,0.1,67.4,0,64.7,0.5z"/>
	</symbol>

	<symbol viewBox="0 0 528.7 150.7" id="bbc">
		<path d="M368.7,0C422,0,475.4,0,528.7,0c0,50.2,0,100.5,0,150.7c-53.4,0-106.7,0-160.1,0c0-0.6,0.1-1.3,0.1-1.9
			c0-49.1,0-98.2,0-147.3C368.8,0.9,368.7,0.5,368.7,0z M495.7,48.9c0.1-0.4,0.1-0.5,0.1-0.6c0-6.1,0-12.2,0-18.3
			c0-0.9-0.4-1.3-1.2-1.6c-9.9-3.8-20-7.1-30.7-8.2c-12.4-1.3-24.5,0-36.1,5c-16.9,7.2-28.3,19.3-33.1,37.2
			c-2.1,7.6-2.7,15.4-1,23.1c3.7,17.2,13.5,30,29.1,38.2c9.5,5,19.7,7,30.4,7.2c15,0.3,29.3-2.5,42.7-9.4c0.8-0.4,1.1-0.9,1.1-1.8
			c0-6,0-11.9,0-17.9c0-0.3-0.1-0.7-0.1-1.2c-0.5,0.3-0.9,0.5-1.2,0.7c-4.1,2.1-8,4.5-12.2,6.3c-11,4.8-22.5,7-34.5,5.5
			c-8-1-15.4-3.5-21.9-8.4c-9-6.9-13.6-16.1-14.2-27.4c-0.5-11,2.9-20.6,10.9-28.4C432.2,41,442.5,37.4,454,37
			c11.9-0.4,23.1,2.6,33.8,7.8C490.4,46.1,493,47.5,495.7,48.9z"/>
		<path d="M160.1,150.7c-53.4,0-106.7,0-160.1,0C0,100.5,0,50.2,0,0c53.4,0,106.7,0,160.1,0c0,0.6,0,1.1,0,1.7
			c0,48.8,0,97.7,0,146.5C160,149.1,160,149.9,160.1,150.7z M98.8,71.6c0,0,0.2-0.1,0.3-0.2c7.3-3.9,11.9-9.7,12.8-18.2
			c1.2-10.8-2.7-19.4-11.6-25.6c-6.7-4.6-14.2-6.4-22.2-6.4c-11.5-0.1-23,0-34.5,0c-0.5,0-1,0-1.6,0.1c0,1.1,0,2,0,3
			c0,34.5,0,69.1,0,103.6c0,1.7,0,1.7,1.8,1.7c12.2,0,24.4,0.1,36.6,0c4.3,0,8.7-0.3,12.9-1c6.5-1,12.7-3.1,17.9-7.3
			c6.6-5.3,10.5-12.1,10.7-20.6c0.3-10.8-4.4-19.1-13.7-24.6C105.3,74.3,102,73,98.8,71.6z"/>
		<path d="M184.5,0c53.4,0,106.7,0,160.1,0c0,0.6-0.1,1.2-0.1,1.8c0,49.1,0,98.2,0,147.2c0,0.6-0.1,1.1-0.2,1.7
			c-53.3,0-106.5,0-159.8,0c0-0.7-0.1-1.5-0.1-2.2c0-48.9,0-97.9,0-146.8C184.4,1.1,184.4,0.6,184.5,0z M282.8,71.8
			c0.5-0.3,0.8-0.5,1.1-0.6c2.8-1.6,5.3-3.4,7.4-5.8c3.9-4.5,5.3-9.8,5.3-15.6c0.1-9.6-4.2-17-12-22.3c-6.6-4.5-14.2-6.2-22.1-6.3
			c-11.4-0.1-22.9,0-34.3,0c-0.5,0-1.1,0-1.8,0c0,0.7,0,1.1,0,1.6c0,35.1,0,70.1,0,105.2c0,1.3,0.4,1.7,1.7,1.6
			c12.3,0,24.5,0,36.8-0.1c3.8,0,7.6-0.2,11.4-0.7c6.5-0.8,12.7-2.7,18.1-6.6c7.1-5,11.4-11.9,12.1-20.6
			c0.7-10.2-3.2-18.4-11.6-24.4C291.2,74.8,287.3,73.1,282.8,71.8z"/>
		<path d="M61.5,83.2c9.3,0,18.5-0.9,27.6,0.9c3,0.6,5.9,1.8,8.3,3.8c6.9,5.6,6,16.7-1.6,21.2c-3.6,2.2-7.6,3.2-11.7,3.3
			c-7.2,0.2-14.4,0.2-21.7,0.2c-0.7,0-1.1-0.1-1.1-1c0-9.3,0-18.7,0-28C61.4,83.5,61.5,83.4,61.5,83.2z"/>
		<path d="M61.5,38.2c0.2-0.1,0.3-0.1,0.4-0.1c6.1,0.1,12.2,0.1,18.3,0.5c3.6,0.2,7,1.6,9.5,4.5c2.9,3.5,3.1,7.7,2.2,11.9
			c-1.2,5.9-5.5,8.6-10.9,10c-4,1.1-8.1,1.2-12.2,1.1c-2.1,0-4.2,0-6.4,0c-0.7,0-1-0.2-1-1c0-8.8,0-17.7,0-26.5
			C61.4,38.5,61.5,38.3,61.5,38.2z"/>
		<path d="M245.9,112.5c0-9.8,0-19.6,0-29.5c0.7,0,1.4,0,2.1,0c6.3,0,12.6,0,19,0.1c4.6,0.1,9,1,13.1,3.4c4.2,2.5,6.5,6.1,6.5,11
			c0,5.1-2,9-6.4,11.6c-3.7,2.2-7.7,3.1-11.9,3.2c-7.2,0.2-14.5,0.1-21.7,0.2C246.3,112.7,246.1,112.6,245.9,112.5z"/>
		<path d="M245.8,66.1c0-9.4,0-18.7,0-28.1c0.7,0,1.3,0,1.9,0c4.6,0,9.3,0,13.9,0.2c3,0.1,6,0.7,8.8,2c4.6,2.3,6.8,6.6,6.3,12.3
			c-0.6,6.6-4.3,11-11,12.3c-3.7,0.7-7.4,1-11.2,1.2C251.6,66.2,248.7,66.1,245.8,66.1z"/>
	</symbol>

	<symbol viewBox="0 0 656.2 179.7" id="climax">
		<path d="M0,42.4c0.6-2.2,1-4.5,2-6.6c0.9-1.8,2.3-3.5,3.8-5c8.6-8.4,17.4-16.7,26.1-25.1c3.8-3.7,8.2-5.4,13.4-5.4
			c14,0,28.1,0,42.1,0c5.9,0,10.6,2.2,13.9,7.2c2,3,4.2,5.7,6.2,8.7c0.4,0.5,0.5,1.7,0.2,2.2c-4.8,6.5-9.6,13-14.4,19.4
			c-0.1,0.1-0.2,0.1-0.6,0.3c-2.3-3.2-4.7-6.4-6.9-9.7c-1.8-2.7-4.1-3.9-7.5-3.9c-9.1,0.2-18.2,0.1-27.3,0c-2.5,0-4.5,0.8-6.3,2.5
			c-4.6,4.5-9.3,9-14,13.5c-1.6,1.5-2.5,3.3-2.5,5.6c0,13.6-0.1,27.2,0.1,40.8c0,1.8,1,3.9,2.2,5.2c4.7,5.1,9.7,9.8,14.6,14.7
			c1.6,1.6,3.6,2,5.8,2c12.8,0,25.6,0,38.4,0c0.8,0,1.6,0,2.5,0c0,8.1,0,16,0,24.3c-0.7,0-1.5,0-2.3,0c-14.5,0-29.1,0-43.6,0
			c-5.8,0-10.6-1.8-14.7-5.9C24,120.1,16.7,113,9.3,106c-4.4-4.1-8.5-8.4-9.3-14.7C0,75,0,58.7,0,42.4z"/>
		<path d="M290.2,56.4c0,25.8,0,51.1,0,76.5c-9.3,0-18.4,0-27.7,0c0-44.1,0-88.3,0-132.6c9.1,0,18.2,0,27.6,0c0,0.7,0.1,1.5,0.1,2.2
			c0,5.5-0.1,11.1,0.1,16.6c0,1.4,0.7,3.1,1.7,4c11.8,11,23.7,21.9,35.6,32.8c0.2,0.1,0.4,0.2,0.7,0.5c0.4-0.3,0.9-0.6,1.3-1
			c11.7-10.9,23.3-21.7,35-32.5c1.3-1.2,1.8-2.5,1.8-4.2c-0.1-6,0-12.1,0-18.3c9.3,0,18.5,0,27.8,0c0,44.2,0,88.3,0,132.6
			c-9.2,0-18.4,0-27.7,0c0-25.5,0-50.9,0-76.9c-0.9,0.8-1.5,1.3-2.1,1.8c-9.2,8.5-18.5,16.9-27.4,25.6c-4.9,4.8-11,5.6-16.8,0.1
			c-9.1-8.7-18.6-17-27.9-25.4C291.7,57.6,291.2,57.2,290.2,56.4z"/>
		<path d="M631.8,66.6c4.4,3.2,8.7,6.5,13,9.4c6.5,4.5,9.7,10.9,10.6,18.5c0.5,4.5,0.4,9,0.4,13.5c0.1,7.6,0,15.3,0,22.9
			c0,0.6,0,1.3,0,2.1c-9,0-17.8,0-26.9,0c0-0.9,0-1.6,0-2.4c0-7.9,0-15.9,0-23.8c0-6.9-2.7-12.2-8.8-15.7c-4.4-2.5-8.7-5.2-13-8
			c-2.9-1.8-5.5-1.7-8.3,0c-4.3,2.7-8.6,5.5-13,7.9c-6.2,3.5-8.8,8.9-8.8,15.7c-0.1,7.9,0,15.7,0,23.6c0,0.8,0,1.6,0,2.6
			c-8.9,0-17.6,0-26.5,0c-0.1-0.3-0.2-0.7-0.2-1.1c0-11.9-0.2-23.7,0.3-35.6c0.3-8.3,3.8-15.4,11-20.3c4.3-2.9,8.4-6.1,12.9-9.4
			c-4.2-3-8-6.1-12.2-8.8c-7-4.5-10.5-11.1-11.6-19.1c-0.5-3.9-0.3-7.8-0.3-11.8c-0.1-8.2-0.1-16.4-0.1-24.7c0-0.6,0.1-1.3,0.1-2
			c8.9,0,17.6,0,26.7,0c0,0.9,0,1.6,0,2.4c0,7.8,0,15.6,0,23.3c0,7.1,2.7,12.6,9.1,16.2c4.4,2.4,8.6,5.2,12.9,7.8
			c2.7,1.7,5.4,1.8,8.2,0c4.6-2.9,9.3-5.7,13.9-8.5c5.2-3.1,7.7-7.8,7.9-13.7c0.2-8.2,0.1-16.4,0.1-24.7c0-0.9,0-1.7,0-2.8
			c8.9,0,17.8,0,26.9,0c0,0.6,0,1.3,0,2c0,10.5,0,20.9,0,31.4c0,4.8-0.9,9.4-3,13.7c-1.7,3.7-4.1,6.8-7.5,9.2
			c-4,2.8-7.9,5.7-11.8,8.6C633,65.6,632.5,66,631.8,66.6z"/>
		<path d="M401.3,133.1c3.2-7.7,6.1-14.9,9.1-22.1c15-36.2,30-72.5,44.9-108.7c0.7-1.6,1.4-2.3,3.3-2.2c9.2,0.1,18.5,0.1,27.7,0
			c1.3,0,2,0.3,2.5,1.7c17.3,43.2,34.7,86.4,52,129.5c0.2,0.5,0.4,1.1,0.7,1.7c-27.7,0-55.2,0-83,0c0.8-2.4,1.6-4.7,2.3-6.9
			c2-5.9,4.1-11.8,6-17.7c0.5-1.6,1.3-1.9,2.8-1.9c9.2,0.1,18.5,0,27.7,0c0.8,0,1.6,0,2.8,0c-9.6-26.8-19.1-53.2-28.7-80.2
			c-0.5,1.2-0.8,1.9-1.1,2.6c-12.9,34-25.8,68-38.7,102c-0.7,1.8-1.5,2.4-3.4,2.3c-8.1-0.1-16.1-0.1-24.2-0.1
			C403.3,133.1,402.5,133.1,401.3,133.1z"/>
		<path d="M113.5,133.1c0-1.2,0-2.1,0-2.9c0-27.1,0.1-54.2,0-81.4c0-5.8,1.6-10.8,5.1-15.4c8.3-11,16.5-22.1,25-33.4
			c7.3,5.2,14.5,10.4,21.9,15.7c-0.5,0.8-0.9,1.4-1.4,2.1c-6.8,9.4-13.5,18.9-20.4,28.3c-1.4,1.9-2,3.9-2,6.2
			c0.1,17.7,0,35.5,0,53.2c0,0.9,0,1.7,0,2.8c0.9,0,1.6,0.1,2.4,0.1c9.4,0,18.8-0.1,28.1,0.1c3,0,5-1.2,6.6-3.4
			c2.8-3.8,5.6-7.6,8.5-11.7c6.8,4.8,13.5,9.6,20.3,14.5c-4,5.5-8.1,10.7-11.8,16.3c-4.2,6.5-9.8,9-17.4,8.9
			c-20.5-0.3-41-0.1-61.5-0.1C116,133.1,114.9,133.1,113.5,133.1z"/>
		<path d="M218.4,0.3c9.2,0,18.2,0,27.5,0c0,44.2,0,88.4,0,132.7c-9.1,0-18.2,0-27.5,0C218.4,88.9,218.4,44.7,218.4,0.3z"/>
		<path d="M551.8,179.7c0-8.8,0-17.1,0-25.8c5.8,0.3,11.5,0.4,17.2,0.8c2.6,0.2,4.2,2.3,4.3,4.8c0.2,4.8,0.3,9.7,0,14.6
			c-0.1,2.7-1.9,4.7-4.8,4.9C563,179.4,557.5,179.5,551.8,179.7z M556.6,157.6c0,6.4,0,12.2,0,18.1c2.9,0,5.6,0.1,8.3,0
			c2.4-0.2,3.6-1.3,3.8-3.7c0.2-3.4,0.1-6.8,0-10.2c-0.1-1.9-1.1-3.4-3.1-3.6C562.6,157.8,559.7,157.7,556.6,157.6z"/>
		<path d="M624.7,166.9c-0.2,2.3-0.3,4.6-0.6,6.9c-0.5,3.3-2.2,5.2-5.5,5.5c-3.4,0.3-6.8,0.3-10.2,0c-3.7-0.3-5.7-2.4-5.9-6.1
			c-0.3-4.3-0.3-8.6,0-12.8c0.2-3.9,2.4-6,6.3-6.3c3.1-0.2,6.2-0.2,9.3,0c3.6,0.3,5.4,2.2,6.1,5.7c0.1,0.7,0.3,1.4,0.3,2.2
			c0,1.6,0,3.2,0,4.8C624.5,166.9,624.6,166.9,624.7,166.9z M619.8,166.9c0,0-0.1,0-0.1,0c0-0.6,0-1.2,0-1.7
			c-0.1-6.9-1.6-8.3-8.6-7.6c-0.1,0-0.1,0-0.2,0c-2.1,0.2-3.6,1.3-3.7,3.4c-0.2,3.9-0.2,7.8,0,11.7c0.1,2.1,1.7,3.2,3.8,3.2
			c2.8-0.1,6,1.1,7.9-2.1c0.3-0.5,0.4-1.1,0.5-1.7C619.6,170.4,619.7,168.7,619.8,166.9z"/>
		<path d="M477.7,161.5c-1.4,0-2.7,0-3.6,0c-0.9-1.4-1.6-3.4-2.5-3.6c-2.3-0.5-4.9-0.4-7.3,0c-1.8,0.3-1.4,2.3-1.4,3.7
			c0,1.5,0.9,2.3,2.2,2.5c2.4,0.4,4.8,0.6,7.1,0.9c2.2,0.3,4.8,0.6,5.6,3.1c1,3.1,1.2,6.5-0.6,9.5c-0.5,0.9-1.9,1.7-2.8,1.7
			c-4.2,0.2-8.4,0.2-12.6-0.1c-2.1-0.1-3.4-1.7-3.6-4c-0.1-1.1-0.1-2.2-0.2-3.4c1.5,0,2.9,0,4.3,0c0.7,4.1,0.9,4.2,5.2,4.3
			c0.9,0,1.7,0,2.6,0c3.1-0.2,3.9-1.2,3.6-4.3c-0.1-1.6-0.9-2.6-2.5-2.8c-2.4-0.3-4.8-0.6-7.1-0.9c-5.5-0.8-8.3-7.6-4.8-11.9
			c0.8-1,2.3-1.8,3.5-1.9c3.5-0.2,7-0.3,10.4,0C476.8,154.6,477.9,156.6,477.7,161.5z"/>
		<path d="M640,171.8c0.8,4.1,1,4.2,5.3,4.4c0.9,0,1.7,0,2.6,0c2.9-0.1,3.6-0.8,3.7-3.2c0.1-2.8-0.5-3.6-3.3-4.1
			c-2.6-0.4-5.3-0.7-8-1.2c-2.6-0.5-4-2.2-4.2-4.8c-0.1-1.2-0.1-2.5,0-3.7c0.4-3.2,1.7-4.7,5-5c2.8-0.2,5.7-0.3,8.5-0.1
			c5,0.4,6.2,2,5.9,7.3c-1.3,0-2.6,0-3.5,0c-1-1.4-1.7-3.3-2.7-3.5c-2.4-0.4-5-0.3-7.5,0.2c-0.6,0.1-1.1,2.5-1,3.8
			c0.1,0.8,1.3,2,2.2,2.2c2.3,0.6,4.7,0.7,7.1,1c4.8,0.7,6.1,2.1,6.1,7c0,1.1-0.1,2.2-0.2,3.3c-0.3,2.2-1.5,3.9-3.7,4
			c-4.3,0.2-8.6,0.3-12.8-0.1c-3.1-0.3-4-2.7-3.4-7.4C637.4,171.8,638.7,171.8,640,171.8z"/>
		<path d="M534.7,154.2c1.7,0,3.1,0,4.8,0c0,3.9,0,7.8,0,11.6c0,2.5,0,4.9-0.1,7.4c-0.2,4.1-1.6,5.9-5.7,6.3
			c-3.4,0.3-7,0.2-10.4-0.1c-2.9-0.2-4.6-2-4.7-4.9c-0.2-6.7-0.1-13.3-0.1-20.2c1.4,0,2.8,0,4.5,0c0,0.7,0.1,1.5,0.1,2.2
			c0,5.2,0,10.3,0.1,15.5c0.1,2.9,1.1,3.8,4,4c6.9,0.3,7.5-0.2,7.5-7.1C534.7,164.1,534.7,159.3,534.7,154.2z"/>
		<path d="M500.7,179.4c-1.8,0-3.1,0-4.8,0c0-7.1,0-14.2,0-21.6c-2.6,0-5,0-7.4,0c0-1.4,0-2.4,0-3.6c6.6,0,13,0,19.5,0
			c0,1.2,0,2.3,0,3.5c-2.4,0-4.7,0-7.3,0C500.7,165,500.7,172.1,500.7,179.4z"/>
		<path d="M590.2,179.4c-1.5,0-2.9,0-4.4,0c0-8.4,0-16.7,0-25.1c1.4,0,2.8,0,4.4,0C590.2,162.6,590.2,170.8,590.2,179.4z"/>
	</symbol>

</svg>

